<svg width="1024" height="1024" viewBox="0 0 1024 1024" fill="none" xmlns="http://www.w3.org/2000/svg">
<g clip-path="url(#clip0_286_8)">
<path d="M112 856.941C118.403 850.988 125.032 845.037 131.895 839.104C164.037 811.318 196.285 788.283 227.253 769.129C245.297 768.182 272.163 766.764 304.775 765.012C372.888 761.353 400.864 759.738 417.97 758.838C504.585 754.281 578.068 754.083 610.059 754.036C670.528 753.947 746.142 755.273 833.706 760.21C842.43 766.053 853.332 774.674 863.891 786.965C879.045 804.607 887.055 822.317 891.333 834.302C872.709 839.109 847.181 845.162 816.555 850.766C808.7 852.204 780.244 857.321 721.883 863.801C679.824 868.471 632.734 873.608 569.583 876.15C526.269 877.893 493.336 877.693 470.109 877.522C425.575 877.194 388.731 875.682 345.937 873.406C291.493 870.51 212.431 865.581 112 856.941Z" fill="white"/>
<path d="M115.612 855.634C149.802 822.27 187.975 793.173 229.204 769.044C230.426 768.329 229.319 766.425 228.093 767.143C186.708 791.362 148.373 820.588 114.055 854.077C113.039 855.069 114.597 856.625 115.612 855.634Z" fill="#101E41"/>
<path d="M227.443 770.468C306.223 764.407 385.148 760.254 464.13 758.046C543.111 755.839 622.146 755.565 701.141 757.226C745.378 758.157 789.602 759.7 833.797 761.838C835.214 761.906 835.21 759.704 833.797 759.636C754.877 755.819 675.866 753.914 596.853 753.955C517.841 753.997 438.829 755.972 359.914 759.881C315.721 762.07 271.56 764.872 227.443 768.266C226.039 768.374 226.028 770.577 227.443 770.468Z" fill="#101E41"/>
<path d="M114.002 860.059C164.806 864.135 215.636 867.914 266.515 870.927C317.441 873.943 368.418 876.195 419.426 877.211C470.302 878.224 521.211 878.006 572.063 876.068C622.743 874.137 673.369 870.494 723.752 864.657C773.723 858.867 823.456 850.927 872.653 840.408C878.989 839.054 885.314 837.653 891.632 836.216C893.013 835.902 892.428 833.778 891.046 834.093C841.432 845.379 791.245 854.042 740.766 860.398C690.455 866.733 639.875 870.823 589.225 873.146C538.659 875.465 488.022 876.027 437.411 875.315C386.656 874.601 335.926 872.606 285.246 869.799C234.337 866.979 183.477 863.339 132.648 859.339C126.432 858.85 120.217 858.355 114.002 857.857C112.589 857.743 112.597 859.946 114.002 860.059Z" fill="#101E41"/>
<path d="M834.982 764.041C860.097 780.896 879.51 805.454 890.09 833.792C890.581 835.108 892.711 834.538 892.214 833.207C881.421 804.301 861.716 779.335 836.094 762.139C834.914 761.347 833.81 763.254 834.982 764.041Z" fill="#101E41"/>
<path d="M475.753 480.323C478.192 488.205 480.632 496.088 483.072 503.971C466.179 509.254 451.838 513.885 440.843 517.484C421.126 523.939 388.191 534.923 357.511 550.705C352.125 553.475 342.211 558.758 332.173 568.722C323.048 577.781 318.504 586.06 317.534 587.866C311.242 599.588 309.773 610.172 309.088 615.456C301.66 672.779 301.769 691.468 301.769 691.468C302.003 731.89 302.626 766.885 303.458 797.886C298.179 801.964 290.626 807.289 280.935 812.525C274.661 815.915 268.677 819.148 260.102 822.097C249.672 825.684 243.577 826.041 233.639 831.669C228.362 834.657 225.021 837.422 224.63 841.241C224.338 844.094 225.792 846.547 226.882 847.998C243.539 848.072 256.856 846.839 265.733 845.745C277.138 844.341 283.704 842.86 302.895 839.552C317.988 836.95 330.189 835.063 337.804 833.921C339.54 832.067 342.015 828.891 343.435 824.349C346.504 814.53 342.229 806.032 341.182 804.079C342.638 793.392 345.405 776.067 350.754 755.094C358.969 722.889 366.296 709.438 374.403 679.644C378.165 665.817 383.123 644.69 386.227 617.708C394.18 616.059 405.664 613.605 419.447 610.388C447.791 603.775 469.706 598.661 494.896 590.118C509.396 585.201 529.244 577.702 552.328 566.47C545.384 536.816 538.439 507.162 531.495 477.507C512.914 478.446 494.333 479.384 475.753 480.323Z" fill="white"/>
<path d="M479.109 494.951C479.96 497.893 480.81 500.834 481.661 503.776C482.054 505.134 484.179 504.556 483.784 503.19C482.934 500.249 482.083 497.307 481.233 494.366C480.84 493.007 478.714 493.585 479.109 494.951Z" fill="#101E41"/>
<path d="M481.302 502.169C455.257 510.248 429.551 519.401 404.282 529.655C392.101 534.598 380.02 539.788 368.05 545.225C356.986 550.251 345.591 555.173 335.963 562.72C317.864 576.904 310.822 599.795 306.918 621.557C302.11 648.358 301.017 675.649 300.914 702.826C300.794 734.444 301.395 766.078 302.051 797.687C302.081 799.102 304.283 799.107 304.253 797.687C303.691 770.595 303.278 743.496 303.133 716.398C302.988 689.173 303.331 661.827 307.04 634.812C310.114 612.428 314.737 587.563 330.729 570.465C339.07 561.547 350.097 555.97 361.017 550.872C373.352 545.114 385.823 539.641 398.399 534.431C425.746 523.101 453.616 513.062 481.887 504.293C483.237 503.874 482.661 501.748 481.302 502.169Z" fill="#101E41"/>
<path d="M522.55 580.354C478.506 596.285 433.045 608.079 386.812 615.568C385.416 615.794 386.008 617.917 387.397 617.692C433.631 610.202 479.092 598.408 523.135 582.477C524.458 581.999 523.887 579.87 522.55 580.354Z" fill="#101E41"/>
<path d="M383.464 611.158C385.685 618.127 384.91 625.271 383.774 632.366C382.755 638.735 381.519 645.069 380.121 651.366C377.37 663.757 373.994 675.999 370.366 688.159C363.036 712.73 354.663 736.997 348.22 761.828C344.622 775.694 341.689 789.716 339.81 803.923C339.625 805.323 341.829 805.31 342.012 803.923C348.92 751.68 370.883 703.156 382.244 651.951C383.786 645.004 385.154 638.008 386.208 630.969C387.233 624.122 387.719 617.26 385.588 610.573C385.159 609.228 383.032 609.803 383.464 611.158Z" fill="#101E41"/>
<path d="M302.467 796.21C290.846 805.144 279.056 814.047 265.196 819.214C258.4 821.747 251.383 823.619 244.533 825.993C238.768 827.992 232.346 830.235 227.532 834.098C224.148 836.813 221.494 841.546 223.759 845.845C226.4 850.857 233.035 849.508 237.594 849.042C252.897 847.478 268.168 845.605 283.396 843.434C301.129 840.906 318.799 837.955 336.396 834.615C337.787 834.351 337.198 832.228 335.811 832.491C308.455 837.683 280.922 841.92 253.262 845.13C246.518 845.913 239.734 846.854 232.958 847.295C228.781 847.566 224.009 845.924 225.391 840.632C226.339 837.004 229.995 834.848 233.078 833.207C244.129 827.326 256.611 825.051 268.164 820.416C281.244 815.169 292.491 806.635 303.579 798.112C304.687 797.26 303.591 795.346 302.467 796.21Z" fill="#101E41"/>
<path d="M339.344 804.022C339.377 808.619 342.624 812.414 343.063 817.04C343.309 819.624 343.065 822.283 342.352 824.778C341.733 826.941 339.184 834.03 335.745 832.567C334.456 832.019 333.333 833.915 334.634 834.469C340.176 836.826 343.54 829.02 344.618 824.803C345.386 821.801 345.548 818.662 345.091 815.597C344.502 811.647 341.574 807.941 341.546 804.022C341.535 802.605 339.333 802.602 339.344 804.022Z" fill="#101E41"/>
<path d="M322.995 788.16C327.591 793.831 325.775 801.572 319.412 804.913C318.156 805.572 319.268 807.473 320.523 806.815C328.254 802.755 329.988 793.311 324.552 786.603C323.66 785.502 322.11 787.068 322.995 788.16Z" fill="#101E41"/>
<path d="M303.751 766.508C317.391 760.677 333.671 763.417 344.706 773.301C345.758 774.244 347.321 772.692 346.263 771.744C334.419 761.135 317.242 758.364 302.64 764.607C301.341 765.162 302.461 767.059 303.751 766.508Z" fill="#101E41"/>
<path d="M304.946 756.578C317.923 750.516 333.698 752.525 344.738 761.652C345.822 762.548 347.388 760.999 346.295 760.095C334.432 750.288 317.781 748.161 303.835 754.677C302.552 755.276 303.669 757.175 304.946 756.578Z" fill="#101E41"/>
<path d="M254.768 825.681C265.657 834.826 280.131 836.938 293.889 835.031C301.637 833.958 309.154 831.602 316.307 828.465C320.285 826.72 324.078 824.659 327.816 822.453C332.006 819.98 336.235 817.607 341.261 818.118C342.67 818.261 342.66 816.058 341.261 815.916C334.073 815.185 328.256 819.852 322.275 823.098C314.936 827.081 307.021 830.153 298.851 831.925C284.384 835.064 268.067 833.985 256.325 824.124C255.246 823.218 253.681 824.768 254.768 825.681Z" fill="#101E41"/>
<path d="M572.874 474.045C574.735 483.179 576.596 492.314 578.456 501.448C582.686 504.767 588.153 509.588 593.68 516.164C598.948 522.431 607.206 533.785 612.456 549.656C613.98 554.264 616.295 562.412 617.53 581.118C619.403 609.481 616.075 620.981 616.008 648.102C615.984 657.826 616.372 672.35 618.545 690.221C622.509 689.845 628.308 689.477 635.291 689.713C650.58 690.231 662.052 693.326 673.858 696.817C714.446 708.819 722.848 714.814 743.886 717.623C754.848 719.087 760.33 719.819 767.229 719.653C773.353 719.506 779.83 718.805 790.065 719.653C798.097 720.318 801.287 721.345 803.766 723.713C806.919 726.725 807.665 730.708 808.333 735.891C810.594 753.429 809.855 761.772 809.855 761.772C808.967 771.799 808.2 785.804 808.333 805.413C802.902 810.173 797.919 812.397 794.632 813.532C788.885 815.515 787.756 814.361 764.692 815.054C760.124 815.191 755.554 814.293 750.991 814.547C748.468 814.687 746.268 814.945 744.394 813.532C742.387 812.019 741.2 808.929 741.856 806.427C742.864 802.586 747.983 801.022 755.558 798.816C759.343 797.713 764.866 796.395 771.796 795.771C771.274 790.217 770.766 784.635 770.274 779.025C769.556 770.852 768.88 762.733 768.244 754.667C758.707 753.473 746.087 752.11 731.2 751.115C715.27 750.05 693.062 748.634 665.231 750.1C643.734 751.233 618.545 753.652 618.545 753.652C604.751 754.977 597.132 755.959 585.561 754.667C574.727 753.458 562.985 752.006 553.084 744.011C543.646 736.39 540.079 726.213 537.86 719.145C526.055 681.541 524.38 642.577 523.651 628.311C522.755 610.763 520.98 585.367 517.054 554.223C510.288 552.362 503.522 550.502 496.756 548.641C502.677 522.592 508.597 496.542 514.517 470.493C533.969 471.677 553.422 472.861 572.874 474.045Z" fill="white"/>
<path d="M578.011 501.536C596.528 517.265 609.49 538.996 614.443 562.797C617.376 576.891 616.741 591.169 616.027 605.451C615.292 620.148 615.008 634.86 615.275 649.574C615.582 666.446 616.589 683.297 618.238 700.091C618.375 701.488 620.579 701.503 620.44 700.091C617.423 669.37 616.636 638.468 618.12 607.635C618.806 593.398 619.654 579.151 617.117 565.038C614.993 553.231 610.868 541.776 605.099 531.263C598.574 519.372 589.903 508.758 579.569 499.979C578.494 499.067 576.929 500.617 578.011 501.536Z" fill="#101E41"/>
<path d="M497.7 549.522C504.001 551.024 509.944 553.338 515.597 556.508C516.834 557.202 517.946 555.301 516.708 554.607C510.898 551.348 504.768 548.944 498.286 547.399C496.908 547.07 496.32 549.193 497.7 549.522Z" fill="#101E41"/>
<path d="M516.224 551.611C518.686 581.009 521.148 610.407 523.609 639.806C525.756 665.447 526.411 692.346 535.501 716.719C539.422 727.231 544.949 738.147 553.617 745.549C562.576 753.201 574.193 754.966 585.617 755.065C613.924 755.311 642.287 752.462 670.556 751.289C702.955 749.946 735.572 750.072 767.563 755.968C768.948 756.224 769.542 754.102 768.149 753.845C713.771 743.823 658.508 750.379 603.751 752.436C591.383 752.901 577.894 754.257 565.98 750.13C553.612 745.846 545.988 734.75 540.656 723.369C529.672 699.923 528.608 673.198 526.483 647.824C523.797 615.753 521.112 583.682 518.426 551.611C518.309 550.209 516.106 550.196 516.224 551.611Z" fill="#101E41"/>
<path d="M619.319 691.113C653.52 687.479 685.936 701.15 717.987 710.89C733.703 715.666 749.812 719.707 766.286 720.485C780.93 721.176 804.415 715.366 808.179 735.355C809.077 740.125 808.813 745.046 808.708 749.87C808.582 755.625 808.456 761.38 808.33 767.136C808.078 778.647 807.826 790.157 807.574 801.668C807.543 803.086 809.745 803.085 809.776 801.668C810.017 790.637 810.259 779.606 810.5 768.575C810.714 758.802 811.63 748.752 810.85 738.997C810.296 732.064 807.957 725.282 801.724 721.521C795.623 717.84 787.961 717.92 781.081 718.145C763.012 718.736 745.874 716.419 728.439 711.632C711.108 706.872 694.231 700.62 676.94 695.725C658.205 690.421 638.836 686.837 619.319 688.911C617.924 689.06 617.909 691.263 619.319 691.113Z" fill="#101E41"/>
<path d="M767.281 754.425C767.886 768.636 769.243 782.787 771.327 796.857C771.533 798.253 773.655 797.66 773.45 796.271C771.395 782.397 770.08 768.438 769.483 754.425C769.423 753.013 767.22 753.006 767.281 754.425Z" fill="#101E41"/>
<path d="M772.612 794.786C766.911 795.002 761.292 795.919 755.864 797.701C751.287 799.203 745.666 801.149 742.344 804.808C740.137 807.238 739.236 810.823 741.923 813.28C744.915 816.018 750.564 815.497 754.251 815.739C767.005 816.577 779.887 817.085 792.564 815.077C800.364 813.842 812.585 810.033 809.72 799.553C809.347 798.188 807.222 798.767 807.597 800.138C810.544 810.92 794.418 812.792 787.387 813.559C778.732 814.503 769.999 814.392 761.316 813.956C757.087 813.743 752.825 813.562 748.61 813.15C746.04 812.9 744.274 812.86 743.242 810.299C742.366 808.124 743.038 807.166 744.71 805.57C745.447 804.867 746.38 804.316 747.256 803.802C754.808 799.363 763.94 797.317 772.612 796.988C774.025 796.935 774.032 794.733 772.612 794.786Z" fill="#101E41"/>
<path d="M760.853 800.319C769.607 797.848 776.291 809.031 785.481 805.582C794.117 802.341 797.656 790.699 799.062 782.559C800.89 771.975 799.845 761.166 798.365 750.609C797.675 745.694 797.471 740.077 794.61 735.849C791.352 731.034 784.069 727.292 785.637 720.511C785.956 719.132 783.833 718.543 783.514 719.926C782.553 724.08 784.316 727.691 787.036 730.791C790.719 734.987 794.068 737.832 795.108 743.634C797.007 754.233 798.431 765.344 797.638 776.12C797.253 781.357 796.255 786.569 794.358 791.478C792.311 796.774 788.545 803.697 782.105 804.096C774.177 804.587 768.524 795.866 760.268 798.196C758.906 798.58 759.485 800.706 760.853 800.319Z" fill="#101E41"/>
<path d="M693.697 702.926C701.877 716.922 702.693 734.299 695.761 748.97C695.158 750.244 697.056 751.363 697.662 750.081C704.936 734.686 704.198 716.529 695.598 701.814C694.884 700.592 692.98 701.699 693.697 702.926Z" fill="#101E41"/>
<path d="M567.999 511.875C570.53 522.264 578.156 530.44 582.737 539.925C587.786 550.38 590.748 561.726 592.663 573.14C596.742 597.441 597.422 622.576 597.795 647.167C598.02 661.983 597.817 676.8 597.226 691.606C597.169 693.023 599.371 693.02 599.428 691.606C600.474 665.392 600.267 639.137 598.739 612.946C597.416 590.266 595.996 566.686 587.506 545.351C585.236 539.647 582.435 534.215 579.138 529.038C575.536 523.383 571.732 517.899 570.122 511.29C569.787 509.914 567.663 510.497 567.999 511.875Z" fill="#101E41"/>
<path d="M570.022 512.586C572.345 512.341 574.693 512.127 577.019 512.445C581.432 513.048 583.329 515.641 584.86 519.64C587.175 525.684 589.275 531.82 591.48 537.905C595.884 550.06 600.409 562.17 602.717 574.935C607.26 600.061 604.956 625.736 604.234 651.073C603.83 665.24 603.931 679.428 605.788 693.5C605.97 694.885 608.175 694.903 607.99 693.5C604.413 666.385 607.505 639.111 607.632 611.903C607.693 598.662 607.015 585.363 604.461 572.346C601.777 558.664 596.622 545.65 591.887 532.585C590.498 528.751 589.108 524.918 587.719 521.084C586.764 518.448 585.955 515.481 583.999 513.371C580.473 509.566 574.723 509.888 570.022 510.384C568.627 510.531 568.612 512.735 570.022 512.586Z" fill="#101E41"/>
<path d="M597.406 694.028C600.215 695.175 603.112 695.825 606.135 696.045C607.549 696.149 607.543 693.946 606.135 693.843C603.311 693.637 600.611 692.974 597.992 691.905C596.681 691.369 596.11 693.499 597.406 694.028Z" fill="#101E41"/>
<path d="M683.606 701.947C689.78 715.542 690.773 730.847 686.517 745.146C686.112 746.507 688.236 747.089 688.64 745.732C693.075 730.832 691.931 714.98 685.508 700.836C684.923 699.548 683.024 700.666 683.606 701.947Z" fill="#101E41"/>
<path d="M507.095 329.614C491.876 326.278 476.165 322.479 460.021 318.152C434.448 311.298 410.414 303.821 387.979 296.048C383.427 292.411 376.548 287.057 367.921 280.903C352.227 269.707 345.743 266.561 337.631 260.436C329.256 254.114 318.216 243.914 307.749 227.28C306.982 224.079 305.72 219.498 303.656 214.182C302.522 211.259 298.454 201.179 287.692 186.347C279.989 175.73 280.028 178.076 270.909 165.88C262.028 154.002 257.776 146.14 255.355 147.051C253.497 147.75 254.005 153.13 254.127 154.419C254.889 162.484 260.686 167.444 262.313 168.746C256.819 164.762 252.75 161.121 250.033 158.512C245.916 154.559 243.592 151.716 238.981 149.507C235.452 147.816 232.175 147.259 229.976 147.051C230.522 148.825 231.068 150.599 231.613 152.372C229.656 151.468 227.216 150.609 226.292 151.554C224.811 153.069 228.014 158.415 229.567 160.968C232.997 166.608 239.115 174.794 250.443 183.891C244.878 182.824 241.021 180.899 238.572 179.388C232.869 175.87 230.669 172.047 225.883 172.02C223.761 172.009 220.697 172.741 220.152 174.476C219.213 177.466 226.154 182.137 229.976 184.71C232.309 186.28 235.342 188.09 241.437 190.85C245.177 192.542 250.444 194.762 256.992 196.99C260.538 202.712 262.888 207.581 264.36 210.907C267.328 217.615 267.474 219.752 270.5 224.824C272.205 227.682 274.615 231.646 279.096 235.467C282.936 238.741 286.734 240.579 289.329 241.607C301.827 257.588 315.05 273.852 329.035 290.318C338.498 301.46 347.922 312.237 357.279 322.655C362.399 325.346 369.373 328.911 377.745 332.888C382.047 334.932 400.652 343.703 427.684 353.764C443.603 359.689 463.563 366.478 487.038 373.003C493.723 358.54 500.409 344.077 507.095 329.614Z" fill="white"/>
<path d="M505.879 328.277C466.069 319.797 426.843 308.751 388.457 295.212C387.118 294.74 386.542 296.866 387.871 297.335C426.257 310.874 465.483 321.92 505.294 330.4C506.676 330.694 507.267 328.572 505.879 328.277Z" fill="#101E41"/>
<path d="M390.251 295.299C363.232 273.536 327.912 259.544 310.016 228.184C309.314 226.953 307.411 228.061 308.115 229.295C326.151 260.901 361.48 274.936 388.694 296.856C389.788 297.737 391.356 296.188 390.251 295.299Z" fill="#101E41"/>
<path d="M309.382 227.789C307.108 219.724 304.793 211.566 300.743 204.178C296.561 196.552 290.791 189.808 285.515 182.932C279.789 175.469 274.063 168.006 268.337 160.543C264.436 155.458 260.212 147.403 253.234 146.344C252.555 146.241 251.822 146.622 251.84 147.406C252.092 158.048 257.28 167.713 265.955 173.86C267.114 174.681 268.215 172.773 267.067 171.959C259.052 166.28 254.274 157.213 254.042 147.406C253.578 147.76 253.113 148.114 252.648 148.468C256.98 149.124 259.53 152.662 262.031 155.913C264.531 159.163 267.023 162.419 269.519 165.673C274.804 172.562 280.09 179.451 285.376 186.34C290.076 192.466 295.122 198.492 298.841 205.29C302.795 212.516 305.036 220.49 307.259 228.374C307.643 229.736 309.768 229.157 309.382 227.789Z" fill="#101E41"/>
<path d="M292.043 215.056C289.34 212.458 286.628 209.855 283.627 207.598C280.308 205.102 276.284 203.638 273.105 200.983C271.501 199.644 269.612 197.802 268.82 195.849C268.479 195.008 267.828 192.66 268.776 191.994C269.487 191.493 271.507 192.101 272.308 192.269C276.688 193.186 280.666 195.176 284.237 197.833C285.374 198.679 286.473 196.769 285.348 195.932C281.185 192.834 276.093 190.33 270.863 189.776C267.887 189.462 264.689 190.718 265.646 194.208C266.906 198.804 271.084 202.678 275.071 204.953C280.855 208.253 285.682 211.994 290.486 216.613C291.508 217.595 293.067 216.04 292.043 215.056Z" fill="#101E41"/>
<path d="M259.753 200.538C257.25 196.105 252.811 194.057 248.158 192.502C241.887 190.406 235.92 188.402 230.528 184.427C227.857 182.458 225.379 180.159 223.236 177.624C222.238 176.442 221.023 175.722 221.881 174.089C222.682 172.564 223.263 172.948 224.904 173.403C226.692 173.898 228.342 174.806 229.92 175.762C236.047 179.472 241.727 182.943 248.674 184.966C250.038 185.362 250.62 183.238 249.26 182.842C244.622 181.492 240.206 179.62 236.082 177.095C232.825 175.1 229.729 172.61 226.042 171.438C224.14 170.833 221.069 170.032 219.515 171.729C217.767 173.639 219.303 176.174 220.594 177.855C225.143 183.775 231.485 188.473 238.311 191.431C244.859 194.269 254.004 194.836 257.851 201.649C258.548 202.883 260.451 201.775 259.753 200.538Z" fill="#101E41"/>
<path d="M252.56 183.679C247.054 179.434 241.902 174.756 237.189 169.643C232.419 164.468 226.345 158.313 226.96 150.732C226.691 151.086 226.421 151.44 226.152 151.794C226.883 151.889 227.614 151.983 228.344 152.078C229.613 152.696 230.731 150.798 229.456 150.176C228.054 149.493 227.133 149.361 225.566 149.671C225.067 149.769 224.795 150.272 224.758 150.732C224.157 158.146 229.307 164.08 233.917 169.299C239.217 175.3 245.112 180.695 251.448 185.58C252.57 186.445 253.667 184.533 252.56 183.679Z" fill="#101E41"/>
<path d="M258.013 177.594C245.335 170.86 235.422 160.146 229.652 147.004C229.433 147.543 229.214 148.082 228.994 148.621C234.455 146.861 239.645 151.212 243.78 154.276C248.119 157.492 252.205 161.013 256.097 164.754C257.119 165.736 258.679 164.181 257.654 163.197C252.992 158.716 248.036 154.567 242.758 150.83C238.527 147.834 233.747 144.777 228.409 146.498C227.674 146.734 227.46 147.451 227.751 148.115C233.657 161.568 243.929 172.605 256.902 179.496C258.153 180.16 259.267 178.26 258.013 177.594Z" fill="#101E41"/>
<path d="M256.954 200.387C265.975 215.864 271.099 236.519 289.624 243.441C290.953 243.938 291.527 241.81 290.21 241.318C272.464 234.687 267.479 214.071 258.856 199.275C258.143 198.051 256.239 199.159 256.954 200.387Z" fill="#101E41"/>
<path d="M288.537 242.612C301.263 258.098 313.989 273.584 326.716 289.07C337.808 302.568 348.363 317.55 362.927 327.565C364.097 328.37 365.2 326.462 364.038 325.663C349.288 315.52 338.586 300.062 327.353 286.394C314.933 271.281 302.514 256.168 290.094 241.055C289.194 239.96 287.644 241.525 288.537 242.612Z" fill="#101E41"/>
<path d="M363.216 327.708C401.785 345.581 441.682 360.47 482.538 372.211C483.902 372.603 484.485 370.479 483.123 370.088C442.45 358.4 402.724 343.6 364.328 325.806C363.05 325.214 361.93 327.112 363.216 327.708Z" fill="#101E41"/>
<path d="M503.82 331.251C501.652 333.633 499.178 336.752 496.861 340.666C494.191 345.177 492.529 349.396 491.471 352.776C487.629 355.068 482.152 358.875 476.804 364.816C473.526 368.459 466.948 375.933 463.706 387.739C460.973 397.688 461.953 405.822 462.477 409.843C464.363 424.29 471.023 434.703 475.167 440.134C474.569 444.877 474.213 450.235 474.348 456.098C474.638 468.661 477.087 479.25 479.669 487.207C491.234 482.949 500.968 481.344 507.504 480.658C525.037 478.816 539.228 481.517 556.215 484.751C565.995 486.613 573.92 488.637 579.137 490.072C579.956 478.748 580.775 467.423 581.593 456.098C584.024 452.67 587.346 447.796 591.008 441.771C598.259 429.841 602.83 420.002 603.697 418.03C614.123 394.324 600.149 346.075 598.785 341.484C592.363 337.489 584.45 333.477 575.044 330.432C544.274 320.474 516.772 327.108 503.82 331.251Z" fill="white"/>
<path d="M506.878 327.505C497.714 333.787 493.333 345.895 488.29 355.339C487.623 356.589 489.523 357.703 490.192 356.451C492.843 351.484 495.446 346.487 498.157 341.552C500.709 336.906 503.545 332.453 507.989 329.406C509.151 328.61 508.051 326.701 506.878 327.505Z" fill="#101E41"/>
<path d="M488.506 354.669C474.785 363.025 464.768 376.986 461.711 392.818C458.482 409.536 463.258 427.023 473.967 440.147C474.864 441.246 476.413 439.68 475.524 438.59C465.106 425.822 460.592 408.519 464.052 392.329C467.227 377.47 476.676 364.451 489.617 356.57C490.825 355.834 489.72 353.929 488.506 354.669Z" fill="#101E41"/>
<path d="M473.899 439.503C473.065 458.242 474.961 476.947 479.52 495.141C479.864 496.515 481.988 495.933 481.643 494.556C477.13 476.543 475.275 458.052 476.101 439.503C476.164 438.086 473.962 438.089 473.899 439.503Z" fill="#101E41"/>
<path d="M508.687 330.084C538.805 322.355 571.212 326.513 598.401 341.601C599.641 342.289 600.753 340.388 599.512 339.699C571.809 324.326 538.79 320.085 508.102 327.961C506.73 328.313 507.311 330.437 508.687 330.084Z" fill="#101E41"/>
<path d="M598.608 340.453C606.675 360.706 611.125 382.888 606.822 404.565C604.803 414.739 600.882 424.269 595.144 432.905C589.927 440.755 583.968 448.094 580.832 457.103C580.365 458.444 582.491 459.021 582.955 457.689C586.431 447.702 593.574 439.834 599.018 430.94C604.309 422.297 607.731 412.6 609.408 402.622C612.991 381.308 608.641 359.724 600.731 339.868C600.213 338.567 598.083 339.135 598.608 340.453Z" fill="#101E41"/>
<path d="M580.951 456.973C579.891 471.642 578.988 486.321 578.243 501.009C578.223 501.397 578.468 501.764 578.788 501.96C578.842 501.993 578.895 502.025 578.949 502.058C579.357 502.308 579.951 502.232 580.283 501.886C580.337 501.83 580.391 501.773 580.446 501.717C580.866 501.28 580.863 500.599 580.446 500.16C580.329 500.037 580.212 499.914 580.095 499.791C579.118 498.761 577.562 500.32 578.538 501.348C578.655 501.471 578.772 501.594 578.889 501.717C578.889 501.198 578.889 500.679 578.889 500.16C578.834 500.216 578.78 500.273 578.726 500.329C579.171 500.272 579.615 500.214 580.06 500.157C580.491 500.42 580.72 495.678 580.739 495.324C580.84 493.429 580.944 491.534 581.05 489.639C581.249 486.087 581.458 482.535 581.677 478.984C582.128 471.644 582.623 464.308 583.153 456.973C583.255 455.56 581.052 455.566 580.951 456.973Z" fill="#101E41"/>
<path d="M476.801 466.438C509.226 445.788 549.046 455.968 580.85 472.316C582.108 472.963 583.223 471.063 581.961 470.414C549.464 453.71 508.795 443.453 475.69 464.537C474.498 465.296 475.601 467.202 476.801 466.438Z" fill="#101E41"/>
<path d="M523.199 400.567C518.992 410.462 522.401 421.695 528.685 429.962C535.034 438.316 545.088 442.919 555.554 442.336C556.963 442.258 556.972 440.055 555.554 440.134C546.017 440.665 536.842 436.697 530.877 429.196C524.914 421.699 521.181 410.898 525.1 401.678C525.648 400.389 523.752 399.265 523.199 400.567Z" fill="#101E41"/>
<path d="M518.845 326.69C512.698 335.493 508.064 345.273 505.319 355.663C502.881 364.889 501.862 374.317 510.099 380.903C517.671 386.959 528.808 386.895 537.477 383.458C547.058 379.66 554.032 371.322 560.25 363.423C567.486 354.23 573.35 343.967 575.768 332.428C576.058 331.046 573.936 330.455 573.645 331.843C571.132 343.835 564.828 354.402 557.141 363.801C549.449 373.204 540.793 382.381 527.956 383.474C521.769 384.001 515.113 382.655 510.463 378.309C505.187 373.378 505.022 367.186 506.428 360.501C508.906 348.726 513.867 337.653 520.746 327.802C521.559 326.637 519.651 325.536 518.845 326.69Z" fill="#101E41"/>
<path d="M479.903 488.127C511.986 476.283 546.985 481.547 578.694 491.943C580.044 492.385 580.622 490.26 579.28 489.819C547.235 479.313 511.736 474.036 479.318 486.004C478 486.49 478.569 488.619 479.903 488.127Z" fill="#101E41"/>
<path d="M492.265 353.9C496.7 352.637 501.178 352.157 505.779 352.435C507.194 352.52 507.189 350.318 505.779 350.233C500.983 349.943 496.299 350.461 491.679 351.776C490.319 352.164 490.897 354.289 492.265 353.9Z" fill="#101E41"/>
<path d="M497.622 343.383C501.465 342.368 505.286 342.306 509.156 343.214C510.534 343.537 511.123 341.415 509.741 341.091C505.497 340.095 501.253 340.146 497.037 341.26C495.668 341.622 496.249 343.746 497.622 343.383Z" fill="#101E41"/>
<path d="M592.092 338.23C579.039 350.5 573.255 369.939 574.521 387.555C575.116 395.835 577.735 404.392 584.065 410.107C589.723 415.215 597.536 417.727 604.94 415.343C606.283 414.911 605.709 412.784 604.355 413.22C596.834 415.641 588.905 412.457 583.792 406.704C578.037 400.228 576.472 391.08 576.598 382.685C576.832 366.999 582.016 350.723 593.649 339.787C594.684 338.814 593.125 337.259 592.092 338.23Z" fill="#101E41"/>
<path d="M572.335 344.263C577.101 343.656 581.698 344.175 586.206 345.844C587.537 346.337 588.111 344.209 586.791 343.721C582.111 341.988 577.289 341.43 572.335 342.061C570.948 342.238 570.931 344.442 572.335 344.263Z" fill="#101E41"/>
<path d="M567.655 353.712C571.571 354.103 575.351 355.081 578.961 356.649C580.248 357.208 581.37 355.312 580.072 354.748C576.084 353.015 571.983 351.942 567.655 351.51C566.246 351.369 566.256 353.572 567.655 353.712Z" fill="#101E41"/>
<path d="M478.117 367.303C486.432 364.461 495.097 363.678 503.778 365.086C505.164 365.311 505.761 363.19 504.364 362.963C495.284 361.49 486.241 362.203 477.531 365.179C476.198 365.635 476.77 367.763 478.117 367.303Z" fill="#101E41"/>
<path d="M557.572 366.033C563.702 366.024 569.756 366.56 575.787 367.673C577.172 367.929 577.766 365.807 576.372 365.55C570.149 364.401 563.902 363.821 557.572 363.831C556.155 363.834 556.153 366.036 557.572 366.033Z" fill="#101E41"/>
<path d="M465.017 389.252C474.309 386.367 483.981 385.89 493.629 386.74C502.906 387.559 511.894 389.934 521.108 391.121C529.789 392.24 537.89 390.94 546.278 388.723C555.245 386.354 564.304 383.488 573.681 384.866C575.067 385.07 575.665 382.948 574.266 382.743C565.739 381.49 557.549 383.409 549.344 385.617C539.716 388.206 530.59 390.215 520.573 388.839C511.102 387.537 501.856 385.16 492.295 384.428C482.893 383.709 473.465 384.324 464.431 387.129C463.082 387.548 463.658 389.674 465.017 389.252Z" fill="#101E41"/>
<path d="M462.33 409.38C472.1 406.443 482.278 405.243 492.461 406.031C497.708 406.437 502.85 407.402 507.924 408.777C512.382 409.985 516.882 411.412 521.561 410.986C526.006 410.582 530.272 408.919 534.608 407.946C539.808 406.778 545.096 406.041 550.416 405.735C560.962 405.127 571.481 406.24 581.698 408.904C583.07 409.262 583.656 407.138 582.283 406.78C572.548 404.242 562.51 403.058 552.448 403.434C547.381 403.623 542.325 404.197 537.343 405.134C532.221 406.098 527.215 408.096 522.049 408.706C516.496 409.361 511.26 407.291 505.958 405.982C501.315 404.836 496.563 404.11 491.793 403.783C481.641 403.088 471.479 404.33 461.745 407.257C460.391 407.664 460.968 409.79 462.33 409.38Z" fill="#101E41"/>
<path d="M469.719 432.257C488.335 425.073 508.724 424.227 527.861 429.891C529.223 430.294 529.805 428.169 528.447 427.767C508.971 422.003 488.085 422.82 469.133 430.134C467.825 430.639 468.394 432.769 469.719 432.257Z" fill="#101E41"/>
<path d="M528.886 429.806C547.971 437.434 569.99 431.809 588.429 441.475C589.682 442.132 590.797 440.233 589.54 439.574C570.864 429.784 548.748 435.387 529.471 427.683C528.156 427.157 527.584 429.286 528.886 429.806Z" fill="#101E41"/>
<path d="M475.544 450.986C491.187 442.97 509.137 442.902 526.221 444.839C545.046 446.974 563.68 451.024 581.826 456.431C583.187 456.836 583.769 454.712 582.412 454.308C563.678 448.725 544.418 444.589 524.969 442.499C507.858 440.66 490.051 441.081 474.433 449.085C473.171 449.732 474.284 451.632 475.544 450.986Z" fill="#101E41"/>
<path d="M594.609 338.354C591.628 341.046 580.931 351.35 578.546 368.644C576.299 384.944 582.855 397.158 584.971 400.769C590.326 399.392 595.68 398.015 601.034 396.639C612.06 399.878 620.952 402.627 626.734 404.44C661.861 415.457 672.679 420.303 691.443 421.88C701.322 422.71 709.413 422.299 714.39 421.88C718.477 422.826 724.307 424.049 731.37 425.092C734.899 425.614 745.128 427.035 760.283 427.387C787.509 428.019 818.964 424.928 826.369 424.174C828.413 424.243 831.432 424.372 835.089 424.633C842.381 425.154 843.456 425.577 846.103 425.551C853.74 425.478 859.591 421.824 861.707 420.503C866.783 417.333 867.736 414.709 874.557 406.276C875.782 404.761 883.431 395.356 891.537 387.919C895.468 384.313 901.63 379.219 910.353 374.151C909.793 372.962 909.232 371.773 908.671 370.584C907.015 370.386 903.676 370.213 899.879 371.683C896.575 372.962 894.408 374.909 893.284 376.079C895.826 372.839 898.344 370.787 900.245 369.485C903.369 367.345 905.666 366.659 906.84 363.989C906.994 363.639 908.199 360.795 906.84 358.86C906.405 358.242 905.497 357.416 901.711 357.028C896.926 356.539 893.215 357.329 892.918 357.395C887.11 358.681 882.622 361.433 879.729 363.623C884.561 359.395 889.393 355.166 894.225 350.938C894.289 350.444 894.648 347.363 892.874 346.077C891.457 345.049 889.395 345.687 887.743 346.347C878.887 349.882 872.08 357.419 872.08 357.419C861.819 368.78 858.037 373.353 858.037 373.353C848.503 384.877 846.967 387.218 842.103 392.257C837.56 396.963 833.509 400.506 830.761 402.789C817.052 404.388 805.955 403.85 798.354 403.059C787.972 401.978 778.47 399.548 759.465 394.687C744.081 390.753 736.389 388.785 733.54 387.666C726.493 384.898 721.236 382.051 713.285 381.994C707.458 381.953 702.671 383.427 699.512 384.695C676.537 378.277 660.007 370.49 649.011 364.441C642.619 360.924 635.445 356.535 623.355 350.668C611.431 344.881 601.33 340.861 594.609 338.354Z" fill="white"/>
<path d="M594.236 339.111C630.296 352.716 662.405 375.642 699.961 385.451C701.334 385.81 701.919 383.686 700.547 383.328C663.004 373.522 630.877 350.591 594.821 336.988C593.494 336.487 592.92 338.615 594.236 339.111Z" fill="#101E41"/>
<path d="M585.671 402.601C590.032 400.834 594.476 399.339 599.018 398.11C600.385 397.741 599.805 395.616 598.433 395.987C593.89 397.215 589.447 398.71 585.086 400.478C583.789 401.003 584.356 403.134 585.671 402.601Z" fill="#101E41"/>
<path d="M598.333 397.47C636.063 406.977 672.713 425.475 712.518 423.121C713.926 423.038 713.936 420.835 712.518 420.919C672.925 423.26 636.449 404.804 598.919 395.347C597.544 395.001 596.958 397.124 598.333 397.47Z" fill="#101E41"/>
<path d="M699.45 385.538C721.378 379.83 742.84 391.728 763.484 397.43C784.8 403.317 807.032 405.469 829.086 403.973C830.492 403.878 830.503 401.675 829.086 401.771C805.826 403.349 782.411 400.851 760.066 394.154C740.296 388.229 719.942 377.928 698.865 383.415C697.495 383.772 698.076 385.896 699.45 385.538Z" fill="#101E41"/>
<path d="M711.648 422.754C750.163 430.024 789.617 430.889 828.417 425.341C829.814 425.141 829.219 423.019 827.831 423.217C789.45 428.706 750.33 427.822 712.233 420.631C710.848 420.369 710.255 422.491 711.648 422.754Z" fill="#101E41"/>
<path d="M827.742 425.277C835.181 427.918 842.649 424.965 848.611 420.347C855.953 414.66 862.588 407.756 869.299 401.349C872.265 398.518 878.476 391.737 874.299 387.391C872.692 385.719 870.74 386.349 868.962 387.341C864.934 389.586 861.196 392.576 857.594 395.441C856.485 396.322 858.053 397.871 859.151 396.998C861.937 394.783 864.798 392.679 867.77 390.721C869.011 389.903 871.788 387.473 873.177 389.917C873.843 391.088 872.674 393.702 872.123 394.692C869.42 399.541 863.97 403.331 859.982 407.068C851.697 414.833 841.147 427.704 828.328 423.154C826.99 422.679 826.414 424.806 827.742 425.277Z" fill="#101E41"/>
<path d="M830.804 403.76C840.306 397.256 847.52 388.356 854.693 379.479C861.603 370.928 868.172 361.489 876.658 354.392C878.857 352.554 881.228 350.88 883.784 349.573C885.008 348.947 886.273 348.392 887.57 347.935C888.272 347.692 888.982 347.476 889.7 347.289C891.056 346.583 891.702 347.227 891.635 349.221C892.791 352.23 892.125 351.761 889.711 353.639C888.757 354.381 887.804 355.127 886.863 355.886C884.662 357.66 882.505 359.489 880.406 361.383C872.265 368.728 865.091 377.102 859.826 386.753C859.147 387.998 861.047 389.11 861.727 387.865C866.712 378.727 873.425 370.784 881.067 363.756C884.788 360.334 888.761 357.272 892.689 354.1C894.918 352.3 897.459 349.206 895.435 346.252C893.466 343.378 889.005 345.069 886.466 346.003C882.449 347.481 878.833 349.773 875.536 352.478C867.707 358.902 861.654 367.379 855.331 375.206C847.578 384.801 839.982 394.816 829.693 401.859C828.531 402.655 829.631 404.564 830.804 403.76Z" fill="#101E41"/>
<path d="M879.968 365.164C884.003 362.08 888.474 359.734 893.395 358.41C895.295 357.899 898.501 356.736 900.44 357.432C904.147 358.762 897.189 363.095 896.117 363.8C888.858 368.571 880.422 372.101 876.38 380.313C875.757 381.58 877.655 382.697 878.282 381.424C881.447 374.992 887.573 371.525 893.506 367.997C896.356 366.303 904.534 362.474 904.342 358.344C904.152 354.239 898.267 355.154 895.701 355.633C889.538 356.784 883.823 359.465 878.857 363.263C877.746 364.112 878.842 366.026 879.968 365.164Z" fill="#101E41"/>
<path d="M903.758 359.663C906.279 361.628 906.544 363.304 904.553 364.69C903.833 365.256 903.076 365.766 902.281 366.218C901.326 366.824 900.339 367.376 899.398 368.007C897.505 369.275 895.698 370.674 893.995 372.186C890.193 375.563 887.014 379.51 884.374 383.847C883.635 385.06 885.538 386.168 886.275 384.958C888.821 380.776 891.887 376.997 895.552 373.743C898.8 370.86 902.951 369.136 906.11 366.247C907.875 364.633 909.307 361.994 908.224 359.587C907.213 357.339 904.714 356.691 902.647 357.762C901.388 358.414 902.5 360.315 903.758 359.663Z" fill="#101E41"/>
<path d="M890.91 378.997C894.066 375.888 897.766 373.443 901.981 372.018C903.063 371.652 904.18 371.338 905.3 371.108C905.923 371.007 906.546 370.906 907.169 370.805C907.625 372.146 908.081 373.486 908.537 374.827C908.104 376.09 903.808 377.7 902.59 378.435C895.596 382.653 889.132 387.78 883.429 393.626C872.497 404.832 862.599 428.018 843.648 424.982C842.261 424.76 841.665 426.882 843.062 427.106C853.465 428.772 862.394 422.638 868.883 415.059C876.532 406.126 882.71 396.5 891.81 388.838C896.517 384.874 901.605 381.534 906.931 378.475C909.577 376.955 913.363 374.223 911.505 370.635C909.673 367.096 904.155 368.959 901.395 369.894C896.813 371.447 892.789 374.055 889.352 377.44C888.341 378.436 889.899 379.993 890.91 378.997Z" fill="#101E41"/>
<path d="M555.898 208.723C558.032 198.645 549.268 185.796 551.087 184.668C553.49 183.176 572.794 203.135 568.527 210.226C566.415 213.737 558.184 214.665 556.199 212.031C555.376 210.939 555.754 209.405 555.898 208.723Z" fill="white"/>
<path d="M517.109 205.415C505.157 211.976 499.039 223.17 495.76 229.17C487.709 243.9 487.215 257.75 487.04 264.952C486.915 270.087 486.785 278.378 490.047 288.406C491.729 293.577 493.743 299.557 499.068 305.545C506.7 314.13 515.827 316.762 517.71 317.272C522.786 318.646 527.176 318.669 530.039 318.475C530.73 322.462 531.527 326.575 532.444 330.803C533.115 333.895 533.819 336.902 534.549 339.824C535.414 340.134 541.67 342.258 547.779 338.621C552.806 335.629 554.363 330.745 554.695 329.6C553.693 322.885 552.691 316.169 551.688 309.454C555.869 305.292 561.552 299.002 567.024 290.511C575.834 276.839 597.884 242.623 582.058 218.646C569.426 199.508 537.502 194.221 517.109 205.415Z" fill="white"/>
<path d="M546.276 193.688C548.481 193.989 550.686 194.29 552.891 194.591C552.961 194.45 554.532 191.412 557.401 191.283C560.303 191.153 562.218 194.101 562.814 196.094C563.614 198.77 562.655 201.789 560.408 203.912C559.466 234.907 558.068 258.146 556.199 277.28C555.452 284.928 554.109 297.249 561.01 309.153C565.93 317.641 573.128 322.618 578.149 325.391C576.445 320.379 574.741 315.368 573.037 310.356C576.746 314.365 580.454 318.375 584.163 322.384C586.373 322.981 589.595 323.627 593.484 323.587C600.321 323.516 606.044 321.357 613.931 316.971C620.756 313.177 630.136 307.196 640.392 298.028C635.18 292.215 629.968 286.401 624.756 280.588C627.314 281.56 631.754 282.878 637.385 282.693C643.112 282.504 647.518 280.844 650.014 279.686C650.278 276.738 650.342 273.401 650.014 269.763C649.011 258.647 644.829 250.08 641.595 244.806C634.999 243.797 623.847 241.068 613.931 232.477C608.769 228.005 605.973 223.703 601.904 217.443C596.491 209.116 594.913 204.516 584.764 182.864C578.149 168.75 574.748 162.017 567.926 160.312C564.219 159.386 561.033 160.327 560.108 160.613C551.068 163.404 547.89 174.119 546.877 177.451C544.856 184.105 545.503 190.027 546.276 193.688Z" fill="#101E41"/>
<path d="M524.326 209.926C520.734 211.102 515.398 213.288 509.892 217.443C500.314 224.673 496.019 233.491 493.655 238.491C489.498 247.286 488.073 255.529 487.641 261.644C485.29 259.388 481.582 255.23 479.222 249.015C475.019 237.95 478.024 228.094 479.222 224.359C482.692 213.543 489.707 207.378 493.054 204.513C496.603 201.475 501.743 197.075 509.892 195.493C516.737 194.164 522.458 195.454 525.528 196.395C527.343 195.255 530.313 193.725 534.248 193.087C540.947 192.001 546.26 194.179 548.381 195.192C551.718 195.902 558.354 197.801 564.618 203.311C571.317 209.202 573.858 215.939 574.841 218.646C576.717 223.808 576.943 227.873 577.247 234.282C577.492 239.461 577.43 246.686 576.044 255.33C574.607 254.9 572.148 254.368 569.128 254.729C565.316 255.184 562.609 256.822 561.31 257.735C557.696 256.83 552.245 254.964 546.877 250.82C545.437 249.707 540.752 245.921 534.549 234.883C531.36 229.208 527.338 220.848 524.326 209.926Z" fill="#101E41"/>
<path d="M518.744 243.924C516.129 255.792 513.514 267.66 510.899 279.528C513.615 279.227 516.33 278.925 519.046 278.623C518.945 267.057 518.845 255.49 518.744 243.924Z" fill="#101E41"/>
<path d="M497.321 244.527C495.795 241.424 500.29 234.237 504.864 234.872C508.643 235.395 511.544 241.125 509.994 244.225C508.028 248.159 498.929 247.799 497.321 244.527Z" fill="#101E41"/>
<path d="M524.779 243.32C523.253 240.217 527.748 233.031 532.322 233.665C536.1 234.189 539.001 239.918 537.452 243.019C535.485 246.952 526.387 246.592 524.779 243.32Z" fill="#101E41"/>
<path d="M503.942 266.923C505.482 266.923 506.73 263.901 506.73 260.173C506.73 256.445 505.482 253.422 503.942 253.422C502.402 253.422 501.154 256.445 501.154 260.173C501.154 263.901 502.402 266.923 503.942 266.923Z" fill="#101E41"/>
<path d="M536.812 264.868C538.352 264.868 539.6 261.846 539.6 258.118C539.6 254.39 538.352 251.368 536.812 251.368C535.272 251.368 534.024 254.39 534.024 258.118C534.024 261.846 535.272 264.868 536.812 264.868Z" fill="#101E41"/>
<path d="M510.528 215.411C489.585 233.086 480.927 262.175 489.479 288.358C493.411 300.397 500.766 311.374 512.724 316.488C523.262 320.995 535.736 320.731 545.79 315.069C557.158 308.666 564.462 296.357 565.009 283.392C565.069 281.975 562.867 281.978 562.807 283.392C562.33 294.694 556.374 305.438 546.954 311.758C537.712 317.96 525.829 318.994 515.436 315.207C490.396 306.085 484.316 272.296 490.859 249.432C494.496 236.724 502.008 225.473 512.085 216.968C513.17 216.053 511.605 214.502 510.528 215.411Z" fill="#101E41"/>
<path d="M564.039 283.689C573.876 289.485 583.035 276.699 582.404 267.737C582.075 263.057 580.075 258.17 576.192 255.331C571.621 251.989 566.606 253.512 561.839 255.561C560.541 256.119 561.661 258.016 562.95 257.462C567.112 255.674 571.716 254.272 575.529 257.604C578.298 260.024 579.785 263.672 580.138 267.267C580.85 274.531 573.764 286.862 565.15 281.788C563.926 281.067 562.817 282.97 564.039 283.689Z" fill="#101E41"/>
<path d="M530.167 319.433C530.215 324.96 531.157 330.295 533.034 335.498C533.511 336.821 535.64 336.251 535.157 334.913C533.348 329.897 532.415 324.768 532.369 319.433C532.357 318.017 530.155 318.013 530.167 319.433Z" fill="#101E41"/>
<path d="M551.112 309.485C550.914 315.93 551.642 322.227 553.292 328.458C553.654 329.827 555.779 329.247 555.415 327.873C553.816 321.832 553.123 315.728 553.314 309.485C553.358 308.067 551.156 308.069 551.112 309.485Z" fill="#101E41"/>
<path d="M486.595 258.906C475.566 247.071 475.801 229.089 484.244 215.9C492.252 203.392 509.844 190.543 525.24 196.591C526.559 197.109 527.132 194.981 525.825 194.467C509.464 188.04 490.854 201.522 482.343 214.789C473.341 228.82 473.36 247.932 485.038 260.463C486.006 261.502 487.56 259.942 486.595 258.906Z" fill="#101E41"/>
<path d="M524.799 195.704C520.82 208.387 526.605 223.319 532.728 234.417C538.362 244.629 546.849 255.763 559.459 256.533C560.874 256.62 560.869 254.417 559.459 254.331C547.298 253.589 539.238 242 534.03 232.199C528.539 221.865 523.255 207.98 526.922 196.289C527.348 194.934 525.223 194.354 524.799 195.704Z" fill="#101E41"/>
<path d="M527.353 196.114C541.756 190.855 558.222 196.664 567.722 208.353C578.288 221.354 579.441 239.713 574.713 255.245C574.299 256.603 576.424 257.184 576.836 255.83C581.803 239.514 580.383 220.381 569.279 206.796C559.288 194.574 541.865 188.478 526.768 193.991C525.448 194.473 526.018 196.602 527.353 196.114Z" fill="#101E41"/>
<path d="M553.225 194.84C554.566 192.605 557.636 191.52 559.992 192.885C562.35 194.251 562.899 197.484 561.618 199.739C560.917 200.973 562.818 202.084 563.519 200.85C565.393 197.552 564.494 192.964 561.103 190.984C557.713 189.004 553.275 190.476 551.323 193.729C550.593 194.947 552.496 196.056 553.225 194.84Z" fill="#101E41"/>
<path d="M547.757 193.007C542.85 183.492 549.897 170.019 557.075 163.361C559.309 161.289 562.274 159.616 565.418 159.735C568.698 159.859 571.217 162.077 573.223 164.46C576.79 168.697 579.697 173.54 582.317 178.405C592.169 196.694 597.918 218.166 613.597 232.697C621.068 239.622 630.327 244.395 640.586 245.052C642.001 245.143 641.995 242.94 640.586 242.85C614.422 241.174 601.645 214.959 592.249 194.067C587.519 183.552 582.728 172.803 575.466 163.742C572.646 160.224 569.073 157.217 564.299 157.568C559.739 157.902 556.008 160.892 553.239 164.313C546.814 172.251 540.695 184.113 545.856 194.119C546.506 195.378 548.406 194.266 547.757 193.007Z" fill="#101E41"/>
<path d="M557.168 302.744C560.89 313.545 568.373 322.487 578.392 327.991C579.271 328.475 580.196 327.681 580.009 326.748C578.946 321.434 574.048 317.488 573.922 311.984C573.889 310.569 571.687 310.564 571.72 311.984C571.855 317.855 576.772 321.766 577.886 327.333C578.425 326.919 578.964 326.504 579.503 326.09C569.989 320.863 562.831 312.431 559.291 302.159C558.832 300.827 556.704 301.399 557.168 302.744Z" fill="#101E41"/>
<path d="M572.292 312.418C576.015 317.078 580.181 322.058 585.89 324.304C592.27 326.814 599.075 324.193 605.146 321.935C618.351 317.023 630.335 309.341 640.427 299.528C641.445 298.538 639.887 296.982 638.87 297.971C629.646 306.939 618.794 314.138 606.84 318.931C601.068 321.246 593.665 324.57 587.465 322.543C581.679 320.651 577.509 315.442 573.849 310.861C572.965 309.754 571.416 311.321 572.292 312.418Z" fill="#101E41"/>
<path d="M624.181 282.031C629.604 287.025 634.418 292.547 638.601 298.62C639.4 299.779 641.309 298.679 640.503 297.508C636.216 291.284 631.298 285.595 625.738 280.474C624.697 279.515 623.136 281.068 624.181 282.031Z" fill="#101E41"/>
<path d="M624.653 281.426C632.648 284.543 641.304 284.503 649.268 281.304C650.566 280.782 649.999 278.651 648.682 279.18C641.037 282.251 632.917 282.297 625.238 279.302C623.917 278.787 623.345 280.916 624.653 281.426Z" fill="#101E41"/>
<path d="M640.512 245.436C648.67 254.735 651.668 267.501 648.566 279.465C648.21 280.838 650.333 281.423 650.689 280.051C653.996 267.297 650.752 253.777 642.069 243.879C641.133 242.812 639.58 244.375 640.512 245.436Z" fill="#101E41"/>
</g>
<defs>
<clipPath id="clip0_286_8">
<rect width="800" height="731.806" fill="white" transform="translate(112 146)"/>
</clipPath>
</defs>
</svg>
