<svg width="1024" height="1024" viewBox="0 0 1024 1024" fill="none" xmlns="http://www.w3.org/2000/svg">
<path d="M337.259 247.017C339.785 240.157 343.596 230.818 352.176 230.217C361.747 229.547 364.24 240.606 363.654 247.944C362.498 262.41 357.051 277.08 345.227 286.061C335.083 293.765 322.34 297.954 313.875 307.815C310.139 312.168 307.13 317.386 306.367 323.147C305.743 327.861 306.634 334.301 310.824 337.262C315.4 340.496 321.078 337.244 324.623 334.004C330.238 328.87 334.696 322.126 338.218 315.439C338.878 314.187 336.978 313.072 336.317 314.328C332.953 320.715 328.786 327.094 323.488 332.06C320.144 335.194 314.716 338.65 310.89 334.226C308.333 331.27 308.011 326.354 308.65 322.675C311.161 308.206 325.307 300.818 336.762 294.153C347.962 287.637 356.782 279.884 361.485 267.5C363.915 261.102 365.448 254.107 365.902 247.274C366.282 241.56 365.278 235.444 360.958 231.325C356.764 227.325 350.868 227.147 345.987 230.051C340.043 233.587 337.415 240.242 335.135 246.431C334.645 247.763 336.772 248.337 337.259 247.017Z" fill="#CD899E"/>
<path d="M659.271 364.754C658.004 357.896 660.377 350.958 665.02 345.835C669.25 341.167 677.029 336.715 683.569 338.727C689.006 340.4 688.227 348.474 687.401 352.863C686.622 357.001 685.02 360.96 683.012 364.647C679.533 371.038 674.868 376.696 669.785 381.87C659.941 391.889 648.496 400.177 638.697 410.243C634.54 414.513 630.248 419.414 629.47 425.562C628.791 430.929 630.97 436.223 636.004 438.608C648.338 444.451 663.236 433.802 669.086 423.426C669.783 422.19 667.882 421.079 667.185 422.314C663.278 429.244 656.94 434.616 649.256 436.884C641.572 439.153 631.24 437.157 631.545 427.187C631.793 419.109 638.967 412.864 644.417 407.711C649.675 402.74 655.241 398.112 660.681 393.347C671.167 384.164 681.865 373.977 687.268 360.83C689.661 355.007 691.7 346.752 688.95 340.673C686.628 335.539 680.201 335.677 675.5 336.862C663.256 339.947 654.866 352.987 657.148 365.339C657.405 366.731 659.528 366.141 659.271 364.754Z" fill="#CD899E"/>
<path d="M645.318 262.794C652.23 289.892 638.682 316.581 620.528 336C611.465 345.695 601.201 354.195 590.792 362.394C580.288 370.668 569.319 378.576 557.156 384.246C543.99 390.384 529.989 392.722 515.521 392.516C501.232 392.314 487.064 390.188 472.808 389.423C454.044 388.415 425.334 390.033 419.499 412.461C417.367 420.655 418.896 430.819 425.897 436.301C436.884 444.903 451.167 435.77 463.107 435.238C464.518 435.175 464.526 432.973 463.107 433.036C452.009 433.53 438.028 442.29 427.758 434.96C419.794 429.275 419.255 417.088 423.117 408.876C427.94 398.62 439.8 393.929 450.335 392.284C463.219 390.272 476.485 391.738 489.377 392.935C503.023 394.202 516.809 395.604 530.494 394.061C542.928 392.659 554.63 388.494 565.535 382.429C576.329 376.427 586.192 368.906 595.81 361.201C605.659 353.311 615.314 345.085 623.788 335.705C641.619 315.969 654.32 289.173 647.442 262.209C647.092 260.837 644.967 261.418 645.318 262.794Z" fill="#CD899E"/>
<path d="M604.76 442.716C621.13 444.509 628.2 463.36 627.286 477.734C626.216 494.57 616.983 509.955 604.889 521.304C591.791 533.596 575.064 541.137 558.08 546.402C540.275 551.92 521.681 555.933 503.243 558.618C483.652 561.471 463.772 561.711 444.528 556.586C427.916 552.161 412.303 544.803 396.492 538.195C381.207 531.807 365.42 525.96 348.799 524.445C331.395 522.859 313.67 526.521 298.393 535.044C283.794 543.189 270.257 557.38 272.331 575.378C274.031 590.136 289.659 602.011 303.974 594.554C305.231 593.899 304.119 591.998 302.862 592.652C295.428 596.525 286.262 594.216 280.508 588.389C274.026 581.826 273.133 571.563 275.637 563.069C280.799 545.56 299.751 534.862 316.097 529.915C351.612 519.166 384.46 535.814 416.607 549.089C432.006 555.448 447.791 560.86 464.481 562.373C483.712 564.117 503.043 561.369 521.865 557.548C554.621 550.897 591.077 542.352 613.461 515.422C623.827 502.95 631.209 486.411 629.346 469.886C627.825 456.396 619.323 442.11 604.76 440.514C603.354 440.36 603.364 442.563 604.76 442.716Z" fill="#CD899E"/>
<path d="M396.242 643.981C409.318 640.025 412.06 660.168 412.602 668.752C413.216 678.496 411.449 689.049 403.755 695.795C396.255 702.372 385.457 704.017 375.935 705.41C364.015 707.153 351.927 707.777 339.89 707.323C327.846 706.869 315.858 705.311 304.097 702.673C293.701 700.341 283.383 697.168 272.681 696.6C263.745 696.126 254.648 697.56 247.74 703.67C242.689 708.138 239.779 715.055 243.124 721.424C247.205 729.196 257.282 731.17 265.203 731.955C277.352 733.16 289.613 731.47 301.067 727.3C302.388 726.819 301.817 724.691 300.481 725.177C289.614 729.133 278.081 730.82 266.538 729.874C258.063 729.18 243.618 726.526 243.843 715.283C244.054 704.706 257.127 699.465 265.883 698.839C277.766 697.99 289.386 701.483 300.824 704.176C322.762 709.339 345.452 710.931 367.883 708.614C384.574 706.89 406.081 704.456 412.715 686.291C416.058 677.136 415.236 666.745 413.17 657.398C411.362 649.221 405.744 638.806 395.657 641.858C394.304 642.267 394.88 644.393 396.242 643.981Z" fill="#CD899E"/>
<path d="M386.031 725.585C389.147 719.619 393.077 706.105 402.571 709.695C411.759 713.169 398.806 735.353 389.224 726.642C388.178 725.691 386.616 727.243 387.667 728.199C391.763 731.923 397.654 731.104 401.609 727.556C405.621 723.957 409.878 716.539 407.268 711.138C405.09 706.63 399.409 706.333 395.318 708.21C388.94 711.138 387.114 718.761 384.129 724.474C383.474 725.729 385.374 726.843 386.031 725.585Z" fill="#CD899E"/>
</svg>
