<svg width="580" height="526" viewBox="0 0 580 526" fill="none" xmlns="http://www.w3.org/2000/svg">
<path d="M385.204 140.637C325.349 139.36 265.495 138.082 205.64 136.805C205.311 136.798 204.984 136.846 204.67 136.948C200.151 138.417 195.631 139.886 191.111 141.355C188.436 142.224 186.188 139.198 187.792 136.888C190.611 132.83 193.429 128.771 196.247 124.713C196.589 124.221 196.772 123.637 196.772 123.038V91.7414C196.772 90.1167 198.091 88.8009 199.716 88.8057L385.275 89.3467C386.893 89.3514 388.202 90.6643 388.202 92.2823V137.702C388.202 139.348 386.849 140.672 385.204 140.637Z" stroke="#102067" stroke-miterlimit="10"/>
<path d="M216.188 110.802C216.476 110.802 216.662 111.252 216.746 112.152L216.818 113.124C216.818 113.856 216.686 115.764 216.422 118.848H216.53V118.902L216.602 118.848H216.746L218.852 119.01H218.996L219.896 118.74H220.022C220.214 118.86 220.346 119.028 220.418 119.244C220.418 119.7 219.908 119.982 218.888 120.09L217.052 119.91H216.71L215.846 120.144C215.522 120.024 215.36 119.832 215.36 119.568L215.738 113.394V113.124L215.63 111.324C215.63 111.024 215.816 110.85 216.188 110.802ZM222.64 113.538C223.12 113.55 223.93 114.39 225.07 116.058L225.106 116.364C225.106 116.7 224.284 116.958 222.64 117.138L222.586 117.192V117.264C222.838 118.344 223.102 118.884 223.378 118.884H223.594C223.978 118.884 224.56 118.47 225.34 117.642H225.448C225.688 117.642 225.874 117.816 226.006 118.164C226.006 118.452 225.502 118.95 224.494 119.658C224.23 119.814 223.912 119.928 223.54 120C222.568 120 221.89 119.088 221.506 117.264C220.954 117.18 220.678 116.952 220.678 116.58C220.678 116.316 220.882 116.142 221.29 116.058V116.13L221.47 116.058V115.608C221.47 114.228 221.86 113.538 222.64 113.538ZM222.748 114.834H222.586L222.514 115.5V116.058H222.586C223.258 116.034 223.594 115.962 223.594 115.842C223.282 115.374 223 115.038 222.748 114.834ZM228.821 109.074C229.157 109.146 229.325 109.314 229.325 109.578L229.217 110.37V110.604C229.217 111.132 229.277 111.69 229.397 112.278H229.433C230.825 111.858 231.689 111.648 232.025 111.648C232.373 111.744 232.547 111.918 232.547 112.17C232.547 112.578 232.133 112.782 231.305 112.782L229.433 113.448C229.433 115.068 229.607 117.27 229.955 120.054C229.883 120.378 229.709 120.54 229.433 120.54H229.397C228.977 120.54 228.767 120 228.767 118.92C228.611 118.116 228.479 116.37 228.371 113.682H228.047C226.919 113.61 226.355 113.346 226.355 112.89C226.355 112.758 226.481 112.596 226.733 112.404H226.913L227.741 112.62H228.317L228.155 110.37C228.155 109.506 228.377 109.074 228.821 109.074ZM233.906 109.344C234.278 109.344 234.518 109.794 234.626 110.694V110.802C234.626 111.21 234.434 111.414 234.05 111.414C233.678 111.414 233.492 111.024 233.492 110.244C233.408 110.244 233.354 110.106 233.33 109.83C233.45 109.506 233.642 109.344 233.906 109.344ZM239.298 112.71C239.622 112.71 239.844 113.256 239.964 114.348C239.844 114.648 239.646 114.798 239.37 114.798C239.178 114.762 238.986 114.54 238.794 114.132L238.47 114.024C237.906 114.024 237.396 114.396 236.94 115.14V115.302C236.94 115.482 237.786 115.782 239.478 116.202C240.186 116.622 240.54 117.132 240.54 117.732C240.54 118.716 239.748 119.556 238.164 120.252L237.498 120.36C236.49 120.252 235.986 119.748 235.986 118.848V118.794C235.986 118.506 236.172 118.338 236.544 118.29C236.832 118.29 237.024 118.59 237.12 119.19L237.264 119.298H237.57C238.254 119.298 238.89 118.83 239.478 117.894V117.66C239.478 117.3 238.692 116.964 237.12 116.652C236.292 116.316 235.878 115.848 235.878 115.248C235.878 114.468 236.532 113.736 237.84 113.052C238.416 112.98 238.902 112.866 239.298 112.71ZM250.109 109.074C250.445 109.146 250.613 109.314 250.613 109.578L250.505 110.37V110.604C250.505 111.132 250.565 111.69 250.685 112.278H250.721C252.113 111.858 252.977 111.648 253.313 111.648C253.661 111.744 253.835 111.918 253.835 112.17C253.835 112.578 253.421 112.782 252.593 112.782L250.721 113.448C250.721 115.068 250.895 117.27 251.243 120.054C251.171 120.378 250.997 120.54 250.721 120.54H250.685C250.265 120.54 250.055 120 250.055 118.92C249.899 118.116 249.767 116.37 249.659 113.682H249.335C248.207 113.61 247.643 113.346 247.643 112.89C247.643 112.758 247.769 112.596 248.021 112.404H248.201L249.029 112.62H249.605L249.443 110.37C249.443 109.506 249.665 109.074 250.109 109.074ZM257.749 113.052C258.277 113.052 258.541 113.262 258.541 113.682L258.379 114.024L258.271 117.318C258.271 118.806 258.571 119.73 259.171 120.09L259.207 120.36C259.171 120.708 259.009 120.882 258.721 120.882H258.613C257.713 120.27 257.263 119.334 257.263 118.074H257.137C256.657 119.418 256.075 120.09 255.391 120.09C254.755 119.91 254.437 119.436 254.437 118.668C254.437 116.976 255.115 115.29 256.471 113.61C256.927 113.238 257.353 113.052 257.749 113.052ZM255.571 117.948L255.499 118.452V118.794H255.679C256.579 116.55 257.029 115.182 257.029 114.69H256.957C256.261 115.47 255.799 116.556 255.571 117.948ZM259.783 111.45C260.407 111.45 260.809 112.674 260.989 115.122L261.097 115.68C261.649 114.552 262.099 113.988 262.447 113.988C262.447 113.94 262.573 113.904 262.825 113.88H262.897C263.689 113.88 264.193 114.498 264.409 115.734V115.788C264.409 116.844 263.881 118.008 262.825 119.28C262.381 119.76 261.895 120 261.367 120C260.767 119.868 260.467 119.568 260.467 119.1L259.567 112.638L259.297 111.972C259.297 111.756 259.459 111.582 259.783 111.45ZM261.655 118.758H261.709C262.333 118.506 262.879 117.648 263.347 116.184V115.5C263.239 115.128 263.101 114.942 262.933 114.942H262.789C262.261 115.254 261.883 116.526 261.655 118.758ZM266.343 110.082C266.679 110.202 266.847 110.388 266.847 110.64L267.027 117.498V119.712C267.027 120.12 266.853 120.324 266.505 120.324H266.271C266.055 120.18 265.947 120.012 265.947 119.82V117.732L265.785 110.604C265.785 110.304 265.971 110.13 266.343 110.082ZM269.942 113.538C270.422 113.55 271.232 114.39 272.372 116.058L272.408 116.364C272.408 116.7 271.586 116.958 269.942 117.138L269.888 117.192V117.264C270.14 118.344 270.404 118.884 270.68 118.884H270.896C271.28 118.884 271.862 118.47 272.642 117.642H272.75C272.99 117.642 273.176 117.816 273.308 118.164C273.308 118.452 272.804 118.95 271.796 119.658C271.532 119.814 271.214 119.928 270.842 120C269.87 120 269.192 119.088 268.808 117.264C268.256 117.18 267.98 116.952 267.98 116.58C267.98 116.316 268.184 116.142 268.592 116.058V116.13L268.772 116.058V115.608C268.772 114.228 269.162 113.538 269.942 113.538ZM270.05 114.834H269.888L269.816 115.5V116.058H269.888C270.56 116.034 270.896 115.962 270.896 115.842C270.584 115.374 270.302 115.038 270.05 114.834ZM282.909 109.074C283.245 109.146 283.413 109.314 283.413 109.578L283.305 110.37V110.604C283.305 111.132 283.365 111.69 283.485 112.278H283.521C284.913 111.858 285.777 111.648 286.113 111.648C286.461 111.744 286.635 111.918 286.635 112.17C286.635 112.578 286.221 112.782 285.393 112.782L283.521 113.448C283.521 115.068 283.695 117.27 284.043 120.054C283.971 120.378 283.797 120.54 283.521 120.54H283.485C283.065 120.54 282.855 120 282.855 118.92C282.699 118.116 282.567 116.37 282.459 113.682H282.135C281.007 113.61 280.443 113.346 280.443 112.89C280.443 112.758 280.569 112.596 280.821 112.404H281.001L281.829 112.62H282.405L282.243 110.37C282.243 109.506 282.465 109.074 282.909 109.074ZM287.94 110.064C288.276 110.064 288.444 110.472 288.444 111.288L288.66 114.384H288.732L289.632 114.042C290.64 114.042 291.252 115.074 291.468 117.138C291.552 117.726 291.594 118.59 291.594 119.73V121.188C291.594 121.644 291.426 121.872 291.09 121.872H291.018C290.694 121.824 290.532 121.65 290.532 121.35V119.658C290.532 116.946 290.268 115.446 289.74 115.158H289.632C289.272 115.158 289.008 115.71 288.84 116.814V117.822C288.84 119.622 288.69 120.522 288.39 120.522L288.048 120.558C287.712 120.558 287.544 120.06 287.544 119.064C287.58 118.008 287.652 117.144 287.76 116.472L287.382 110.55C287.382 110.238 287.568 110.076 287.94 110.064ZM292.656 110.622C293.112 110.718 293.34 110.922 293.34 111.234C293.22 111.57 293.028 111.738 292.764 111.738C292.32 111.654 292.098 111.432 292.098 111.072C292.218 110.772 292.404 110.622 292.656 110.622ZM293.34 113.142C293.532 113.142 293.694 113.316 293.826 113.664L293.664 114.942V115.788C293.664 116.772 293.832 118.062 294.168 119.658C294.048 119.886 293.844 120 293.556 120C293.064 120 292.74 118.56 292.584 115.68V115.05C292.584 113.778 292.836 113.142 293.34 113.142ZM298.712 112.71C299.036 112.71 299.258 113.256 299.378 114.348C299.258 114.648 299.06 114.798 298.784 114.798C298.592 114.762 298.4 114.54 298.208 114.132L297.884 114.024C297.32 114.024 296.81 114.396 296.354 115.14V115.302C296.354 115.482 297.2 115.782 298.892 116.202C299.6 116.622 299.954 117.132 299.954 117.732C299.954 118.716 299.162 119.556 297.578 120.252L296.912 120.36C295.904 120.252 295.4 119.748 295.4 118.848V118.794C295.4 118.506 295.586 118.338 295.958 118.29C296.246 118.29 296.438 118.59 296.534 119.19L296.678 119.298H296.984C297.668 119.298 298.304 118.83 298.892 117.894V117.66C298.892 117.3 298.106 116.964 296.534 116.652C295.706 116.316 295.292 115.848 295.292 115.248C295.292 114.468 295.946 113.736 297.254 113.052C297.83 112.98 298.316 112.866 298.712 112.71ZM310.207 111.9C310.771 111.9 311.161 112.5 311.377 113.7V113.772C311.377 114.048 311.191 114.21 310.819 114.258C310.519 114.258 310.315 113.886 310.207 113.142L310.135 113.088H309.919C309.655 113.472 309.523 113.976 309.523 114.6L309.577 115.5C310.057 115.5 310.579 115.374 311.143 115.122C311.371 115.122 311.581 115.284 311.773 115.608C311.773 116.1 311.101 116.424 309.757 116.58L310.207 119.514C310.207 119.766 309.997 119.928 309.577 120C309.205 120 309.019 119.424 309.019 118.272L308.677 116.742L307.507 116.922C307.255 116.922 307.105 116.736 307.057 116.364C307.057 116.004 307.543 115.776 308.515 115.68L308.443 114.564C308.635 112.788 309.223 111.9 310.207 111.9ZM315.13 113.214C316.018 113.214 316.69 113.874 317.146 115.194L317.218 115.572C317.218 116.856 316.618 118.17 315.418 119.514C314.938 119.958 314.452 120.18 313.96 120.18C313.24 120.18 312.73 119.766 312.43 118.938C312.322 118.554 312.268 118.218 312.268 117.93V117.714C312.268 115.818 312.958 114.378 314.338 113.394C314.578 113.274 314.842 113.214 315.13 113.214ZM313.33 117.894C313.33 118.71 313.54 119.118 313.96 119.118C314.836 119.118 315.562 117.996 316.138 115.752V115.41C315.934 114.666 315.556 114.294 315.004 114.294C314.788 114.294 314.68 114.444 314.68 114.744C314.68 114.948 314.44 115.11 313.96 115.23C313.54 115.938 313.33 116.826 313.33 117.894ZM320.392 112.908C321.148 112.908 321.598 113.436 321.742 114.492V114.654C321.742 115.818 321.142 116.886 319.942 117.858C320.638 118.542 321.856 118.884 323.596 118.884C323.86 118.968 323.992 119.154 323.992 119.442C323.992 119.766 323.782 119.928 323.362 119.928C322.186 119.928 320.95 119.628 319.654 119.028V119.55C319.654 120.786 319.39 121.404 318.862 121.404C318.49 121.404 318.304 120.69 318.304 119.262V117.858L318.25 117.354L318.376 116.778L318.25 115.05V114.978C318.25 114.654 318.418 114.432 318.754 114.312C319.222 113.376 319.768 112.908 320.392 112.908ZM319.492 116.85C319.84 116.85 320.23 116.226 320.662 114.978V114.204L320.446 113.97H320.284C319.756 114.33 319.492 115.29 319.492 116.85ZM332.401 110.082C332.737 110.202 332.905 110.388 332.905 110.64L333.085 117.498V119.712C333.085 120.12 332.911 120.324 332.563 120.324H332.329C332.113 120.18 332.005 120.012 332.005 119.82V117.732L331.843 110.604C331.843 110.304 332.029 110.13 332.401 110.082ZM337.747 113.052C338.275 113.052 338.539 113.262 338.539 113.682L338.377 114.024L338.269 117.318C338.269 118.806 338.569 119.73 339.169 120.09L339.205 120.36C339.169 120.708 339.007 120.882 338.719 120.882H338.611C337.711 120.27 337.261 119.334 337.261 118.074H337.135C336.655 119.418 336.073 120.09 335.389 120.09C334.753 119.91 334.435 119.436 334.435 118.668C334.435 116.976 335.113 115.29 336.469 113.61C336.925 113.238 337.351 113.052 337.747 113.052ZM335.569 117.948L335.497 118.452V118.794H335.677C336.577 116.55 337.027 115.182 337.027 114.69H336.955C336.259 115.47 335.797 116.556 335.569 117.948ZM341.761 109.074C342.097 109.146 342.265 109.314 342.265 109.578L342.157 110.37V110.604C342.157 111.132 342.217 111.69 342.337 112.278H342.373C343.765 111.858 344.629 111.648 344.965 111.648C345.313 111.744 345.487 111.918 345.487 112.17C345.487 112.578 345.073 112.782 344.245 112.782L342.373 113.448C342.373 115.068 342.547 117.27 342.895 120.054C342.823 120.378 342.649 120.54 342.373 120.54H342.337C341.917 120.54 341.707 120 341.707 118.92C341.551 118.116 341.419 116.37 341.311 113.682H340.987C339.859 113.61 339.295 113.346 339.295 112.89C339.295 112.758 339.421 112.596 339.673 112.404H339.853L340.681 112.62H341.257L341.095 110.37C341.095 109.506 341.317 109.074 341.761 109.074ZM347.655 113.538C348.135 113.55 348.945 114.39 350.085 116.058L350.121 116.364C350.121 116.7 349.299 116.958 347.655 117.138L347.601 117.192V117.264C347.853 118.344 348.117 118.884 348.393 118.884H348.609C348.993 118.884 349.575 118.47 350.355 117.642H350.463C350.703 117.642 350.889 117.816 351.021 118.164C351.021 118.452 350.517 118.95 349.509 119.658C349.245 119.814 348.927 119.928 348.555 120C347.583 120 346.905 119.088 346.521 117.264C345.969 117.18 345.693 116.952 345.693 116.58C345.693 116.316 345.897 116.142 346.305 116.058V116.13L346.485 116.058V115.608C346.485 114.228 346.875 113.538 347.655 113.538ZM347.763 114.834H347.601L347.529 115.5V116.058H347.601C348.273 116.034 348.609 115.962 348.609 115.842C348.297 115.374 348.015 115.038 347.763 114.834ZM354.089 112.908C354.845 112.908 355.295 113.436 355.439 114.492V114.654C355.439 115.818 354.839 116.886 353.639 117.858C354.335 118.542 355.553 118.884 357.293 118.884C357.557 118.968 357.689 119.154 357.689 119.442C357.689 119.766 357.479 119.928 357.059 119.928C355.883 119.928 354.647 119.628 353.351 119.028V119.55C353.351 120.786 353.087 121.404 352.559 121.404C352.187 121.404 352.001 120.69 352.001 119.262V117.858L351.947 117.354L352.073 116.778L351.947 115.05V114.978C351.947 114.654 352.115 114.432 352.451 114.312C352.919 113.376 353.465 112.908 354.089 112.908ZM353.189 116.85C353.537 116.85 353.927 116.226 354.359 114.978V114.204L354.143 113.97H353.981C353.453 114.33 353.189 115.29 353.189 116.85ZM361.923 107.148C363.015 107.328 363.561 107.868 363.561 108.768C363.561 109.992 362.775 111.48 361.203 113.232C361.407 113.772 361.647 115.236 361.923 117.624C362.043 117.744 362.103 117.894 362.103 118.074H362.157C362.157 118.386 361.929 118.572 361.473 118.632C360.993 118.632 360.657 117.204 360.465 114.348C360.333 113.748 360.147 113.448 359.907 113.448C359.643 113.184 359.511 112.938 359.511 112.71C359.595 112.41 359.787 112.26 360.087 112.26L360.537 112.368C361.833 111.024 362.481 109.788 362.481 108.66C362.409 108.444 362.283 108.294 362.103 108.21H361.887C361.107 108.21 360.369 108.984 359.673 110.532C359.673 111.312 359.523 111.702 359.223 111.702L359.187 111.774H359.115C358.779 111.774 358.611 111.486 358.611 110.91V110.874C358.611 109.806 359.253 108.732 360.537 107.652C360.981 107.316 361.443 107.148 361.923 107.148ZM362.373 120.018C362.901 120.258 363.165 120.582 363.165 120.99C363.045 121.29 362.859 121.44 362.607 121.44C362.043 121.116 361.761 120.816 361.761 120.54C361.761 120.276 361.965 120.102 362.373 120.018Z" fill="black"/>
</svg>
