<svg width="250" height="500" viewBox="0 0 250 500" fill="none" xmlns="http://www.w3.org/2000/svg">
<g clip-path="url(#clip0_225_38)">
<path d="M269.952 209.551C326.679 189.444 383.63 169.459 445.194 169.334L490.566 248.17C412.544 248.463 340.42 268.47 268.949 288.48L267.079 289.003C196.223 308.842 125.971 328.511 50.9853 328.997L96.4942 250.167C156.262 249.852 212.223 230.015 268.356 210.117L269.952 209.551Z" fill="#234271" stroke="black" stroke-width="2"/>
<path d="M49.2493 328.005L3.73732 249.17L49.2493 170.333L94.7613 249.17L49.2493 328.005Z" fill="#F4E9E3" stroke="black" stroke-width="2"/>
<path d="M50.9853 169.341C125.477 169.824 195.299 189.238 265.681 208.944C210.175 228.615 155.155 247.856 96.4914 248.166L50.9853 169.341Z" fill="#DFB0B6" stroke="black" stroke-width="2"/>
<path d="M72.475 242.516C73.064 248.545 71.9539 254.533 70.0396 259.395C67.7515 265.21 64.4281 269.51 60.9212 272.466C56.74 275.959 52.2027 277.748 47.6163 277.71C43.5928 277.672 39.4607 276.224 35.9107 272.625C33.0178 269.686 30.4737 265.168 29.5063 259.189C28.5594 253.391 29.2798 247.294 30.963 242.213C32.9521 236.213 36.0738 231.641 39.4108 228.425C43.4519 224.591 47.8888 222.403 52.4235 222.009C56.5421 221.618 60.8057 222.693 64.5844 225.889C67.6247 228.467 70.4519 232.607 71.8067 238.418C72.1107 239.731 72.3348 241.102 72.475 242.507C72.5248 242.982 73.1818 242.68 73.132 242.18C72.5022 235.924 70.2073 230.889 67.3687 227.53C63.932 223.462 59.793 221.618 55.7537 221.232C51.0486 220.807 46.3484 222.238 41.964 225.431C38.1784 228.232 34.5401 232.422 31.885 238.233C29.717 242.973 28.2105 248.94 28.437 255.267C28.6636 261.595 30.6028 266.974 33.2556 270.706C36.4273 275.17 40.4076 277.387 44.3201 278.168C48.9923 279.047 53.7119 278.056 58.1596 275.262C62.1332 272.789 65.946 268.897 68.8956 263.317C71.2788 258.803 73.1478 252.946 73.2928 246.521C73.3244 245.075 73.2705 243.626 73.132 242.201C73.0866 241.71 72.4274 242.012 72.475 242.516Z" fill="#4A3AFF"/>
<path d="M75.3317 250.032C75.3317 257.237 73.3608 263.745 70.5743 268.582C67.1988 274.46 62.8242 278.096 58.3658 280.103C53.1538 282.416 47.7363 282.653 42.4715 280.796C37.8386 279.171 33.2579 275.854 29.5698 270.333C26.5794 265.823 24.1916 259.617 23.7385 252.37C23.299 245.321 24.8531 238.556 27.3768 233.383C30.3898 227.199 34.5696 223.172 38.8309 220.787C43.9727 217.973 49.3805 217.237 54.689 218.629C59.4464 219.847 64.1835 222.752 68.1412 227.866C71.3536 232.04 74.1197 237.901 75.0236 245.14C75.2249 246.744 75.3283 248.385 75.3317 250.032C75.3317 250.691 76 250.535 76 249.952C75.9887 242.503 73.9611 235.836 71.093 230.822C67.6541 224.814 63.164 221.081 58.6195 219.007C53.2669 216.609 47.6996 216.357 42.2902 218.268C37.5328 219.947 32.8207 223.365 29.0487 229.071C25.9904 233.703 23.5391 240.068 23.077 247.483C22.6239 254.743 24.2097 261.759 26.7991 267.07C29.905 273.44 34.1867 277.609 38.5794 280.086C43.8318 282.964 49.356 283.722 54.7796 282.308C59.6775 281.048 64.5437 278.067 68.6169 272.785C71.9245 268.498 74.754 262.439 75.6851 255.007C75.8912 253.355 75.9961 251.665 75.9977 249.969C75.9977 249.288 75.3317 249.448 75.3317 250.032Z" fill="#4A3AFF"/>
<path d="M75.3317 250.032C75.3317 257.237 73.3608 263.745 70.5743 268.582C67.1988 274.46 62.8242 278.096 58.3658 280.103C53.1538 282.416 47.7363 282.653 42.4715 280.796C37.8386 279.171 33.2579 275.854 29.5698 270.333C26.5794 265.823 24.1916 259.617 23.7385 252.37C23.299 245.321 24.8531 238.556 27.3768 233.383C30.3898 227.199 34.5696 223.172 38.8309 220.787C43.9727 217.973 49.3805 217.237 54.689 218.629C59.4464 219.847 64.1835 222.752 68.1412 227.866C71.3536 232.04 74.1197 237.901 75.0236 245.14C75.2249 246.744 75.3283 248.385 75.3317 250.032ZM75.3317 250.032C75.3317 250.691 76 250.535 76 249.952C75.9887 242.503 73.9611 235.836 71.093 230.822C67.6541 224.814 63.164 221.081 58.6195 219.007C53.2669 216.609 47.6996 216.357 42.2902 218.268C37.5328 219.947 32.8207 223.365 29.0487 229.071C25.9904 233.703 23.5391 240.068 23.077 247.483C22.6239 254.743 24.2097 261.759 26.7991 267.07C29.905 273.44 34.1867 277.609 38.5794 280.086C43.8318 282.964 49.356 283.722 54.7796 282.308C59.6775 281.048 64.5437 278.067 68.6169 272.785C71.9245 268.498 74.754 262.439 75.6851 255.007C75.8912 253.355 75.9961 251.665 75.9977 249.969C75.9977 249.288 75.3317 249.448 75.3317 250.032ZM72.475 242.516C73.064 248.545 71.9539 254.533 70.0396 259.395C67.7515 265.21 64.4281 269.51 60.9212 272.466C56.74 275.959 52.2027 277.748 47.6163 277.71C43.5928 277.672 39.4607 276.224 35.9107 272.625C33.0178 269.686 30.4737 265.168 29.5063 259.189C28.5594 253.391 29.2798 247.294 30.963 242.213C32.9521 236.213 36.0738 231.641 39.4108 228.425C43.4519 224.591 47.8888 222.403 52.4235 222.009C56.5421 221.618 60.8057 222.693 64.5844 225.889C67.6247 228.467 70.4519 232.607 71.8067 238.418C72.1107 239.731 72.3348 241.102 72.475 242.507C72.5248 242.982 73.1818 242.68 73.132 242.18C72.5022 235.924 70.2073 230.889 67.3687 227.53C63.932 223.462 59.793 221.618 55.7537 221.232C51.0486 220.807 46.3484 222.238 41.964 225.431C38.1784 228.232 34.5401 232.422 31.885 238.233C29.717 242.973 28.2105 248.94 28.437 255.267C28.6636 261.595 30.6028 266.974 33.2556 270.706C36.4273 275.17 40.4076 277.387 44.3201 278.168C48.9923 279.047 53.7119 278.056 58.1596 275.262C62.1332 272.789 65.946 268.897 68.8956 263.317C71.2788 258.803 73.1478 252.946 73.2928 246.521C73.3244 245.075 73.2705 243.626 73.132 242.201C73.0866 241.71 72.4274 242.012 72.475 242.516Z" stroke="#CD899E"/>
</g>
<defs>
<clipPath id="clip0_225_38">
<rect width="500" height="250" fill="white" transform="matrix(0 -1 1 0 0 500)"/>
</clipPath>
</defs>
</svg>
