<svg width="65" height="12" viewBox="0 0 65 12" fill="none" xmlns="http://www.w3.org/2000/svg">
<path d="M1.15 1.25C1.35667 0.903333 1.56333 0.73 1.77 0.73C1.98333 0.73 2.13 0.853333 2.21 1.1L2.19 1.23V1.25C3.03667 1.79667 3.46 2.81667 3.46 4.31C3.46 5.80333 3.02333 6.79667 2.15 7.29L1.81 7.35C1.12333 7.35 0.653333 6.95333 0.4 6.16C0.313333 5.80667 0.27 5.46333 0.27 5.13V5C0.27 4.30667 0.436667 3.35 0.77 2.13C0.61 2.13 0.506667 2.01667 0.46 1.79C0.46 1.66333 0.69 1.48333 1.15 1.25ZM0.87 4.94V5.19C0.87 6.23 1.16333 6.75 1.75 6.75H1.77C2.31667 6.75 2.67333 6.09667 2.84 4.79L2.87 4.19C2.82333 2.86333 2.51333 2.07 1.94 1.81L1.75 1.79H1.59C1.43 1.95 1.24 2.51333 1.02 3.48C0.92 4.01333 0.87 4.5 0.87 4.94ZM4.81211 1.25C5.01878 0.903333 5.22544 0.73 5.43211 0.73C5.64544 0.73 5.79211 0.853333 5.87211 1.1L5.85211 1.23V1.25C6.69878 1.79667 7.12211 2.81667 7.12211 4.31C7.12211 5.80333 6.68544 6.79667 5.81211 7.29L5.47211 7.35C4.78544 7.35 4.31544 6.95333 4.06211 6.16C3.97544 5.80667 3.93211 5.46333 3.93211 5.13V5C3.93211 4.30667 4.09878 3.35 4.43211 2.13C4.27211 2.13 4.16878 2.01667 4.12211 1.79C4.12211 1.66333 4.35211 1.48333 4.81211 1.25ZM4.53211 4.94V5.19C4.53211 6.23 4.82544 6.75 5.41211 6.75H5.43211C5.97878 6.75 6.33544 6.09667 6.50211 4.79L6.53211 4.19C6.48544 2.86333 6.17544 2.07 5.60211 1.81L5.41211 1.79H5.25211C5.09211 1.95 4.90211 2.51333 4.68211 3.48C4.58211 4.01333 4.53211 4.5 4.53211 4.94ZM8.32422 6.41C8.46422 6.41 8.54755 6.52333 8.57422 6.75C8.53422 6.98333 8.41755 7.1 8.22422 7.1C8.09089 7.1 7.99755 6.98333 7.94422 6.75C8.02422 6.52333 8.15089 6.41 8.32422 6.41ZM9.50063 2.16C9.54063 1.99333 9.66063 1.91 9.86063 1.91C10.0606 1.91 10.1606 2.33667 10.1606 3.19L10.1906 3.73L10.1006 6.88C10.054 7.08667 9.95063 7.19 9.79063 7.19C9.59729 7.11667 9.50063 7.01333 9.50063 6.88L9.60063 3.79L9.50063 2.16ZM17.8829 0.95C18.0762 1.00333 18.1729 1.1 18.1729 1.24C18.0596 1.56 17.6662 2.39333 16.9929 3.74C16.3262 5.08667 15.8329 6.17 15.5129 6.99L15.3029 7.05C15.1096 7.01667 15.0129 6.92 15.0129 6.76C15.0129 6.54667 15.8662 4.69333 17.5729 1.2C17.6329 1.03333 17.7362 0.95 17.8829 0.95ZM21.4376 0.95C21.6309 1.00333 21.7276 1.1 21.7276 1.24C21.6142 1.56 21.2209 2.39333 20.5476 3.74C19.8809 5.08667 19.3876 6.17 19.0676 6.99L18.8576 7.05C18.6642 7.01667 18.5676 6.92 18.5676 6.76C18.5676 6.54667 19.4209 4.69333 21.1276 1.2C21.1876 1.03333 21.2909 0.95 21.4376 0.95ZM26.4318 3.41C26.6985 3.41667 27.1485 3.88333 27.7818 4.81L27.8018 4.98C27.8018 5.16667 27.3451 5.31 26.4318 5.41L26.4018 5.44V5.48C26.5418 6.08 26.6885 6.38 26.8418 6.38H26.9618C27.1751 6.38 27.4985 6.15 27.9318 5.69H27.9918C28.1251 5.69 28.2285 5.78667 28.3018 5.98C28.3018 6.14 28.0218 6.41667 27.4618 6.81C27.3151 6.89667 27.1385 6.96 26.9318 7C26.3918 7 26.0151 6.49333 25.8018 5.48C25.4951 5.43333 25.3418 5.30667 25.3418 5.1C25.3418 4.95333 25.4551 4.85667 25.6818 4.81V4.85L25.7818 4.81V4.56C25.7818 3.79333 25.9985 3.41 26.4318 3.41ZM26.4918 4.13H26.4018L26.3618 4.5V4.81H26.4018C26.7751 4.79667 26.9618 4.75667 26.9618 4.69C26.7885 4.43 26.6318 4.24333 26.4918 4.13ZM30.5561 3.14C30.8494 3.14 30.9961 3.25667 30.9961 3.49L30.9061 3.68L30.8461 5.51C30.8461 6.33667 31.0128 6.85 31.3461 7.05L31.3661 7.2C31.3461 7.39333 31.2561 7.49 31.0961 7.49H31.0361C30.5361 7.15 30.2861 6.63 30.2861 5.93H30.2161C29.9494 6.67667 29.6261 7.05 29.2461 7.05C28.8928 6.95 28.7161 6.68667 28.7161 6.26C28.7161 5.32 29.0928 4.38333 29.8461 3.45C30.0994 3.24333 30.3361 3.14 30.5561 3.14ZM29.3461 5.86L29.3061 6.14V6.33H29.4061C29.9061 5.08333 30.1561 4.32333 30.1561 4.05H30.1161C29.7294 4.48333 29.4728 5.08667 29.3461 5.86ZM33.616 2.95C33.796 2.95 33.9193 3.25333 33.986 3.86C33.9193 4.02667 33.8093 4.11 33.656 4.11C33.5493 4.09 33.4427 3.96667 33.336 3.74L33.156 3.68C32.8427 3.68 32.5593 3.88667 32.306 4.3V4.39C32.306 4.49 32.776 4.65667 33.716 4.89C34.1093 5.12333 34.306 5.40667 34.306 5.74C34.306 6.28667 33.866 6.75333 32.986 7.14L32.616 7.2C32.056 7.14 31.776 6.86 31.776 6.36V6.33C31.776 6.17 31.8793 6.07667 32.086 6.05C32.246 6.05 32.3527 6.21667 32.406 6.55L32.486 6.61H32.656C33.036 6.61 33.3893 6.35 33.716 5.83V5.7C33.716 5.5 33.2793 5.31333 32.406 5.14C31.946 4.95333 31.716 4.69333 31.716 4.36C31.716 3.92667 32.0793 3.52 32.806 3.14C33.126 3.1 33.396 3.03667 33.616 2.95ZM34.9924 4C35.2258 4 35.3858 4.51333 35.4724 5.54C35.5858 6.01333 35.6691 6.25 35.7224 6.25H35.7824C35.9491 5.83 36.0324 5.41333 36.0324 5L35.9724 4.31C36.0458 4.13 36.1491 4.04 36.2824 4.04C36.5291 4.04 36.6524 4.47667 36.6524 5.35C36.7991 6.25667 36.8724 7.1 36.8724 7.88V8.35C36.8724 9.78333 36.4658 10.75 35.6524 11.25L35.4324 11.29C35.0524 11.29 34.6991 10.9367 34.3724 10.23L34.2824 9.63V9.6C34.2824 9.16 34.4058 8.94 34.6524 8.94L34.9024 9.1L34.8724 9.73C34.8724 10.0367 35.0291 10.3467 35.3424 10.66H35.4724C35.8391 10.66 36.1091 9.96 36.2824 8.56L36.3024 7.98C36.2958 7.30667 36.2691 6.87667 36.2224 6.69C35.9558 6.92333 35.7458 7.04 35.5924 7.04C35.2524 7.04 34.9491 6.13 34.6824 4.31L34.6524 4.29C34.6524 4.13667 34.7658 4.04 34.9924 4ZM41.6584 1.49C41.8451 1.55667 41.9384 1.66 41.9384 1.8L42.0384 5.61V6.84C42.0384 7.06667 41.9418 7.18 41.7484 7.18H41.6184C41.4984 7.1 41.4384 7.00667 41.4384 6.9V5.74L41.3484 1.78C41.3484 1.61333 41.4518 1.51667 41.6584 1.49ZM42.8784 1.79C43.1317 1.84333 43.2584 1.95667 43.2584 2.13C43.1917 2.31667 43.085 2.41 42.9384 2.41C42.6917 2.36333 42.5684 2.24 42.5684 2.04C42.635 1.87333 42.7384 1.79 42.8784 1.79ZM43.2584 3.19C43.365 3.19 43.455 3.28667 43.5284 3.48L43.4384 4.19V4.66C43.4384 5.20667 43.5317 5.92333 43.7184 6.81C43.6517 6.93667 43.5384 7 43.3784 7C43.105 7 42.925 6.2 42.8384 4.6V4.25C42.8384 3.54333 42.9784 3.19 43.2584 3.19ZM46.243 2.95C46.423 2.95 46.5463 3.25333 46.613 3.86C46.5463 4.02667 46.4363 4.11 46.283 4.11C46.1763 4.09 46.0696 3.96667 45.963 3.74L45.783 3.68C45.4696 3.68 45.1863 3.88667 44.933 4.3V4.39C44.933 4.49 45.403 4.65667 46.343 4.89C46.7363 5.12333 46.933 5.40667 46.933 5.74C46.933 6.28667 46.493 6.75333 45.613 7.14L45.243 7.2C44.683 7.14 44.403 6.86 44.403 6.36V6.33C44.403 6.17 44.5063 6.07667 44.713 6.05C44.873 6.05 44.9796 6.21667 45.033 6.55L45.113 6.61H45.283C45.663 6.61 46.0163 6.35 46.343 5.83V5.7C46.343 5.5 45.9063 5.31333 45.033 5.14C44.573 4.95333 44.343 4.69333 44.343 4.36C44.343 3.92667 44.7063 3.52 45.433 3.14C45.753 3.1 46.023 3.03667 46.243 2.95ZM48.4794 0.929999C48.666 0.97 48.7594 1.06333 48.7594 1.21L48.6994 1.65V1.78C48.6994 2.07333 48.7327 2.38333 48.7994 2.71H48.8194C49.5927 2.47667 50.0727 2.36 50.2594 2.36C50.4527 2.41333 50.5494 2.51 50.5494 2.65C50.5494 2.87667 50.3194 2.99 49.8594 2.99L48.8194 3.36C48.8194 4.26 48.916 5.48333 49.1094 7.03C49.0694 7.21 48.9727 7.3 48.8194 7.3H48.7994C48.566 7.3 48.4494 7 48.4494 6.4C48.3627 5.95333 48.2894 4.98333 48.2294 3.49H48.0494C47.4227 3.45 47.1094 3.30333 47.1094 3.05C47.1094 2.97667 47.1794 2.88667 47.3194 2.78H47.4194L47.8794 2.9H48.1994L48.1094 1.65C48.1094 1.17 48.2327 0.929999 48.4794 0.929999ZM51.7541 3.41C52.0207 3.41667 52.4707 3.88333 53.1041 4.81L53.1241 4.98C53.1241 5.16667 52.6674 5.31 51.7541 5.41L51.7241 5.44V5.48C51.8641 6.08 52.0107 6.38 52.1641 6.38H52.2841C52.4974 6.38 52.8207 6.15 53.2541 5.69H53.3141C53.4474 5.69 53.5507 5.78667 53.6241 5.98C53.6241 6.14 53.3441 6.41667 52.7841 6.81C52.6374 6.89667 52.4607 6.96 52.2541 7C51.7141 7 51.3374 6.49333 51.1241 5.48C50.8174 5.43333 50.6641 5.30667 50.6641 5.1C50.6641 4.95333 50.7774 4.85667 51.0041 4.81V4.85L51.1041 4.81V4.56C51.1041 3.79333 51.3207 3.41 51.7541 3.41ZM51.8141 4.13H51.7241L51.6841 4.5V4.81H51.7241C52.0974 4.79667 52.2841 4.75667 52.2841 4.69C52.1107 4.43 51.9541 4.24333 51.8141 4.13ZM55.3084 3.63C55.875 3.67667 56.1584 3.95333 56.1584 4.46L56.1784 4.59L56.1584 6.15C56.1584 6.33 56.2617 6.57333 56.4684 6.88V6.9C56.415 7.09333 56.3184 7.19 56.1784 7.19C55.765 7.01667 55.5584 6.65 55.5584 6.09V5.96L55.5284 5.94L55.5584 5.9V5.88L55.5884 4.5C55.5884 4.30667 55.505 4.21 55.3384 4.21H55.2184C54.885 4.34333 54.7184 5.07333 54.7184 6.4C54.7184 6.86 54.6017 7.09 54.3684 7.09C54.1884 7.09 54.095 6.97667 54.0884 6.75V5.75C54.0884 4.45667 54.2017 3.81 54.4284 3.81L54.5284 3.78L54.7384 3.81C54.9184 3.69 55.1084 3.63 55.3084 3.63ZM56.9018 1.79C57.1551 1.84333 57.2818 1.95667 57.2818 2.13C57.2151 2.31667 57.1085 2.41 56.9618 2.41C56.7151 2.36333 56.5918 2.24 56.5918 2.04C56.6585 1.87333 56.7618 1.79 56.9018 1.79ZM57.2818 3.19C57.3885 3.19 57.4785 3.28667 57.5518 3.48L57.4618 4.19V4.66C57.4618 5.20667 57.5551 5.92333 57.7418 6.81C57.6751 6.93667 57.5618 7 57.4018 7C57.1285 7 56.9485 6.2 56.8618 4.6V4.25C56.8618 3.54333 57.0018 3.19 57.2818 3.19ZM59.5564 3.63C60.1231 3.67667 60.4064 3.95333 60.4064 4.46L60.4264 4.59L60.4064 6.15C60.4064 6.33 60.5097 6.57333 60.7164 6.88V6.9C60.6631 7.09333 60.5664 7.19 60.4264 7.19C60.0131 7.01667 59.8064 6.65 59.8064 6.09V5.96L59.7764 5.94L59.8064 5.9V5.88L59.8364 4.5C59.8364 4.30667 59.7531 4.21 59.5864 4.21H59.4664C59.1331 4.34333 58.9664 5.07333 58.9664 6.4C58.9664 6.86 58.8497 7.09 58.6164 7.09C58.4364 7.09 58.3431 6.97667 58.3364 6.75V5.75C58.3364 4.45667 58.4497 3.81 58.6764 3.81L58.7764 3.78L58.9864 3.81C59.1664 3.69 59.3564 3.63 59.5564 3.63ZM62.6398 3.16C62.9465 3.16 63.0998 3.30667 63.0998 3.6C63.1398 3.6 63.1598 3.65 63.1598 3.75H63.1998L63.1598 4.04L63.1998 6.06L63.1398 7.66C63.7398 7.66 64.1432 8.1 64.3498 8.98C64.3498 9.16 64.2265 9.26333 63.9798 9.29C63.8665 9.29 63.7398 9.04 63.5998 8.54C63.4665 8.34667 63.3132 8.25 63.1398 8.25H63.0998C62.8865 9.67 62.6998 10.38 62.5398 10.38C62.3465 10.7333 62.0665 10.91 61.6998 10.91C61.1598 10.7833 60.8898 10.5133 60.8898 10.1V10.04C60.8898 9.41333 61.3365 8.73333 62.2298 8L62.5398 7.81L62.5798 6.73V6.48H62.5398C62.3132 6.76667 62.0965 6.91 61.8898 6.91H61.8298C61.3698 6.91 61.1065 6.55667 61.0398 5.85V5.63C61.0398 4.77667 61.3532 4.03667 61.9798 3.41C62.1732 3.24333 62.3932 3.16 62.6398 3.16ZM61.6398 5.5V5.98C61.6665 6.2 61.7165 6.31 61.7898 6.31H61.8898C62.0765 6.31 62.3065 5.62333 62.5798 4.25V3.75C62.1798 3.75 61.8665 4.33333 61.6398 5.5ZM61.4798 10.06C61.5065 10.2267 61.5998 10.31 61.7598 10.31C62.0798 10.31 62.3098 9.74 62.4498 8.6H62.3898C61.7832 9.12667 61.4798 9.61333 61.4798 10.06Z" fill="black"/>
</svg>
