<svg width="500" height="730" viewBox="0 0 500 730" fill="none" xmlns="http://www.w3.org/2000/svg">
<path d="M447.825 362.185L420.774 370.333L419.294 336.326C419.294 336.326 372.647 348.171 350.371 393.549C373.235 395.317 407.147 405.727 432.242 422.014C441.32 403.836 446.624 383.473 447.825 362.185Z" fill="#FCAFB7"/>
<path d="M424.438 386.665C423.966 386.908 423.683 387.469 423.65 388.224C423.617 388.979 423.837 389.867 424.262 390.692C424.687 391.517 425.282 392.212 425.916 392.624C426.55 393.036 427.171 393.131 427.643 392.888C428.114 392.645 428.398 392.085 428.431 391.329C428.463 390.574 428.243 389.686 427.818 388.861C427.393 388.036 426.798 387.341 426.164 386.929C425.53 386.517 424.909 386.422 424.438 386.665Z" fill="#292524"/>
<path d="M396.047 368.666C395.576 368.909 395.292 369.47 395.259 370.225C395.226 370.98 395.446 371.868 395.871 372.693C396.296 373.519 396.891 374.214 397.525 374.626C398.159 375.037 398.78 375.132 399.252 374.889C399.724 374.647 400.007 374.086 400.04 373.331C400.073 372.575 399.853 371.687 399.428 370.862C399.003 370.037 398.408 369.342 397.774 368.93C397.14 368.518 396.519 368.423 396.047 368.666Z" fill="#292524"/>
<path d="M414.151 400.767C412.806 403.485 406.219 400.117 407.522 395.216C407.79 394.254 406.282 393.354 405.89 394.334C404.7 397.191 397.569 395.522 400.015 388.975C400.43 387.879 398.705 387.212 398.299 388.303C397.725 389.509 397.563 390.929 397.838 392.339C398.112 393.749 398.808 395.069 399.816 396.09C400.68 396.78 401.667 397.245 402.689 397.444C403.712 397.643 404.738 397.571 405.677 397.233C406.522 403.101 413.846 405.486 415.7 401.873C416.218 400.845 414.666 399.724 414.151 400.767ZM437.298 395.065C442.501 395.903 447.611 397.781 452.359 400.601C453.387 401.215 454.275 399.662 453.231 399.039C448.212 396.04 442.804 394.044 437.297 393.161C436.142 392.979 436.153 394.88 437.298 395.065ZM451.639 408.428C447.29 404.271 442.345 400.941 437.053 398.604C435.959 398.118 435.515 399.916 436.606 400.39C441.606 402.594 446.281 405.731 450.4 409.643C451.283 410.499 452.54 409.288 451.639 408.428ZM445.259 411.881C442.797 408.516 439.857 405.574 436.568 403.185C436.363 403.038 436.121 402.978 435.895 403.019C435.668 403.061 435.475 403.199 435.359 403.405C435.243 403.611 435.212 403.867 435.274 404.116C435.336 404.366 435.486 404.589 435.69 404.736C438.841 407.035 441.658 409.86 444.017 413.089C444.187 413.266 444.406 413.373 444.631 413.389C444.856 413.405 445.069 413.328 445.227 413.174C445.385 413.02 445.477 412.801 445.483 412.561C445.488 412.321 445.409 412.078 445.259 411.881ZM385.031 343.492C387.126 345.231 388.923 347.365 390.32 349.772C391.716 352.178 392.683 354.81 393.167 357.516C393.385 358.748 395.097 358.446 394.877 357.215C394.334 354.256 393.261 351.38 391.72 348.755C390.179 346.129 388.2 343.805 385.898 341.916C384.947 341.142 384.075 342.704 385.031 343.492ZM388.075 361.207C388.136 361.457 388.285 361.681 388.489 361.829C388.693 361.977 388.935 362.037 389.162 361.997C389.388 361.957 389.582 361.819 389.699 361.614C389.816 361.409 389.847 361.153 389.786 360.903C388.031 353.668 381.896 349.1 375.857 346.232C374.775 345.723 374.326 347.51 375.408 348.019C380.833 350.592 386.507 354.686 388.075 361.207ZM385.843 363.072C383.864 359.403 376.129 353.842 367.605 352.875C367.489 352.862 367.373 352.874 367.265 352.91C367.157 352.946 367.059 353.006 366.977 353.085C366.894 353.164 366.829 353.262 366.784 353.373C366.739 353.484 366.716 353.605 366.717 353.73C366.717 353.855 366.74 353.982 366.785 354.102C366.83 354.223 366.895 354.335 366.978 354.433C367.061 354.53 367.159 354.611 367.267 354.671C367.375 354.731 367.491 354.769 367.608 354.781C375.832 355.723 382.789 361.05 384.306 363.863C384.425 364.095 384.62 364.275 384.849 364.365C385.077 364.454 385.32 364.445 385.524 364.341C385.728 364.236 385.876 364.043 385.935 363.805C385.995 363.567 385.962 363.303 385.843 363.072ZM375.958 403.225C376.839 395.351 368.93 386.013 358.829 386.299C345.095 386.694 337.303 396.357 337.531 400.697C337.617 401.302 337.815 401.896 338.114 402.44C338.413 402.985 338.806 403.469 339.269 403.864C339.732 404.259 340.256 404.556 340.808 404.737C341.36 404.918 341.929 404.979 342.48 404.916C343.595 404.83 344.657 404.495 345.602 403.933C345.193 404.84 345.105 405.906 345.351 406.949C345.597 407.991 346.163 408.948 346.953 409.656C348.809 411.124 351.32 409.982 353.103 409.386C354.16 409.039 355.2 408.641 356.212 408.21C353.066 412.353 355.676 416.599 360.015 416.008C362.199 415.438 364.319 414.673 366.352 413.72C371.047 411.64 375.332 408.82 375.958 403.225ZM361.508 413.623C356.608 415.531 355.481 412.305 357.569 409.493C358.51 408.451 359.372 407.329 360.149 406.136C360.237 405.964 360.269 405.76 360.239 405.553C360.209 405.347 360.119 405.15 359.983 404.99C359.847 404.831 359.671 404.717 359.481 404.666C359.292 404.615 359.098 404.629 358.929 404.706C356.413 406.14 353.728 407.252 350.922 408.022C350.15 408.347 349.305 408.481 348.443 408.416C347.167 408.128 346.806 406.256 347.091 405.194C347.765 403.663 348.91 402.463 350.353 401.777C350.543 401.685 350.687 401.516 350.758 401.304C350.829 401.091 350.822 400.85 350.738 400.625C350.654 400.401 350.498 400.209 350.302 400.087C350.105 399.964 349.881 399.92 349.672 399.962C346.548 400.472 343.672 403.877 340.972 402.794C340.578 402.667 340.214 402.427 339.92 402.101C339.627 401.776 339.416 401.377 339.311 400.951C338.953 398.615 344.217 389.468 357.909 388.218C367.574 387.363 374.895 395.638 374.195 402.986C373.462 409.008 366.815 411.557 361.508 413.623ZM435.019 439.776C444.315 431.548 434.762 415.531 421.546 415.906C413.776 416.129 405.042 419.769 401.326 426.822C400.675 427.827 400.303 429.028 400.248 430.304C400.334 430.91 400.532 431.503 400.831 432.047C401.13 432.592 401.523 433.076 401.986 433.471C402.45 433.866 402.973 434.163 403.525 434.344C404.077 434.525 404.646 434.586 405.198 434.523C406.312 434.437 407.375 434.102 408.319 433.54C407.91 434.447 407.821 435.513 408.067 436.556C408.313 437.599 408.88 438.555 409.67 439.263C411.525 440.732 414.037 439.589 415.82 438.993C416.877 438.646 417.918 438.248 418.929 437.817C415.779 441.968 418.409 446.2 422.73 445.616C427.181 444.479 431.338 442.504 435.019 439.776ZM424.228 443.245C419.366 445.155 418.187 441.959 420.289 439.115C421.228 438.071 422.09 436.95 422.869 435.758C422.957 435.586 422.988 435.382 422.959 435.176C422.929 434.969 422.839 434.772 422.703 434.612C422.567 434.453 422.391 434.339 422.201 434.288C422.012 434.237 421.818 434.251 421.649 434.328C419.132 435.762 416.447 436.873 413.642 437.644C412.869 437.967 412.024 438.101 411.162 438.036C409.886 437.748 409.524 435.876 409.811 434.816C410.484 433.285 411.628 432.085 413.07 431.398C413.257 431.304 413.399 431.136 413.469 430.924C413.538 430.713 413.53 430.473 413.447 430.25C413.363 430.027 413.21 429.837 413.015 429.714C412.82 429.592 412.598 429.546 412.39 429.585C409.239 430.109 406.381 433.505 403.69 432.417C403.295 432.294 402.929 432.056 402.633 431.731C402.338 431.407 402.125 431.009 402.019 430.582C401.66 428.246 406.925 419.096 420.616 417.847C430.292 416.986 437.599 425.285 436.901 432.618C436.183 438.641 429.549 441.15 424.237 443.254L424.228 443.245Z" fill="#292524"/>
</svg>
