<svg width="230" height="89" viewBox="0 0 230 89" fill="none" xmlns="http://www.w3.org/2000/svg">
<path d="M126.601 1.47075C117.161 5.98395 109.483 22.4083 104.334 49.0221C100.72 67.7263 82.744 89.5944 76.4658 82.8944C72.7621 78.893 73.3493 76.0548 79.1306 69.6805C87.8026 60.1888 90.603 53.0701 87.351 48.7895C83.828 44.2298 77.7756 44.7416 70.82 50.2319C68.5165 51.9999 62.0576 56.3735 56.4118 59.9096C26.6921 78.6603 13.3228 81.1263 3.56681 69.6805C1.17297 66.8423 0.585806 66.5166 0.0889723 67.8659C-0.543361 69.5409 2.21181 72.5187 7.81247 76.2409C15.0843 81.0798 31.7508 77.5902 47.1526 68.0055C49.9981 66.284 52.4823 64.8416 52.663 64.8416C52.8888 64.8416 56.0956 62.5152 59.7993 59.7235C63.503 56.8853 66.6646 54.6055 66.8453 54.6055C67.0711 54.6055 66.213 57.1645 64.9935 60.2353C53.7921 88.8965 79.4468 97.9694 96.4746 71.3555L101.307 63.8645L101.849 70.7971C103.792 94.6194 121.768 92.8978 138.073 67.3541C148.371 51.209 147.197 51.9534 154.062 57.1645C186.176 81.5451 206.636 90.8972 219.78 87.268C225.425 85.686 232.968 76.9388 228.677 76.9388C227.955 76.9388 227.322 77.4971 227.322 78.1485C227.322 79.8235 222.896 84.0576 219.96 85.1742C209.527 89.2687 186.04 78.9395 159.572 58.6999C147.694 49.627 146.158 49.7666 140.241 60.6541C135.363 69.5874 131.976 74.2402 132.924 70.7506C137.125 54.9312 132.427 42.834 123.258 45.8117C121.723 46.3235 122.31 45.2069 125.833 41.0194C137.576 27.061 144.442 13.1027 142.725 6.82145C140.964 0.633251 133.556 -1.83272 126.601 1.47075ZM139.654 5.2395C143.041 11.7069 136.673 24.9673 121 44.1367C118.787 46.7888 116.8 50.1388 116.574 51.5812C116.032 54.5124 114.406 56.7458 114.406 54.4659C114.406 53.6749 114.677 52.7909 114.948 52.4652C115.264 52.186 115.625 50.3249 115.761 48.3708C116.122 43.811 121.903 25.4791 125.652 16.918C130.711 5.5652 137.079 0.214501 139.654 5.2395ZM125.065 48.2777C128.182 51.4881 122.716 79.5444 118.109 83.8249C112.735 88.8034 110.341 69.4013 115.038 59.0721C119.239 49.8596 122.852 45.9978 125.065 48.2777ZM87.0348 51.4416C87.7575 53.4423 83.8731 61.352 79.221 67.4006C74.8398 73.0305 73.5751 73.4958 74.343 69.2617C76.4658 57.7228 84.9571 45.8583 87.0348 51.4416Z" fill="#1F4172"/>
</svg>
