<svg width="91" height="12" viewBox="0 0 91 12" fill="none" xmlns="http://www.w3.org/2000/svg">
<path d="M1.15 1.25C1.35667 0.903333 1.56333 0.73 1.77 0.73C1.98333 0.73 2.13 0.853333 2.21 1.1L2.19 1.23V1.25C3.03667 1.79667 3.46 2.81667 3.46 4.31C3.46 5.80333 3.02333 6.79667 2.15 7.29L1.81 7.35C1.12333 7.35 0.653333 6.95333 0.4 6.16C0.313333 5.80667 0.27 5.46333 0.27 5.13V5C0.27 4.30667 0.436667 3.35 0.77 2.13C0.61 2.13 0.506667 2.01667 0.46 1.79C0.46 1.66333 0.69 1.48333 1.15 1.25ZM0.87 4.94V5.19C0.87 6.23 1.16333 6.75 1.75 6.75H1.77C2.31667 6.75 2.67333 6.09667 2.84 4.79L2.87 4.19C2.82333 2.86333 2.51333 2.07 1.94 1.81L1.75 1.79H1.59C1.43 1.95 1.24 2.51333 1.02 3.48C0.92 4.01333 0.87 4.5 0.87 4.94ZM4.02211 2.16C4.06211 1.99333 4.18211 1.91 4.38211 1.91C4.58211 1.91 4.68211 2.33667 4.68211 3.19L4.71211 3.73L4.62211 6.88C4.57544 7.08667 4.47211 7.19 4.31211 7.19C4.11878 7.11667 4.02211 7.01333 4.02211 6.88L4.12211 3.79L4.02211 2.16ZM12.4044 0.95C12.5977 1.00333 12.6944 1.1 12.6944 1.24C12.581 1.56 12.1877 2.39333 11.5144 3.74C10.8477 5.08667 10.3544 6.17 10.0344 6.99L9.82438 7.05C9.63104 7.01667 9.53438 6.92 9.53438 6.76C9.53438 6.54667 10.3877 4.69333 12.0944 1.2C12.1544 1.03333 12.2577 0.95 12.4044 0.95ZM15.9591 0.95C16.1524 1.00333 16.2491 1.1 16.2491 1.24C16.1357 1.56 15.7424 2.39333 15.0691 3.74C14.4024 5.08667 13.9091 6.17 13.5891 6.99L13.3791 7.05C13.1857 7.01667 13.0891 6.92 13.0891 6.76C13.0891 6.54667 13.9424 4.69333 15.6491 1.2C15.7091 1.03333 15.8124 0.95 15.9591 0.95ZM20.9533 3.41C21.2199 3.41667 21.6699 3.88333 22.3033 4.81L22.3233 4.98C22.3233 5.16667 21.8666 5.31 20.9533 5.41L20.9233 5.44V5.48C21.0633 6.08 21.2099 6.38 21.3633 6.38H21.4833C21.6966 6.38 22.0199 6.15 22.4533 5.69H22.5133C22.6466 5.69 22.7499 5.78667 22.8233 5.98C22.8233 6.14 22.5433 6.41667 21.9833 6.81C21.8366 6.89667 21.6599 6.96 21.4533 7C20.9133 7 20.5366 6.49333 20.3233 5.48C20.0166 5.43333 19.8633 5.30667 19.8633 5.1C19.8633 4.95333 19.9766 4.85667 20.2033 4.81V4.85L20.3033 4.81V4.56C20.3033 3.79333 20.5199 3.41 20.9533 3.41ZM21.0133 4.13H20.9233L20.8833 4.5V4.81H20.9233C21.2966 4.79667 21.4833 4.75667 21.4833 4.69C21.3099 4.43 21.1533 4.24333 21.0133 4.13ZM24.3876 0.929999C24.5742 0.97 24.6676 1.06333 24.6676 1.21L24.6076 1.65V1.78C24.6076 2.07333 24.6409 2.38333 24.7076 2.71H24.7276C25.5009 2.47667 25.9809 2.36 26.1676 2.36C26.3609 2.41333 26.4576 2.51 26.4576 2.65C26.4576 2.87667 26.2276 2.99 25.7676 2.99L24.7276 3.36C24.7276 4.26 24.8242 5.48333 25.0176 7.03C24.9776 7.21 24.8809 7.3 24.7276 7.3H24.7076C24.4742 7.3 24.3576 7 24.3576 6.4C24.2709 5.95333 24.1976 4.98333 24.1376 3.49H23.9576C23.3309 3.45 23.0176 3.30333 23.0176 3.05C23.0176 2.97667 23.0876 2.88667 23.2276 2.78H23.3276L23.7876 2.9H24.1076L24.0176 1.65C24.0176 1.17 24.1409 0.929999 24.3876 0.929999ZM27.1823 1.48C27.3689 1.48 27.4623 1.70667 27.4623 2.16L27.5823 3.88H27.6223L28.1223 3.69C28.6823 3.69 29.0223 4.26333 29.1423 5.41C29.1889 5.73667 29.2123 6.21667 29.2123 6.85V7.66C29.2123 7.91333 29.1189 8.04 28.9323 8.04H28.8923C28.7123 8.01333 28.6223 7.91667 28.6223 7.75V6.81C28.6223 5.30333 28.4756 4.47 28.1823 4.31H28.1223C27.9223 4.31 27.7756 4.61667 27.6823 5.23V5.79C27.6823 6.79 27.5989 7.29 27.4323 7.29L27.2423 7.31C27.0556 7.31 26.9623 7.03333 26.9623 6.48C26.9823 5.89333 27.0223 5.41333 27.0823 5.04L26.8723 1.75C26.8723 1.57667 26.9756 1.48667 27.1823 1.48ZM29.8022 1.79C30.0555 1.84333 30.1822 1.95667 30.1822 2.13C30.1155 2.31667 30.0089 2.41 29.8622 2.41C29.6155 2.36333 29.4922 2.24 29.4922 2.04C29.5589 1.87333 29.6622 1.79 29.8022 1.79ZM30.1822 3.19C30.2889 3.19 30.3789 3.28667 30.4522 3.48L30.3622 4.19V4.66C30.3622 5.20667 30.4555 5.92333 30.6422 6.81C30.5755 6.93667 30.4622 7 30.3022 7C30.0289 7 29.8489 6.2 29.7622 4.6V4.25C29.7622 3.54333 29.9022 3.19 30.1822 3.19ZM32.1768 3.61L32.5868 3.55C32.7535 3.55 32.8468 3.65333 32.8668 3.86C32.8668 4.04 32.6501 4.15667 32.2168 4.21C31.9435 4.42333 31.8068 4.69667 31.8068 5.03V5.36C31.9401 6.09333 32.1668 6.46 32.4868 6.46H32.5868C32.7735 6.46 33.0535 6.28333 33.4268 5.93H33.4868C33.6201 5.93 33.7268 6.02333 33.8068 6.21C33.7135 6.49667 33.4135 6.75667 32.9068 6.99C32.8135 7.03 32.6968 7.05 32.5568 7.05C31.8701 7.05 31.4235 6.51 31.2168 5.43V5.21C31.2168 4.43 31.5368 3.89667 32.1768 3.61ZM36.3211 2.95C36.5011 2.95 36.6244 3.25333 36.6911 3.86C36.6244 4.02667 36.5144 4.11 36.3611 4.11C36.2544 4.09 36.1478 3.96667 36.0411 3.74L35.8611 3.68C35.5478 3.68 35.2644 3.88667 35.0111 4.3V4.39C35.0111 4.49 35.4811 4.65667 36.4211 4.89C36.8144 5.12333 37.0111 5.40667 37.0111 5.74C37.0111 6.28667 36.5711 6.75333 35.6911 7.14L35.3211 7.2C34.7611 7.14 34.4811 6.86 34.4811 6.36V6.33C34.4811 6.17 34.5844 6.07667 34.7911 6.05C34.9511 6.05 35.0578 6.21667 35.1111 6.55L35.1911 6.61H35.3611C35.7411 6.61 36.0944 6.35 36.4211 5.83V5.7C36.4211 5.5 35.9844 5.31333 35.1111 5.14C34.6511 4.95333 34.4211 4.69333 34.4211 4.36C34.4211 3.92667 34.7844 3.52 35.5111 3.14C35.8311 3.1 36.1011 3.03667 36.3211 2.95ZM43.017 3.14C43.3104 3.14 43.457 3.25667 43.457 3.49L43.367 3.68L43.307 5.51C43.307 6.33667 43.4737 6.85 43.807 7.05L43.827 7.2C43.807 7.39333 43.717 7.49 43.557 7.49H43.497C42.997 7.15 42.747 6.63 42.747 5.93H42.677C42.4104 6.67667 42.087 7.05 41.707 7.05C41.3537 6.95 41.177 6.68667 41.177 6.26C41.177 5.32 41.5537 4.38333 42.307 3.45C42.5604 3.24333 42.797 3.14 43.017 3.14ZM41.807 5.86L41.767 6.14V6.33H41.867C42.367 5.08333 42.617 4.32333 42.617 4.05H42.577C42.1904 4.48333 41.9337 5.08667 41.807 5.86ZM45.367 3.63C45.9336 3.67667 46.217 3.95333 46.217 4.46L46.237 4.59L46.217 6.15C46.217 6.33 46.3203 6.57333 46.527 6.88V6.9C46.4736 7.09333 46.377 7.19 46.237 7.19C45.8236 7.01667 45.617 6.65 45.617 6.09V5.96L45.587 5.94L45.617 5.9V5.88L45.647 4.5C45.647 4.30667 45.5636 4.21 45.397 4.21H45.277C44.9436 4.34333 44.777 5.07333 44.777 6.4C44.777 6.86 44.6603 7.09 44.427 7.09C44.247 7.09 44.1536 6.97667 44.147 6.75V5.75C44.147 4.45667 44.2603 3.81 44.487 3.81L44.587 3.78L44.797 3.81C44.977 3.69 45.167 3.63 45.367 3.63ZM49.1904 1.51C49.3037 1.51 49.4071 1.61667 49.5004 1.83L49.0604 4.61V5.39C49.0604 6.20333 49.1871 6.61 49.4404 6.61C49.6071 6.69 49.6904 6.79667 49.6904 6.93C49.6904 7.08333 49.5571 7.17333 49.2904 7.2C48.9971 7.2 48.7671 6.93 48.6004 6.39H48.5004C48.2537 6.93 47.9537 7.2 47.6004 7.2C47.1871 7.2 46.9371 6.88667 46.8504 6.26C46.8504 5.53333 47.3371 4.76333 48.3104 3.95C48.5037 3.95 48.6004 3.68 48.6004 3.14C48.7471 2.05333 48.9437 1.51 49.1904 1.51ZM47.4404 6.18V6.45L47.6004 6.61H47.6604C47.8737 6.61 48.1237 5.96667 48.4104 4.68H48.3504C47.7437 5.28667 47.4404 5.78667 47.4404 6.18ZM55.823 2.95C56.003 2.95 56.1264 3.25333 56.193 3.86C56.1264 4.02667 56.0164 4.11 55.863 4.11C55.7564 4.09 55.6497 3.96667 55.543 3.74L55.363 3.68C55.0497 3.68 54.7664 3.88667 54.513 4.3V4.39C54.513 4.49 54.983 4.65667 55.923 4.89C56.3164 5.12333 56.513 5.40667 56.513 5.74C56.513 6.28667 56.073 6.75333 55.193 7.14L54.823 7.2C54.263 7.14 53.983 6.86 53.983 6.36V6.33C53.983 6.17 54.0864 6.07667 54.293 6.05C54.453 6.05 54.5597 6.21667 54.613 6.55L54.693 6.61H54.863C55.243 6.61 55.5964 6.35 55.923 5.83V5.7C55.923 5.5 55.4864 5.31333 54.613 5.14C54.153 4.95333 53.923 4.69333 53.923 4.36C53.923 3.92667 54.2864 3.52 55.013 3.14C55.333 3.1 55.603 3.03667 55.823 2.95ZM57.2795 3.99L57.4595 3.89C57.6195 3.89 57.7361 3.98667 57.8095 4.18C57.7028 4.67333 57.6495 5.18 57.6495 5.7C57.6495 5.96 57.7261 6.24333 57.8795 6.55H57.9395C58.1328 6.55 58.3628 5.78667 58.6295 4.26C58.7228 4.18 58.8128 4.14 58.8995 4.14C59.1061 4.14 59.2095 4.50667 59.2095 5.24C59.2961 6.04667 59.3928 6.45 59.4995 6.45L59.6495 6.39C59.8428 6.46333 59.9395 6.56667 59.9395 6.7C59.8195 6.95333 59.6528 7.08 59.4395 7.08C59.1995 7.08 58.9695 6.84 58.7495 6.36C58.4828 6.92 58.2128 7.2 57.9395 7.2C57.5328 7.2 57.2495 6.77667 57.0895 5.93L57.0595 5.61V5.51C57.0595 4.97667 57.1328 4.47 57.2795 3.99ZM62.1609 2.95C62.3409 2.95 62.4643 3.25333 62.5309 3.86C62.4643 4.02667 62.3543 4.11 62.2009 4.11C62.0943 4.09 61.9876 3.96667 61.8809 3.74L61.7009 3.68C61.3876 3.68 61.1043 3.88667 60.8509 4.3V4.39C60.8509 4.49 61.3209 4.65667 62.2609 4.89C62.6543 5.12333 62.8509 5.40667 62.8509 5.74C62.8509 6.28667 62.4109 6.75333 61.5309 7.14L61.1609 7.2C60.6009 7.14 60.3209 6.86 60.3209 6.36V6.33C60.3209 6.17 60.4243 6.07667 60.6309 6.05C60.7909 6.05 60.8976 6.21667 60.9509 6.55L61.0309 6.61H61.2009C61.5809 6.61 61.9343 6.35 62.2609 5.83V5.7C62.2609 5.5 61.8243 5.31333 60.9509 5.14C60.4909 4.95333 60.2609 4.69333 60.2609 4.36C60.2609 3.92667 60.6243 3.52 61.3509 3.14C61.6709 3.1 61.9409 3.03667 62.1609 2.95ZM64.3973 0.929999C64.584 0.97 64.6773 1.06333 64.6773 1.21L64.6173 1.65V1.78C64.6173 2.07333 64.6507 2.38333 64.7173 2.71H64.7373C65.5107 2.47667 65.9907 2.36 66.1773 2.36C66.3707 2.41333 66.4673 2.51 66.4673 2.65C66.4673 2.87667 66.2373 2.99 65.7773 2.99L64.7373 3.36C64.7373 4.26 64.834 5.48333 65.0273 7.03C64.9873 7.21 64.8907 7.3 64.7373 7.3H64.7173C64.484 7.3 64.3673 7 64.3673 6.4C64.2807 5.95333 64.2073 4.98333 64.1473 3.49H63.9673C63.3407 3.45 63.0273 3.30333 63.0273 3.05C63.0273 2.97667 63.0973 2.88667 63.2373 2.78H63.3373L63.7973 2.9H64.1173L64.0273 1.65C64.0273 1.17 64.1507 0.929999 64.3973 0.929999ZM68.642 3.14C68.9354 3.14 69.082 3.25667 69.082 3.49L68.992 3.68L68.932 5.51C68.932 6.33667 69.0987 6.85 69.432 7.05L69.452 7.2C69.432 7.39333 69.342 7.49 69.182 7.49H69.122C68.622 7.15 68.372 6.63 68.372 5.93H68.302C68.0354 6.67667 67.712 7.05 67.332 7.05C66.9787 6.95 66.802 6.68667 66.802 6.26C66.802 5.32 67.1787 4.38333 67.932 3.45C68.1854 3.24333 68.422 3.14 68.642 3.14ZM67.432 5.86L67.392 6.14V6.33H67.492C67.992 5.08333 68.242 4.32333 68.242 4.05H68.202C67.8154 4.48333 67.5587 5.08667 67.432 5.86ZM69.812 1.79C70.0653 1.84333 70.192 1.95667 70.192 2.13C70.1253 2.31667 70.0186 2.41 69.872 2.41C69.6253 2.36333 69.502 2.24 69.502 2.04C69.5686 1.87333 69.672 1.79 69.812 1.79ZM70.192 3.19C70.2986 3.19 70.3886 3.28667 70.462 3.48L70.372 4.19V4.66C70.372 5.20667 70.4653 5.92333 70.652 6.81C70.5853 6.93667 70.472 7 70.312 7C70.0386 7 69.8586 6.2 69.772 4.6V4.25C69.772 3.54333 69.912 3.19 70.192 3.19ZM72.4666 3.63C73.0332 3.67667 73.3166 3.95333 73.3166 4.46L73.3366 4.59L73.3166 6.15C73.3166 6.33 73.4199 6.57333 73.6266 6.88V6.9C73.5732 7.09333 73.4766 7.19 73.3366 7.19C72.9232 7.01667 72.7166 6.65 72.7166 6.09V5.96L72.6866 5.94L72.7166 5.9V5.88L72.7466 4.5C72.7466 4.30667 72.6632 4.21 72.4966 4.21H72.3766C72.0432 4.34333 71.8766 5.07333 71.8766 6.4C71.8766 6.86 71.7599 7.09 71.5266 7.09C71.3466 7.09 71.2532 6.97667 71.2466 6.75V5.75C71.2466 4.45667 71.3599 3.81 71.5866 3.81L71.6866 3.78L71.8966 3.81C72.0766 3.69 72.2666 3.63 72.4666 3.63ZM75.81 3.14C76.1033 3.14 76.25 3.25667 76.25 3.49L76.16 3.68L76.1 5.51C76.1 6.33667 76.2667 6.85 76.6 7.05L76.62 7.2C76.6 7.39333 76.51 7.49 76.35 7.49H76.29C75.79 7.15 75.54 6.63 75.54 5.93H75.47C75.2033 6.67667 74.88 7.05 74.5 7.05C74.1467 6.95 73.97 6.68667 73.97 6.26C73.97 5.32 74.3467 4.38333 75.1 3.45C75.3533 3.24333 75.59 3.14 75.81 3.14ZM74.6 5.86L74.56 6.14V6.33H74.66C75.16 5.08333 75.41 4.32333 75.41 4.05H75.37C74.9833 4.48333 74.7267 5.08667 74.6 5.86ZM76.9399 2.25C77.2866 2.25 77.5099 2.93 77.6099 4.29L77.6699 4.6C77.9766 3.97333 78.2266 3.66 78.4199 3.66C78.4199 3.63333 78.4899 3.61333 78.6299 3.6H78.6699C79.1099 3.6 79.3899 3.94333 79.5099 4.63V4.66C79.5099 5.24667 79.2166 5.89333 78.6299 6.6C78.3833 6.86667 78.1133 7 77.8199 7C77.4866 6.92667 77.3199 6.76 77.3199 6.5L76.8199 2.91L76.6699 2.54C76.6699 2.42 76.7599 2.32333 76.9399 2.25ZM77.9799 6.31H78.0099C78.3566 6.17 78.6599 5.69333 78.9199 4.88V4.5C78.8599 4.29333 78.7833 4.19 78.6899 4.19H78.6099C78.3166 4.36333 78.1066 5.07 77.9799 6.31ZM80.1342 1.79C80.3876 1.84333 80.5142 1.95667 80.5142 2.13C80.4476 2.31667 80.3409 2.41 80.1942 2.41C79.9476 2.36333 79.8242 2.24 79.8242 2.04C79.8909 1.87333 79.9942 1.79 80.1342 1.79ZM80.5142 3.19C80.6209 3.19 80.7109 3.28667 80.7842 3.48L80.6942 4.19V4.66C80.6942 5.20667 80.7876 5.92333 80.9742 6.81C80.9076 6.93667 80.7942 7 80.6342 7C80.3609 7 80.1809 6.2 80.0942 4.6V4.25C80.0942 3.54333 80.2342 3.19 80.5142 3.19ZM82.0588 1.49C82.2455 1.55667 82.3388 1.66 82.3388 1.8L82.4388 5.61V6.84C82.4388 7.06667 82.3422 7.18 82.1488 7.18H82.0188C81.8988 7.1 81.8388 7.00667 81.8388 6.9V5.74L81.7488 1.78C81.7488 1.61333 81.8522 1.51667 82.0588 1.49ZM83.2788 1.79C83.5321 1.84333 83.6588 1.95667 83.6588 2.13C83.5921 2.31667 83.4854 2.41 83.3388 2.41C83.0921 2.36333 82.9688 2.24 82.9688 2.04C83.0354 1.87333 83.1388 1.79 83.2788 1.79ZM83.6588 3.19C83.7654 3.19 83.8554 3.28667 83.9288 3.48L83.8388 4.19V4.66C83.8388 5.20667 83.9321 5.92333 84.1188 6.81C84.0521 6.93667 83.9388 7 83.7788 7C83.5054 7 83.3254 6.2 83.2388 4.6V4.25C83.2388 3.54333 83.3788 3.19 83.6588 3.19ZM85.8134 0.929999C86 0.97 86.0934 1.06333 86.0934 1.21L86.0334 1.65V1.78C86.0334 2.07333 86.0667 2.38333 86.1334 2.71H86.1534C86.9267 2.47667 87.4067 2.36 87.5934 2.36C87.7867 2.41333 87.8834 2.51 87.8834 2.65C87.8834 2.87667 87.6534 2.99 87.1934 2.99L86.1534 3.36C86.1534 4.26 86.25 5.48333 86.4434 7.03C86.4034 7.21 86.3067 7.3 86.1534 7.3H86.1334C85.9 7.3 85.7834 7 85.7834 6.4C85.6967 5.95333 85.6234 4.98333 85.5634 3.49H85.3834C84.7567 3.45 84.4434 3.30333 84.4434 3.05C84.4434 2.97667 84.5134 2.88667 84.6534 2.78H84.7534L85.2134 2.9H85.5334L85.4434 1.65C85.4434 1.17 85.5667 0.929999 85.8134 0.929999ZM88.508 4C88.7414 4 88.9014 4.51333 88.988 5.54C89.1014 6.01333 89.1847 6.25 89.238 6.25H89.298C89.4647 5.83 89.548 5.41333 89.548 5L89.488 4.31C89.5614 4.13 89.6647 4.04 89.798 4.04C90.0447 4.04 90.168 4.47667 90.168 5.35C90.3147 6.25667 90.388 7.1 90.388 7.88V8.35C90.388 9.78333 89.9814 10.75 89.168 11.25L88.948 11.29C88.568 11.29 88.2147 10.9367 87.888 10.23L87.798 9.63V9.6C87.798 9.16 87.9214 8.94 88.168 8.94L88.418 9.1L88.388 9.73C88.388 10.0367 88.5447 10.3467 88.858 10.66H88.988C89.3547 10.66 89.6247 9.96 89.798 8.56L89.818 7.98C89.8114 7.30667 89.7847 6.87667 89.738 6.69C89.4714 6.92333 89.2614 7.04 89.108 7.04C88.768 7.04 88.4647 6.13 88.198 4.31L88.168 4.29C88.168 4.13667 88.2814 4.04 88.508 4Z" fill="black"/>
</svg>
