<svg width="570" height="570" viewBox="0 0 570 570" fill="none" xmlns="http://www.w3.org/2000/svg">
<rect x="391.16" y="261.25" width="73.5" height="19.5" rx="9.75" fill="#92BFFF"/>
<rect x="391.16" y="261.25" width="73.5" height="19.5" rx="9.75" stroke="#132043" stroke-width="0.5"/>
<path d="M405.964 276.14C405.077 276.14 404.312 275.937 403.668 275.531C403.024 275.12 402.529 274.53 402.184 273.76C401.839 272.99 401.666 272.059 401.666 270.967C401.666 269.866 401.841 268.925 402.191 268.146C402.546 267.367 403.05 266.772 403.703 266.361C404.356 265.946 405.129 265.738 406.02 265.738C406.529 265.738 407.007 265.827 407.455 266.004C407.903 266.181 408.3 266.424 408.645 266.732C408.99 267.035 409.266 267.383 409.471 267.775C409.681 268.167 409.8 268.575 409.828 269H408.442C408.377 268.627 408.232 268.279 408.008 267.957C407.784 267.635 407.499 267.376 407.154 267.18C406.813 266.984 406.428 266.886 405.999 266.886C405.416 266.886 404.902 267.031 404.459 267.32C404.02 267.605 403.677 268.046 403.43 268.643C403.187 269.24 403.066 270.006 403.066 270.939C403.066 271.658 403.141 272.274 403.29 272.787C403.439 273.3 403.647 273.718 403.913 274.04C404.184 274.357 404.499 274.593 404.858 274.747C405.222 274.896 405.614 274.971 406.034 274.971C406.459 274.971 406.827 274.896 407.14 274.747C407.457 274.598 407.721 274.406 407.931 274.173C408.141 273.935 408.302 273.681 408.414 273.41C408.531 273.135 408.594 272.871 408.603 272.619L408.645 271.723H406.181V270.771L409.989 270.778V276H409.016V274.46C408.839 274.749 408.615 275.022 408.344 275.279C408.073 275.536 407.742 275.743 407.35 275.902C406.963 276.061 406.501 276.14 405.964 276.14ZM414.251 276.14C413.784 276.14 413.371 276.058 413.012 275.895C412.652 275.727 412.37 275.487 412.165 275.174C411.964 274.861 411.864 274.483 411.864 274.04C411.864 273.237 412.144 272.64 412.704 272.248C413.264 271.856 414.162 271.646 415.399 271.618L416.694 271.583V271.016C416.694 270.573 416.561 270.223 416.295 269.966C416.029 269.705 415.616 269.574 415.056 269.574C414.64 269.579 414.274 269.677 413.957 269.868C413.644 270.059 413.441 270.372 413.348 270.806H412.207C412.235 270.335 412.368 269.938 412.606 269.616C412.844 269.289 413.175 269.042 413.6 268.874C414.029 268.706 414.535 268.622 415.119 268.622C415.749 268.622 416.271 268.711 416.687 268.888C417.107 269.065 417.419 269.327 417.625 269.672C417.835 270.017 417.94 270.442 417.94 270.946V276H416.834L416.743 274.642C416.463 275.207 416.106 275.599 415.672 275.818C415.242 276.033 414.769 276.14 414.251 276.14ZM414.643 275.209C414.885 275.209 415.126 275.165 415.364 275.076C415.606 274.987 415.828 274.868 416.029 274.719C416.229 274.565 416.388 274.395 416.505 274.208C416.626 274.017 416.689 273.821 416.694 273.62V272.381L415.616 272.402C415.065 272.411 414.603 272.467 414.23 272.57C413.861 272.673 413.583 272.834 413.397 273.053C413.215 273.272 413.124 273.559 413.124 273.914C413.124 274.32 413.264 274.637 413.544 274.866C413.828 275.095 414.195 275.209 414.643 275.209ZM420.151 276V268.762H421.383V270.155C421.504 269.81 421.675 269.525 421.894 269.301C422.113 269.072 422.363 268.902 422.643 268.79C422.928 268.678 423.222 268.622 423.525 268.622C423.632 268.622 423.737 268.629 423.84 268.643C423.943 268.657 424.022 268.68 424.078 268.713V269.966C424.008 269.933 423.917 269.912 423.805 269.903C423.698 269.889 423.607 269.882 423.532 269.882C423.243 269.863 422.972 269.882 422.72 269.938C422.468 269.989 422.246 270.08 422.055 270.211C421.864 270.342 421.712 270.514 421.6 270.729C421.493 270.939 421.439 271.196 421.439 271.499V276H420.151ZM429.735 268.762V269.707H427.978V276H426.676V269.707H425.15V268.762H426.676V267.642C426.676 267.068 426.823 266.632 427.117 266.333C427.411 266.03 427.85 265.878 428.433 265.878H429.798L429.805 266.795H428.72C428.426 266.795 428.226 266.874 428.118 267.033C428.011 267.192 427.957 267.432 427.957 267.754V268.762H429.735ZM432.731 268.762V276H431.478V268.762H432.731ZM432.759 265.885V267.229H431.436V265.885H432.759ZM435.936 272.682C435.936 273.139 436.011 273.555 436.16 273.928C436.314 274.297 436.545 274.591 436.853 274.81C437.166 275.029 437.556 275.139 438.022 275.139C438.484 275.139 438.881 275.032 439.212 274.817C439.548 274.602 439.763 274.292 439.856 273.886H441.081C440.993 274.376 440.797 274.789 440.493 275.125C440.19 275.461 439.824 275.715 439.394 275.888C438.965 276.056 438.517 276.14 438.05 276.14C437.374 276.14 436.779 275.993 436.265 275.699C435.752 275.405 435.351 274.983 435.061 274.432C434.772 273.881 434.627 273.221 434.627 272.451C434.627 271.69 434.758 271.023 435.019 270.449C435.281 269.875 435.659 269.427 436.153 269.105C436.653 268.783 437.252 268.622 437.952 268.622C438.634 268.622 439.21 268.769 439.681 269.063C440.153 269.357 440.51 269.772 440.752 270.309C441 270.841 441.123 271.473 441.123 272.206V272.682H435.936ZM435.943 271.807H439.877C439.877 271.392 439.807 271.018 439.667 270.687C439.527 270.351 439.313 270.087 439.023 269.896C438.739 269.7 438.379 269.602 437.945 269.602C437.493 269.602 437.117 269.712 436.818 269.931C436.524 270.146 436.303 270.423 436.153 270.764C436.009 271.1 435.939 271.448 435.943 271.807ZM444.728 276.091C444.336 276.091 444.019 276.037 443.776 275.93C443.538 275.823 443.354 275.678 443.223 275.496C443.097 275.314 443.011 275.106 442.964 274.873C442.922 274.635 442.901 274.39 442.901 274.138V265.598H444.175V274.012C444.175 274.376 444.245 274.649 444.385 274.831C444.53 275.013 444.73 275.113 444.987 275.132L445.379 275.139V275.979C445.272 276.012 445.16 276.037 445.043 276.056C444.926 276.079 444.821 276.091 444.728 276.091ZM449.573 276.14C448.635 276.14 447.89 275.818 447.34 275.174C446.789 274.53 446.514 273.59 446.514 272.353C446.514 271.602 446.623 270.946 446.843 270.386C447.067 269.826 447.398 269.392 447.837 269.084C448.275 268.776 448.821 268.622 449.475 268.622C449.82 268.622 450.126 268.666 450.392 268.755C450.662 268.844 450.896 268.956 451.092 269.091C451.288 269.226 451.446 269.366 451.568 269.511C451.694 269.656 451.787 269.789 451.848 269.91V265.598H453.15V276H452.163L452.023 274.516C451.976 274.656 451.901 274.819 451.799 275.006C451.696 275.188 451.551 275.368 451.365 275.545C451.178 275.718 450.938 275.86 450.644 275.972C450.354 276.084 449.997 276.14 449.573 276.14ZM449.804 275.146C450.536 275.146 451.059 274.924 451.372 274.481C451.689 274.033 451.848 273.303 451.848 272.29C451.843 271.725 451.771 271.245 451.631 270.848C451.495 270.451 451.281 270.15 450.987 269.945C450.697 269.735 450.312 269.63 449.832 269.63C449.234 269.63 448.749 269.842 448.376 270.267C448.002 270.692 447.816 271.366 447.816 272.29C447.816 273.195 447.984 273.898 448.32 274.397C448.66 274.896 449.155 275.146 449.804 275.146Z" fill="black"/>
<path d="M387 284.088L395.041 280.854L391.572 279.628L390.432 276.13L387 284.088Z" fill="#92BFFF" stroke="#132043" stroke-width="0.5" stroke-linecap="round" stroke-linejoin="round"/>
</svg>
