<svg width="702" height="820" viewBox="0 0 702 820" fill="none" xmlns="http://www.w3.org/2000/svg">
<path d="M551.603 215.176L451.968 272.696L352.333 215.176L451.968 157.655L551.603 215.176Z" fill="#A6437C" stroke="#333333" stroke-width="2"/>
<path d="M452.968 649.691V274.428L552.603 216.907V592.442L452.968 649.691Z" fill="#D9D9D9" stroke="#333333" stroke-width="2"/>
<path d="M450.968 649.691L351.333 592.442V216.907L450.968 274.428V649.691Z" fill="#D9D9D9" stroke="#333333" stroke-width="2"/>
<path d="M449.603 131.176L349.968 188.696L250.333 131.176L349.968 73.6554L449.603 131.176Z" fill="#CD899E" stroke="#333333" stroke-width="2"/>
<path d="M350.968 565.691V190.428L450.603 132.907V508.442L350.968 565.691Z" fill="#F6F2EC" stroke="#333333" stroke-width="2"/>
<path d="M348.968 565.691L249.333 508.442V132.907L348.968 190.428V565.691Z" fill="#F6F2EC" stroke="#333333" stroke-width="2"/>
<path d="M349.827 72.1874L249.968 140.214L150.109 72.1874L249.968 4.16092L349.827 72.1874Z" fill="#DFB0B6" stroke="#333333" stroke-width="2"/>
<path d="M250.968 585.068V141.952L350.603 74.078V517.514L250.968 585.068Z" fill="#D9D9D9" stroke="#333333" stroke-width="2"/>
<path d="M248.968 585.068L149.333 517.514V74.078L248.968 141.952V585.068Z" fill="#D9D9D9" stroke="#333333" stroke-width="2"/>
<path d="M551.603 381.176L451.968 438.696L352.333 381.176L451.968 323.655L551.603 381.176Z" fill="#101E41" stroke="#333333" stroke-width="2"/>
<path d="M452.968 815.691V440.428L552.603 382.907V758.442L452.968 815.691Z" fill="#D9D9D9" stroke="#333333" stroke-width="2"/>
<path d="M450.968 815.691L351.333 758.442V382.907L450.968 440.428V815.691Z" fill="#D9D9D9" stroke="#333333" stroke-width="2"/>
<path d="M349.603 315.176L249.968 372.696L150.333 315.176L249.968 257.655L349.603 315.176Z" fill="#234271" stroke="#333333" stroke-width="2"/>
<path d="M250.968 749.691V374.428L350.603 316.907V692.442L250.968 749.691Z" fill="#D9D9D9" stroke="#333333" stroke-width="2"/>
<path d="M248.968 749.691L149.333 692.442V316.907L248.968 374.428V749.691Z" fill="#D9D9D9" stroke="#333333" stroke-width="2"/>
</svg>
