<svg width="580" height="526" viewBox="0 0 580 526" fill="none" xmlns="http://www.w3.org/2000/svg">
<g clip-path="url(#clip0_382_311)">
<path d="M133.376 206.187C157.215 206.187 176.54 186.862 176.54 163.023C176.54 139.185 157.215 119.86 133.376 119.86C109.538 119.86 90.2128 139.185 90.2128 163.023C90.2128 186.862 109.538 206.187 133.376 206.187Z" fill="white" stroke="#102067" stroke-miterlimit="10"/>
<path d="M94.3549 167.314C97.5603 165.975 102.171 164.314 107.897 163.138C117.985 161.068 126.042 161.633 130.92 162.01C137.411 162.512 142.107 163.561 145.704 164.38C148.34 164.98 152.051 166.397 159.472 169.233C160.352 169.569 161.77 170.129 162.97 171.49C163.92 172.566 164.604 173.997 165.115 178.035C165.388 180.194 165.623 183.197 165.453 186.838C163.61 187.703 161.767 188.568 159.923 189.434C157.118 189.934 153.168 190.593 148.412 191.239C141.119 192.23 137.277 192.751 132.274 192.819C130.142 192.848 131.732 192.741 116.813 191.578C113.138 191.291 106.253 190.768 98.869 188.192C97.845 187.835 97.4799 187.671 97.0634 187.402C91.5303 183.826 93.3631 172.222 94.3549 167.314Z" fill="white"/>
<path d="M94.3446 167.781C104.78 163.021 117.096 162.39 128.423 162.781C139.982 163.18 151.308 165.57 161.752 170.602C162.617 171.019 163.379 169.726 162.509 169.306C151.824 164.159 140.247 161.697 128.423 161.281C116.833 160.873 104.264 161.615 93.5876 166.486C92.7105 166.886 93.472 168.18 94.3446 167.781Z" fill="#102067"/>
<path d="M161.552 170.444C163.674 173.604 163.927 178.494 164.207 182.168C164.28 183.125 165.78 183.133 165.707 182.168C165.402 178.166 165.145 173.108 162.848 169.686C162.312 168.889 161.012 169.639 161.552 170.444Z" fill="#102067"/>
<path d="M151.016 166.292C151.945 170.525 152.2 174.767 151.816 179.079C151.73 180.04 153.23 180.034 153.316 179.079C153.712 174.628 153.42 170.255 152.463 165.894C152.256 164.951 150.809 165.35 151.016 166.292Z" fill="#102067"/>
<path d="M108.354 163.333C110.303 168.661 111.385 174.124 111.589 179.797C111.624 180.759 113.124 180.764 113.089 179.797C112.88 173.987 111.799 168.397 109.801 162.934C109.472 162.035 108.021 162.424 108.354 163.333Z" fill="#102067"/>
<path d="M112.803 180.972C126.089 182.63 139.406 182.604 152.686 180.895C153.63 180.773 153.642 179.272 152.686 179.395C139.406 181.104 126.09 181.13 112.803 179.472C111.848 179.353 111.856 180.854 112.803 180.972Z" fill="#102067"/>
<path d="M98.7057 165.535C99.8708 171.493 99.7002 177.368 98.2116 183.256C97.9749 184.192 99.4212 184.591 99.658 183.654C101.21 177.515 101.368 171.352 100.152 165.136C99.967 164.19 98.521 164.591 98.7057 165.535Z" fill="#102067"/>
<path d="M158.776 169.373C160.569 176.314 160.658 183.212 159.036 190.194C158.817 191.133 160.263 191.534 160.482 190.593C162.161 183.368 162.078 176.156 160.223 168.975C159.982 168.041 158.534 168.437 158.776 169.373Z" fill="#102067"/>
<path d="M100.791 170.544C103.895 169.632 107.029 169.339 110.247 169.644C111.207 169.734 111.201 168.234 110.247 168.144C106.895 167.827 103.622 168.149 100.392 169.097C99.4683 169.369 99.8616 170.817 100.791 170.544Z" fill="#102067"/>
<path d="M100.958 176.264C104.086 174.877 107.38 174.287 110.795 174.437C111.76 174.479 111.758 172.979 110.795 172.937C107.103 172.775 103.576 173.473 100.2 174.968C99.3197 175.359 100.082 176.651 100.958 176.264Z" fill="#102067"/>
<path d="M100.058 181.904C104.35 181.14 108.636 180.932 112.982 181.243C113.945 181.312 113.94 179.811 112.982 179.743C108.5 179.422 104.081 179.67 99.6595 180.458C98.7107 180.627 99.1128 182.073 100.058 181.904Z" fill="#102067"/>
<path d="M98.8465 184.734C119.261 188.176 140.127 189.646 160.381 184.457C161.316 184.217 160.92 182.77 159.983 183.01C139.978 188.135 119.404 186.686 99.2453 183.287C98.301 183.128 97.8952 184.573 98.8465 184.734Z" fill="#102067"/>
<path d="M152.633 180.613C155.138 180.83 157.63 180.812 160.131 180.558C161.082 180.461 161.092 178.96 160.131 179.058C157.63 179.312 155.137 179.33 152.633 179.113C151.671 179.03 151.677 180.53 152.633 180.613Z" fill="#102067"/>
<path d="M153.011 176.414C155.261 176.217 157.511 176.152 159.769 176.218C160.734 176.247 160.734 174.747 159.769 174.718C157.511 174.652 155.261 174.717 153.011 174.914C152.057 174.998 152.048 176.498 153.011 176.414Z" fill="#102067"/>
<path d="M152.984 170.685C154.935 170.971 156.887 171.256 158.838 171.542C159.782 171.681 160.19 170.236 159.237 170.096C157.285 169.81 155.334 169.524 153.382 169.238C152.438 169.1 152.031 170.545 152.984 170.685Z" fill="#102067"/>
<path d="M98.135 182.55C97.7004 185.103 96.1886 188.06 98.742 189.531C101.093 190.886 105.718 190.95 108.42 191.359C111.617 191.843 114.829 192.224 118.05 192.502C132.032 193.712 146.074 192.836 159.843 190.188C160.79 190.005 160.389 188.559 159.444 188.741C148.608 190.825 137.619 191.798 126.584 191.486C121.235 191.335 115.901 190.891 110.601 190.159C107.81 189.773 105.034 189.314 102.269 188.768C100.536 188.425 99.8929 188.668 99.271 187.092C98.7869 185.865 99.3739 184.168 99.5814 182.949C99.7422 182.005 98.2969 181.599 98.135 182.55Z" fill="#102067"/>
<path d="M143.063 98.4883C151.454 100.393 156.88 107.459 157.74 108.611C161.95 114.246 162.51 119.712 163.434 130.12C164.647 143.798 165.402 152.306 159.638 158.463C155.545 162.834 148.911 163.712 145.467 164.283C140.667 165.079 136.59 164.72 133.854 164.267C132.596 164.395 130.704 164.5 128.437 164.267C124.492 163.861 121.679 162.663 120.667 162.259C111.522 158.603 104.665 162.501 100.676 158.463C95.0382 152.757 97.3127 142.441 98.2716 138.092C103.014 116.585 124.947 94.3758 143.063 98.4883Z" fill="white"/>
<path d="M144.192 100.754C143.671 104.208 142.77 108.056 141.254 112.111C139.034 118.053 137.598 121.893 133.618 124.839C129.48 127.9 124.918 128.274 123.632 128.363C120.613 128.573 118.145 128.043 116.583 127.58C114.381 126.391 111.712 126.545 109.73 127.971C106.673 130.17 107.153 134.02 107.184 134.237C107.564 136.904 109.566 139.134 112.275 139.916C111.173 139.999 109.153 140.313 107.184 141.678C104.781 143.344 102.123 146.809 102.876 150.881C103.404 153.73 105.638 157.078 109.142 157.538C112.683 158.004 115.23 155.22 115.604 154.797C118.188 151.879 117.645 148.248 117.562 147.748C119.455 149.445 121.347 151.142 123.24 152.839C123.542 154.655 123.779 157.511 123.044 160.867C121.99 165.688 119.501 168.932 118.149 170.461C118.439 170.807 119.234 171.847 119.324 173.399C119.436 175.311 118.396 176.626 118.149 176.923C118.598 177.931 119.323 179.956 118.933 182.406C118.804 183.215 118.373 185.203 115.995 187.888C111.879 192.539 106.463 194.155 105.03 194.546C97.9149 196.483 91.8719 194.625 88.5826 193.567C84.9816 192.408 82.2101 190.854 80.3587 189.65C78.4603 189.574 75.1259 189.186 71.5474 187.301C66.1875 184.477 63.7076 180.099 62.9319 178.685C58.5553 170.709 60.7526 162.554 61.3655 160.28C63.5803 152.06 69.0288 147.277 71.1558 145.594C70.9364 143.532 70.7063 138.628 73.5055 133.65C75.5087 130.087 78.1415 128.126 79.9671 126.797C84.7207 123.334 89.6475 122.144 92.8903 121.706C93.7555 120.798 95.0545 119.343 96.4148 117.398C98.9146 113.824 100.078 110.803 100.527 109.761C103.067 103.869 109.975 98.1668 116.974 95.6634C125.472 92.6243 133.187 94.6276 136.359 95.6634C137.863 95.242 139.936 94.799 142.429 94.6844C143.755 94.6234 148.324 94.5116 153.394 96.4466C155.174 97.1257 163.177 100.18 167.297 108.391C171.644 117.056 168.925 126.001 167.493 130.713C166.83 132.892 166.084 134.633 165.534 135.804C166.355 136.516 167.505 137.725 168.276 139.524C170.126 143.842 168.249 147.963 167.884 148.727C168.536 150.173 169.437 152.538 169.842 155.58C170.25 158.644 170.778 162.609 168.472 166.154C167.853 167.104 166.13 169.752 162.989 170.266C160.006 170.753 156.81 169.141 154.765 166.154C153.462 167.422 151.452 168.934 148.695 169.678C144.548 170.797 138.881 170.132 135.772 166.35C134.778 165.14 134.277 163.894 134.01 163.021C134.662 161.259 135.315 159.496 135.968 157.734C137.473 157.521 139.041 157.263 140.667 156.951C142.238 156.649 143.74 156.319 145.171 155.972C145.74 156.531 146.71 157.347 148.108 157.93C149.079 158.335 151.771 159.259 154.765 158.126C154.931 158.063 158.798 156.525 160.052 152.447C161.14 148.909 159.824 144.881 156.723 142.265C157.854 139.414 159.25 135.031 159.66 129.538C160.01 124.858 160.456 118.896 157.311 112.699C153.569 105.327 146.946 101.956 144.192 100.754Z" fill="#A6437C"/>
<path d="M147.218 119.462C148.523 124.597 149.829 129.731 151.134 134.865C149.052 135.151 146.97 135.437 144.888 135.723C145.664 130.303 146.441 124.882 147.218 119.462Z" fill="#102067"/>
<path d="M141.544 127.638C142.403 127.638 143.1 125.884 143.1 123.721C143.1 121.557 142.403 119.803 141.544 119.803C140.685 119.803 139.989 121.557 139.989 123.721C139.989 125.884 140.685 127.638 141.544 127.638Z" fill="#102067"/>
<path d="M153.528 127.178C154.387 127.178 155.083 125.424 155.083 123.26C155.083 121.096 154.387 119.342 153.528 119.342C152.669 119.342 151.972 121.096 151.972 123.26C151.972 125.424 152.669 127.178 153.528 127.178Z" fill="#102067"/>
<path d="M143.148 112.399C144.771 111.985 146.872 113.747 146.809 115.228C146.724 117.186 142.852 118.684 141.651 117.64C140.527 116.663 141.12 112.917 143.148 112.399Z" fill="#102067"/>
<path d="M151.384 115.727C150.723 114.413 151.724 112.234 153.048 111.9C154.921 111.428 157.333 114.677 156.708 115.976C156.108 117.225 152.294 117.535 151.384 115.727Z" fill="#102067"/>
<path d="M143.93 102.273C160.988 107.188 161.623 127.583 156.331 141.417C153.181 149.649 147.449 156.099 138.133 156.698C129.898 157.227 122.699 152.788 117.565 146.682C116.943 145.942 115.887 147.008 116.504 147.742C128.236 161.696 149.074 161.887 156.88 144.044C163.402 129.137 163.13 106.244 144.329 100.827C143.4 100.559 143.003 102.006 143.93 102.273Z" fill="#102067"/>
<path d="M124.85 154.433C124.138 156.346 122.213 159.357 122.919 161.452C123.514 163.22 125.646 164.397 127.328 164.843C129.119 165.318 131.542 165.257 133.156 164.226C135.129 162.965 135.58 160.131 136.287 158.084C136.603 157.17 135.154 156.777 134.84 157.685C134.285 159.294 133.888 161.914 132.399 162.93C131.075 163.833 128.858 163.754 127.409 163.299C125.665 162.751 124.107 161.614 124.486 159.695C124.805 158.083 125.721 156.378 126.296 154.832C126.633 153.926 125.184 153.535 124.85 154.433Z" fill="#102067"/>
<path d="M119.055 127.518C115.186 125.45 108.414 125.386 106.469 130.199C104.873 134.15 106.97 140.778 112.023 140.296C112.976 140.206 112.985 138.705 112.023 138.796C107.773 139.202 106.173 132.517 108.5 129.737C110.839 126.943 115.379 127.253 118.298 128.814C119.15 129.268 119.908 127.974 119.055 127.518Z" fill="#102067"/>
<path d="M112.712 139.332C103.726 138.103 97.4119 155.069 107.772 157.656C112.114 158.74 117.038 156.418 118.239 151.952C119.548 147.084 116.461 142.097 112.547 139.476C111.743 138.937 110.991 140.236 111.79 140.771C114.347 142.483 116.19 144.958 116.82 147.994C117.812 152.772 114.237 156.725 109.458 156.413C104.978 156.121 102.898 151.787 104.191 147.781C105.145 144.825 108.829 140.302 112.313 140.778C113.257 140.908 113.665 139.462 112.712 139.332Z" fill="#102067"/>
<path d="M156.522 142.548C158.79 145.602 159.655 149.424 158.424 153.097C156.889 157.679 149.188 161.891 147.079 155.224C146.789 154.307 145.341 154.698 145.633 155.623C147.281 160.835 153.61 161.372 157.232 157.788C161.577 153.488 161.3 146.48 157.818 141.791C157.249 141.025 155.946 141.772 156.522 142.548Z" fill="#102067"/>
<path d="M118.478 128.835C133.652 132.642 143.828 113.955 144.574 101.412C144.631 100.447 143.131 100.451 143.074 101.412C142.388 112.957 133.035 130.941 118.876 127.389C117.94 127.154 117.54 128.6 118.478 128.835Z" fill="#102067"/>
<path d="M137.505 95.4376C129.128 92.4272 119.845 93.129 112.049 97.4947C102.86 102.64 98.1293 112.891 92.8208 121.51C92.3132 122.335 93.6101 123.089 94.116 122.267C99.0201 114.305 103.428 104.67 111.577 99.5209C119.225 94.6897 128.653 93.8462 137.106 96.884C138.016 97.211 138.408 95.7621 137.505 95.4376Z" fill="#102067"/>
<path d="M92.8804 121.106C79.969 121.193 68.6833 131.691 71.9474 145.135C72.175 146.073 73.6218 145.676 73.3938 144.737C70.3519 132.207 80.9903 122.686 92.8804 122.606C93.8452 122.6 93.8474 121.1 92.8804 121.106Z" fill="#102067"/>
<path d="M71.8241 143.806C62.7532 149.399 58.8431 160.902 60.281 171.167C61.7153 181.407 68.4494 190.954 79.7224 189.908C80.6755 189.819 80.6848 188.318 79.7224 188.408C68.2135 189.476 62.1694 178.883 61.5447 168.721C60.9906 159.708 64.6797 149.974 72.5812 145.101C73.4014 144.595 72.6489 143.297 71.8241 143.806Z" fill="#102067"/>
<path d="M79.6214 189.677C91.9402 199.516 122.614 198.319 119.296 176.5C119.151 175.549 117.706 175.953 117.849 176.899C120.937 197.204 91.7342 197.444 80.6821 188.617C79.9351 188.02 78.867 189.075 79.6214 189.677Z" fill="#102067"/>
<path d="M122.66 153.695C123.524 159.626 121.762 165.398 117.777 169.868C117.137 170.587 118.194 171.651 118.838 170.929C123.211 166.023 125.053 159.793 124.107 153.296C123.968 152.344 122.523 152.749 122.66 153.695Z" fill="#102067"/>
<path d="M117.429 171.167C118.689 172.508 118.81 174.465 117.812 175.988C117.282 176.798 118.58 177.55 119.108 176.745C120.476 174.656 120.187 171.913 118.49 170.106C117.827 169.401 116.768 170.463 117.429 171.167Z" fill="#102067"/>
<path d="M137.814 96.0068C148.382 93.325 159.439 97.1579 165.341 106.524C171.144 115.733 169.636 127.142 164.771 136.364C164.321 137.218 165.615 137.977 166.067 137.122C171.429 126.955 172.763 114.296 165.791 104.508C159.3 95.3946 148.103 91.8483 137.415 94.5604C136.48 94.7977 136.877 96.2447 137.814 96.0068Z" fill="#102067"/>
<path d="M165.483 137.073C169.887 139.482 168.18 144.914 166.803 148.629C166.467 149.535 167.916 149.926 168.249 149.027C169.884 144.619 171.294 138.542 166.24 135.778C165.393 135.315 164.635 136.609 165.483 137.073Z" fill="#102067"/>
<path d="M133.397 163.018C136.761 172.781 149.811 172.529 156.13 166.02C156.802 165.327 155.743 164.266 155.069 164.96C149.637 170.555 137.875 171.418 134.843 162.62C134.531 161.712 133.081 162.102 133.397 163.018Z" fill="#102067"/>
<path d="M167.179 149.148C169.927 153.101 170.11 158.098 168.89 162.659C168.312 164.821 167.411 167.09 165.649 168.551C162.147 171.455 157.123 169.828 155.411 165.81C155.034 164.925 153.742 165.688 154.116 166.567C156.705 172.643 164.355 173.39 168.187 168.003C172.027 162.605 172.229 153.791 168.474 148.391C167.927 147.604 166.626 148.353 167.179 149.148Z" fill="#102067"/>
<path d="M423.117 328.696C450.399 328.696 472.515 306.58 472.515 279.298C472.515 252.016 450.399 229.9 423.117 229.9C395.835 229.9 373.719 252.016 373.719 279.298C373.719 306.58 395.835 328.696 423.117 328.696Z" fill="white" stroke="#102067" stroke-miterlimit="10"/>
<path d="M386.885 305.209C387.332 303.111 388.378 299.634 391.077 296.302C394 292.692 397.39 291.07 400.508 289.621C401.638 289.096 405.392 287.415 413.869 285.953C418.343 285.182 424.369 284.176 432.47 284.382C433.867 284.417 441.087 284.641 450.022 286.87C454.899 288.087 457.763 289.271 460.24 291.717C462.332 293.784 463.441 296.054 464.038 297.612C462.894 299.936 461.076 303.296 458.406 307.043C454.078 313.116 448.804 320.517 439.281 324.727C429.794 328.921 421.012 327.772 417.144 327.216C413.187 326.647 405.006 325.363 397.233 318.963C391.279 314.06 388.282 308.393 386.885 305.209Z" fill="white"/>
<path d="M387.922 304.896C392.084 289.544 409.6 285.879 423.388 285.213C430.572 284.865 437.79 285.375 444.85 286.755C451.188 287.994 459.125 289.423 462.29 295.761C462.721 296.625 464.015 295.866 463.585 295.004C460.613 289.052 453.947 287.238 447.912 285.867C439.296 283.909 430.392 283.214 421.577 283.819C407.529 284.782 390.653 289.088 386.476 304.497C386.223 305.43 387.67 305.828 387.922 304.896Z" fill="#102067"/>
<path d="M418.714 285.74C425.671 290.815 437.262 293.594 444.139 286.883C444.831 286.208 443.77 285.148 443.078 285.823C436.677 292.069 425.847 289.095 419.471 284.444C418.691 283.875 417.941 285.176 418.714 285.74Z" fill="#102067"/>
<path d="M411.752 286.688C421.523 301.629 442.607 302.666 453.625 288.519C454.211 287.767 453.157 286.698 452.564 287.459C442.175 300.798 422.344 300.145 413.047 285.931C412.521 285.126 411.222 285.877 411.752 286.688Z" fill="#102067"/>
<path d="M405.26 287.617C408.96 296.582 420.615 304.858 430.253 305.653C440.948 306.536 453.516 300.975 459.75 292.267C460.313 291.48 459.012 290.73 458.455 291.509C452.789 299.424 441.703 304.291 432.023 304.22C422.628 304.152 410.306 295.939 406.707 287.218C406.344 286.338 404.892 286.724 405.26 287.617Z" fill="#102067"/>
<path d="M400.102 290.284C404.969 302.547 416.189 311.807 429.436 313.362C442.751 314.925 455.88 308.414 463.422 297.511C463.973 296.715 462.673 295.964 462.127 296.754C454.705 307.482 441.472 313.758 428.423 311.723C416.304 309.833 406.035 301.19 401.549 289.886C401.197 288.999 399.746 289.386 400.102 290.284Z" fill="#102067"/>
<path d="M396.462 292.924C399.97 313.296 424.258 324.522 443.096 318.033C444.003 317.72 443.613 316.271 442.697 316.586C424.572 322.83 401.286 312.138 397.908 292.525C397.744 291.576 396.299 291.978 396.462 292.924Z" fill="#102067"/>
<path d="M391.908 295.584C394.417 307.865 402.158 318.201 413.23 324.076C414.082 324.528 414.841 323.234 413.987 322.781C403.231 317.074 395.791 307.114 393.354 295.185C393.161 294.24 391.715 294.64 391.908 295.584Z" fill="#102067"/>
<path d="M388.199 300.817C388.477 303.611 389.099 306.297 390.245 308.87C391.649 312.021 394.076 314.343 395.688 317.325C396.147 318.174 397.443 317.417 396.983 316.567C395.715 314.222 393.783 312.35 392.485 310.012C390.895 307.148 390.022 304.063 389.699 300.817C389.605 299.865 388.104 299.855 388.199 300.817Z" fill="#102067"/>
<path d="M399.828 238.362C399.191 240.399 398.309 243.503 397.579 247.362C396.414 253.51 395.623 257.686 396.614 262.951C397.377 267.005 398.884 270.042 400.15 272.594C401.868 276.057 402.74 277.814 404.65 279.665C408.654 283.545 413.603 284.335 415.739 284.647C418.933 285.113 421.6 284.804 423.292 284.486C423.883 285.567 424.474 286.692 425.06 287.861C425.692 289.121 426.28 290.355 426.828 291.558C427.922 291.601 430.724 291.564 433.578 289.79C435.833 288.388 437.049 286.567 437.595 285.611C436.899 282.129 436.203 278.647 435.506 275.165C437.488 274.094 440.316 272.391 443.381 269.862C446.406 267.365 448.926 265.285 450.452 262.308C453.25 256.852 451.454 250.827 450.613 248.005C447.531 237.665 436.371 223.025 420.882 224.38C408.12 225.497 400.847 236.734 399.828 238.362Z" fill="white"/>
<path d="M439.02 268.036C438.804 271.332 437.72 273.029 436.645 273.971C435.926 274.603 435.21 274.897 435.26 275.356C435.37 276.359 438.965 276.737 440.998 276.939C445.557 277.393 447.836 277.62 450.298 276.939C455.031 275.63 457.798 272.298 459.201 270.608C460.006 269.638 463.344 265.445 464.148 258.934C464.738 254.149 463.689 250.302 462.96 248.25C463.598 246.987 464.412 245.101 464.939 242.71C465.568 239.857 466.964 233.527 463.356 228.464C460.642 224.655 456.415 223.417 454.057 222.726C450.872 221.793 448.101 221.799 446.34 221.935C446.358 220.37 446.195 217.929 445.153 215.208C444.892 214.524 441.971 207.241 434.469 204.523C427.766 202.095 419.863 204.201 414.485 209.865C412.955 209.083 408.732 207.184 403.405 208.085C397.619 209.063 392.507 213.012 390.149 218.571C387.219 225.477 389.867 231.734 390.347 232.817C389.34 233.581 386.851 235.691 385.796 239.346C384.723 243.063 385.786 246.118 386.389 247.854C387.138 250.007 388.167 252.967 391.138 254.581C393.162 255.681 395.189 255.668 396.282 255.571C397.403 250.097 398.525 244.622 399.646 239.148C401.434 239.215 403.953 239.082 406.769 238.159C412.469 236.291 415.769 232.371 417.057 230.641C417.519 232.43 418.295 234.934 419.63 237.763C421.284 241.271 423.517 246.008 428.335 249.635C433.643 253.631 439.438 254.286 442.383 254.383C444.134 252.858 446.353 252.276 448.121 252.998C451.245 254.276 451.103 258.869 451.089 259.33C450.959 263.525 447.457 267.391 443.372 268.234C441.563 268.607 439.994 268.313 439.02 268.036Z" fill="#89DCFF"/>
<path d="M412.37 248.645C411.722 250.383 411.083 252.167 410.459 253.996C409.371 257.18 408.399 260.285 407.528 263.297C409.227 263.807 410.926 264.316 412.625 264.826C412.54 259.432 412.455 254.039 412.37 248.645Z" fill="#102067"/>
<path d="M403.833 242.147C404.2 240.505 407.495 239.558 408.675 240.746C409.794 241.872 409.075 244.982 407.401 245.46C405.734 245.935 403.487 243.697 403.833 242.147Z" fill="#102067"/>
<path d="M418.358 244.695C417.237 243.515 416.975 241.33 417.848 240.618C419.389 239.363 424.864 242.364 424.601 243.931C424.391 245.18 420.323 246.763 418.358 244.695Z" fill="#102067"/>
<path d="M401.136 250.11C401.228 251.858 401.622 254.909 403.966 254.844C406.049 254.785 407.3 252.316 407.588 250.54C407.741 249.596 406.296 249.19 406.141 250.142C405.973 251.179 405.482 252.711 404.423 253.193C402.88 253.895 402.685 251.051 402.636 250.11C402.586 249.149 401.085 249.143 401.136 250.11Z" fill="#102067"/>
<path d="M416.937 251.736C417.093 252.932 417.079 254.343 417.796 255.362C418.411 256.237 419.437 256.743 420.473 256.915C423.24 257.373 424.695 255.43 425.173 252.938C425.354 251.994 423.908 251.59 423.727 252.539C423.396 254.264 422.581 255.877 420.531 255.404C418.666 254.974 418.646 253.337 418.437 251.736C418.314 250.792 416.813 250.78 416.937 251.736Z" fill="#102067"/>
<path d="M445.132 257.298C442.379 257.806 440.153 260.01 439.608 262.753C439.42 263.696 440.866 264.1 441.054 263.152C441.507 260.874 443.249 259.165 445.53 258.745C446.478 258.57 446.077 257.124 445.132 257.298Z" fill="#102067"/>
<path d="M441.41 262.341C441.876 262.098 443.098 261.426 443.412 262.214C443.71 262.964 442.714 263.696 442.233 264.101C441.494 264.724 442.56 265.781 443.294 265.162C444.396 264.233 445.563 262.746 444.616 261.281C443.688 259.844 441.873 260.41 440.653 261.046C439.797 261.492 440.555 262.787 441.41 262.341Z" fill="#102067"/>
<path d="M398.689 239.169C395.073 253.546 393.005 272.397 407.023 282.116C419.521 290.781 435.455 282.019 439.682 268.728C439.975 267.806 438.528 267.411 438.236 268.329C433.745 282.45 416.096 289.644 404.821 278.279C394.605 267.983 396.943 252.263 400.136 239.568C400.371 238.632 398.925 238.232 398.689 239.169Z" fill="#102067"/>
<path d="M438.823 268.903C444.746 270.977 449.831 265.809 451.581 260.532C452.333 258.266 452.372 255.496 450.522 253.719C448.457 251.735 445.473 252.53 443.085 253.343C442.176 253.652 442.567 255.102 443.484 254.789C445.895 253.968 449.345 253.198 450.404 256.373C451.073 258.378 450.033 260.676 449.081 262.408C447.105 266.005 443.513 268.959 439.221 267.457C438.308 267.137 437.916 268.586 438.823 268.903Z" fill="#102067"/>
<path d="M422.84 284.108C423.54 286.331 424.444 288.467 425.551 290.518C426.009 291.367 427.305 290.611 426.846 289.761C425.799 287.822 424.949 285.812 424.287 283.709C423.998 282.792 422.549 283.184 422.84 284.108Z" fill="#102067"/>
<path d="M435.296 274.803C435.151 278.474 435.619 282.042 436.704 285.552C436.988 286.472 438.437 286.079 438.151 285.153C437.105 281.772 436.656 278.339 436.796 274.803C436.834 273.838 435.334 273.84 435.296 274.803Z" fill="#102067"/>
<path d="M396.049 254.34C390.759 254.209 386.591 250.733 386.216 245.33C385.953 241.535 387.43 235.622 390.936 233.547C391.766 233.055 391.013 231.758 390.179 232.251C385.857 234.81 384.055 241.739 384.756 246.439C385.612 252.171 390.469 255.702 396.049 255.84C397.015 255.864 397.014 254.364 396.049 254.34Z" fill="#102067"/>
<path d="M391.25 232.243C386.22 227.098 390.975 216.877 395.215 212.827C400.484 207.794 408.559 207.312 414.488 211.363C415.287 211.909 416.038 210.61 415.245 210.068C408.247 205.286 398.828 206.527 393.136 212.81C388.782 217.617 384.927 227.922 390.189 233.303C390.865 233.995 391.926 232.934 391.25 232.243Z" fill="#102067"/>
<path d="M415.397 210.855C425.696 198.153 445.805 205.201 445.665 221.659C445.656 222.624 447.156 222.625 447.165 221.659C447.315 204.007 425.508 196.016 414.337 209.795C413.734 210.538 414.789 211.606 415.397 210.855Z" fill="#102067"/>
<path d="M446.773 222.525C452.894 221.284 459.561 223.96 462.792 229.445C466.374 235.524 465.515 242.752 461.968 248.602C461.466 249.43 462.763 250.184 463.263 249.359C467.274 242.745 468.101 234.064 463.329 227.565C459.402 222.217 452.819 219.772 446.374 221.079C445.429 221.271 445.829 222.717 446.773 222.525Z" fill="#102067"/>
<path d="M462.465 248.387C464.711 255.295 463.521 264.442 458.946 270.243C453.541 277.096 444.423 277.915 436.794 274.61C435.917 274.23 435.153 275.522 436.037 275.905C443.601 279.182 452.413 278.891 458.601 272.922C464.817 266.927 466.498 255.943 463.911 247.989C463.614 247.074 462.165 247.466 462.465 248.387Z" fill="#102067"/>
<path d="M399.402 239.596C406.78 239.705 413.421 236.351 417.787 230.421C418.36 229.643 417.058 228.894 416.492 229.664C412.436 235.172 406.227 238.197 399.402 238.096C398.436 238.082 398.436 239.582 399.402 239.596Z" fill="#102067"/>
<path d="M416.779 230.406C419.599 243.585 428.913 256.361 443.784 255.205C444.74 255.131 444.748 253.631 443.784 253.705C429.574 254.81 420.907 242.542 418.226 230.007C418.024 229.064 416.578 229.463 416.779 230.406Z" fill="#102067"/>
<path d="M124.571 502.412C152.655 502.412 175.422 479.645 175.422 451.56C175.422 423.476 152.655 400.709 124.571 400.709C96.4861 400.709 73.7191 423.476 73.7191 451.56C73.7191 479.645 96.4861 502.412 124.571 502.412Z" fill="white" stroke="#102067" stroke-miterlimit="10"/>
<path d="M83.5234 477.341C84.3718 475.73 85.8068 473.487 88.1741 471.484C91.6396 468.553 95.652 467.363 104.537 466.489C116.077 465.354 124.824 465.835 127.102 465.973C139.525 466.725 145.009 468.541 147.771 469.59C153.932 471.93 156.484 474.232 158.106 476.307C160.804 479.761 161.612 483.465 161.895 485.608C159.959 487.603 157.059 490.234 153.111 492.671C153.111 492.671 143.376 498.678 130.546 499.56C115.655 500.585 97.7243 492.647 83.5234 477.341Z" fill="white"/>
<path d="M98.2575 468.348C109.925 466.42 121.751 465.901 133.532 467.007C144.72 468.058 160.116 471.318 161.134 485.126C161.205 486.083 162.705 486.09 162.634 485.126C161.788 473.652 151.085 468.175 140.895 466.435C126.716 464.015 112.002 464.564 97.8588 466.902C96.9086 467.059 97.3117 468.505 98.2575 468.348Z" fill="#102067"/>
<path d="M107.988 466.975C113.572 471.512 122.602 472.632 127.77 466.808C128.408 466.088 127.351 465.023 126.709 465.747C122.11 470.93 114.028 469.96 109.049 465.914C108.306 465.311 107.238 466.366 107.988 466.975Z" fill="#102067"/>
<path d="M102.503 467.773C105.773 473.161 113.187 474.875 119.112 474.864C125.668 474.851 131.517 472.06 135.353 466.731C135.918 465.946 134.617 465.197 134.058 465.974C130.509 470.905 125.138 473.333 119.112 473.364C113.821 473.391 106.73 471.845 103.798 467.016C103.298 466.192 102 466.945 102.503 467.773Z" fill="#102067"/>
<path d="M98.4404 468.406C104.195 488.644 134.691 484.238 142.676 468.133C143.104 467.271 141.811 466.511 141.381 467.376C134.01 482.243 105.313 487.092 99.8868 468.007C99.6233 467.08 98.1755 467.474 98.4404 468.406Z" fill="#102067"/>
<path d="M83.7002 478.346C85.1007 475.261 86.7062 473.223 89.7321 471.611C92.4316 470.172 95.2866 469.075 98.2041 468.172C99.1234 467.888 98.7312 466.439 97.8054 466.726C94.4902 467.752 91.189 469.022 88.1697 470.751C85.2867 472.402 83.7634 474.597 82.405 477.589C82.0089 478.461 83.3013 479.225 83.7002 478.346Z" fill="#102067"/>
<path d="M91.2121 470.712C101.734 494.805 139.75 493.175 151.234 470.632C151.671 469.773 150.378 469.013 149.939 469.875C138.934 491.477 102.581 493.021 92.5073 469.955C92.1219 469.073 90.8291 469.835 91.2121 470.712Z" fill="#102067"/>
<path d="M85.8528 473.958C92.4251 486.784 105.708 495.621 120.205 496.199C135.298 496.8 149.074 488.246 157.979 476.549C158.564 475.781 157.262 475.033 156.684 475.792C148.125 487.033 134.717 495.346 120.205 494.699C106.201 494.074 93.5015 485.6 87.148 473.201C86.7077 472.341 85.413 473.099 85.8528 473.958Z" fill="#102067"/>
<path d="M107.817 393.967C105.395 393.086 102.389 392.204 98.8792 391.627C95.2154 391.024 91.9582 390.909 89.3034 390.988C89.2968 392.814 89.49 395.351 90.3674 398.223C91.5128 401.974 93.3309 404.682 94.6233 406.31C96.8221 406.664 99.021 407.019 101.22 407.374C100.81 410.81 100.452 414.358 100.156 418.013C99.6894 423.781 99.42 429.322 99.3048 434.611C98.2456 435.655 95.9869 438.178 95.2617 442.059C94.9599 443.674 94.1054 448.247 96.7512 450.571C99.1675 452.694 103.881 452.395 107.817 449.294C108.845 450.852 109.935 452.838 110.796 455.252C112.843 460.994 112.514 466.131 112.072 469.084C113.228 469.672 115.144 470.449 117.605 470.574C121.999 470.797 125.211 468.795 126.33 468.02C127.181 465.538 128.032 463.055 128.883 460.572C130.913 460.65 133.938 460.538 137.395 459.508C143.752 457.614 147.599 453.8 149.312 452.061C151.035 450.31 155.263 445.907 156.972 438.867C158.086 434.28 157.58 430.838 156.759 425.248C155.791 418.657 154.952 412.941 150.801 406.948C149.885 405.625 146.418 400.839 139.949 397.159C133.046 393.233 126.523 392.728 123.351 392.691C124.215 391.624 125.374 389.989 126.33 387.796C127.527 385.049 128.735 382.278 127.607 379.497C127.437 379.079 126.362 376.56 123.563 375.667C120.882 374.811 118.617 376.087 118.244 376.305C116.763 379.647 115.323 383.266 113.988 387.158C113.366 388.969 112.801 390.744 112.285 392.478C110.796 392.974 109.306 393.471 107.817 393.967Z" fill="white"/>
<path d="M110.734 455.139C111.435 457.551 112.291 461.175 112.734 467.845C113.215 475.076 112.939 481.789 112.264 487.845C111.761 492.356 111.078 496.129 110.499 498.904C108.784 499.089 106.31 499.324 103.322 499.492C95.6811 499.921 91.8604 500.135 87.3225 499.257C83.551 498.526 78.1716 497.413 73.5578 493.021C71.4822 491.046 70.1961 489.01 69.4401 487.61C69.3225 482.982 69.2048 478.355 69.0872 473.727C67.7931 476.041 66.4989 478.355 65.2048 480.668C65.1568 477.49 65.3779 472.739 66.8519 467.257C68.0985 462.62 69.5873 459.893 72.0284 455.021C78.7884 441.531 82.1685 434.786 84.4989 427.61C85.9902 423.017 86.8278 419.322 89.6754 413.61C91.5742 409.801 93.4947 406.844 94.8519 404.904C95.8507 404.763 96.9601 404.542 98.146 404.198C100.472 403.523 102.362 402.587 103.793 401.727C103.476 403.152 103.085 405.078 102.734 407.374C102.436 409.331 101.837 413.343 101.793 417.963C101.76 421.517 102.043 426.674 103.558 432.904C102.677 433.09 99.7477 433.823 97.6754 436.551C95.6944 439.159 94.8817 443.082 96.5266 446.233C98.5543 450.117 103.915 452.055 108.97 450.08C109.462 451.283 110.117 453.013 110.734 455.139Z" fill="#102067"/>
<path d="M112.36 396.966C111.395 398.269 110.808 399.973 109.674 403.327C109.003 405.313 108.272 407.477 107.554 410.537C107.131 412.34 105.878 418.011 105.716 425.664C105.669 427.858 105.701 430.748 105.999 434.146C106.611 434.57 107.224 434.994 107.836 435.418C108.912 435.11 110.454 434.518 111.936 433.298C113.612 431.918 114.636 430.208 116.177 425.805C117.838 421.058 118.933 417.93 119.429 413.223C119.707 410.581 119.844 406.987 119.287 402.762C120.525 402.217 122.307 401.514 124.518 400.924C127.45 400.142 132.117 398.949 137.839 400.018C139.984 400.419 143.452 401.108 146.996 403.752C150.212 406.151 151.945 409.009 152.792 410.679C152.883 408.858 152.791 405.662 151.237 402.197C148.818 396.803 144.421 394.246 142.472 393.149C133.276 387.973 123.648 391.11 119.994 392.301C114.712 394.022 112.935 396.19 112.36 396.966Z" fill="#102067"/>
<path d="M143.869 402.153C157.239 411.889 160.867 434.253 151.894 448.027C141.613 463.81 121.035 461.366 108.961 449.327C108.276 448.645 107.215 449.705 107.9 450.388C120.161 462.613 141.228 465.547 152.332 450.048C162.759 435.496 159.119 411.411 144.626 400.858C143.845 400.289 143.095 401.59 143.869 402.153Z" fill="#102067"/>
<path d="M128.143 460.322C127.383 463.198 126.142 465.814 124.409 468.23C123.845 469.016 125.146 469.766 125.704 468.987C127.505 466.476 128.801 463.707 129.589 460.72C129.836 459.786 128.389 459.387 128.143 460.322Z" fill="#102067"/>
<path d="M107.847 448.787C105.403 449.933 102.221 449.4 99.8765 448.196C97.3238 446.885 96.4197 444.529 96.7031 441.796C97.2248 436.765 103.209 431.174 107.586 436.302C108.214 437.037 109.271 435.972 108.647 435.241C103.498 429.209 95.865 435.33 95.1941 441.59C94.4344 448.679 102.502 452.944 108.604 450.082C109.478 449.672 108.717 448.379 107.847 448.787Z" fill="#102067"/>
<path d="M118.705 402.878C119.139 408.569 118.784 414.213 117.348 419.755C116.017 424.894 113.654 433.571 107.712 434.881C106.769 435.089 107.168 436.535 108.11 436.328C113.362 435.17 115.536 429.654 117.242 425.078C119.896 417.958 120.781 410.436 120.205 402.878C120.132 401.921 118.632 401.913 118.705 402.878Z" fill="#102067"/>
<path d="M120.158 403.203C123.969 401.737 127.816 400.984 131.912 400.787C135.642 400.607 140.846 400.127 144.025 402.286C144.825 402.83 145.577 401.531 144.782 400.991C141.592 398.824 137.261 399.164 133.559 399.234C128.793 399.324 124.222 400.04 119.759 401.757C118.868 402.1 119.255 403.551 120.158 403.203Z" fill="#102067"/>
<path d="M112.157 398.398C119.035 392.346 128.617 388.865 137.695 391.657C146.153 394.258 152.31 402.057 152.348 410.941C152.352 411.906 153.852 411.908 153.848 410.941C153.809 401.874 147.864 393.84 139.406 390.659C129.535 386.946 118.706 390.642 111.097 397.337C110.37 397.976 111.435 399.034 112.157 398.398Z" fill="#102067"/>
<path d="M106.834 433.595C105.752 421.501 107.691 409.612 112.633 398.518C113.023 397.644 111.731 396.88 111.338 397.761C106.28 409.116 104.226 421.21 105.334 433.595C105.419 434.548 106.92 434.557 106.834 433.595Z" fill="#102067"/>
<path d="M103.829 432.332C101.857 422.325 102.193 412.409 104.814 402.552C105.062 401.618 103.615 401.22 103.367 402.153C100.686 412.238 100.365 422.493 102.382 432.731C102.569 433.677 104.015 433.276 103.829 432.332Z" fill="#102067"/>
<path d="M104.992 402.126C106.816 400.186 109.028 398.798 111.575 398.022C112.496 397.741 112.104 396.293 111.177 396.575C108.389 397.425 105.928 398.941 103.932 401.065C103.271 401.768 104.33 402.831 104.992 402.126Z" fill="#102067"/>
<path d="M108.958 396.785C107.448 394.323 113.321 391.849 113.606 394.645C113.703 395.596 115.204 395.606 115.106 394.645C114.541 389.112 104.955 393.127 107.663 397.542C108.167 398.364 109.465 397.611 108.958 396.785Z" fill="#102067"/>
<path d="M113.409 392.969C114.299 390.2 115.19 387.431 116.081 384.662C117.036 381.693 117.555 376.231 121.628 376.108C124.852 376.01 127.895 378.897 127.384 382.162C126.932 385.046 125.639 387.737 124.057 390.156C123.528 390.966 124.826 391.719 125.353 390.913C127.39 387.798 129.326 383.749 128.999 379.918C128.685 376.246 126.241 375.889 123.21 375.038C120.367 374.24 118.797 373.261 117.221 376.358C116.107 378.548 115.591 381.291 114.84 383.624C113.881 386.606 112.922 389.588 111.962 392.57C111.666 393.492 113.114 393.886 113.409 392.969Z" fill="#102067"/>
<path d="M108.315 393.36C103.22 391.431 97.6388 390.132 92.2268 389.482C88.3701 389.019 87.5627 389.645 88.5263 393.473C89.2452 396.328 90.1436 399.165 90.982 401.988C91.3154 403.111 91.5162 404.502 92.5366 405.229C95.6381 407.439 101.802 403.316 104.393 401.82C105.228 401.337 104.474 400.041 103.636 400.525C101.209 401.926 95.5535 406.017 92.815 402.927C92.0304 402.041 91.7995 399.414 91.4622 398.246C91.0561 396.842 90.1477 395.017 90.1093 393.566C90.038 390.874 90.923 390.772 93.3426 391.155C95.123 391.437 96.8969 391.822 98.66 392.195C101.814 392.863 104.898 393.663 107.916 394.806C108.82 395.148 109.21 393.699 108.315 393.36Z" fill="#102067"/>
<path d="M94.1179 404.579C86.3919 415.99 83.8473 429.94 77.6018 442.118C71.4085 454.194 63.9724 466.133 65.2139 480.261C65.2832 481.05 66.4893 481.342 66.6871 480.46C67.2298 478.039 67.9615 475.851 69.0197 473.592C69.4267 472.723 68.134 471.961 67.7245 472.835C66.6257 475.181 65.8094 477.525 65.2406 480.061C65.7317 480.128 66.2228 480.194 66.7139 480.261C65.3797 465.077 74.2593 452.64 80.5393 439.594C85.9546 428.345 88.3436 415.777 95.4131 405.336C95.9558 404.534 94.6567 403.783 94.1179 404.579Z" fill="#102067"/>
<path d="M68.4868 473.495C68.4357 477.912 67.2631 483.856 68.9034 488.058C70.352 491.77 74.7795 494.634 78.1048 496.43C87.9567 501.754 99.3425 501.394 110.056 499.486C111.005 499.317 110.603 497.871 109.658 498.039C100.055 499.75 89.9857 500.209 80.8912 496.111C76.7122 494.227 71.6727 491.33 70.3049 486.75C69.1003 482.715 69.9384 477.683 69.9868 473.495C69.9979 472.529 68.4979 472.529 68.4868 473.495Z" fill="#102067"/>
<path d="M109.241 451.217C113.275 466.674 113.445 482.577 109.734 498.114C109.509 499.052 110.955 499.453 111.18 498.513C114.951 482.726 114.787 466.524 110.687 450.819C110.444 449.885 108.997 450.281 109.241 451.217Z" fill="#102067"/>
<path d="M101.686 439.76C101.501 439.427 101.641 439.029 101.927 438.791C102.32 438.465 102.862 438.586 103.26 438.837C104.263 439.472 104.345 440.78 104.301 441.848C104.262 442.814 105.762 442.812 105.801 441.848C105.882 439.854 105.134 437.388 102.814 437.117C100.986 436.903 99.4565 438.834 100.391 440.517C100.859 441.361 102.155 440.606 101.686 439.76Z" fill="#102067"/>
<path d="M104.563 440.729C103.305 441.106 102.299 441.998 101.784 443.209C101.55 443.758 101.422 444.359 101.445 444.958C101.479 445.832 102.168 446.021 102.852 446.393C103.7 446.855 104.458 445.56 103.609 445.098C103.27 444.913 102.932 444.729 102.593 444.545C102.717 444.76 102.841 444.976 102.964 445.192C102.851 443.829 103.631 442.575 104.962 442.175C105.884 441.899 105.491 440.45 104.563 440.729Z" fill="#102067"/>
<path d="M139.137 411.04C142.878 416.682 146.618 422.323 150.359 427.965C148.213 429.436 146.066 430.908 143.92 432.38C142.326 425.267 140.731 418.153 139.137 411.04Z" fill="#102067"/>
<path d="M132.796 421.807C133.476 421.473 133.384 419.89 132.591 418.271C131.797 416.651 130.602 415.608 129.922 415.942C129.242 416.275 129.334 417.858 130.127 419.478C130.921 421.097 132.116 422.14 132.796 421.807Z" fill="#102067"/>
<path d="M147.147 415.092C147.846 414.75 147.752 413.122 146.936 411.457C146.12 409.792 144.891 408.72 144.192 409.063C143.493 409.406 143.587 411.033 144.403 412.698C145.219 414.363 146.448 415.435 147.147 415.092Z" fill="#102067"/>
<path d="M124.935 414.063C123.848 413.235 124.255 408.744 127.142 407.844C128.922 407.289 131.222 408.231 131.455 409.449C131.856 411.535 126.321 415.117 124.935 414.063Z" fill="#102067"/>
<path d="M139.279 406.439C138.161 405.44 137.817 403.441 138.577 402.728C139.899 401.488 144.92 403.794 144.796 405.236C144.697 406.394 141.181 408.14 139.279 406.439Z" fill="#102067"/>
<path d="M103.327 432.215C105.257 432.215 105.26 429.215 103.327 429.215C101.396 429.215 101.393 432.215 103.327 432.215Z" fill="#102067"/>
<path d="M104.904 424.055C104.856 424.055 104.808 424.055 104.76 424.055C103.976 424.055 103.224 424.745 103.26 425.555C103.297 426.368 103.919 427.055 104.76 427.055C104.808 427.055 104.856 427.055 104.904 427.055C105.688 427.055 106.44 426.365 106.404 425.555C106.367 424.743 105.744 424.055 104.904 424.055Z" fill="#102067"/>
<path d="M102.897 422.755C104.827 422.755 104.83 419.755 102.897 419.755C100.966 419.755 100.963 422.755 102.897 422.755Z" fill="#102067"/>
<path d="M105.764 414.585C107.694 414.585 107.697 411.585 105.764 411.585C103.833 411.585 103.83 414.585 105.764 414.585Z" fill="#102067"/>
<path d="M104.187 409.998C106.117 409.998 106.12 406.998 104.187 406.998C102.256 406.998 102.253 409.998 104.187 409.998Z" fill="#102067"/>
<path d="M108.2 402.974C110.131 402.974 110.134 399.974 108.2 399.974C106.27 399.974 106.267 402.974 108.2 402.974Z" fill="#102067"/>
<path d="M94.4398 404.264C96.3702 404.264 96.3734 401.264 94.4398 401.264C92.5095 401.264 92.5063 404.264 94.4398 404.264Z" fill="#102067"/>
<path d="M95.0132 397.814C96.9435 397.814 96.9467 394.814 95.0132 394.814C93.0828 394.814 93.0796 397.814 95.0132 397.814Z" fill="#102067"/>
<path d="M99.3132 394.517C101.244 394.517 101.247 391.517 99.3132 391.517C97.3829 391.517 97.3797 394.517 99.3132 394.517Z" fill="#102067"/>
<path d="M100.317 400.824C102.247 400.824 102.25 397.824 100.317 397.824C98.3863 397.824 98.3831 400.824 100.317 400.824Z" fill="#102067"/>
<path d="M106.05 397.098C107.981 397.098 107.984 394.098 106.05 394.098C104.12 394.098 104.117 397.098 106.05 397.098Z" fill="#102067"/>
<path d="M115.51 394.087C117.441 394.087 117.444 391.087 115.51 391.087C113.58 391.087 113.577 394.087 115.51 394.087Z" fill="#102067"/>
<path d="M115.941 389.214C117.871 389.214 117.874 386.214 115.941 386.214C114.01 386.214 114.007 389.214 115.941 389.214Z" fill="#102067"/>
<path d="M119.667 391.077C121.598 391.077 121.601 388.077 119.667 388.077C117.737 388.077 117.734 391.077 119.667 391.077Z" fill="#102067"/>
<path d="M125.544 387.781C127.475 387.781 127.478 384.781 125.544 384.781C123.614 384.781 123.611 387.781 125.544 387.781Z" fill="#102067"/>
<path d="M120.671 385.63C122.601 385.63 122.604 382.63 120.671 382.63C118.74 382.63 118.737 385.63 120.671 385.63Z" fill="#102067"/>
<path d="M118.664 380.04C120.594 380.04 120.598 377.04 118.664 377.04C116.734 377.04 116.73 380.04 118.664 380.04Z" fill="#102067"/>
<path d="M125.101 380.955C127.031 380.955 127.034 377.955 125.101 377.955C123.17 377.955 123.167 380.955 125.101 380.955Z" fill="#102067"/>
<path d="M90.952 396.243C92.8824 396.243 92.8856 393.243 90.952 393.243C89.0217 393.243 89.0185 396.243 90.952 396.243Z" fill="#102067"/>
<path d="M414.049 2.29255C422.978 21.9568 430.875 42.9066 431.983 64.6928C433.036 85.3681 426.742 104.922 413.37 120.757C401.175 135.199 385.111 145.915 368.427 154.509C349.566 164.225 329.203 171.293 308.174 174.374C297.506 175.937 286.665 176.431 275.904 175.716C270.85 175.38 265.515 175.071 260.802 173.059C255.878 170.957 250.902 165.114 254.214 159.613C259.962 150.068 281.064 164.581 280.562 173.294C279.872 185.265 265.397 187.762 256.123 189.056C214.085 194.923 171.242 205.715 132.823 224.112C117.042 231.669 101.52 242.378 94.1602 258.842C87.9712 272.688 87.743 289.784 97.927 301.826C109.981 316.08 130.608 319.787 148.321 319.025C169.64 318.108 190.266 311.765 211.364 309.095C254.982 303.573 299.922 308.911 341.918 321.472C361.298 327.268 381.358 335.968 392.992 353.391C404.743 370.988 403.873 392.23 389.327 407.904C375.06 423.277 353.977 428.859 334.367 433.944C316.369 438.61 298.111 442.889 281.121 450.628C266.309 457.374 249.075 467.884 242.831 483.778C236.735 499.296 247.166 513.8 261.402 519.728C270.217 523.4 279.829 524.29 289.246 525.15C291.167 525.326 291.156 522.325 289.246 522.15C277.906 521.114 265.667 520.056 255.982 513.444C247.18 507.436 241.692 497.369 244.962 486.704C248.219 476.082 257.64 468.078 266.543 462.102C274.888 456.5 284.059 452.248 293.481 448.806C312.734 441.772 332.959 438.125 352.488 432.024C370.445 426.414 388.595 417.508 398.46 400.685C407.613 385.078 405.423 366.614 395.582 351.877C384.648 335.501 366.608 326.348 348.386 320.355C305.73 306.326 258.816 300.597 214.153 305.759C191.814 308.341 169.972 315.261 147.434 316.057C126.664 316.79 99.1672 310.185 93.6843 286.832C88.7339 265.747 102.636 246.279 119.35 235.111C137.547 222.951 159.499 215.771 180.211 209.201C202.284 202.199 224.887 196.873 247.765 193.289C257.074 191.831 268.085 191.789 276.037 186.069C281.489 182.148 285.281 174.91 282.736 168.266C279.128 158.849 253.267 144.663 250.387 161.25C247.036 180.552 278.927 179.298 290.067 178.969C329.966 177.791 372.041 161.67 402.509 135.793C416.464 123.941 427.848 108.819 432.502 90.8958C437.774 70.5925 434.381 49.1808 428.04 29.5355C424.869 19.712 420.904 10.1713 416.639 0.778389C415.842 -0.976976 413.256 0.546224 414.049 2.29255Z" fill="#D47293"/>
</g>
<defs>
<clipPath id="clip0_382_311">
<rect width="579.4" height="525.158" fill="white"/>
</clipPath>
</defs>
</svg>
