<svg width="157" height="157" viewBox="0 0 157 157" fill="none" xmlns="http://www.w3.org/2000/svg">
<path d="M99.4944 72.6631C100.345 80.9184 107.726 86.9214 115.981 86.0712C124.236 85.2211 130.239 77.8397 129.389 69.5845L99.4944 72.6631Z" stroke="#1F4172" stroke-width="3.26493" stroke-linecap="round" stroke-linejoin="round"/>
<path d="M56.1332 72.6631C55.283 80.9184 47.9017 86.9214 39.6465 86.0712C31.3912 85.2211 25.3882 77.8397 26.2384 69.5845L56.1332 72.6631Z" stroke="#1F4172" stroke-width="3.26493" stroke-linecap="round" stroke-linejoin="round"/>
<path d="M70.547 57.0581C70.547 98.1643 43.7751 98.3453 44.8851 114.468C44.885 125.652 67.2173 135.105 77.4175 135.125C87.8738 135.146 111.781 126.163 111.781 114.468C112.891 98.3453 85.1373 98.4815 85.1373 57.3753" stroke="#1F4172" stroke-width="3.26493" stroke-linecap="round" stroke-linejoin="round"/>
<path d="M15.2353 105.841C12.829 99.7816 11.5211 93.2701 11.5211 86.4902C11.5211 66.5485 35.4311 43.56 53.6073 31.9295C61.2609 29.2476 69.6113 30.5425 78.3537 30.5425C87.0962 30.5425 95.4466 29.2476 103.1 31.9295C123.581 46.0528 145.186 67.6563 145.186 86.4902C145.186 93.2701 143.878 99.7816 141.472 105.841M37.9337 133.256C49.158 140.755 63.1641 145.208 78.3537 145.208C93.5434 145.208 107.549 140.755 118.774 133.256" stroke="#1F4172" stroke-width="3.26493" stroke-linecap="round" stroke-linejoin="round"/>
<path d="M22.6279 59.7458C13.1757 43.9145 8.70254 33.5995 4.71125 16.9231C4.14981 14.5773 6.28295 12.4944 8.61958 13.0929C26.7054 17.7247 38.3948 22.2892 53.2366 32.096" stroke="#1F4172" stroke-width="3.26493" stroke-linecap="round" stroke-linejoin="round"/>
<path d="M133.992 60.0519C143.447 44.2175 148.47 33.6475 152.56 16.9201C153.133 14.5771 151.001 12.4947 148.665 13.0963C130.54 17.7642 118.635 22.5432 103.792 32.351" stroke="#1F4172" stroke-width="3.26493" stroke-linecap="round" stroke-linejoin="round"/>
<path d="M56.1691 105.179C49.3046 101.576 34.34 99.2274 23.5462 100.558" stroke="#1F4172" stroke-width="3.26493" stroke-linecap="round" stroke-linejoin="round"/>
<path d="M54.3936 112.385C46.4639 110.999 20.3077 109.198 10.1885 119.591" stroke="#1F4172" stroke-width="3.26493" stroke-linecap="round" stroke-linejoin="round"/>
<path d="M49.7781 119.729C42.2035 121.346 25.847 126.215 21.0182 132.756" stroke="#1F4172" stroke-width="3.26493" stroke-linecap="round" stroke-linejoin="round"/>
<path d="M100.826 105.179C107.157 101.576 124.599 98.7212 134.554 100.051" stroke="#1F4172" stroke-width="3.26493" stroke-linecap="round" stroke-linejoin="round"/>
<path d="M102.602 112.385C110.532 110.999 136.688 109.198 146.807 119.591" stroke="#1F4172" stroke-width="3.26493" stroke-linecap="round" stroke-linejoin="round"/>
<path d="M99.8338 72.6055C97.8491 72.6055 90.5716 72.2748 93.5488 64.3357" stroke="#1F4172" stroke-width="3.26493" stroke-linecap="round" stroke-linejoin="round"/>
<path d="M107.218 119.729C114.792 121.346 131.149 126.215 135.977 132.756" stroke="#1F4172" stroke-width="3.26493" stroke-linecap="round" stroke-linejoin="round"/>
<path d="M68.5547 96.5879C68.9459 97.1095 75.0751 103.369 77.4225 103.369C79.7699 103.369 85.8991 97.1095 86.2903 96.5879" stroke="#1F4172" stroke-width="3.26493" stroke-linecap="round" stroke-linejoin="round"/>
<path d="M60.552 119.743C60.552 119.743 70.145 109.654 77.5879 109.654C85.0307 109.654 94.7892 119.743 94.7892 119.743" stroke="#1F4172" stroke-width="3.26493" stroke-linecap="round" stroke-linejoin="round"/>
<path d="M77.5878 103.369L77.5878 109.654" stroke="#1F4172" stroke-width="3.26493" stroke-linecap="round" stroke-linejoin="round"/>
<path d="M55.7938 72.6055C57.7785 72.6055 65.056 72.2748 62.0789 64.3357" stroke="#1F4172" stroke-width="3.26493" stroke-linecap="round" stroke-linejoin="round"/>
<path d="M118.331 43.6765C126.509 34.8587 144.818 16.8661 151.815 15.1594" stroke="#1F4172" stroke-width="3.26493" stroke-linecap="round" stroke-linejoin="round"/>
<path d="M37.6772 44.0336C29.4994 35.2158 11.3992 16.8661 4.40183 15.1594" stroke="#1F4172" stroke-width="3.26493" stroke-linecap="round" stroke-linejoin="round"/>
<path d="M113.628 71.6929V78.3062" stroke="#1F4172" stroke-width="3.26493" stroke-linecap="round" stroke-linejoin="round"/>
<path d="M40.8817 71.6929V78.3062" stroke="#1F4172" stroke-width="3.26493" stroke-linecap="round" stroke-linejoin="round"/>
</svg>
