<svg width="520" height="84" viewBox="0 0 520 84" fill="none" xmlns="http://www.w3.org/2000/svg">
<path d="M0.324493 14.75C0.324493 13.9583 0.30366 13.1042 0.261993 12.1875C0.220327 11.2708 0.282827 10.4167 0.449493 9.625C0.657827 8.83333 0.99116 8.1875 1.44949 7.6875C1.94949 7.14583 2.74116 6.875 3.82449 6.875C4.61616 7.95833 5.11616 9.3125 5.32449 10.9375C5.57449 12.5208 5.74116 14.2083 5.82449 16C5.90783 17.75 5.99116 19.5 6.07449 21.25C6.19949 23 6.55366 24.5417 7.13699 25.875C7.17866 26.0417 7.36616 26.2917 7.69949 26.625C8.07449 26.9167 8.32449 27.1042 8.44949 27.1875C9.69949 26.1042 10.8245 24.9792 11.8245 23.8125C12.8662 22.6458 13.887 21.5208 14.887 20.4375C15.887 19.3125 16.887 18.25 17.887 17.25C18.887 16.25 19.9703 15.375 21.137 14.625C22.3453 13.875 23.6787 13.2917 25.137 12.875C26.637 12.4167 28.3245 12.1875 30.1995 12.1875C30.1995 13.1875 29.8453 14.1875 29.137 15.1875C28.4287 16.1875 27.5328 17.2083 26.4495 18.25C25.3662 19.25 24.1787 20.2917 22.887 21.375C21.5953 22.4167 20.3453 23.5 19.137 24.625C17.9287 25.7083 16.8453 26.8125 15.887 27.9375C14.9287 29.0208 14.2412 30.125 13.8245 31.25C14.5328 31.4167 15.6995 31.8333 17.3245 32.5C18.9912 33.125 20.8662 33.9167 22.9495 34.875C25.0745 35.7917 27.262 36.7917 29.512 37.875C31.762 38.9583 33.8245 40.0417 35.6995 41.125C37.5745 42.1667 39.0953 43.1667 40.262 44.125C41.4703 45.0417 42.0745 45.7917 42.0745 46.375C42.0745 46.5 42.0745 46.7708 42.0745 47.1875C42.0745 47.5625 42.0328 47.9583 41.9495 48.375C41.9078 48.7917 41.7828 49.1667 41.5745 49.5C41.3662 49.7917 41.0328 49.9375 40.5745 49.9375C38.8245 49.8958 37.1787 49.5833 35.637 49C34.0953 48.375 32.5953 47.625 31.137 46.75C29.6787 45.8333 28.2203 44.8958 26.762 43.9375C25.3453 42.9375 23.887 42 22.387 41.125C20.887 40.2083 19.3245 39.4792 17.6995 38.9375C16.1162 38.3542 14.387 38.0208 12.512 37.9375C11.887 38.9375 11.6162 39.9167 11.6995 40.875C11.7828 41.7917 12.0537 42.7292 12.512 43.6875C13.012 44.6042 13.5953 45.5625 14.262 46.5625C14.9287 47.5208 15.512 48.5417 16.012 49.625C16.512 50.6667 16.8453 51.7708 17.012 52.9375C17.1787 54.1042 16.9912 55.3333 16.4495 56.625C16.3662 56.75 16.1995 56.8958 15.9495 57.0625C15.7412 57.1875 15.4912 57.3333 15.1995 57.5C14.9495 57.6667 14.6787 57.7917 14.387 57.875C14.0953 57.9583 13.9078 58 13.8245 58C13.2828 58 12.6787 57.4792 12.012 56.4375C11.387 55.3958 10.6995 53.9792 9.94949 52.1875C9.24116 50.3958 8.49116 48.3542 7.69949 46.0625C6.94949 43.7292 6.19949 41.3333 5.44949 38.875C4.74116 36.375 4.07449 33.875 3.44949 31.375C2.86616 28.8333 2.32449 26.4792 1.82449 24.3125C1.36616 22.1042 0.99116 20.1667 0.699493 18.5C0.449493 16.8333 0.324493 15.5833 0.324493 14.75ZM43.2335 40.625C43.2335 38.375 43.5043 36.125 44.046 33.875C44.5877 31.625 45.4418 29.6042 46.6085 27.8125C47.8168 26.0208 49.3585 24.5625 51.2335 23.4375C53.1502 22.3125 55.4627 21.75 58.171 21.75C59.7127 21.75 61.0668 22.0417 62.2335 22.625C63.4002 23.1667 64.3793 23.8958 65.171 24.8125C65.9627 25.7292 66.546 26.8125 66.921 28.0625C67.3377 29.2708 67.546 30.5417 67.546 31.875C67.546 34 67.046 36.0625 66.046 38.0625C65.0877 40.0625 63.7752 41.8333 62.1085 43.375C60.4835 44.875 58.6085 46.0208 56.4835 46.8125C54.3585 47.5625 52.1918 47.7292 49.9835 47.3125C50.0252 48.5208 50.421 49.5 51.171 50.25C51.9627 50.9583 52.9002 51.5 53.9835 51.875C55.0668 52.25 56.1918 52.5 57.3585 52.625C58.5252 52.7083 59.5668 52.75 60.4835 52.75C61.4418 52.75 62.3377 52.6667 63.171 52.5C64.0043 52.3333 64.8377 52.1458 65.671 51.9375C66.5043 51.7292 67.3377 51.5417 68.171 51.375C69.046 51.2083 69.9627 51.125 70.921 51.125C71.296 51.125 71.671 51.1458 72.046 51.1875C72.421 51.2292 72.7752 51.3333 73.1085 51.5C73.4418 51.625 73.7127 51.8542 73.921 52.1875C74.1293 52.4792 74.2335 52.8542 74.2335 53.3125C74.2335 54.1042 73.9418 54.7708 73.3585 55.3125C72.7752 55.8125 72.0252 56.25 71.1085 56.625C70.2335 57 69.2543 57.2917 68.171 57.5C67.0877 57.6667 66.0252 57.8125 64.9835 57.9375C63.9835 58.0208 63.046 58.0625 62.171 58.0625C61.3377 58.1042 60.7127 58.125 60.296 58.125C57.6293 58.125 55.2335 57.7083 53.1085 56.875C50.9835 56 49.1918 54.8125 47.7335 53.3125C46.2752 51.7708 45.1502 49.9375 44.3585 47.8125C43.6085 45.6458 43.2335 43.25 43.2335 40.625ZM49.8585 36.5625C49.8585 38.0208 50.046 39.0833 50.421 39.75C50.8377 40.4167 51.8168 40.75 53.3585 40.75C54.4418 40.75 55.5043 40.5625 56.546 40.1875C57.5877 39.7708 58.5252 39.2083 59.3585 38.5C60.2335 37.7917 60.921 36.9583 61.421 36C61.921 35.0417 62.171 34 62.171 32.875C62.171 32.25 62.1085 31.6042 61.9835 30.9375C61.9002 30.2708 61.6918 29.6667 61.3585 29.125C61.0252 28.5417 60.5877 28.0833 60.046 27.75C59.546 27.375 58.8793 27.1875 58.046 27.1875C56.796 27.1875 55.6502 27.4792 54.6085 28.0625C53.6085 28.6042 52.7543 29.3333 52.046 30.25C51.3377 31.125 50.796 32.125 50.421 33.25C50.046 34.3333 49.8585 35.4375 49.8585 36.5625ZM75.83 25.6875C75.83 25.3125 75.83 24.9375 75.83 24.5625C75.8717 24.1458 75.955 23.7708 76.08 23.4375C76.2467 23.0625 76.455 22.7917 76.705 22.625C76.9967 22.4167 77.4133 22.3125 77.955 22.3125C77.9967 22.3125 78.0383 22.3125 78.08 22.3125C78.1633 22.3125 78.2467 22.3125 78.33 22.3125C78.455 22.3542 78.5592 22.375 78.6425 22.375C79.4342 23.4583 80.1217 24.8542 80.705 26.5625C81.2883 28.2292 81.8508 30.0208 82.3925 31.9375C82.9342 33.8125 83.5175 35.7292 84.1425 37.6875C84.7675 39.6042 85.58 41.3333 86.58 42.875C87.58 44.4167 88.8092 45.6458 90.2675 46.5625C91.7258 47.4792 93.5383 47.875 95.705 47.75C96.6633 47.75 97.2883 47.2292 97.58 46.1875C97.8717 45.1458 98.0175 43.8125 98.0175 42.1875C98.0592 40.5625 98.0175 38.7708 97.8925 36.8125C97.8092 34.8542 97.8092 33 97.8925 31.25C98.0175 29.4583 98.33 27.8958 98.83 26.5625C99.3717 25.2292 100.288 24.3333 101.58 23.875C102.122 24.9583 102.559 26.6667 102.892 29C103.267 31.2917 103.538 33.9583 103.705 37C103.872 40 103.955 43.2708 103.955 46.8125C103.955 50.3125 103.872 53.8125 103.705 57.3125C103.538 60.7708 103.288 64.1042 102.955 67.3125C102.622 70.5208 102.247 73.3333 101.83 75.75C101.413 78.1667 100.913 80.0625 100.33 81.4375C99.7883 82.8542 99.205 83.4583 98.58 83.25C97.705 82.4167 97.0175 81.3333 96.5175 80C96.0592 78.6667 95.7258 77.1875 95.5175 75.5625C95.3508 73.9375 95.2883 72.2083 95.33 70.375C95.3717 68.5833 95.4342 66.7708 95.5175 64.9375C95.6425 63.1042 95.7675 61.3125 95.8925 59.5625C96.0592 57.8125 96.1425 56.2083 96.1425 54.75C94.6425 54.875 93.1008 54.6458 91.5175 54.0625C89.9758 53.4792 88.455 52.5833 86.955 51.375C85.455 50.125 84.0175 48.625 82.6425 46.875C81.3092 45.125 80.1217 43.1458 79.08 40.9375C78.08 38.7292 77.2883 36.3542 76.705 33.8125C76.1217 31.2292 75.83 28.5208 75.83 25.6875ZM147.585 3.125C147.835 2.375 148.19 1.9375 148.648 1.8125C149.148 1.6875 149.71 1.625 150.335 1.625C151.294 1.625 152.356 2.27083 153.523 3.5625C154.731 4.8125 155.96 6.5 157.21 8.625C158.46 10.75 159.71 13.1875 160.96 15.9375C162.252 18.6875 163.481 21.5417 164.648 24.5C165.856 27.4167 166.981 30.3333 168.023 33.25C169.065 36.1667 169.96 38.8542 170.71 41.3125C171.502 43.7292 172.106 45.8333 172.523 47.625C172.94 49.4167 173.148 50.6458 173.148 51.3125C173.148 51.9792 172.981 52.625 172.648 53.25C172.356 53.8333 171.815 54.125 171.023 54.125C170.523 54.125 170.085 53.9792 169.71 53.6875C169.377 53.3542 169.085 52.9583 168.835 52.5C168.585 52.0417 168.356 51.5833 168.148 51.125C167.94 50.6667 167.752 50.2708 167.585 49.9375C167.419 49.4792 167.065 48.6042 166.523 47.3125C166.023 46.0208 165.481 44.6667 164.898 43.25C164.356 41.8333 163.835 40.5 163.335 39.25C162.835 38 162.481 37.1042 162.273 36.5625C159.356 36.0625 156.419 35.6042 153.46 35.1875C150.544 34.7292 147.46 34.2917 144.21 33.875H143.523C142.023 40.3333 140.69 45.4375 139.523 49.1875C138.398 52.9375 137.44 55.6042 136.648 57.1875C135.898 58.7708 135.294 59.4167 134.835 59.125C134.419 58.875 134.127 57.9375 133.96 56.3125C133.835 54.6458 133.856 52.4375 134.023 49.6875C134.231 46.9375 134.585 43.9167 135.085 40.625C135.627 37.2917 136.273 33.8125 137.023 30.1875C137.773 26.5625 138.669 23.0625 139.71 19.6875C140.794 16.3125 141.981 13.1875 143.273 10.3125C144.606 7.39583 146.044 5 147.585 3.125ZM146.085 25.125C146.085 26.6667 146.585 27.8125 147.585 28.5625C148.585 29.2708 149.794 29.7292 151.21 29.9375C152.627 30.1458 154.106 30.2292 155.648 30.1875C157.231 30.1458 158.585 30.125 159.71 30.125C159.71 28.4583 159.44 26.6667 158.898 24.75C158.356 22.7917 157.669 20.8542 156.835 18.9375C156.002 17.0208 155.106 15.1667 154.148 13.375C153.231 11.5417 152.377 9.89583 151.585 8.4375C151.127 8.89583 150.627 9.75 150.085 11C149.585 12.2083 149.065 13.5833 148.523 15.125C148.023 16.625 147.565 18.1042 147.148 19.5625C146.731 21.0208 146.419 22.2083 146.21 23.125C146.21 23.25 146.19 23.5833 146.148 24.125C146.106 24.625 146.085 24.9583 146.085 25.125ZM175.744 31.75C175.744 31.375 175.765 31 175.807 30.625C175.849 30.2083 175.932 29.8542 176.057 29.5625C176.182 29.2292 176.369 28.9583 176.619 28.75C176.911 28.5417 177.307 28.4375 177.807 28.4375C178.224 28.4375 178.682 28.7708 179.182 29.4375C179.724 30.0625 180.265 30.875 180.807 31.875C181.349 32.8333 181.869 33.8958 182.369 35.0625C182.911 36.2292 183.369 37.3125 183.744 38.3125C184.161 39.2708 184.494 40.1042 184.744 40.8125C184.994 41.5208 185.14 41.8958 185.182 41.9375C185.724 40.4792 186.328 38.8958 186.994 37.1875C187.661 35.4792 188.474 33.8958 189.432 32.4375C190.432 30.9375 191.599 29.6875 192.932 28.6875C194.307 27.6875 195.974 27.1875 197.932 27.1875C198.932 27.1875 199.869 27.3542 200.744 27.6875C201.661 27.9792 202.453 28.4375 203.119 29.0625C203.828 29.6458 204.39 30.3542 204.807 31.1875C205.224 32.0208 205.432 32.9792 205.432 34.0625C205.432 34.9792 205.057 35.625 204.307 36C203.599 36.375 202.786 36.5625 201.869 36.5625H201.244L198.557 33.875C198.474 33.875 198.411 33.8542 198.369 33.8125C198.286 33.8125 198.203 33.8125 198.119 33.8125C198.078 33.7708 198.015 33.75 197.932 33.75C196.474 33.75 195.328 34.1667 194.494 35C193.703 35.7917 193.099 36.7917 192.682 38C192.265 39.1667 191.994 40.4167 191.869 41.75C191.786 43.0417 191.744 44.2292 191.744 45.3125C191.744 46.1458 191.828 47 191.994 47.875C192.161 48.7083 192.349 49.5417 192.557 50.375C192.765 51.1667 192.953 52 193.119 52.875C193.286 53.7083 193.369 54.5833 193.369 55.5C193.369 57.25 192.432 58.125 190.557 58.125C189.515 58.125 188.432 57.5833 187.307 56.5C186.182 55.375 185.057 53.9583 183.932 52.25C182.849 50.5417 181.807 48.6667 180.807 46.625C179.807 44.5417 178.932 42.5208 178.182 40.5625C177.432 38.6042 176.828 36.8333 176.369 35.25C175.953 33.6667 175.744 32.5 175.744 31.75ZM206.466 40.625C206.466 38.375 206.737 36.125 207.278 33.875C207.82 31.625 208.674 29.6042 209.841 27.8125C211.049 26.0208 212.591 24.5625 214.466 23.4375C216.383 22.3125 218.695 21.75 221.403 21.75C222.945 21.75 224.299 22.0417 225.466 22.625C226.633 23.1667 227.612 23.8958 228.403 24.8125C229.195 25.7292 229.778 26.8125 230.153 28.0625C230.57 29.2708 230.778 30.5417 230.778 31.875C230.778 34 230.278 36.0625 229.278 38.0625C228.32 40.0625 227.008 41.8333 225.341 43.375C223.716 44.875 221.841 46.0208 219.716 46.8125C217.591 47.5625 215.424 47.7292 213.216 47.3125C213.258 48.5208 213.653 49.5 214.403 50.25C215.195 50.9583 216.133 51.5 217.216 51.875C218.299 52.25 219.424 52.5 220.591 52.625C221.758 52.7083 222.799 52.75 223.716 52.75C224.674 52.75 225.57 52.6667 226.403 52.5C227.237 52.3333 228.07 52.1458 228.903 51.9375C229.737 51.7292 230.57 51.5417 231.403 51.375C232.278 51.2083 233.195 51.125 234.153 51.125C234.528 51.125 234.903 51.1458 235.278 51.1875C235.653 51.2292 236.008 51.3333 236.341 51.5C236.674 51.625 236.945 51.8542 237.153 52.1875C237.362 52.4792 237.466 52.8542 237.466 53.3125C237.466 54.1042 237.174 54.7708 236.591 55.3125C236.008 55.8125 235.258 56.25 234.341 56.625C233.466 57 232.487 57.2917 231.403 57.5C230.32 57.6667 229.258 57.8125 228.216 57.9375C227.216 58.0208 226.278 58.0625 225.403 58.0625C224.57 58.1042 223.945 58.125 223.528 58.125C220.862 58.125 218.466 57.7083 216.341 56.875C214.216 56 212.424 54.8125 210.966 53.3125C209.508 51.7708 208.383 49.9375 207.591 47.8125C206.841 45.6458 206.466 43.25 206.466 40.625ZM213.091 36.5625C213.091 38.0208 213.278 39.0833 213.653 39.75C214.07 40.4167 215.049 40.75 216.591 40.75C217.674 40.75 218.737 40.5625 219.778 40.1875C220.82 39.7708 221.758 39.2083 222.591 38.5C223.466 37.7917 224.153 36.9583 224.653 36C225.153 35.0417 225.403 34 225.403 32.875C225.403 32.25 225.341 31.6042 225.216 30.9375C225.133 30.2708 224.924 29.6667 224.591 29.125C224.258 28.5417 223.82 28.0833 223.278 27.75C222.778 27.375 222.112 27.1875 221.278 27.1875C220.028 27.1875 218.883 27.4792 217.841 28.0625C216.841 28.6042 215.987 29.3333 215.278 30.25C214.57 31.125 214.028 32.125 213.653 33.25C213.278 34.3333 213.091 35.4375 213.091 36.5625ZM267 49.9375C265.417 51.0208 264.042 52 262.875 52.875C261.75 53.7083 260.646 54.4167 259.562 55C258.479 55.5833 257.312 56.0208 256.062 56.3125C254.854 56.6042 253.354 56.75 251.562 56.75C247.688 56.75 244.812 55.7292 242.938 53.6875C241.062 51.6042 240.125 48.5208 240.125 44.4375C240.125 42.8542 240.333 41.2083 240.75 39.5C241.167 37.7917 241.771 36.1042 242.562 34.4375C243.396 32.7292 244.375 31.125 245.5 29.625C246.625 28.0833 247.896 26.7292 249.312 25.5625C250.729 24.3958 252.229 23.4792 253.812 22.8125C255.438 22.1042 257.146 21.75 258.938 21.75C261.938 22.0417 264.292 22.7917 266 24C267.708 25.1667 269 26.6875 269.875 28.5625C270.75 30.3958 271.354 32.4583 271.688 34.75C272.021 37 272.271 39.3333 272.438 41.75C272.646 44.1667 272.896 46.5833 273.188 49C273.479 51.4167 274.083 53.6458 275 55.6875C274.458 57.0625 273.938 58.0208 273.438 58.5625C272.979 59.1458 272.458 59.25 271.875 58.875C271.292 58.5 270.604 57.5833 269.812 56.125C269.062 54.6667 268.125 52.6042 267 49.9375ZM245.438 44.5625C245.438 46.9375 245.875 48.6875 246.75 49.8125C247.667 50.8958 249.271 51.4375 251.562 51.4375C253.271 51.4375 254.896 51.1458 256.438 50.5625C258.021 49.9375 259.396 49.1042 260.562 48.0625C261.729 46.9792 262.667 45.6875 263.375 44.1875C264.083 42.6875 264.438 41.0208 264.438 39.1875C264.438 38.4375 264.458 37.3958 264.5 36.0625C264.542 34.6875 264.458 33.3333 264.25 32C264.042 30.6667 263.646 29.5208 263.062 28.5625C262.479 27.5625 261.604 27.0625 260.438 27.0625C258.271 27.0625 256.271 27.625 254.438 28.75C252.604 29.8333 251.021 31.2292 249.688 32.9375C248.354 34.6458 247.312 36.5417 246.562 38.625C245.812 40.6667 245.438 42.6458 245.438 44.5625ZM289.721 55.1875C290.388 54.7292 291.18 54.1458 292.096 53.4375C293.055 52.6875 294.013 51.8958 294.971 51.0625C295.93 50.2292 296.826 49.3542 297.659 48.4375C298.492 47.5208 299.138 46.6458 299.596 45.8125C300.096 44.9375 300.346 44.125 300.346 43.375C300.346 42.625 299.971 42 299.221 41.5C297.888 41.5 296.43 41.5625 294.846 41.6875C293.263 41.7708 291.68 41.8125 290.096 41.8125C288.513 41.7708 286.971 41.625 285.471 41.375C284.013 41.125 282.701 40.6667 281.534 40C280.367 39.3333 279.43 38.3958 278.721 37.1875C278.055 35.9375 277.721 34.3542 277.721 32.4375C277.721 30.1875 278.138 28.1667 278.971 26.375C279.846 24.5417 280.992 22.9375 282.409 21.5625C283.826 20.1458 285.409 18.9167 287.159 17.875C288.951 16.7917 290.742 15.875 292.534 15.125C293.617 15.4167 294.617 15.9375 295.534 16.6875C296.451 17.4375 297.242 18.2708 297.909 19.1875C297.617 20.1042 297.034 20.8125 296.159 21.3125C295.326 21.8125 294.346 22.25 293.221 22.625C292.138 23 290.992 23.3958 289.784 23.8125C288.576 24.2292 287.471 24.7917 286.471 25.5C285.513 26.1667 284.701 27.0625 284.034 28.1875C283.367 29.2708 283.034 30.7083 283.034 32.5C283.034 33.8333 283.367 34.8125 284.034 35.4375C284.701 36.0625 285.576 36.5 286.659 36.75C287.742 36.9583 288.971 37.0417 290.346 37C291.721 36.9167 293.117 36.8125 294.534 36.6875C295.992 36.5625 297.409 36.5 298.784 36.5C300.159 36.4583 301.388 36.625 302.471 37C303.555 37.3333 304.409 37.8958 305.034 38.6875C305.701 39.4792 306.034 40.6458 306.034 42.1875C306.034 42.8542 305.805 43.7083 305.346 44.75C304.93 45.7917 304.346 46.9167 303.596 48.125C302.888 49.2917 302.034 50.4583 301.034 51.625C300.076 52.7917 299.055 53.8542 297.971 54.8125C296.93 55.7292 295.867 56.5 294.784 57.125C293.742 57.7083 292.763 58 291.846 58C290.971 58 290.388 57.6875 290.096 57.0625C289.846 56.4375 289.721 55.8125 289.721 55.1875ZM333.664 40.625C333.664 38.5 333.935 36.3542 334.477 34.1875C335.06 31.9792 335.852 29.875 336.852 27.875C337.894 25.875 339.144 24.0208 340.602 22.3125C342.06 20.5625 343.664 19.0625 345.414 17.8125C347.206 16.5208 349.144 15.5208 351.227 14.8125C353.31 14.0625 355.498 13.6875 357.789 13.6875C360.081 13.6875 362.06 14.1458 363.727 15.0625C365.435 15.9375 366.852 17.125 367.977 18.625C369.102 20.125 369.935 21.8542 370.477 23.8125C371.019 25.7292 371.289 27.6875 371.289 29.6875C371.289 33.1875 370.769 36.6458 369.727 40.0625C368.685 43.4375 367.144 46.4792 365.102 49.1875C363.06 51.8542 360.519 54.0208 357.477 55.6875C354.477 57.3125 351.019 58.125 347.102 58.125C344.769 58.125 342.748 57.6042 341.039 56.5625C339.373 55.4792 337.977 54.1042 336.852 52.4375C335.769 50.7292 334.956 48.8542 334.414 46.8125C333.914 44.7292 333.664 42.6667 333.664 40.625ZM338.977 42C338.977 43.125 339.164 44.3125 339.539 45.5625C339.914 46.8125 340.435 47.9583 341.102 49C341.769 50.0417 342.602 50.9167 343.602 51.625C344.644 52.3333 345.81 52.6875 347.102 52.6875C349.894 52.6875 352.435 52.0625 354.727 50.8125C357.019 49.5208 358.998 47.875 360.664 45.875C362.331 43.8333 363.623 41.5625 364.539 39.0625C365.456 36.5625 365.914 34.0833 365.914 31.625C365.914 30.2083 365.873 28.75 365.789 27.25C365.706 25.75 365.435 24.3958 364.977 23.1875C364.519 21.9375 363.789 20.9375 362.789 20.1875C361.831 19.3958 360.435 19 358.602 19C358.019 19 357.227 19.0208 356.227 19.0625C355.269 19.1042 354.31 19.2292 353.352 19.4375C352.394 19.6042 351.539 19.875 350.789 20.25C350.081 20.625 349.727 21.1458 349.727 21.8125C349.727 21.8958 349.789 22.0833 349.914 22.375C350.081 22.625 350.248 22.8958 350.414 23.1875C350.581 23.4792 350.727 23.7708 350.852 24.0625C350.977 24.3125 351.039 24.4792 351.039 24.5625C351.039 24.6458 350.873 24.875 350.539 25.25C350.206 25.5833 349.935 25.7917 349.727 25.875C347.644 26.4167 345.894 27.1042 344.477 27.9375C343.102 28.7292 341.998 29.7708 341.164 31.0625C340.373 32.3542 339.81 33.8958 339.477 35.6875C339.144 37.4792 338.977 39.5833 338.977 42ZM399.323 63.8125C398.448 62.1875 397.469 60.1667 396.386 57.75C395.344 55.2917 394.261 52.75 393.136 50.125C392.011 47.4583 390.823 44.8542 389.573 42.3125C388.365 39.7708 387.136 37.5625 385.886 35.6875C385.386 35.3125 384.698 35.0833 383.823 35C382.948 34.9167 382.032 34.8958 381.073 34.9375C380.115 34.9375 379.157 34.9167 378.198 34.875C377.282 34.7917 376.469 34.5625 375.761 34.1875C375.094 33.8125 374.594 33.2292 374.261 32.4375C373.928 31.6458 373.865 30.5 374.073 29H384.573C384.782 26.6667 385.136 24.3542 385.636 22.0625C386.136 19.7708 386.803 17.5833 387.636 15.5C388.511 13.4167 389.553 11.4792 390.761 9.6875C391.969 7.89583 393.428 6.35417 395.136 5.0625C396.844 3.77083 398.803 2.75 401.011 2C403.261 1.25 405.803 0.875 408.636 0.875C409.636 0.875 410.636 1.125 411.636 1.625C412.636 2.08333 413.532 2.70833 414.323 3.5C415.115 4.29167 415.74 5.1875 416.198 6.1875C416.698 7.1875 416.948 8.1875 416.948 9.1875C416.157 9.1875 415.448 9.04167 414.823 8.75C414.198 8.41667 413.594 8.0625 413.011 7.6875C412.428 7.27083 411.803 6.89583 411.136 6.5625C410.469 6.1875 409.719 6 408.886 6C406.386 6 404.053 6.5 401.886 7.5C399.761 8.5 397.886 9.83333 396.261 11.5C394.678 13.1667 393.428 15.1042 392.511 17.3125C391.594 19.5208 391.136 21.8542 391.136 24.3125C391.136 24.4792 391.136 24.7917 391.136 25.25C391.178 25.6667 391.198 26.125 391.198 26.625C391.198 27.125 391.198 27.6042 391.198 28.0625C391.24 28.5208 391.261 28.8333 391.261 29C392.803 29.5 394.532 29.875 396.448 30.125C398.365 30.375 400.282 30.5417 402.198 30.625C404.157 30.6667 406.032 30.6458 407.823 30.5625C409.657 30.4792 411.282 30.375 412.698 30.25C412.823 30.375 413.053 30.6042 413.386 30.9375C413.719 31.2708 413.907 31.5208 413.948 31.6875C413.948 31.8125 413.969 31.8958 414.011 31.9375C414.094 32.1875 414.136 32.3125 414.136 32.3125C414.136 33.1875 413.678 33.875 412.761 34.375C411.844 34.875 410.678 35.25 409.261 35.5C407.844 35.7083 406.261 35.8542 404.511 35.9375C402.803 36.0208 401.136 36.1042 399.511 36.1875C397.928 36.2292 396.49 36.3125 395.198 36.4375C393.948 36.5208 393.073 36.7083 392.573 37C393.115 39.5 394.073 41.9167 395.448 44.25C396.865 46.5833 398.303 48.9167 399.761 51.25C401.219 53.5833 402.511 55.9375 403.636 58.3125C404.761 60.6875 405.323 63.125 405.323 65.625C405.157 65.625 404.761 65.625 404.136 65.625C403.553 65.6667 402.928 65.6458 402.261 65.5625C401.594 65.4792 400.948 65.2917 400.323 65C399.74 64.75 399.407 64.3542 399.323 63.8125ZM445.829 15.125C446.496 15.625 447.037 16.25 447.454 17C447.871 17.7083 448.204 18.4375 448.454 19.1875C448.496 20.7708 448.516 22.6667 448.516 24.875C448.516 27.0833 448.6 29.375 448.766 31.75C448.933 34.125 449.246 36.5 449.704 38.875C450.162 41.2083 450.871 43.3125 451.829 45.1875C452.829 47.0625 454.141 48.5833 455.766 49.75C457.433 50.875 459.516 51.4375 462.016 51.4375C464.308 51.4375 466.266 50.8958 467.891 49.8125C469.558 48.7292 470.933 47.3542 472.016 45.6875C473.141 44.0208 473.954 42.1667 474.454 40.125C474.996 38.0417 475.266 36.0208 475.266 34.0625C475.266 30.2708 475.079 26.4167 474.704 22.5C474.329 18.5417 473.641 14.7292 472.641 11.0625C472.933 10.3125 473.308 9.89583 473.766 9.8125C474.225 9.6875 474.725 9.625 475.266 9.625C476.35 9.625 477.204 10.0625 477.829 10.9375C478.454 11.8125 478.912 12.9375 479.204 14.3125C479.537 15.6458 479.725 17.125 479.766 18.75C479.85 20.3333 479.85 21.8542 479.766 23.3125C479.725 24.7292 479.641 26 479.516 27.125C479.433 28.2083 479.391 28.8958 479.391 29.1875C479.391 31.3542 479.329 33.5625 479.204 35.8125C479.121 38.0208 478.871 40.1458 478.454 42.1875C478.079 44.2292 477.496 46.1458 476.704 47.9375C475.954 49.6875 474.933 51.2292 473.641 52.5625C472.35 53.8542 470.746 54.875 468.829 55.625C466.912 56.375 464.621 56.75 461.954 56.75C458.579 56.75 455.808 56.1042 453.641 54.8125C451.475 53.5208 449.725 51.8125 448.391 49.6875C447.1 47.5208 446.121 45.0625 445.454 42.3125C444.829 39.5625 444.371 36.75 444.079 33.875C443.829 31 443.641 28.1667 443.516 25.375C443.433 22.5833 443.308 20.0625 443.141 17.8125L445.829 15.125ZM489.988 51.4375C489.988 49.6875 490.134 47.9792 490.426 46.3125C490.717 44.6458 491.03 42.9792 491.363 41.3125C491.696 39.6458 492.009 38 492.301 36.375C492.634 34.7083 492.801 33 492.801 31.25V29.875C492.592 29.7083 492.176 29.3542 491.551 28.8125C490.926 28.2292 490.217 27.5417 489.426 26.75C488.676 25.9583 487.842 25.0833 486.926 24.125C486.051 23.125 485.238 22.1042 484.488 21.0625C483.78 20.0208 483.176 19 482.676 18C482.217 17 481.988 16.0417 481.988 15.125C481.988 14.9583 481.988 14.7083 481.988 14.375C482.03 14.0417 482.071 13.75 482.113 13.5C482.196 13.2083 482.342 12.9583 482.551 12.75C482.759 12.5417 483.03 12.4375 483.363 12.4375C484.363 12.4375 485.217 12.7083 485.926 13.25C486.676 13.7917 487.342 14.4792 487.926 15.3125C488.509 16.1042 489.051 16.9792 489.551 17.9375C490.051 18.8542 490.571 19.7292 491.113 20.5625C491.696 21.3542 492.321 22.0208 492.988 22.5625C493.696 23.1042 494.53 23.375 495.488 23.375C496.446 23.375 497.321 23.0625 498.113 22.4375C498.905 21.8125 499.655 21.0417 500.363 20.125C501.113 19.1667 501.863 18.1458 502.613 17.0625C503.405 15.9375 504.259 14.9167 505.176 14C506.092 13.0417 507.134 12.25 508.301 11.625C509.467 11 510.821 10.6875 512.363 10.6875C512.363 11.8125 512.092 12.8333 511.551 13.75C511.051 14.6667 510.426 15.5417 509.676 16.375C508.926 17.1667 508.092 17.9583 507.176 18.75C506.301 19.5417 505.467 20.375 504.676 21.25C503.926 22.0833 503.301 23 502.801 24C502.301 25 502.051 26.1042 502.051 27.3125C502.051 27.8958 502.467 28.7083 503.301 29.75C504.134 30.7917 505.155 31.9375 506.363 33.1875C507.613 34.3958 508.967 35.6458 510.426 36.9375C511.884 38.1875 513.259 39.3542 514.551 40.4375C515.842 41.5208 516.946 42.4375 517.863 43.1875C518.78 43.9375 519.342 44.3958 519.551 44.5625C519.551 44.6458 519.571 44.875 519.613 45.25C519.655 45.5833 519.676 45.8125 519.676 45.9375C519.676 46.6458 519.509 47.2917 519.176 47.875C518.884 48.4583 518.342 48.75 517.551 48.75C517.467 48.75 517.342 48.7292 517.176 48.6875C517.051 48.6458 516.967 48.625 516.926 48.625C516.592 48.3333 516.113 47.9167 515.488 47.375C514.905 46.7917 514.217 46.1458 513.426 45.4375C512.634 44.7292 511.801 44 510.926 43.25C510.051 42.4583 509.217 41.7292 508.426 41.0625C507.634 40.3542 506.905 39.7292 506.238 39.1875C505.571 38.6042 505.092 38.1875 504.801 37.9375C504.426 37.6042 503.946 37.2083 503.363 36.75C502.78 36.25 502.196 35.7917 501.613 35.375C501.071 34.9167 500.592 34.5417 500.176 34.25C499.759 33.9583 499.53 33.8333 499.488 33.875L498.113 35.25C497.78 35.625 497.53 36.4375 497.363 37.6875C497.238 38.9375 497.113 40.4167 496.988 42.125C496.863 43.7917 496.738 45.5625 496.613 47.4375C496.488 49.3125 496.28 51.0417 495.988 52.625C495.738 54.2083 495.342 55.5208 494.801 56.5625C494.259 57.6042 493.551 58.125 492.676 58.125C491.884 58.125 491.28 57.875 490.863 57.375C490.488 56.875 490.238 56.2708 490.113 55.5625C489.988 54.8125 489.926 54.0625 489.926 53.3125C489.967 52.5625 489.988 51.9375 489.988 51.4375Z" fill="white"/>
</svg>
