<svg xmlns="http://www.w3.org/2000/svg" width="450" height="450" style="width:100%;height:100%;transform:translate3d(0,0,0);content-visibility:visible" viewBox="0 0 450 450"><defs><clipPath id="c"><path d="M0 0h450v450H0z"/></clipPath><filter id="a" width="100%" height="100%" x="0%" y="0%" filterUnits="objectBoundingBox"><feComponentTransfer in="SourceGraphic"><feFuncA tableValues="1.0 0.0" type="table"/></feComponentTransfer></filter><mask id="d" mask-type="alpha"><g filter="url(#a)"><path fill="#fff" d="M0 0h450v450H0z" opacity="0"/><use xmlns:ns1="http://www.w3.org/1999/xlink" ns1:href="#b"/></g></mask><g id="b" style="display:block"><path fill-opacity="0" stroke="#FFF" stroke-linecap="round" stroke-linejoin="round" stroke-width="0" d="M181.353 267.785c-9.249 0-16.738-7.507-16.738-16.756 0-9.23 7.489-16.739 16.738-16.739 9.248 0 16.739 7.509 16.739 16.739 0 9.249-7.491 16.756-16.739 16.756zm88.044-.091c-9.249 0-16.756-7.507-16.756-16.756 0-9.23 7.507-16.738 16.756-16.738 9.23 0 16.738 7.508 16.738 16.738 0 9.249-7.508 16.756-16.738 16.756z"/><path fill="#FFF" d="M181.353 267.785c-9.249 0-16.738-7.507-16.738-16.756 0-9.23 7.489-16.739 16.738-16.739 9.248 0 16.739 7.509 16.739 16.739 0 9.249-7.491 16.756-16.739 16.756zm88.044-.091c-9.249 0-16.756-7.507-16.756-16.756 0-9.23 7.507-16.738 16.756-16.738 9.23 0 16.738 7.508 16.738 16.738 0 9.249-7.508 16.756-16.738 16.756z"/></g></defs><g clip-path="url(#c)"><g mask="url(#d)" style="display:block"><path fill="#08C18A" d="M86.671 207.97v120.494c0 19.477 15.76 35.235 35.218 35.235h207.334c19.458 0 35.236-15.758 35.236-35.235V207.879c0-15.414-277.788-15.342-277.788.091z"/></g><path style="display:none"/><path style="display:none"/><path style="display:none"/><path style="display:none"/><path style="display:none"/><path style="display:none"/><path fill="#08C18A" d="m40.848 2.595-52.155-52.283c-10.899-10.917-29.541-3.21-29.541 12.223v92.269L89.98 46.822 40.848 2.595z" style="display:block" transform="translate(127.52 165.178)"/><path fill="#08C18A" d="m-39.98 2.595 51.047-52.283c10.667-10.917 28.913-3.21 28.913 12.223v92.269L-86.552 40.107-39.98 2.595z" style="display:block" transform="translate(324.52 165.178)"/><path fill="#08C18A" d="m-83.576 62.036 167.152 1.673-26.999-45.966-41.964-72.666c-6.764-11.715-23.648-11.715-30.412 0l-42.163 73.028-25.614 43.931z" style="display:block" transform="translate(226.33 149.667)"/></g></svg>