<svg width="80" height="14" viewBox="0 0 80 14" fill="none" xmlns="http://www.w3.org/2000/svg">
<path d="M4.98427 0.524102H5.03227C5.29893 0.662769 5.43227 0.817435 5.43227 0.988102L5.03227 4.0281C5.03227 5.13744 5.36293 7.4361 6.02427 10.9241L6.82427 12.9241C6.82427 13.0628 6.71227 13.2174 6.48827 13.3881H6.18427C5.97093 13.3241 5.65093 12.6681 5.22427 11.4201C4.94693 10.4174 4.6696 8.87077 4.39227 6.7801H4.29627C3.6776 8.61477 3.24027 9.5641 2.98427 9.6281L2.72827 9.6921C2.50427 9.6921 2.22693 9.25477 1.89627 8.3801H1.78427C1.65627 11.0148 1.4056 12.3321 1.03227 12.3321H0.984266C0.642932 12.3321 0.456266 12.0654 0.424266 11.5321C0.690932 10.5081 0.824266 9.44144 0.824266 8.3321L0.392266 4.0921V3.7881C0.392266 3.38277 0.536266 3.1801 0.824266 3.1801C1.24027 3.1801 1.60827 3.9961 1.92827 5.6281C2.3976 7.11077 2.6856 7.91077 2.79227 8.0281C3.0376 7.6441 3.28293 6.96144 3.52827 5.9801C3.72027 5.47877 3.90693 4.69477 4.08827 3.6281L4.02427 3.5801L4.08827 3.3241V3.2281C4.18427 1.42544 4.48293 0.524102 4.98427 0.524102ZM10.3214 6.0281C10.7907 6.0281 11.0254 6.21477 11.0254 6.5881L10.8814 6.8921L10.7854 9.8201C10.7854 11.1428 11.0521 11.9641 11.5854 12.2841L11.6174 12.5241C11.5854 12.8334 11.4414 12.9881 11.1854 12.9881H11.0894C10.2894 12.4441 9.88939 11.6121 9.88939 10.4921H9.77739C9.35073 11.6868 8.83339 12.2841 8.22539 12.2841C7.66006 12.1241 7.37739 11.7028 7.37739 11.0201C7.37739 9.5161 7.98006 8.01744 9.18539 6.5241C9.59073 6.19344 9.96939 6.0281 10.3214 6.0281ZM8.38539 10.3801L8.32139 10.8281V11.1321H8.48139C9.28139 9.13744 9.68139 7.92144 9.68139 7.4841H9.61739C8.99873 8.17744 8.58806 9.14277 8.38539 10.3801ZM14.1133 5.9001C14.7853 5.9001 15.1853 6.36944 15.3133 7.3081V7.4521C15.3133 8.48677 14.7799 9.4361 13.7133 10.3001C14.3319 10.9081 15.4146 11.2121 16.9613 11.2121C17.1959 11.2868 17.3133 11.4521 17.3133 11.7081C17.3133 11.9961 17.1266 12.1401 16.7533 12.1401C15.7079 12.1401 14.6093 11.8734 13.4573 11.3401V11.8041C13.4573 12.9028 13.2226 13.4521 12.7533 13.4521C12.4226 13.4521 12.2573 12.8174 12.2573 11.5481V10.3001L12.2093 9.8521L12.3213 9.3401L12.2093 7.8041V7.7401C12.2093 7.4521 12.3586 7.25477 12.6573 7.1481C13.0733 6.3161 13.5586 5.9001 14.1133 5.9001ZM13.3133 9.4041C13.6226 9.4041 13.9693 8.84944 14.3533 7.7401V7.0521L14.1613 6.8441H14.0173C13.5479 7.1641 13.3133 8.01744 13.3133 9.4041ZM20.341 5.0041C20.8424 5.0041 21.189 5.53744 21.381 6.6041V6.6681C21.381 6.91344 21.2157 7.05744 20.885 7.1001C20.6184 7.1001 20.437 6.76944 20.341 6.1081L20.277 6.0601H20.085C19.8504 6.40144 19.733 6.84944 19.733 7.4041L19.781 8.2041C20.2077 8.2041 20.6717 8.0921 21.173 7.8681C21.3757 7.8681 21.5624 8.0121 21.733 8.3001C21.733 8.73744 21.1357 9.02544 19.941 9.1641L20.341 11.7721C20.341 11.9961 20.1544 12.1401 19.781 12.2041C19.4504 12.2041 19.285 11.6921 19.285 10.6681L18.981 9.3081L17.941 9.4681C17.717 9.4681 17.5837 9.30277 17.541 8.9721C17.541 8.6521 17.973 8.44944 18.837 8.3641L18.773 7.3721C18.9437 5.79344 19.4664 5.0041 20.341 5.0041ZM25.1495 6.0281C25.6189 6.0281 25.8535 6.21477 25.8535 6.5881L25.7095 6.8921L25.6135 9.8201C25.6135 11.1428 25.8802 11.9641 26.4135 12.2841L26.4455 12.5241C26.4135 12.8334 26.2695 12.9881 26.0135 12.9881H25.9175C25.1175 12.4441 24.7175 11.6121 24.7175 10.4921H24.6055C24.1789 11.6868 23.6615 12.2841 23.0535 12.2841C22.4882 12.1241 22.2055 11.7028 22.2055 11.0201C22.2055 9.5161 22.8082 8.01744 24.0135 6.5241C24.4189 6.19344 24.7975 6.0281 25.1495 6.0281ZM23.2135 10.3801L23.1495 10.8281V11.1321H23.3095C24.1095 9.13744 24.5095 7.92144 24.5095 7.4841H24.4455C23.8269 8.17744 23.4162 9.14277 23.2135 10.3801ZM35.8206 1.6921H36.0766C37.8153 1.6921 38.93 2.32144 39.4206 3.5801L39.4686 4.0921V4.2521C39.4686 5.48944 38.7166 6.6361 37.2126 7.6921C36.85 7.79877 36.6686 7.9161 36.6686 8.0441C37.0953 9.6761 37.3086 11.0094 37.3086 12.0441V12.2521C37.3086 12.6788 37.1326 12.8921 36.7806 12.8921C36.514 12.8601 36.3806 12.7268 36.3806 12.4921V12.0921C36.3806 10.8654 36.1566 9.5321 35.7086 8.0921C34.8446 8.01744 34.3646 7.78277 34.2686 7.3881V7.2921C34.2686 7.1001 34.418 6.95077 34.7166 6.8441L35.4206 7.0841V7.0521C35.058 5.47344 34.8766 4.40677 34.8766 3.8521C34.8766 3.54277 35.058 3.3881 35.4206 3.3881C35.7513 3.3881 35.9166 3.95344 35.9166 5.0841L36.3806 6.9881C37.1486 6.7321 37.746 6.23077 38.1726 5.4841C38.3966 5.05744 38.5086 4.67877 38.5086 4.3481V4.1401C38.5086 3.26544 37.762 2.76944 36.2686 2.6521H35.6126C34.1513 2.8121 33.4206 3.15877 33.4206 3.6921V3.7881C33.4206 3.9481 33.506 4.19877 33.6766 4.5401C33.6766 4.77477 33.49 4.9241 33.1166 4.9881C32.69 4.78544 32.4766 4.36944 32.4766 3.7401C32.4766 2.56677 33.5913 1.8841 35.8206 1.6921ZM42.2539 5.9001C42.9259 5.9001 43.3259 6.36944 43.4539 7.3081V7.4521C43.4539 8.48677 42.9206 9.4361 41.8539 10.3001C42.4726 10.9081 43.5552 11.2121 45.1019 11.2121C45.3366 11.2868 45.4539 11.4521 45.4539 11.7081C45.4539 11.9961 45.2672 12.1401 44.8939 12.1401C43.8486 12.1401 42.7499 11.8734 41.5979 11.3401V11.8041C41.5979 12.9028 41.3632 13.4521 40.8939 13.4521C40.5632 13.4521 40.3979 12.8174 40.3979 11.5481V10.3001L40.3499 9.8521L40.4619 9.3401L40.3499 7.8041V7.7401C40.3499 7.4521 40.4992 7.25477 40.7979 7.1481C41.2139 6.3161 41.6992 5.9001 42.2539 5.9001ZM41.4539 9.4041C41.7632 9.4041 42.1099 8.84944 42.4939 7.7401V7.0521L42.3019 6.8441H42.1579C41.6886 7.1641 41.4539 8.01744 41.4539 9.4041ZM48.9776 6.0281C49.447 6.0281 49.6816 6.21477 49.6816 6.5881L49.5376 6.8921L49.4416 9.8201C49.4416 11.1428 49.7083 11.9641 50.2416 12.2841L50.2736 12.5241C50.2416 12.8334 50.0976 12.9881 49.8416 12.9881H49.7456C48.9456 12.4441 48.5456 11.6121 48.5456 10.4921H48.4336C48.007 11.6868 47.4896 12.2841 46.8816 12.2841C46.3163 12.1241 46.0336 11.7028 46.0336 11.0201C46.0336 9.5161 46.6363 8.01744 47.8416 6.5241C48.247 6.19344 48.6256 6.0281 48.9776 6.0281ZM47.0416 10.3801L46.9776 10.8281V11.1321H47.1376C47.9376 9.13744 48.3376 7.92144 48.3376 7.4841H48.2736C47.655 8.17744 47.2443 9.14277 47.0416 10.3801ZM54.4175 3.4201C54.5989 3.4201 54.7642 3.59077 54.9135 3.9321L54.2095 8.3801V9.6281C54.2095 10.9294 54.4122 11.5801 54.8175 11.5801C55.0842 11.7081 55.2175 11.8788 55.2175 12.0921C55.2175 12.3374 55.0042 12.4814 54.5775 12.5241C54.1082 12.5241 53.7402 12.0921 53.4735 11.2281H53.3135C52.9189 12.0921 52.4389 12.5241 51.8735 12.5241C51.2122 12.5241 50.8122 12.0228 50.6735 11.0201C50.6735 9.85744 51.4522 8.62544 53.0095 7.3241C53.3189 7.3241 53.4735 6.8921 53.4735 6.0281C53.7082 4.28944 54.0229 3.4201 54.4175 3.4201ZM51.6175 10.8921V11.3241L51.8735 11.5801H51.9695C52.3109 11.5801 52.7109 10.5508 53.1695 8.4921H53.0735C52.1029 9.46277 51.6175 10.2628 51.6175 10.8921ZM58.7745 6.0281C59.2439 6.0281 59.4785 6.21477 59.4785 6.5881L59.3345 6.8921L59.2385 9.8201C59.2385 11.1428 59.5052 11.9641 60.0385 12.2841L60.0705 12.5241C60.0385 12.8334 59.8945 12.9881 59.6385 12.9881H59.5425C58.7425 12.4441 58.3425 11.6121 58.3425 10.4921H58.2305C57.8039 11.6868 57.2865 12.2841 56.6785 12.2841C56.1132 12.1241 55.8305 11.7028 55.8305 11.0201C55.8305 9.5161 56.4332 8.01744 57.6385 6.5241C58.0439 6.19344 58.4225 6.0281 58.7745 6.0281ZM56.8385 10.3801L56.7745 10.8281V11.1321H56.9345C57.7345 9.13744 58.1345 7.92144 58.1345 7.4841H58.0705C57.4519 8.17744 57.0412 9.14277 56.8385 10.3801ZM67.2056 2.7321C67.5363 2.7321 67.7496 3.1321 67.8456 3.9321V4.0281C67.8456 4.39077 67.675 4.5721 67.3336 4.5721C67.003 4.5721 66.8376 4.22544 66.8376 3.5321C66.763 3.5321 66.715 3.40944 66.6936 3.1641C66.8003 2.8761 66.971 2.7321 67.2056 2.7321ZM71.4705 3.5641C72.2919 3.5641 72.7719 4.14544 72.9105 5.3081C72.9105 6.38544 72.0679 8.47077 70.3825 11.5641V11.6601C70.8199 11.6601 71.7532 11.2761 73.1825 10.5081H73.2145C73.4279 10.5081 73.5932 10.6628 73.7105 10.9721C73.7105 11.5161 72.2439 12.1828 69.3105 12.9721C69.1399 12.9721 68.9959 12.8174 68.8785 12.5081C69.2945 11.5588 70.1052 9.95877 71.3105 7.7081C71.7159 6.6201 71.9185 5.8841 71.9185 5.5001V5.0041C71.9185 4.79077 71.8065 4.62544 71.5825 4.5081H71.3745C70.9585 4.5081 70.5585 5.00944 70.1745 6.0121L70.2225 6.2041C70.2225 6.40677 70.0732 6.5721 69.7745 6.7001C69.3799 6.62544 69.1825 6.4281 69.1825 6.1081C69.1825 5.5001 69.6465 4.75344 70.5745 3.8681C70.8412 3.66544 71.1399 3.5641 71.4705 3.5641ZM76.0685 3.0041C76.3992 2.44944 76.7299 2.1721 77.0605 2.1721C77.4019 2.1721 77.6365 2.36944 77.7645 2.7641L77.7325 2.9721V3.0041C79.0872 3.87877 79.7645 5.51077 79.7645 7.9001C79.7645 10.2894 79.0659 11.8788 77.6685 12.6681L77.1245 12.7641C76.0259 12.7641 75.2739 12.1294 74.8685 10.8601C74.7299 10.2948 74.6605 9.74544 74.6605 9.2121V9.0041C74.6605 7.89477 74.9272 6.3641 75.4605 4.4121C75.2045 4.4121 75.0392 4.23077 74.9645 3.8681C74.9645 3.66544 75.3325 3.37744 76.0685 3.0041ZM75.6205 8.9081V9.3081C75.6205 10.9721 76.0899 11.8041 77.0285 11.8041H77.0605C77.9352 11.8041 78.5059 10.7588 78.7725 8.6681L78.8205 7.7081C78.7459 5.58544 78.2499 4.3161 77.3325 3.9001L77.0285 3.8681H76.7725C76.5165 4.1241 76.2125 5.02544 75.8605 6.5721C75.7005 7.42544 75.6205 8.2041 75.6205 8.9081Z" fill="black"/>
</svg>
