<svg width="60" height="15" viewBox="0 0 60 15" fill="none" xmlns="http://www.w3.org/2000/svg">
<path d="M1.15 5.25C1.35667 4.90333 1.56333 4.73 1.77 4.73C1.98333 4.73 2.13 4.85333 2.21 5.1L2.19 5.23V5.25C3.03667 5.79667 3.46 6.81667 3.46 8.31C3.46 9.80333 3.02333 10.7967 2.15 11.29L1.81 11.35C1.12333 11.35 0.653333 10.9533 0.4 10.16C0.313333 9.80667 0.27 9.46333 0.27 9.13V9C0.27 8.30667 0.436667 7.35 0.77 6.13C0.61 6.13 0.506667 6.01667 0.46 5.79C0.46 5.66333 0.69 5.48333 1.15 5.25ZM0.87 8.94V9.19C0.87 10.23 1.16333 10.75 1.75 10.75H1.77C2.31667 10.75 2.67333 10.0967 2.84 8.79L2.87 8.19C2.82333 6.86333 2.51333 6.07 1.94 5.81L1.75 5.79H1.59C1.43 5.95 1.24 6.51333 1.02 7.48C0.92 8.01333 0.87 8.5 0.87 8.94ZM4.81211 5.25C5.01878 4.90333 5.22544 4.73 5.43211 4.73C5.64544 4.73 5.79211 4.85333 5.87211 5.1L5.85211 5.23V5.25C6.69878 5.79667 7.12211 6.81667 7.12211 8.31C7.12211 9.80333 6.68544 10.7967 5.81211 11.29L5.47211 11.35C4.78544 11.35 4.31544 10.9533 4.06211 10.16C3.97544 9.80667 3.93211 9.46333 3.93211 9.13V9C3.93211 8.30667 4.09878 7.35 4.43211 6.13C4.27211 6.13 4.16878 6.01667 4.12211 5.79C4.12211 5.66333 4.35211 5.48333 4.81211 5.25ZM4.53211 8.94V9.19C4.53211 10.23 4.82544 10.75 5.41211 10.75H5.43211C5.97878 10.75 6.33544 10.0967 6.50211 8.79L6.53211 8.19C6.48544 6.86333 6.17544 6.07 5.60211 5.81L5.41211 5.79H5.25211C5.09211 5.95 4.90211 6.51333 4.68211 7.48C4.58211 8.01333 4.53211 8.5 4.53211 8.94ZM8.32422 10.41C8.46422 10.41 8.54755 10.5233 8.57422 10.75C8.53422 10.9833 8.41755 11.1 8.22422 11.1C8.09089 11.1 7.99755 10.9833 7.94422 10.75C8.02422 10.5233 8.15089 10.41 8.32422 10.41ZM11.0106 5.6C11.524 5.6 11.824 5.96333 11.9106 6.69C11.9106 7.36333 11.384 8.66667 10.3306 10.6V10.66C10.604 10.66 11.1873 10.42 12.0806 9.94H12.1006C12.234 9.94 12.3373 10.0367 12.4106 10.23C12.4106 10.57 11.494 10.9867 9.66063 11.48C9.55396 11.48 9.46396 11.3833 9.39063 11.19C9.65063 10.5967 10.1573 9.59667 10.9106 8.19C11.164 7.51 11.2906 7.05 11.2906 6.81V6.5C11.2906 6.36667 11.2206 6.26333 11.0806 6.19H10.9506C10.6906 6.19 10.4406 6.50333 10.2006 7.13L10.2306 7.25C10.2306 7.37667 10.1373 7.48 9.95063 7.56C9.70396 7.51333 9.58063 7.39 9.58063 7.19C9.58063 6.81 9.87063 6.34333 10.4506 5.79C10.6173 5.66333 10.804 5.6 11.0106 5.6ZM19.9239 4.95C20.1172 5.00333 20.2139 5.1 20.2139 5.24C20.1006 5.56 19.7072 6.39333 19.0339 7.74C18.3672 9.08667 17.8739 10.17 17.5539 10.99L17.3439 11.05C17.1506 11.0167 17.0539 10.92 17.0539 10.76C17.0539 10.5467 17.9072 8.69333 19.6139 5.2C19.6739 5.03333 19.7772 4.95 19.9239 4.95ZM23.4786 4.95C23.6719 5.00333 23.7686 5.1 23.7686 5.24C23.6553 5.56 23.2619 6.39333 22.5886 7.74C21.9219 9.08667 21.4286 10.17 21.1086 10.99L20.8986 11.05C20.7053 11.0167 20.6086 10.92 20.6086 10.76C20.6086 10.5467 21.4619 8.69333 23.1686 5.2C23.2286 5.03333 23.3319 4.95 23.4786 4.95ZM28.8728 7.63C29.4395 7.67667 29.7228 7.95333 29.7228 8.46L29.7428 8.59L29.7228 10.15C29.7228 10.33 29.8261 10.5733 30.0328 10.88V10.9C29.9795 11.0933 29.8828 11.19 29.7428 11.19C29.3295 11.0167 29.1228 10.65 29.1228 10.09V9.96L29.0928 9.94L29.1228 9.9V9.88L29.1528 8.5C29.1528 8.30667 29.0695 8.21 28.9028 8.21H28.7828C28.4495 8.34333 28.2828 9.07333 28.2828 10.4C28.2828 10.86 28.1661 11.09 27.9328 11.09C27.7528 11.09 27.6595 10.9767 27.6528 10.75V9.75C27.6528 8.45667 27.7661 7.81 27.9928 7.81L28.0928 7.78L28.3028 7.81C28.4828 7.69 28.6728 7.63 28.8728 7.63ZM31.9463 7.23C32.4396 7.23 32.8129 7.59667 33.0663 8.33L33.1063 8.54C33.1063 9.25333 32.7729 9.98333 32.1063 10.73C31.8396 10.9767 31.5696 11.1 31.2963 11.1C30.8963 11.1 30.6129 10.87 30.4463 10.41C30.3863 10.1967 30.3563 10.01 30.3563 9.85V9.73C30.3563 8.67667 30.7396 7.87667 31.5063 7.33C31.6396 7.26333 31.7863 7.23 31.9463 7.23ZM30.9463 9.83C30.9463 10.2833 31.0629 10.51 31.2963 10.51C31.7829 10.51 32.1863 9.88667 32.5063 8.64V8.45C32.3929 8.03667 32.1829 7.83 31.8763 7.83C31.7563 7.83 31.6963 7.91333 31.6963 8.08C31.6963 8.19333 31.5629 8.28333 31.2963 8.35C31.0629 8.74333 30.9463 9.23667 30.9463 9.83ZM36.3794 7.86C36.8394 8.16667 37.0694 8.64 37.0694 9.28C37.0694 10.1467 36.7794 10.7367 36.1994 11.05L35.8194 11.11C35.5927 11.11 35.3527 11 35.0994 10.78H35.0294C34.8227 11.0467 34.6294 11.18 34.4494 11.18C33.976 11.18 33.7027 10.7333 33.6294 9.84V9.3C33.676 8.45333 33.8527 8.03 34.1594 8.03C34.326 8.03 34.4227 8.13333 34.4494 8.34C34.296 8.60667 34.2194 8.98 34.2194 9.46V9.65C34.246 10.25 34.3094 10.55 34.4094 10.55C34.5094 10.55 34.6127 10.3767 34.7194 10.03L34.6994 9.34C34.6994 8.88 34.8094 8.65 35.0294 8.65C35.2827 8.65 35.4094 8.9 35.4094 9.4H35.4494L35.3494 10.03C35.4627 10.3633 35.6194 10.53 35.8194 10.53H35.8794C36.1727 10.53 36.3627 10.2167 36.4494 9.59V9.03C36.4494 8.81667 36.3227 8.55333 36.0694 8.24L36.0294 8.15C36.0294 8.01 36.146 7.91333 36.3794 7.86ZM44.1528 7.86C44.6128 8.16667 44.8428 8.64 44.8428 9.28C44.8428 10.1467 44.5528 10.7367 43.9728 11.05L43.5928 11.11C43.3661 11.11 43.1261 11 42.8728 10.78H42.8028C42.5961 11.0467 42.4028 11.18 42.2228 11.18C41.7495 11.18 41.4761 10.7333 41.4028 9.84V9.3C41.4495 8.45333 41.6261 8.03 41.9328 8.03C42.0995 8.03 42.1961 8.13333 42.2228 8.34C42.0695 8.60667 41.9928 8.98 41.9928 9.46V9.65C42.0195 10.25 42.0828 10.55 42.1828 10.55C42.2828 10.55 42.3861 10.3767 42.4928 10.03L42.4728 9.34C42.4728 8.88 42.5828 8.65 42.8028 8.65C43.0561 8.65 43.1828 8.9 43.1828 9.4H43.2228L43.1228 10.03C43.2361 10.3633 43.3928 10.53 43.5928 10.53H43.6528C43.9461 10.53 44.1361 10.2167 44.2228 9.59V9.03C44.2228 8.81667 44.0961 8.55333 43.8428 8.24L43.8028 8.15C43.8028 8.01 43.9195 7.91333 44.1528 7.86ZM45.7467 5.48C45.9334 5.48 46.0267 5.70667 46.0267 6.16L46.1467 7.88H46.1867L46.6867 7.69C47.2467 7.69 47.5867 8.26333 47.7067 9.41C47.7534 9.73667 47.7767 10.2167 47.7767 10.85V11.66C47.7767 11.9133 47.6834 12.04 47.4967 12.04H47.4567C47.2767 12.0133 47.1867 11.9167 47.1867 11.75V10.81C47.1867 9.30333 47.0401 8.47 46.7467 8.31H46.6867C46.4867 8.31 46.3401 8.61667 46.2467 9.23V9.79C46.2467 10.79 46.1634 11.29 45.9967 11.29L45.8067 11.31C45.6201 11.31 45.5267 11.0333 45.5267 10.48C45.5467 9.89333 45.5867 9.41333 45.6467 9.04L45.4367 5.75C45.4367 5.57667 45.5401 5.48667 45.7467 5.48ZM50.1166 7.14C50.41 7.14 50.5566 7.25667 50.5566 7.49L50.4666 7.68L50.4066 9.51C50.4066 10.3367 50.5733 10.85 50.9066 11.05L50.9266 11.2C50.9066 11.3933 50.8166 11.49 50.6566 11.49H50.5966C50.0966 11.15 49.8466 10.63 49.8466 9.93H49.7766C49.51 10.6767 49.1866 11.05 48.8066 11.05C48.4533 10.95 48.2766 10.6867 48.2766 10.26C48.2766 9.32 48.6533 8.38333 49.4066 7.45C49.66 7.24333 49.8966 7.14 50.1166 7.14ZM48.9066 9.86L48.8666 10.14V10.33H48.9666C49.4666 9.08333 49.7166 8.32333 49.7166 8.05H49.6766C49.29 8.48333 49.0333 9.08667 48.9066 9.86ZM52.3466 4.93C52.5332 4.97 52.6266 5.06333 52.6266 5.21L52.5666 5.65V5.78C52.5666 6.07333 52.5999 6.38333 52.6666 6.71H52.6866C53.4599 6.47667 53.9399 6.36 54.1266 6.36C54.3199 6.41333 54.4166 6.51 54.4166 6.65C54.4166 6.87667 54.1866 6.99 53.7266 6.99L52.6866 7.36C52.6866 8.26 52.7832 9.48333 52.9766 11.03C52.9366 11.21 52.8399 11.3 52.6866 11.3H52.6666C52.4332 11.3 52.3166 11 52.3166 10.4C52.2299 9.95333 52.1566 8.98333 52.0966 7.49H51.9166C51.2899 7.45 50.9766 7.30333 50.9766 7.05C50.9766 6.97667 51.0466 6.88667 51.1866 6.78H51.2866L51.7466 6.9H52.0666L51.9766 5.65C51.9766 5.17 52.0999 4.93 52.3466 4.93ZM56.7413 3.86C57.3479 3.96 57.6513 4.26 57.6513 4.76C57.6513 5.44 57.2146 6.26667 56.3413 7.24C56.4546 7.54 56.5879 8.35333 56.7413 9.68C56.8079 9.74667 56.8413 9.83 56.8413 9.93H56.8713C56.8713 10.1033 56.7446 10.2067 56.4913 10.24C56.2246 10.24 56.0379 9.44667 55.9313 7.86C55.8579 7.52667 55.7546 7.36 55.6213 7.36C55.4746 7.21333 55.4013 7.07667 55.4013 6.95C55.4479 6.78333 55.5546 6.7 55.7213 6.7L55.9713 6.76C56.6913 6.01333 57.0513 5.32667 57.0513 4.7C57.0113 4.58 56.9413 4.49667 56.8413 4.45H56.7213C56.2879 4.45 55.8779 4.88 55.4913 5.74C55.4913 6.17333 55.4079 6.39 55.2413 6.39L55.2213 6.43H55.1813C54.9946 6.43 54.9013 6.27 54.9013 5.95V5.93C54.9013 5.33667 55.2579 4.74 55.9713 4.14C56.2179 3.95333 56.4746 3.86 56.7413 3.86ZM56.9913 11.01C57.2846 11.1433 57.4313 11.3233 57.4313 11.55C57.3646 11.7167 57.2613 11.8 57.1213 11.8C56.8079 11.62 56.6513 11.4533 56.6513 11.3C56.6513 11.1533 56.7646 11.0567 56.9913 11.01ZM58.4969 4.21C58.6769 4.28333 58.7669 4.39 58.7669 4.53C58.8202 6.42333 58.8969 7.79 58.9969 8.63C58.9302 8.79667 58.8335 8.88 58.7069 8.88C58.4602 8.88 58.3369 8.48333 58.3369 7.69C58.2769 7.39667 58.2269 6.33333 58.1869 4.5C58.1869 4.33333 58.2902 4.23667 58.4969 4.21ZM58.5569 11.09C58.6169 10.8833 58.7235 10.78 58.8769 10.78C59.0369 10.78 59.1469 10.8833 59.2069 11.09C59.1335 11.2833 59.0302 11.38 58.8969 11.38H58.8669C58.7335 11.38 58.6302 11.2833 58.5569 11.09Z" fill="black"/>
</svg>
