<svg width="500" height="730" viewBox="0 0 500 730" fill="none" xmlns="http://www.w3.org/2000/svg">
<g clip-path="url(#clip0_493_86)">
<path d="M134.082 211.664C137.27 212.699 146.505 215.232 147.367 215.54C149.259 216.302 151.171 217.012 153.102 217.668C158.99 219.745 164.668 223.116 168.642 227.98C178.638 240.082 181.785 256.299 179.271 271.636C178.727 275.115 178.713 279.433 177.102 282.629" stroke="#292524" stroke-width="2.45005" stroke-miterlimit="2.64" stroke-linecap="round" stroke-linejoin="round"/>
<path d="M128.881 187.65C127.797 185.258 122.456 186.891 120.067 187.214C110.816 188.658 101.042 202.116 107.569 210.877C109.085 212.914 111.664 217.266 114.583 217.657C116.944 218.02 118.785 214.748 119.856 213.126C122.281 209.45 125.012 205.8 126.625 201.588C127.573 199.205 129.966 190.041 128.881 187.65Z" fill="#1E9A64"/>
<path d="M106.764 209.631C106.423 210.064 106.096 210.484 105.785 210.888C104.981 211.934 102.649 213.777 100.358 215.586C98.2285 217.271 96.1335 218.924 95.3481 219.877C88.5633 228.162 88.3707 232.709 91.1846 234.192C94.112 235.757 97.3168 233.082 100.3 230.594C101.554 229.547 102.769 228.533 103.908 227.882C104.677 227.416 105.375 226.733 106.016 226.107L106.379 225.756C106.487 225.676 106.794 225.235 107.064 224.848C107.305 224.502 107.515 224.199 107.527 224.235C107.725 224.836 106.578 226.487 105.78 227.638C105.463 228.094 105.201 228.471 105.099 228.673C104.039 230.775 102.868 232.789 101.698 234.799C99.9867 237.734 98.2842 240.661 96.9465 243.839C96.3828 245.209 94.8164 250.463 97.7892 250.243C105.387 249.683 111.21 240.022 113.847 233.782C114.794 231.525 115.641 229.216 116.258 226.854C116.303 226.764 116.422 226.002 116.548 225.191C116.706 224.181 116.874 223.094 116.93 223.122C117.133 223.225 116.951 224.722 116.925 224.9C116.92 226.165 116.855 227.418 116.791 228.669C116.746 229.556 116.699 230.441 116.676 231.327C116.532 236.154 118.093 240.883 119.552 245.309C119.705 245.774 119.833 246.264 119.963 246.755C120.467 248.682 120.98 250.647 123.064 251.341C131.337 254.111 131.578 242.401 130.882 237.597C130.738 236.586 130.511 235.69 130.281 234.782C130.146 234.265 130.021 233.746 129.905 233.225C129.687 232.322 129.539 231.41 129.39 230.499C129.145 229 128.902 227.506 128.353 226.08C128.118 225.488 127.785 224.833 127.438 224.149C126.666 222.632 125.821 220.972 125.807 219.518C125.809 219.328 126.032 219.674 126.209 219.947C126.27 220.042 126.326 220.128 126.365 220.181C126.511 220.391 126.649 220.599 126.787 220.802C127.027 221.163 127.261 221.51 127.503 221.836C128.16 222.716 128.939 223.519 129.702 224.303C130.085 224.697 130.463 225.087 130.819 225.479C134.187 229.149 137.909 232.615 142.603 234.409C144.023 234.996 147.602 236.228 148.878 234.581C150.913 231.982 149.83 229.876 148.591 227.47L148.394 227.084C145.818 222.097 143.721 218.814 138.98 215.597C138.19 215.05 137.404 214.521 136.623 213.994C135.729 213.389 134.841 212.79 133.961 212.177C133.937 212.146 133.8 212.057 133.622 211.942C133.222 211.684 132.624 211.297 132.695 211.157C132.709 211.129 133.327 211.183 133.878 211.23C134.306 211.269 134.693 211.3 134.727 211.29C135.908 211.45 137.055 211.325 138.206 211.199C138.739 211.141 139.271 211.082 139.808 211.053C145.881 210.615 151.573 210.049 157.598 209.078C159.402 208.779 163.291 207.877 163.63 205.565C163.891 203.777 160.955 202.479 159.192 201.699C158.852 201.55 158.555 201.419 158.334 201.308C153.667 198.955 148.107 197.615 142.952 197.116C142.257 197.03 141.229 197.191 140.162 197.358C138.658 197.594 137.076 197.843 136.245 197.424C135.745 197.172 136.539 196.914 137.344 196.651C137.765 196.513 138.189 196.376 138.433 196.237C139.808 195.458 141.195 194.965 142.613 194.461C143.215 194.248 143.823 194.033 144.436 193.792C145.212 193.494 145.927 193.079 146.645 192.66C147.319 192.27 147.999 191.875 148.737 191.57C150.407 190.905 152.03 190.13 153.596 189.249C154.197 188.918 154.944 188.566 155.759 188.185C159.846 186.266 165.633 183.55 163.108 178.457C162.223 176.676 159.479 176.82 157.904 176.917C153.546 177.151 149.619 179.031 145.734 180.891C144.839 181.32 143.946 181.747 143.051 182.153C142.747 182.297 142.428 182.443 142.105 182.592C141.18 183.016 140.203 183.465 139.336 183.97C138.7 184.35 137.377 185.081 137.377 185.081L138.678 183.256C139.168 182.621 139.542 181.928 139.916 181.235C140.244 180.628 140.572 180.021 140.977 179.454C141.911 178.102 142.99 176.844 144.066 175.588C145.696 173.687 147.319 171.794 148.427 169.595C149.117 168.227 150.116 165.867 149.053 164.44C147.383 162.199 141.711 164.62 140.208 165.834C136.387 168.998 132.535 174.117 130.716 178.734C130.574 179.066 130.43 179.395 130.287 179.726C129.704 181.063 129.126 182.394 128.693 183.759C128.669 183.861 127.845 184.837 126.501 186.389C127.609 186.471 128.503 186.816 128.881 187.65C129.964 190.041 127.573 199.204 126.625 201.59C125.298 205.054 123.215 208.139 121.168 211.169C120.726 211.823 120.286 212.474 119.856 213.126L119.536 213.619C118.437 215.327 116.724 217.986 114.583 217.657C112.111 217.327 109.885 214.156 108.338 211.955C108.086 211.592 107.829 211.233 107.568 210.877C107.272 210.48 107.004 210.064 106.764 209.631Z" fill="#FBC604"/>
</g>
<defs>
<clipPath id="clip0_493_86">
<rect width="121.651" height="121.651" fill="white" transform="matrix(-0.450096 0.89298 0.89298 0.450096 123.368 139)"/>
</clipPath>
</defs>
</svg>
