<svg width="570" height="570" viewBox="0 0 570 570" fill="none" xmlns="http://www.w3.org/2000/svg">
<g transform="translate(0, 180)">
<rect x="377.16" y="141.25" width="47.5" height="19.5" rx="9.75" fill="#D4EDBC"/>
<rect x="377.16" y="141.25" width="47.5" height="19.5" rx="9.75" stroke="#FFFAFA" stroke-width="0.5"/>
<path d="M387.232 147.068V145.878H394.89V147.068H391.803V156H390.501V147.068H387.232ZM398.2 156.14C397.533 156.14 396.949 155.998 396.45 155.713C395.951 155.424 395.563 155.001 395.288 154.446C395.013 153.891 394.875 153.212 394.875 152.409C394.875 151.653 395.003 150.99 395.26 150.421C395.517 149.852 395.892 149.411 396.387 149.098C396.886 148.781 397.491 148.622 398.2 148.622C398.867 148.622 399.446 148.769 399.936 149.063C400.431 149.352 400.813 149.779 401.084 150.344C401.355 150.909 401.49 151.597 401.49 152.409C401.49 153.146 401.364 153.795 401.112 154.355C400.865 154.915 400.496 155.354 400.006 155.671C399.521 155.984 398.919 156.14 398.2 156.14ZM398.2 155.118C398.634 155.118 399 155.008 399.299 154.789C399.598 154.57 399.824 154.255 399.978 153.844C400.132 153.433 400.209 152.946 400.209 152.381C400.209 151.863 400.141 151.399 400.006 150.988C399.871 150.573 399.654 150.244 399.355 150.001C399.061 149.758 398.676 149.637 398.2 149.637C397.761 149.637 397.39 149.747 397.087 149.966C396.784 150.181 396.553 150.493 396.394 150.904C396.24 151.315 396.163 151.807 396.163 152.381C396.163 152.89 396.233 153.352 396.373 153.767C396.513 154.182 396.732 154.511 397.031 154.754C397.33 154.997 397.719 155.118 398.2 155.118ZM403.184 156V148.762H404.43V149.812C404.631 149.495 404.906 149.217 405.256 148.979C405.606 148.741 406.061 148.622 406.621 148.622C406.883 148.622 407.149 148.666 407.419 148.755C407.695 148.844 407.947 148.977 408.175 149.154C408.404 149.331 408.581 149.548 408.707 149.805C408.931 149.45 409.235 149.166 409.617 148.951C410 148.732 410.432 148.622 410.912 148.622C411.164 148.622 411.428 148.662 411.703 148.741C411.979 148.816 412.233 148.951 412.466 149.147C412.704 149.338 412.898 149.607 413.047 149.952C413.197 150.293 413.271 150.731 413.271 151.268V156H411.969V151.394C411.969 150.955 411.899 150.617 411.759 150.379C411.619 150.136 411.435 149.966 411.206 149.868C410.982 149.77 410.742 149.721 410.485 149.721C410.261 149.721 410.023 149.765 409.771 149.854C409.519 149.943 409.305 150.092 409.127 150.302C408.95 150.512 408.861 150.799 408.861 151.163V156H407.573V151.016C407.573 150.731 407.496 150.493 407.342 150.302C407.193 150.111 407.004 149.966 406.775 149.868C406.551 149.77 406.327 149.721 406.103 149.721C405.856 149.721 405.606 149.77 405.354 149.868C405.107 149.966 404.897 150.122 404.724 150.337C404.556 150.547 404.472 150.822 404.472 151.163V156H403.184Z" fill="#1F4172"/>
<path d="M373 164.088L381.041 160.854L377.572 159.628L376.432 156.13L373 164.088Z" fill="#D4EDBC" stroke="#FFFAFA" stroke-width="0.5" stroke-linecap="round" stroke-linejoin="round"/>
</g>
</svg>
