<svg width="59" height="12" viewBox="0 0 59 12" fill="none" xmlns="http://www.w3.org/2000/svg">
<path d="M1.15 1.25C1.35667 0.903333 1.56333 0.73 1.77 0.73C1.98333 0.73 2.13 0.853333 2.21 1.1L2.19 1.23V1.25C3.03667 1.79667 3.46 2.81667 3.46 4.31C3.46 5.80333 3.02333 6.79667 2.15 7.29L1.81 7.35C1.12333 7.35 0.653333 6.95333 0.4 6.16C0.313333 5.80667 0.27 5.46333 0.27 5.13V5C0.27 4.30667 0.436667 3.35 0.77 2.13C0.61 2.13 0.506667 2.01667 0.46 1.79C0.46 1.66333 0.69 1.48333 1.15 1.25ZM0.87 4.94V5.19C0.87 6.23 1.16333 6.75 1.75 6.75H1.77C2.31667 6.75 2.67333 6.09667 2.84 4.79L2.87 4.19C2.82333 2.86333 2.51333 2.07 1.94 1.81L1.75 1.79H1.59C1.43 1.95 1.24 2.51333 1.02 3.48C0.92 4.01333 0.87 4.5 0.87 4.94ZM5.25211 1.65C5.67211 1.65 5.93211 1.92 6.03211 2.46C5.98544 2.78667 5.91211 3.06667 5.81211 3.3V3.34C6.23878 3.34 6.56211 3.64 6.78211 4.24L6.81211 4.61C6.74544 5.41667 6.29878 6.28333 5.47211 7.21C5.09878 7.46333 4.82878 7.59 4.66211 7.59C4.12211 7.45 3.85211 7.26333 3.85211 7.03C3.87878 6.93667 3.94878 6.85333 4.06211 6.78H4.25211C4.40544 6.9 4.52211 6.96 4.60211 6.96H4.62211C5.14211 6.96 5.66211 6.27333 6.18211 4.9L6.22211 4.61V4.55C6.22211 4.13667 6.07544 3.93 5.78211 3.93C5.46878 3.93 5.24211 4.07333 5.10211 4.36C4.80878 4.69333 4.58544 4.88333 4.43211 4.93C4.34544 4.93 4.24211 4.83667 4.12211 4.65C4.12211 4.38333 4.42544 3.99667 5.03211 3.49C5.29878 3.02333 5.43211 2.67 5.43211 2.43C5.39211 2.31 5.33211 2.23667 5.25211 2.21C4.96544 2.21 4.66544 2.58667 4.35211 3.34L4.12211 3.4C3.94211 3.36 3.85211 3.27667 3.85211 3.15C4.17211 2.15 4.63878 1.65 5.25211 1.65ZM14.2989 0.95C14.4922 1.00333 14.5889 1.1 14.5889 1.24C14.4756 1.56 14.0822 2.39333 13.4089 3.74C12.7422 5.08667 12.2489 6.17 11.9289 6.99L11.7189 7.05C11.5256 7.01667 11.4289 6.92 11.4289 6.76C11.4289 6.54667 12.2822 4.69333 13.9889 1.2C14.0489 1.03333 14.1522 0.95 14.2989 0.95ZM17.8536 0.95C18.0469 1.00333 18.1436 1.1 18.1436 1.24C18.0303 1.56 17.6369 2.39333 16.9636 3.74C16.2969 5.08667 15.8036 6.17 15.4836 6.99L15.2736 7.05C15.0803 7.01667 14.9836 6.92 14.9836 6.76C14.9836 6.54667 15.8369 4.69333 17.5436 1.2C17.6036 1.03333 17.7069 0.95 17.8536 0.95ZM23.1278 0.929999C23.3145 0.97 23.4078 1.06333 23.4078 1.21L23.3478 1.65V1.78C23.3478 2.07333 23.3811 2.38333 23.4478 2.71H23.4678C24.2411 2.47667 24.7211 2.36 24.9078 2.36C25.1011 2.41333 25.1978 2.51 25.1978 2.65C25.1978 2.87667 24.9678 2.99 24.5078 2.99L23.4678 3.36C23.4678 4.26 23.5645 5.48333 23.7578 7.03C23.7178 7.21 23.6211 7.3 23.4678 7.3H23.4478C23.2145 7.3 23.0978 7 23.0978 6.4C23.0111 5.95333 22.9378 4.98333 22.8778 3.49H22.6978C22.0711 3.45 21.7578 3.30333 21.7578 3.05C21.7578 2.97667 21.8278 2.88667 21.9678 2.78H22.0678L22.5278 2.9H22.8478L22.7578 1.65C22.7578 1.17 22.8811 0.929999 23.1278 0.929999ZM26.8225 3.06C27.2425 3.06 27.4925 3.35333 27.5725 3.94V4.03C27.5725 4.67667 27.2392 5.27 26.5725 5.81C26.9592 6.19 27.6358 6.38 28.6025 6.38C28.7492 6.42667 28.8225 6.53 28.8225 6.69C28.8225 6.87 28.7058 6.96 28.4725 6.96C27.8192 6.96 27.1325 6.79333 26.4125 6.46V6.75C26.4125 7.43667 26.2658 7.78 25.9725 7.78C25.7658 7.78 25.6625 7.38333 25.6625 6.59V5.81L25.6325 5.53L25.7025 5.21L25.6325 4.25V4.21C25.6325 4.03 25.7258 3.90667 25.9125 3.84C26.1725 3.32 26.4758 3.06 26.8225 3.06ZM26.3225 5.25C26.5158 5.25 26.7325 4.90333 26.9725 4.21V3.78L26.8525 3.65H26.7625C26.4692 3.85 26.3225 4.38333 26.3225 5.25ZM31.0248 3.14C31.3182 3.14 31.4648 3.25667 31.4648 3.49L31.3748 3.68L31.3148 5.51C31.3148 6.33667 31.4815 6.85 31.8148 7.05L31.8348 7.2C31.8148 7.39333 31.7248 7.49 31.5648 7.49H31.5048C31.0048 7.15 30.7548 6.63 30.7548 5.93H30.6848C30.4182 6.67667 30.0948 7.05 29.7148 7.05C29.3615 6.95 29.1848 6.68667 29.1848 6.26C29.1848 5.32 29.5615 4.38333 30.3148 3.45C30.5682 3.24333 30.8048 3.14 31.0248 3.14ZM29.8148 5.86L29.7748 6.14V6.33H29.8748C30.3748 5.08333 30.6248 4.32333 30.6248 4.05H30.5848C30.1982 4.48333 29.9415 5.08667 29.8148 5.86ZM33.3748 3.63C33.9414 3.67667 34.2248 3.95333 34.2248 4.46L34.2448 4.59L34.2248 6.15C34.2248 6.33 34.3281 6.57333 34.5348 6.88V6.9C34.4814 7.09333 34.3848 7.19 34.2448 7.19C33.8314 7.01667 33.6248 6.65 33.6248 6.09V5.96L33.5948 5.94L33.6248 5.9V5.88L33.6548 4.5C33.6548 4.30667 33.5714 4.21 33.4048 4.21H33.2848C32.9514 4.34333 32.7848 5.07333 32.7848 6.4C32.7848 6.86 32.6681 7.09 32.4348 7.09C32.2548 7.09 32.1614 6.97667 32.1548 6.75V5.75C32.1548 4.45667 32.2681 3.81 32.4948 3.81L32.5948 3.78L32.8048 3.81C32.9848 3.69 33.1748 3.63 33.3748 3.63ZM36.8582 2.95C37.0382 2.95 37.1615 3.25333 37.2282 3.86C37.1615 4.02667 37.0515 4.11 36.8982 4.11C36.7915 4.09 36.6849 3.96667 36.5782 3.74L36.3982 3.68C36.0849 3.68 35.8015 3.88667 35.5482 4.3V4.39C35.5482 4.49 36.0182 4.65667 36.9582 4.89C37.3515 5.12333 37.5482 5.40667 37.5482 5.74C37.5482 6.28667 37.1082 6.75333 36.2282 7.14L35.8582 7.2C35.2982 7.14 35.0182 6.86 35.0182 6.36V6.33C35.0182 6.17 35.1215 6.07667 35.3282 6.05C35.4882 6.05 35.5949 6.21667 35.6482 6.55L35.7282 6.61H35.8982C36.2782 6.61 36.6315 6.35 36.9582 5.83V5.7C36.9582 5.5 36.5215 5.31333 35.6482 5.14C35.1882 4.95333 34.9582 4.69333 34.9582 4.36C34.9582 3.92667 35.3215 3.52 36.0482 3.14C36.3682 3.1 36.6382 3.03667 36.8582 2.95ZM39.1446 4.03C39.8513 4.03 40.2679 4.47333 40.3946 5.36C40.3946 6.14667 40.0279 6.71 39.2946 7.05C39.2146 7.09 39.1046 7.11 38.9646 7.11H38.8946L38.6746 7.09V7.11L38.7146 9.78C38.6679 9.98667 38.5613 10.09 38.3946 10.09C38.2079 10.03 38.1146 9.93333 38.1146 9.8L38.0246 4.36C38.0246 4.18667 38.1279 4.09667 38.3346 4.09L38.5446 4.18C38.7313 4.08 38.9313 4.03 39.1446 4.03ZM38.6446 5.09L38.6146 5.4L38.6446 6.46L38.9246 6.53C39.3713 6.53 39.6613 6.20333 39.7946 5.55V5.4C39.7479 4.87333 39.5613 4.61 39.2346 4.61H39.0846C38.7913 4.61 38.6446 4.77 38.6446 5.09ZM42.7338 3.14C43.0272 3.14 43.1738 3.25667 43.1738 3.49L43.0838 3.68L43.0238 5.51C43.0238 6.33667 43.1905 6.85 43.5238 7.05L43.5438 7.2C43.5238 7.39333 43.4338 7.49 43.2738 7.49H43.2138C42.7138 7.15 42.4638 6.63 42.4638 5.93H42.3938C42.1272 6.67667 41.8038 7.05 41.4238 7.05C41.0705 6.95 40.8938 6.68667 40.8938 6.26C40.8938 5.32 41.2705 4.38333 42.0238 3.45C42.2772 3.24333 42.5138 3.14 42.7338 3.14ZM41.5238 5.86L41.4838 6.14V6.33H41.5838C42.0838 5.08333 42.3338 4.32333 42.3338 4.05H42.2938C41.9072 4.48333 41.6505 5.08667 41.5238 5.86ZM45.1038 3.06C45.5238 3.06 45.7738 3.35333 45.8538 3.94V4.03C45.8538 4.67667 45.5204 5.27 44.8538 5.81C45.2404 6.19 45.9171 6.38 46.8838 6.38C47.0304 6.42667 47.1038 6.53 47.1038 6.69C47.1038 6.87 46.9871 6.96 46.7538 6.96C46.1004 6.96 45.4138 6.79333 44.6938 6.46V6.75C44.6938 7.43667 44.5471 7.78 44.2537 7.78C44.0471 7.78 43.9438 7.38333 43.9438 6.59V5.81L43.9138 5.53L43.9838 5.21L43.9138 4.25V4.21C43.9138 4.03 44.0071 3.90667 44.1938 3.84C44.4538 3.32 44.7571 3.06 45.1038 3.06ZM44.6038 5.25C44.7971 5.25 45.0138 4.90333 45.2538 4.21V3.78L45.1338 3.65H45.0438C44.7504 3.85 44.6038 4.38333 44.6038 5.25ZM48.3361 3.41C48.6028 3.41667 49.0528 3.88333 49.6861 4.81L49.7061 4.98C49.7061 5.16667 49.2494 5.31 48.3361 5.41L48.3061 5.44V5.48C48.4461 6.08 48.5928 6.38 48.7461 6.38H48.8661C49.0794 6.38 49.4028 6.15 49.8361 5.69H49.8961C50.0294 5.69 50.1328 5.78667 50.2061 5.98C50.2061 6.14 49.9261 6.41667 49.3661 6.81C49.2194 6.89667 49.0428 6.96 48.8361 7C48.2961 7 47.9194 6.49333 47.7061 5.48C47.3994 5.43333 47.2461 5.30667 47.2461 5.1C47.2461 4.95333 47.3594 4.85667 47.5861 4.81V4.85L47.6861 4.81V4.56C47.6861 3.79333 47.9028 3.41 48.3361 3.41ZM48.3961 4.13H48.3061L48.2661 4.5V4.81H48.3061C48.6794 4.79667 48.8661 4.75667 48.8661 4.69C48.6928 4.43 48.5361 4.24333 48.3961 4.13ZM51.8904 3.63C52.4571 3.67667 52.7404 3.95333 52.7404 4.46L52.7604 4.59L52.7404 6.15C52.7404 6.33 52.8437 6.57333 53.0504 6.88V6.9C52.9971 7.09333 52.9004 7.19 52.7604 7.19C52.3471 7.01667 52.1404 6.65 52.1404 6.09V5.96L52.1104 5.94L52.1404 5.9V5.88L52.1704 4.5C52.1704 4.30667 52.0871 4.21 51.9204 4.21H51.8004C51.4671 4.34333 51.3004 5.07333 51.3004 6.4C51.3004 6.86 51.1837 7.09 50.9504 7.09C50.7704 7.09 50.6771 6.97667 50.6704 6.75V5.75C50.6704 4.45667 50.7837 3.81 51.0104 3.81L51.1104 3.78L51.3204 3.81C51.5004 3.69 51.6904 3.63 51.8904 3.63ZM54.3838 3.61L54.7938 3.55C54.9605 3.55 55.0538 3.65333 55.0738 3.86C55.0738 4.04 54.8572 4.15667 54.4238 4.21C54.1505 4.42333 54.0138 4.69667 54.0138 5.03V5.36C54.1472 6.09333 54.3738 6.46 54.6938 6.46H54.7938C54.9805 6.46 55.2605 6.28333 55.6338 5.93H55.6938C55.8272 5.93 55.9338 6.02333 56.0138 6.21C55.9205 6.49667 55.6205 6.75667 55.1138 6.99C55.0205 7.03 54.9038 7.05 54.7638 7.05C54.0772 7.05 53.6305 6.51 53.4238 5.43V5.21C53.4238 4.43 53.7438 3.89667 54.3838 3.61ZM56.8381 4C57.0715 4 57.2315 4.51333 57.3181 5.54C57.4315 6.01333 57.5148 6.25 57.5681 6.25H57.6281C57.7948 5.83 57.8781 5.41333 57.8781 5L57.8181 4.31C57.8915 4.13 57.9948 4.04 58.1281 4.04C58.3748 4.04 58.4981 4.47667 58.4981 5.35C58.6448 6.25667 58.7181 7.1 58.7181 7.88V8.35C58.7181 9.78333 58.3115 10.75 57.4981 11.25L57.2781 11.29C56.8981 11.29 56.5448 10.9367 56.2181 10.23L56.1281 9.63V9.6C56.1281 9.16 56.2515 8.94 56.4981 8.94L56.7481 9.1L56.7181 9.73C56.7181 10.0367 56.8748 10.3467 57.1881 10.66H57.3181C57.6848 10.66 57.9548 9.96 58.1281 8.56L58.1481 7.98C58.1415 7.30667 58.1148 6.87667 58.0681 6.69C57.8015 6.92333 57.5915 7.04 57.4381 7.04C57.0981 7.04 56.7948 6.13 56.5281 4.31L56.4981 4.29C56.4981 4.13667 56.6115 4.04 56.8381 4Z" fill="black"/>
</svg>
