<svg width="43" height="10" viewBox="0 0 43 10" fill="none" xmlns="http://www.w3.org/2000/svg">
<path d="M1.15 1.25C1.35667 0.903333 1.56333 0.73 1.77 0.73C1.98333 0.73 2.13 0.853333 2.21 1.1L2.19 1.23V1.25C3.03667 1.79667 3.46 2.81667 3.46 4.31C3.46 5.80333 3.02333 6.79667 2.15 7.29L1.81 7.35C1.12333 7.35 0.653333 6.95333 0.4 6.16C0.313333 5.80667 0.27 5.46333 0.27 5.13V5C0.27 4.30667 0.436667 3.35 0.77 2.13C0.61 2.13 0.506667 2.01667 0.46 1.79C0.46 1.66333 0.69 1.48333 1.15 1.25ZM0.87 4.94V5.19C0.87 6.23 1.16333 6.75 1.75 6.75H1.77C2.31667 6.75 2.67333 6.09667 2.84 4.79L2.87 4.19C2.82333 2.86333 2.51333 2.07 1.94 1.81L1.75 1.79H1.59C1.43 1.95 1.24 2.51333 1.02 3.48C0.92 4.01333 0.87 4.5 0.87 4.94ZM7.00211 0.329999C7.08211 0.329999 7.17544 0.403333 7.28211 0.55V0.64C7.28211 0.74 7.22878 0.823333 7.12211 0.89C6.91544 1.07 6.81211 2.32 6.81211 4.64V5.05H6.93211C7.27211 5.05 7.64878 4.86333 8.06211 4.49H8.10211C8.30878 4.53667 8.41211 4.64 8.41211 4.8C8.23878 5.12667 7.95544 5.36333 7.56211 5.51C7.32878 5.59667 7.11211 5.64 6.91211 5.64H6.85211L6.91211 9.08C6.91211 9.21333 6.81544 9.31667 6.62211 9.39C6.44211 9.39 6.33878 9.27667 6.31211 9.05L6.25211 5.58C5.41878 5.32667 4.95878 5.2 4.87211 5.2H4.75211C4.68544 5.24 4.60211 5.35667 4.50211 5.55L4.31211 5.68C4.10544 5.6 4.00211 5.47333 4.00211 5.3C4.00211 5.22667 4.14544 4.92333 4.43211 4.39C4.76544 3.37667 4.93211 2.66667 4.93211 2.26V1.89C4.93211 1.79667 4.86211 1.62 4.72211 1.36C4.76878 1.15333 4.87211 1.05 5.03211 1.05C5.38544 1.20333 5.56211 1.55667 5.56211 2.11C5.56211 2.49667 5.37544 3.33 5.00211 4.61L6.22211 4.95V4.86C6.22211 1.92 6.39878 0.45 6.75211 0.45C6.75211 0.41 6.83544 0.37 7.00211 0.329999ZM15.8516 0.95C16.045 1.00333 16.1416 1.1 16.1416 1.24C16.0283 1.56 15.635 2.39333 14.9616 3.74C14.295 5.08667 13.8016 6.17 13.4816 6.99L13.2716 7.05C13.0783 7.01667 12.9816 6.92 12.9816 6.76C12.9816 6.54667 13.835 4.69333 15.5416 1.2C15.6016 1.03333 15.705 0.95 15.8516 0.95ZM19.4063 0.95C19.5997 1.00333 19.6963 1.1 19.6963 1.24C19.583 1.56 19.1897 2.39333 18.5163 3.74C17.8497 5.08667 17.3563 6.17 17.0363 6.99L16.8263 7.05C16.633 7.01667 16.5363 6.92 16.5363 6.76C16.5363 6.54667 17.3897 4.69333 19.0963 1.2C19.1563 1.03333 19.2597 0.95 19.4063 0.95ZM23.5805 2.25C23.9272 2.25 24.1505 2.93 24.2505 4.29L24.3105 4.6C24.6172 3.97333 24.8672 3.66 25.0605 3.66C25.0605 3.63333 25.1305 3.61333 25.2705 3.6H25.3105C25.7505 3.6 26.0305 3.94333 26.1505 4.63V4.66C26.1505 5.24667 25.8572 5.89333 25.2705 6.6C25.0239 6.86667 24.7539 7 24.4605 7C24.1272 6.92667 23.9605 6.76 23.9605 6.5L23.4605 2.91L23.3105 2.54C23.3105 2.42 23.4005 2.32333 23.5805 2.25ZM24.6205 6.31H24.6505C24.9972 6.17 25.3005 5.69333 25.5605 4.88V4.5C25.5005 4.29333 25.4239 4.19 25.3305 4.19H25.2505C24.9572 4.36333 24.7472 5.07 24.6205 6.31ZM28.5248 3.14C28.8182 3.14 28.9648 3.25667 28.9648 3.49L28.8748 3.68L28.8148 5.51C28.8148 6.33667 28.9815 6.85 29.3148 7.05L29.3348 7.2C29.3148 7.39333 29.2248 7.49 29.0648 7.49H29.0048C28.5048 7.15 28.2548 6.63 28.2548 5.93H28.1848C27.9182 6.67667 27.5948 7.05 27.2148 7.05C26.8615 6.95 26.6848 6.68667 26.6848 6.26C26.6848 5.32 27.0615 4.38333 27.8148 3.45C28.0682 3.24333 28.3048 3.14 28.5248 3.14ZM27.3148 5.86L27.2748 6.14V6.33H27.3748C27.8748 5.08333 28.1248 4.32333 28.1248 4.05H28.0848C27.6982 4.48333 27.4415 5.08667 27.3148 5.86ZM30.1448 1.49C30.3314 1.55667 30.4248 1.66 30.4248 1.8L30.5248 5.61V6.84C30.5248 7.06667 30.4281 7.18 30.2348 7.18H30.1048C29.9848 7.1 29.9248 7.00667 29.9248 6.9V5.74L29.8348 1.78C29.8348 1.61333 29.9381 1.51667 30.1448 1.49ZM33.1147 3.14C33.408 3.14 33.5547 3.25667 33.5547 3.49L33.4647 3.68L33.4047 5.51C33.4047 6.33667 33.5714 6.85 33.9047 7.05L33.9247 7.2C33.9047 7.39333 33.8147 7.49 33.6547 7.49H33.5947C33.0947 7.15 32.8447 6.63 32.8447 5.93H32.7747C32.508 6.67667 32.1847 7.05 31.8047 7.05C31.4514 6.95 31.2747 6.68667 31.2747 6.26C31.2747 5.32 31.6514 4.38333 32.4047 3.45C32.658 3.24333 32.8947 3.14 33.1147 3.14ZM31.9047 5.86L31.8647 6.14V6.33H31.9647C32.4647 5.08333 32.7147 4.32333 32.7147 4.05H32.6747C32.288 4.48333 32.0314 5.08667 31.9047 5.86ZM35.4646 3.63C36.0313 3.67667 36.3146 3.95333 36.3146 4.46L36.3346 4.59L36.3146 6.15C36.3146 6.33 36.4179 6.57333 36.6246 6.88V6.9C36.5713 7.09333 36.4746 7.19 36.3346 7.19C35.9213 7.01667 35.7146 6.65 35.7146 6.09V5.96L35.6846 5.94L35.7146 5.9V5.88L35.7446 4.5C35.7446 4.30667 35.6613 4.21 35.4946 4.21H35.3746C35.0413 4.34333 34.8746 5.07333 34.8746 6.4C34.8746 6.86 34.7579 7.09 34.5246 7.09C34.3446 7.09 34.2513 6.97667 34.2446 6.75V5.75C34.2446 4.45667 34.3579 3.81 34.5846 3.81L34.6846 3.78L34.8946 3.81C35.0746 3.69 35.2646 3.63 35.4646 3.63ZM37.958 3.61L38.368 3.55C38.5347 3.55 38.628 3.65333 38.648 3.86C38.648 4.04 38.4314 4.15667 37.998 4.21C37.7247 4.42333 37.588 4.69667 37.588 5.03V5.36C37.7214 6.09333 37.948 6.46 38.268 6.46H38.368C38.5547 6.46 38.8347 6.28333 39.208 5.93H39.268C39.4014 5.93 39.508 6.02333 39.588 6.21C39.4947 6.49667 39.1947 6.75667 38.688 6.99C38.5947 7.03 38.478 7.05 38.338 7.05C37.6514 7.05 37.2047 6.51 36.998 5.43V5.21C36.998 4.43 37.318 3.89667 37.958 3.61ZM40.9923 3.41C41.259 3.41667 41.709 3.88333 42.3423 4.81L42.3623 4.98C42.3623 5.16667 41.9057 5.31 40.9923 5.41L40.9623 5.44V5.48C41.1023 6.08 41.249 6.38 41.4023 6.38H41.5223C41.7357 6.38 42.059 6.15 42.4923 5.69H42.5523C42.6857 5.69 42.789 5.78667 42.8623 5.98C42.8623 6.14 42.5823 6.41667 42.0223 6.81C41.8757 6.89667 41.699 6.96 41.4923 7C40.9523 7 40.5757 6.49333 40.3623 5.48C40.0557 5.43333 39.9023 5.30667 39.9023 5.1C39.9023 4.95333 40.0157 4.85667 40.2423 4.81V4.85L40.3423 4.81V4.56C40.3423 3.79333 40.559 3.41 40.9923 3.41ZM41.0523 4.13H40.9623L40.9223 4.5V4.81H40.9623C41.3357 4.79667 41.5223 4.75667 41.5223 4.69C41.349 4.43 41.1923 4.24333 41.0523 4.13Z" fill="black"/>
</svg>
