<svg width="1024" height="1024" viewBox="0 0 1024 1024" fill="none" xmlns="http://www.w3.org/2000/svg">
<path d="M352.732 404.867C350.389 406.178 345.51 409.336 342.222 415.377C338.079 422.988 339.108 430.312 339.594 433.77C340.02 436.801 341.152 444.12 347.101 450.661C351.041 454.992 355.419 457.142 357.987 458.169C357.962 464.006 358.079 470.016 358.362 476.186C359.407 498.943 362.528 519.692 366.62 538.12C361.329 540.082 358.793 543.701 359.488 545.627C360.061 547.215 362.973 548.052 366.245 547.88C367.447 548.089 369.278 548.323 371.5 548.255C376.693 548.096 380.075 546.408 385.013 544.501C387.974 543.358 392.288 541.83 397.775 540.372C397.154 541.748 396.629 543.477 397.4 544.501C398.748 546.292 403.293 544.909 407.159 543.751C411.799 542.36 418.675 540.33 427.804 537.745C439.63 541.503 448.018 543.08 454.079 543.751C456.475 544.016 461.591 544.48 465.34 548.255C466.009 548.928 468.354 551.29 468.718 554.636C469.205 559.102 465.91 562.987 461.586 567.023C453.882 574.215 449.045 576.161 440.942 581.662C434.06 586.334 425.8 592.046 418.795 601.932C414.139 608.502 412.422 613.553 411.663 617.697C410.975 621.461 409.907 627.295 413.165 632.711C415.223 636.133 418.089 637.861 419.546 638.717C426.438 642.764 433.67 641.415 436.062 640.969C443.825 639.521 448.782 635.035 450.701 633.086C449.825 631.46 448.949 629.833 448.073 628.207C446.255 629.634 443.083 631.722 438.689 632.711C436.374 633.232 428.67 634.966 424.05 630.834C418.483 625.855 421.078 615.649 421.798 612.817C424.266 603.112 431.145 597.201 435.687 593.298C441.848 588.004 448.206 584.804 453.704 582.037C461.903 577.911 464.844 577.613 469.469 573.404C472.434 570.706 476.731 566.795 477.352 560.642C478.059 553.627 473.518 548.346 472.472 547.129C467.203 541.001 459.363 539.41 456.707 538.871C449.88 537.486 445.685 538.904 442.068 535.493C440.292 533.818 439.477 531.755 439.065 530.238C439.517 527.306 440.107 523.037 440.566 517.851C441.492 507.396 441.92 502.054 440.191 496.455C439.847 495.342 438.091 489.879 433.434 484.444C430.461 480.973 428.482 480.055 417.669 473.183C405.471 465.43 402.868 463.343 400.403 460.045C397.326 455.93 395.877 451.822 395.148 449.16C396.38 448.079 398.206 446.238 399.652 443.53C402.848 437.545 401.989 431.456 400.778 423.635C399.739 416.925 399.22 413.57 397.024 410.498C392.515 404.185 385.058 402.656 382.385 402.24C380.634 406.244 378.882 410.248 377.13 414.251C371.375 414.877 365.619 415.503 359.864 416.128C357.486 412.375 355.109 408.621 352.732 404.867Z" fill="#D9D9D9"/>
<path d="M358.097 440.167C360.037 440.167 361.61 436.621 361.61 432.247C361.61 427.872 360.037 424.326 358.097 424.326C356.156 424.326 354.583 427.872 354.583 432.247C354.583 436.621 356.156 440.167 358.097 440.167Z" fill="#234271"/>
<path d="M382.424 436.659C384.365 436.659 385.937 433.113 385.937 428.739C385.937 424.365 384.365 420.819 382.424 420.819C380.484 420.819 378.911 424.365 378.911 428.739C378.911 433.113 380.484 436.659 382.424 436.659Z" fill="#234271"/>
<path d="M351.014 404.052C341.72 410.131 337.819 422.676 338.381 433.354C338.971 444.565 345.345 454.154 355.726 458.592C366.493 463.195 379.204 461.397 389.244 455.755C394.033 453.063 398.149 449.25 400.231 444.082C402.421 438.645 402.804 432.067 402.377 426.278C401.509 414.513 394.711 402.68 382.076 401.165C380.672 400.997 380.684 403.2 382.076 403.367C396.706 405.121 401.102 421.295 400.121 433.758C399.536 441.193 397.251 447.598 390.973 452.068C385.856 455.712 379.577 457.933 373.372 458.72C360.21 460.389 346.192 454.113 341.938 440.858C338.248 429.361 341.555 412.867 352.125 405.953C353.307 405.181 352.205 403.273 351.014 404.052Z" fill="#101E41"/>
<path d="M351.855 405.17C354.175 408.874 356.292 412.676 358.218 416.6C358.435 417.043 359.012 417.214 359.461 417.106C365.188 415.719 370.95 415.086 376.839 415.181C378.257 415.203 378.257 413.001 376.839 412.979C370.752 412.88 364.792 413.55 358.876 414.982C359.29 415.151 359.705 415.32 360.119 415.488C358.193 411.565 356.076 407.762 353.757 404.059C353.006 402.86 351.1 403.964 351.855 405.17Z" fill="#101E41"/>
<path d="M381.201 401.602C379.22 405.596 377.68 409.747 376.604 414.075C376.262 415.45 378.385 416.037 378.727 414.66C379.758 410.513 381.202 406.543 383.103 402.713C383.731 401.448 381.832 400.331 381.201 401.602Z" fill="#101E41"/>
<path d="M354.724 438.519C350.805 436.868 350.431 429.772 353.56 427.331C357.179 424.508 363.098 424.465 364.819 429.351C367.387 436.645 358.455 443.072 352.971 437.012C352.018 435.959 350.464 437.52 351.414 438.569C354.72 442.222 360.71 442.725 364.413 439.319C368.218 435.82 368.55 429.192 364.949 425.417C361.31 421.603 353.55 422.878 350.673 427.153C347.821 431.392 349.333 438.619 354.138 440.643C355.442 441.192 356.012 439.062 354.724 438.519Z" fill="#101E41"/>
<path d="M379.215 434.975C376.685 433.282 375.072 430.167 375.662 427.081C376.38 423.32 380.989 421.348 384.532 422.044C389.141 422.949 390.382 427.959 388.639 431.876C386.952 435.666 383.113 435.524 379.566 434.955C378.18 434.733 377.583 436.854 378.981 437.078C383.683 437.833 388.597 437.682 390.705 432.7C392.621 428.172 391.473 422.075 386.429 420.225C382.196 418.673 375.824 420.562 374.012 424.918C372.171 429.341 374.294 434.327 378.104 436.876C379.285 437.666 380.388 435.76 379.215 434.975Z" fill="#101E41"/>
<path d="M394.913 449.545C396.775 466.432 414.758 471.383 426.679 479.682C434.634 485.22 438.699 492.7 439.528 502.324C440.33 511.645 439.661 521.198 438.55 530.464C438.382 531.868 440.586 531.856 440.752 530.464C441.841 521.385 442.465 512.074 441.775 502.937C441.221 495.587 439.219 488.606 434.102 483.11C423.112 471.304 399.184 468.308 397.115 449.545C396.962 448.152 394.758 448.136 394.913 449.545Z" fill="#101E41"/>
<path d="M356.647 458.222C355.637 484.611 361.227 511.019 365.214 536.985C365.428 538.381 367.55 537.788 367.337 536.399C363.378 510.612 357.846 484.428 358.849 458.222C358.903 456.805 356.701 456.807 356.647 458.222Z" fill="#101E41"/>
<path d="M366.216 536.916C362.633 538.108 358.78 540.732 357.513 544.505C356.276 548.19 360.874 549.464 363.717 549.848C368.856 550.542 374.03 548.765 378.891 547.348C384.907 545.595 390.962 543.94 396.859 541.809C398.181 541.331 397.61 539.202 396.273 539.685C389.194 542.244 381.881 544.279 374.629 546.291C370.983 547.303 366.922 548.37 363.134 547.534C362.398 547.372 360.45 547.015 360.054 546.416C359.157 545.058 360.434 543.67 361.191 542.761C362.697 540.951 364.57 539.782 366.801 539.04C368.139 538.594 367.566 536.467 366.216 536.916Z" fill="#101E41"/>
<path d="M400.162 535.952C398.605 537.603 395.315 540.345 395.329 542.875C395.342 545.203 397.602 546.345 399.646 546.364C403.523 546.399 408.069 544.358 411.761 543.322C416.736 541.928 421.689 540.459 426.626 538.934C427.976 538.517 427.4 536.391 426.04 536.811C420.655 538.474 415.249 540.07 409.818 541.578C407.113 542.329 404.396 543.164 401.655 543.777C399.445 544.272 397.505 543.465 399.115 540.434C399.682 539.367 400.896 538.383 401.719 537.509C402.691 536.478 401.137 534.918 400.162 535.952Z" fill="#101E41"/>
<path d="M401.793 536.627C403.073 534.581 404.385 532.285 403.892 529.772C403.596 528.269 402.639 526.969 402.021 525.599C401.06 523.471 400.466 521.149 400.301 518.822C399.706 510.396 405.617 502.403 414.432 502.394C415.848 502.393 415.851 500.191 414.432 500.192C407.768 500.199 401.813 504.382 399.349 510.564C397.973 514.013 397.753 517.797 398.43 521.432C398.769 523.257 399.341 525.025 400.119 526.71C400.891 528.382 402.03 529.793 401.693 531.87C401.484 533.153 400.561 534.445 399.891 535.516C399.137 536.72 401.041 537.827 401.793 536.627Z" fill="#101E41"/>
<path d="M367.725 489.109C368.645 505.839 370.25 522.513 372.516 539.114C372.706 540.512 374.828 539.917 374.639 538.529C372.4 522.124 370.836 505.64 369.927 489.109C369.849 487.7 367.647 487.691 367.725 489.109Z" fill="#101E41"/>
<path d="M367.133 548.519C365.62 544.835 369.943 541.732 373.065 541.125C374.455 540.855 373.867 538.732 372.48 539.002C368.242 539.826 363.045 544.32 365.01 549.104C365.541 550.397 367.672 549.831 367.133 548.519Z" fill="#101E41"/>
<path d="M370.265 441.431C369.586 441.421 369.214 440.547 369.439 439.958C369.769 439.098 371.033 438.89 371.811 439.059C372.612 439.232 373.771 440.085 373.174 440.987C372.52 441.974 370.971 441.69 370.01 441.5C368.626 441.225 368.033 443.347 369.424 443.623C371.588 444.052 374.596 443.987 375.409 441.423C376.111 439.212 374.147 437.238 372.089 436.878C370.104 436.531 367.736 437.523 367.249 439.633C366.8 441.575 368.264 443.604 370.265 443.633C371.682 443.654 371.683 441.452 370.265 441.431Z" fill="#101E41"/>
<path d="M370.42 442.735C370.494 445.288 370.722 447.819 371.074 450.348C371.269 451.745 373.391 451.151 373.198 449.762C372.872 447.431 372.69 445.087 372.622 442.735C372.581 441.321 370.379 441.315 370.42 442.735Z" fill="#101E41"/>
<path d="M438.561 531.46C439.511 536.114 443.846 537.956 448.177 538.437C455.288 539.226 461.514 539.874 467.704 543.863C475.142 548.656 478.713 556.54 474.883 565.032C472.243 570.888 466.767 574.413 461.253 577.242C449.934 583.049 438.832 588.808 429.755 597.956C422.546 605.22 415.381 617.485 420.024 627.957C425.023 639.231 441.705 634.178 448.924 628.501C450.037 627.626 448.469 626.077 447.367 626.944C442.29 630.937 435.093 633.536 428.6 632.012C420.915 630.209 420.035 622.079 421.658 615.475C424.682 603.164 435.966 594.31 446.148 587.81C454.803 582.285 466.082 579.282 473.141 571.564C479.526 564.582 480.89 553.602 474.2 546.351C470.534 542.378 465.442 539.607 460.325 538.004C457.461 537.106 454.531 536.676 451.547 536.469C447.358 536.178 441.725 535.972 440.684 530.874C440.401 529.487 438.278 530.074 438.561 531.46Z" fill="#101E41"/>
<path d="M426.456 538.926C434.769 538.845 442.485 542.427 450.536 544.008C457.386 545.352 470.276 548.186 467.486 558.132C465.444 565.41 456.133 570.672 450.322 574.599C444.036 578.847 437.54 582.796 431.527 587.435C421.205 595.399 411.97 605.952 410.659 619.454C410.092 625.286 411.057 632.07 414.772 636.807C418.284 641.285 424.448 642.655 429.864 642.963C436.12 643.319 442.633 641.816 447.624 637.905C449.635 636.329 452.222 633.935 452.076 631.112C451.954 628.783 450.279 627.289 448.043 627.225C446.625 627.185 446.626 629.386 448.043 629.427C448.484 630.597 448.925 631.767 449.365 632.936C448.925 633.492 448.484 634.048 448.043 634.604C447.571 635.11 447.013 635.595 446.481 636.027C445.338 636.956 444.065 637.736 442.744 638.385C439.585 639.938 436.058 640.692 432.551 640.801C425.925 641.008 418.201 639.442 415.008 633.006C408.5 619.886 416.125 604.779 425.586 595.454C435.309 585.872 447.68 579.718 458.458 571.492C465.643 566.008 475.23 556.6 466.398 547.928C461.612 543.228 454.75 542.763 448.543 541.354C441.154 539.678 434.149 536.649 426.456 536.724C425.039 536.738 425.036 538.94 426.456 538.926Z" fill="#101E41"/>
</svg>
