<svg width="580" height="526" viewBox="0 0 580 526" fill="none" xmlns="http://www.w3.org/2000/svg">
<path d="M175.187 403.282C173.223 403.806 171.259 404.329 169.296 404.853C165.284 405.923 161.563 402.364 162.453 398.308C163.299 394.454 164.146 390.599 164.992 386.745C165.077 386.354 165.121 385.956 165.121 385.556V343.462C165.121 340.4 167.602 337.919 170.664 337.919H349.455C352.516 337.919 354.998 340.4 354.998 343.462V398.117C354.998 401.185 352.505 403.67 349.437 403.66C291.835 403.471 234.234 403.283 176.633 403.095C176.145 403.093 175.658 403.156 175.187 403.282Z" stroke="#102067" stroke-miterlimit="10"/>
<path d="M187.782 364.974C188.202 364.974 188.412 365.706 188.412 367.17L188.52 369.978H188.556L191.436 368.862C191.724 366.414 191.988 365.19 192.228 365.19L192.462 365.154C192.666 365.154 192.852 365.316 193.02 365.64C192.6 367.704 192.39 369.492 192.39 371.004V371.778C192.39 372.882 192.654 373.932 193.182 374.928C193.062 375.264 192.87 375.432 192.606 375.432C192.03 375.432 191.604 374.268 191.328 371.94V370.104H191.22C189.42 370.74 188.52 371.148 188.52 371.328C188.52 374.184 188.256 375.612 187.728 375.612H187.656C187.404 375.612 187.242 375.402 187.17 374.982C187.35 373.674 187.44 372.66 187.44 371.94L186.648 372.354L186.486 372.39C186.186 372.282 186.036 372.096 186.036 371.832C186.036 371.568 186.504 371.154 187.44 370.59V370.554C187.404 368.49 187.326 366.78 187.206 365.424C187.206 365.16 187.398 365.01 187.782 364.974ZM196.816 368.214C197.704 368.214 198.376 368.874 198.832 370.194L198.904 370.572C198.904 371.856 198.304 373.17 197.104 374.514C196.624 374.958 196.138 375.18 195.646 375.18C194.926 375.18 194.416 374.766 194.116 373.938C194.008 373.554 193.954 373.218 193.954 372.93V372.714C193.954 370.818 194.644 369.378 196.024 368.394C196.264 368.274 196.528 368.214 196.816 368.214ZM195.016 372.894C195.016 373.71 195.226 374.118 195.646 374.118C196.522 374.118 197.248 372.996 197.824 370.752V370.41C197.62 369.666 197.242 369.294 196.69 369.294C196.474 369.294 196.366 369.444 196.366 369.744C196.366 369.948 196.126 370.11 195.646 370.23C195.226 370.938 195.016 371.826 195.016 372.894ZM204.795 369.348C205.623 369.9 206.037 370.752 206.037 371.904C206.037 373.464 205.515 374.526 204.471 375.09L203.787 375.198C203.379 375.198 202.947 375 202.491 374.604H202.365C201.993 375.084 201.645 375.324 201.321 375.324C200.469 375.324 199.977 374.52 199.845 372.912V371.94C199.929 370.416 200.247 369.654 200.799 369.654C201.099 369.654 201.273 369.84 201.321 370.212C201.045 370.692 200.907 371.364 200.907 372.228V372.57C200.955 373.65 201.069 374.19 201.249 374.19C201.429 374.19 201.615 373.878 201.807 373.254L201.771 372.012C201.771 371.184 201.969 370.77 202.365 370.77C202.821 370.77 203.049 371.22 203.049 372.12H203.121L202.941 373.254C203.145 373.854 203.427 374.154 203.787 374.154H203.895C204.423 374.154 204.765 373.59 204.921 372.462V371.454C204.921 371.07 204.693 370.596 204.237 370.032L204.165 369.87C204.165 369.618 204.375 369.444 204.795 369.348ZM217.06 368.052C217.588 368.052 217.852 368.262 217.852 368.682L217.69 369.024L217.582 372.318C217.582 373.806 217.882 374.73 218.482 375.09L218.518 375.36C218.482 375.708 218.32 375.882 218.032 375.882H217.924C217.024 375.27 216.574 374.334 216.574 373.074H216.448C215.968 374.418 215.386 375.09 214.702 375.09C214.066 374.91 213.748 374.436 213.748 373.668C213.748 371.976 214.426 370.29 215.782 368.61C216.238 368.238 216.664 368.052 217.06 368.052ZM214.882 372.948L214.81 373.452V373.794H214.99C215.89 371.55 216.34 370.182 216.34 369.69H216.268C215.572 370.47 215.11 371.556 214.882 372.948ZM219.093 366.45C219.717 366.45 220.119 367.674 220.299 370.122L220.407 370.68C220.959 369.552 221.409 368.988 221.757 368.988C221.757 368.94 221.883 368.904 222.135 368.88H222.207C222.999 368.88 223.503 369.498 223.719 370.734V370.788C223.719 371.844 223.191 373.008 222.135 374.28C221.691 374.76 221.205 375 220.677 375C220.077 374.868 219.777 374.568 219.777 374.1L218.877 367.638L218.607 366.972C218.607 366.756 218.769 366.582 219.093 366.45ZM220.965 373.758H221.019C221.643 373.506 222.189 372.648 222.657 371.184V370.5C222.549 370.128 222.411 369.942 222.243 369.942H222.099C221.571 370.254 221.193 371.526 220.965 373.758ZM227.507 368.214C228.395 368.214 229.067 368.874 229.523 370.194L229.595 370.572C229.595 371.856 228.995 373.17 227.795 374.514C227.315 374.958 226.829 375.18 226.337 375.18C225.617 375.18 225.107 374.766 224.807 373.938C224.699 373.554 224.645 373.218 224.645 372.93V372.714C224.645 370.818 225.335 369.378 226.715 368.394C226.955 368.274 227.219 368.214 227.507 368.214ZM225.707 372.894C225.707 373.71 225.917 374.118 226.337 374.118C227.213 374.118 227.939 372.996 228.515 370.752V370.41C228.311 369.666 227.933 369.294 227.381 369.294C227.165 369.294 227.057 369.444 227.057 369.744C227.057 369.948 226.817 370.11 226.337 370.23C225.917 370.938 225.707 371.826 225.707 372.894ZM231.113 369.582L231.437 369.402C231.725 369.402 231.935 369.576 232.067 369.924C231.875 370.812 231.779 371.724 231.779 372.66C231.779 373.128 231.917 373.638 232.193 374.19H232.301C232.649 374.19 233.063 372.816 233.543 370.068C233.711 369.924 233.873 369.852 234.029 369.852C234.401 369.852 234.587 370.512 234.587 371.832C234.743 373.284 234.917 374.01 235.109 374.01L235.379 373.902C235.727 374.034 235.901 374.22 235.901 374.46C235.685 374.916 235.385 375.144 235.001 375.144C234.569 375.144 234.155 374.712 233.759 373.848C233.279 374.856 232.793 375.36 232.301 375.36C231.569 375.36 231.059 374.598 230.771 373.074L230.717 372.498V372.318C230.717 371.358 230.849 370.446 231.113 369.582ZM238.405 364.074C238.741 364.146 238.909 364.314 238.909 364.578L238.801 365.37V365.604C238.801 366.132 238.861 366.69 238.981 367.278H239.017C240.409 366.858 241.273 366.648 241.609 366.648C241.957 366.744 242.131 366.918 242.131 367.17C242.131 367.578 241.717 367.782 240.889 367.782L239.017 368.448C239.017 370.068 239.191 372.27 239.539 375.054C239.467 375.378 239.293 375.54 239.017 375.54H238.981C238.561 375.54 238.351 375 238.351 373.92C238.195 373.116 238.063 371.37 237.955 368.682H237.631C236.503 368.61 235.939 368.346 235.939 367.89C235.939 367.758 236.065 367.596 236.317 367.404H236.497L237.325 367.62H237.901L237.739 365.37C237.739 364.506 237.961 364.074 238.405 364.074ZM254.559 369.348C255.387 369.9 255.801 370.752 255.801 371.904C255.801 373.464 255.279 374.526 254.235 375.09L253.551 375.198C253.143 375.198 252.711 375 252.255 374.604H252.129C251.757 375.084 251.409 375.324 251.085 375.324C250.233 375.324 249.741 374.52 249.609 372.912V371.94C249.693 370.416 250.011 369.654 250.563 369.654C250.863 369.654 251.037 369.84 251.085 370.212C250.809 370.692 250.671 371.364 250.671 372.228V372.57C250.719 373.65 250.833 374.19 251.013 374.19C251.193 374.19 251.379 373.878 251.571 373.254L251.535 372.012C251.535 371.184 251.733 370.77 252.129 370.77C252.585 370.77 252.813 371.22 252.813 372.12H252.885L252.705 373.254C252.909 373.854 253.191 374.154 253.551 374.154H253.659C254.187 374.154 254.529 373.59 254.685 372.462V371.454C254.685 371.07 254.457 370.596 254.001 370.032L253.929 369.87C253.929 369.618 254.139 369.444 254.559 369.348ZM258.292 368.538C258.772 368.55 259.582 369.39 260.722 371.058L260.758 371.364C260.758 371.7 259.936 371.958 258.292 372.138L258.238 372.192V372.264C258.49 373.344 258.754 373.884 259.03 373.884H259.246C259.63 373.884 260.212 373.47 260.992 372.642H261.1C261.34 372.642 261.526 372.816 261.658 373.164C261.658 373.452 261.154 373.95 260.146 374.658C259.882 374.814 259.564 374.928 259.192 375C258.22 375 257.542 374.088 257.158 372.264C256.606 372.18 256.33 371.952 256.33 371.58C256.33 371.316 256.534 371.142 256.942 371.058V371.13L257.122 371.058V370.608C257.122 369.228 257.512 368.538 258.292 368.538ZM258.4 369.834H258.238L258.166 370.5V371.058H258.238C258.91 371.034 259.246 370.962 259.246 370.842C258.934 370.374 258.652 370.038 258.4 369.834ZM273.365 365.118C273.569 365.118 273.755 365.31 273.923 365.694L273.131 370.698V372.102C273.131 373.566 273.359 374.298 273.815 374.298C274.115 374.442 274.265 374.634 274.265 374.874C274.265 375.15 274.025 375.312 273.545 375.36C273.017 375.36 272.603 374.874 272.303 373.902H272.123C271.679 374.874 271.139 375.36 270.503 375.36C269.759 375.36 269.309 374.796 269.153 373.668C269.153 372.36 270.029 370.974 271.781 369.51C272.129 369.51 272.303 369.024 272.303 368.052C272.567 366.096 272.921 365.118 273.365 365.118ZM270.215 373.524V374.01L270.503 374.298H270.611C270.995 374.298 271.445 373.14 271.961 370.824H271.853C270.761 371.916 270.215 372.816 270.215 373.524ZM277.781 368.214C278.669 368.214 279.341 368.874 279.797 370.194L279.869 370.572C279.869 371.856 279.269 373.17 278.069 374.514C277.589 374.958 277.103 375.18 276.611 375.18C275.891 375.18 275.381 374.766 275.081 373.938C274.973 373.554 274.919 373.218 274.919 372.93V372.714C274.919 370.818 275.609 369.378 276.989 368.394C277.229 368.274 277.493 368.214 277.781 368.214ZM275.981 372.894C275.981 373.71 276.191 374.118 276.611 374.118C277.487 374.118 278.213 372.996 278.789 370.752V370.41C278.585 369.666 278.207 369.294 277.655 369.294C277.439 369.294 277.331 369.444 277.331 369.744C277.331 369.948 277.091 370.11 276.611 370.23C276.191 370.938 275.981 371.826 275.981 372.894ZM283.006 368.934C284.026 369.018 284.536 369.516 284.536 370.428L284.572 370.662L284.536 373.47C284.536 373.794 284.722 374.232 285.094 374.784V374.82C284.998 375.168 284.824 375.342 284.572 375.342C283.828 375.03 283.456 374.37 283.456 373.362V373.128L283.402 373.092L283.456 373.02V372.984L283.51 370.5C283.51 370.152 283.36 369.978 283.06 369.978H282.844C282.244 370.218 281.944 371.532 281.944 373.92C281.944 374.748 281.734 375.162 281.314 375.162C280.99 375.162 280.822 374.958 280.81 374.55V372.75C280.81 370.422 281.014 369.258 281.422 369.258L281.602 369.204L281.98 369.258C282.304 369.042 282.646 368.934 283.006 368.934ZM286.468 364.344C286.84 364.344 287.08 364.794 287.188 365.694V365.802C287.188 366.21 286.996 366.414 286.612 366.414C286.24 366.414 286.054 366.024 286.054 365.244C285.97 365.244 285.916 365.106 285.892 364.83C286.012 364.506 286.204 364.344 286.468 364.344ZM290.366 364.074C290.702 364.146 290.87 364.314 290.87 364.578L290.762 365.37V365.604C290.762 366.132 290.822 366.69 290.942 367.278H290.978C292.37 366.858 293.234 366.648 293.57 366.648C293.918 366.744 294.092 366.918 294.092 367.17C294.092 367.578 293.678 367.782 292.85 367.782L290.978 368.448C290.978 370.068 291.152 372.27 291.5 375.054C291.428 375.378 291.254 375.54 290.978 375.54H290.942C290.522 375.54 290.312 375 290.312 373.92C290.156 373.116 290.024 371.37 289.916 368.682H289.592C288.464 368.61 287.9 368.346 287.9 367.89C287.9 367.758 288.026 367.596 288.278 367.404H288.458L289.286 367.62H289.862L289.7 365.37C289.7 364.506 289.922 364.074 290.366 364.074ZM296.729 371.724C297.353 372 297.725 372.846 297.845 374.262C297.845 375.57 297.335 376.77 296.315 377.862L296.099 377.97C295.727 377.85 295.541 377.664 295.541 377.412L296.279 376.224C296.579 375.612 296.729 374.994 296.729 374.37V373.704C296.729 373.404 296.543 372.954 296.171 372.354V372.282C296.255 371.91 296.441 371.724 296.729 371.724ZM311.112 363.534H311.418C311.79 363.606 311.976 363.792 311.976 364.092C311.976 364.176 311.862 364.35 311.634 364.614V365.514C311.634 366.378 311.838 369 312.246 373.38C312.246 375.06 311.742 375.9 310.734 375.9C309.894 375.9 308.658 374.724 307.026 372.372C306.498 372.372 306.162 372.186 306.018 371.814L305.892 371.364C306 370.908 306.204 370.68 306.504 370.68C307.176 370.956 308.154 372.024 309.438 373.884C310.074 374.52 310.506 374.838 310.734 374.838H310.842C311.022 374.754 311.112 374.472 311.112 373.992V372.858L310.554 366.108L310.518 364.938C310.518 364.002 310.716 363.534 311.112 363.534ZM316.587 368.052C317.115 368.052 317.379 368.262 317.379 368.682L317.217 369.024L317.109 372.318C317.109 373.806 317.409 374.73 318.009 375.09L318.045 375.36C318.009 375.708 317.847 375.882 317.559 375.882H317.451C316.551 375.27 316.101 374.334 316.101 373.074H315.975C315.495 374.418 314.913 375.09 314.229 375.09C313.593 374.91 313.275 374.436 313.275 373.668C313.275 371.976 313.953 370.29 315.309 368.61C315.765 368.238 316.191 368.052 316.587 368.052ZM314.409 372.948L314.337 373.452V373.794H314.517C315.417 371.55 315.867 370.182 315.867 369.69H315.795C315.099 370.47 314.637 371.556 314.409 372.948ZM318.765 368.7C318.849 368.4 319.041 368.25 319.341 368.25C319.641 368.25 319.839 368.55 319.935 369.15H320.007L320.835 368.97C321.219 368.97 321.591 369.33 321.951 370.05H322.023C322.551 369.222 323.091 368.808 323.643 368.808C324.819 369.024 325.407 369.792 325.407 371.112L325.443 371.742L325.281 375.378V375.72C325.281 376.02 325.095 376.194 324.723 376.242C324.351 376.242 324.165 375.804 324.165 374.928L324.381 371.67C324.381 370.47 324.099 369.87 323.535 369.87C323.211 369.87 322.821 370.656 322.365 372.228C322.137 374.028 321.951 374.928 321.807 374.928C321.603 374.928 321.501 374.97 321.501 375.054C321.129 375.006 320.943 374.814 320.943 374.478L321.177 372.3C321.141 370.8 320.991 370.05 320.727 370.05H320.673C320.373 370.278 320.223 370.728 320.223 371.4V372.354L320.151 375.108C320.067 375.408 319.881 375.558 319.593 375.558C319.341 375.558 319.179 375.348 319.107 374.928L319.035 372.804L319.143 371.058C319.071 370.158 318.945 369.372 318.765 368.7ZM326.656 365.622C327.112 365.718 327.34 365.922 327.34 366.234C327.22 366.57 327.028 366.738 326.764 366.738C326.32 366.654 326.098 366.432 326.098 366.072C326.218 365.772 326.404 365.622 326.656 365.622ZM327.34 368.142C327.532 368.142 327.694 368.316 327.826 368.664L327.664 369.942V370.788C327.664 371.772 327.832 373.062 328.168 374.658C328.048 374.886 327.844 375 327.556 375C327.064 375 326.74 373.56 326.584 370.68V370.05C326.584 368.778 326.836 368.142 327.34 368.142ZM330.714 368.538C331.194 368.55 332.004 369.39 333.144 371.058L333.18 371.364C333.18 371.7 332.358 371.958 330.714 372.138L330.66 372.192V372.264C330.912 373.344 331.176 373.884 331.452 373.884H331.668C332.052 373.884 332.634 373.47 333.414 372.642H333.522C333.762 372.642 333.948 372.816 334.08 373.164C334.08 373.452 333.576 373.95 332.568 374.658C332.304 374.814 331.986 374.928 331.614 375C330.642 375 329.964 374.088 329.58 372.264C329.028 372.18 328.752 371.952 328.752 371.58C328.752 371.316 328.956 371.142 329.364 371.058V371.13L329.544 371.058V370.608C329.544 369.228 329.934 368.538 330.714 368.538ZM330.822 369.834H330.66L330.588 370.5V371.058H330.66C331.332 371.034 331.668 370.962 331.668 370.842C331.356 370.374 331.074 370.038 330.822 369.834ZM336.23 373.938C336.482 373.938 336.632 374.142 336.68 374.55C336.608 374.97 336.398 375.18 336.05 375.18C335.81 375.18 335.642 374.97 335.546 374.55C335.69 374.142 335.918 373.938 336.23 373.938Z" fill="black"/>
</svg>
