<svg width="580" height="526" viewBox="0 0 580 526" fill="none" xmlns="http://www.w3.org/2000/svg">
<path d="M346.947 271.039C350.386 273.734 348.482 279.26 344.112 279.261C337.659 279.263 331.207 279.259 324.755 279.25C274.925 279.178 225.098 278.776 175.273 278.046C169.421 277.96 164.716 273.194 164.701 267.342C164.653 249.834 164.606 232.326 164.559 214.818C164.543 208.883 169.35 204.063 175.285 204.063H324.509C330.182 204.063 334.874 208.48 335.216 214.143C336.223 230.833 337.23 247.523 338.237 264.212C341.14 266.488 344.043 268.763 346.947 271.039Z" stroke="#102067" stroke-miterlimit="10"/>
<path d="M195.782 225.974C196.202 225.974 196.412 226.706 196.412 228.17L196.52 230.978H196.556L199.436 229.862C199.724 227.414 199.988 226.19 200.228 226.19L200.462 226.154C200.666 226.154 200.852 226.316 201.02 226.64C200.6 228.704 200.39 230.492 200.39 232.004V232.778C200.39 233.882 200.654 234.932 201.182 235.928C201.062 236.264 200.87 236.432 200.606 236.432C200.03 236.432 199.604 235.268 199.328 232.94V231.104H199.22C197.42 231.74 196.52 232.148 196.52 232.328C196.52 235.184 196.256 236.612 195.728 236.612H195.656C195.404 236.612 195.242 236.402 195.17 235.982C195.35 234.674 195.44 233.66 195.44 232.94L194.648 233.354L194.486 233.39C194.186 233.282 194.036 233.096 194.036 232.832C194.036 232.568 194.504 232.154 195.44 231.59V231.554C195.404 229.49 195.326 227.78 195.206 226.424C195.206 226.16 195.398 226.01 195.782 225.974ZM204.816 229.214C205.704 229.214 206.376 229.874 206.832 231.194L206.904 231.572C206.904 232.856 206.304 234.17 205.104 235.514C204.624 235.958 204.138 236.18 203.646 236.18C202.926 236.18 202.416 235.766 202.116 234.938C202.008 234.554 201.954 234.218 201.954 233.93V233.714C201.954 231.818 202.644 230.378 204.024 229.394C204.264 229.274 204.528 229.214 204.816 229.214ZM203.016 233.894C203.016 234.71 203.226 235.118 203.646 235.118C204.522 235.118 205.248 233.996 205.824 231.752V231.41C205.62 230.666 205.242 230.294 204.69 230.294C204.474 230.294 204.366 230.444 204.366 230.744C204.366 230.948 204.126 231.11 203.646 231.23C203.226 231.938 203.016 232.826 203.016 233.894ZM212.795 230.348C213.623 230.9 214.037 231.752 214.037 232.904C214.037 234.464 213.515 235.526 212.471 236.09L211.787 236.198C211.379 236.198 210.947 236 210.491 235.604H210.365C209.993 236.084 209.645 236.324 209.321 236.324C208.469 236.324 207.977 235.52 207.845 233.912V232.94C207.929 231.416 208.247 230.654 208.799 230.654C209.099 230.654 209.273 230.84 209.321 231.212C209.045 231.692 208.907 232.364 208.907 233.228V233.57C208.955 234.65 209.069 235.19 209.249 235.19C209.429 235.19 209.615 234.878 209.807 234.254L209.771 233.012C209.771 232.184 209.969 231.77 210.365 231.77C210.821 231.77 211.049 232.22 211.049 233.12H211.121L210.941 234.254C211.145 234.854 211.427 235.154 211.787 235.154H211.895C212.423 235.154 212.765 234.59 212.921 233.462V232.454C212.921 232.07 212.693 231.596 212.237 231.032L212.165 230.87C212.165 230.618 212.375 230.444 212.795 230.348ZM225.06 229.052C225.588 229.052 225.852 229.262 225.852 229.682L225.69 230.024L225.582 233.318C225.582 234.806 225.882 235.73 226.482 236.09L226.518 236.36C226.482 236.708 226.32 236.882 226.032 236.882H225.924C225.024 236.27 224.574 235.334 224.574 234.074H224.448C223.968 235.418 223.386 236.09 222.702 236.09C222.066 235.91 221.748 235.436 221.748 234.668C221.748 232.976 222.426 231.29 223.782 229.61C224.238 229.238 224.664 229.052 225.06 229.052ZM222.882 233.948L222.81 234.452V234.794H222.99C223.89 232.55 224.34 231.182 224.34 230.69H224.268C223.572 231.47 223.11 232.556 222.882 233.948ZM227.093 227.45C227.717 227.45 228.119 228.674 228.299 231.122L228.407 231.68C228.959 230.552 229.409 229.988 229.757 229.988C229.757 229.94 229.883 229.904 230.135 229.88H230.207C230.999 229.88 231.503 230.498 231.719 231.734V231.788C231.719 232.844 231.191 234.008 230.135 235.28C229.691 235.76 229.205 236 228.677 236C228.077 235.868 227.777 235.568 227.777 235.1L226.877 228.638L226.607 227.972C226.607 227.756 226.769 227.582 227.093 227.45ZM228.965 234.758H229.019C229.643 234.506 230.189 233.648 230.657 232.184V231.5C230.549 231.128 230.411 230.942 230.243 230.942H230.099C229.571 231.254 229.193 232.526 228.965 234.758ZM235.507 229.214C236.395 229.214 237.067 229.874 237.523 231.194L237.595 231.572C237.595 232.856 236.995 234.17 235.795 235.514C235.315 235.958 234.829 236.18 234.337 236.18C233.617 236.18 233.107 235.766 232.807 234.938C232.699 234.554 232.645 234.218 232.645 233.93V233.714C232.645 231.818 233.335 230.378 234.715 229.394C234.955 229.274 235.219 229.214 235.507 229.214ZM233.707 233.894C233.707 234.71 233.917 235.118 234.337 235.118C235.213 235.118 235.939 233.996 236.515 231.752V231.41C236.311 230.666 235.933 230.294 235.381 230.294C235.165 230.294 235.057 230.444 235.057 230.744C235.057 230.948 234.817 231.11 234.337 231.23C233.917 231.938 233.707 232.826 233.707 233.894ZM239.113 230.582L239.437 230.402C239.725 230.402 239.935 230.576 240.067 230.924C239.875 231.812 239.779 232.724 239.779 233.66C239.779 234.128 239.917 234.638 240.193 235.19H240.301C240.649 235.19 241.063 233.816 241.543 231.068C241.711 230.924 241.873 230.852 242.029 230.852C242.401 230.852 242.587 231.512 242.587 232.832C242.743 234.284 242.917 235.01 243.109 235.01L243.379 234.902C243.727 235.034 243.901 235.22 243.901 235.46C243.685 235.916 243.385 236.144 243.001 236.144C242.569 236.144 242.155 235.712 241.759 234.848C241.279 235.856 240.793 236.36 240.301 236.36C239.569 236.36 239.059 235.598 238.771 234.074L238.717 233.498V233.318C238.717 232.358 238.849 231.446 239.113 230.582ZM246.405 225.074C246.741 225.146 246.909 225.314 246.909 225.578L246.801 226.37V226.604C246.801 227.132 246.861 227.69 246.981 228.278H247.017C248.409 227.858 249.273 227.648 249.609 227.648C249.957 227.744 250.131 227.918 250.131 228.17C250.131 228.578 249.717 228.782 248.889 228.782L247.017 229.448C247.017 231.068 247.191 233.27 247.539 236.054C247.467 236.378 247.293 236.54 247.017 236.54H246.981C246.561 236.54 246.351 236 246.351 234.92C246.195 234.116 246.063 232.37 245.955 229.682H245.631C244.503 229.61 243.939 229.346 243.939 228.89C243.939 228.758 244.065 228.596 244.317 228.404H244.497L245.325 228.62H245.901L245.739 226.37C245.739 225.506 245.961 225.074 246.405 225.074ZM262.559 230.348C263.387 230.9 263.801 231.752 263.801 232.904C263.801 234.464 263.279 235.526 262.235 236.09L261.551 236.198C261.143 236.198 260.711 236 260.255 235.604H260.129C259.757 236.084 259.409 236.324 259.085 236.324C258.233 236.324 257.741 235.52 257.609 233.912V232.94C257.693 231.416 258.011 230.654 258.563 230.654C258.863 230.654 259.037 230.84 259.085 231.212C258.809 231.692 258.671 232.364 258.671 233.228V233.57C258.719 234.65 258.833 235.19 259.013 235.19C259.193 235.19 259.379 234.878 259.571 234.254L259.535 233.012C259.535 232.184 259.733 231.77 260.129 231.77C260.585 231.77 260.813 232.22 260.813 233.12H260.885L260.705 234.254C260.909 234.854 261.191 235.154 261.551 235.154H261.659C262.187 235.154 262.529 234.59 262.685 233.462V232.454C262.685 232.07 262.457 231.596 262.001 231.032L261.929 230.87C261.929 230.618 262.139 230.444 262.559 230.348ZM266.292 229.538C266.772 229.55 267.582 230.39 268.722 232.058L268.758 232.364C268.758 232.7 267.936 232.958 266.292 233.138L266.238 233.192V233.264C266.49 234.344 266.754 234.884 267.03 234.884H267.246C267.63 234.884 268.212 234.47 268.992 233.642H269.1C269.34 233.642 269.526 233.816 269.658 234.164C269.658 234.452 269.154 234.95 268.146 235.658C267.882 235.814 267.564 235.928 267.192 236C266.22 236 265.542 235.088 265.158 233.264C264.606 233.18 264.33 232.952 264.33 232.58C264.33 232.316 264.534 232.142 264.942 232.058V232.13L265.122 232.058V231.608C265.122 230.228 265.512 229.538 266.292 229.538ZM266.4 230.834H266.238L266.166 231.5V232.058H266.238C266.91 232.034 267.246 231.962 267.246 231.842C266.934 231.374 266.652 231.038 266.4 230.834ZM280.753 228.71C281.077 228.71 281.299 229.256 281.419 230.348C281.299 230.648 281.101 230.798 280.825 230.798C280.633 230.762 280.441 230.54 280.249 230.132L279.925 230.024C279.361 230.024 278.851 230.396 278.395 231.14V231.302C278.395 231.482 279.241 231.782 280.933 232.202C281.641 232.622 281.995 233.132 281.995 233.732C281.995 234.716 281.203 235.556 279.619 236.252L278.953 236.36C277.945 236.252 277.441 235.748 277.441 234.848V234.794C277.441 234.506 277.627 234.338 277.999 234.29C278.287 234.29 278.479 234.59 278.575 235.19L278.719 235.298H279.025C279.709 235.298 280.345 234.83 280.933 233.894V233.66C280.933 233.3 280.147 232.964 278.575 232.652C277.747 232.316 277.333 231.848 277.333 231.248C277.333 230.468 277.987 229.736 279.295 229.052C279.871 228.98 280.357 228.866 280.753 228.71ZM284.275 229.538C284.755 229.55 285.565 230.39 286.705 232.058L286.741 232.364C286.741 232.7 285.919 232.958 284.275 233.138L284.221 233.192V233.264C284.473 234.344 284.737 234.884 285.013 234.884H285.229C285.613 234.884 286.195 234.47 286.975 233.642H287.083C287.323 233.642 287.509 233.816 287.641 234.164C287.641 234.452 287.137 234.95 286.129 235.658C285.865 235.814 285.547 235.928 285.175 236C284.203 236 283.525 235.088 283.141 233.264C282.589 233.18 282.312 232.952 282.312 232.58C282.312 232.316 282.517 232.142 282.925 232.058V232.13L283.105 232.058V231.608C283.105 230.228 283.495 229.538 284.275 229.538ZM284.383 230.834H284.221L284.149 231.5V232.058H284.221C284.893 232.034 285.229 231.962 285.229 231.842C284.917 231.374 284.635 231.038 284.383 230.834ZM290.456 225.074C290.792 225.146 290.96 225.314 290.96 225.578L290.852 226.37V226.604C290.852 227.132 290.912 227.69 291.032 228.278H291.068C292.46 227.858 293.324 227.648 293.66 227.648C294.008 227.744 294.182 227.918 294.182 228.17C294.182 228.578 293.768 228.782 292.94 228.782L291.068 229.448C291.068 231.068 291.242 233.27 291.59 236.054C291.518 236.378 291.344 236.54 291.068 236.54H291.032C290.612 236.54 290.402 236 290.402 234.92C290.246 234.116 290.114 232.37 290.006 229.682H289.682C288.554 229.61 287.99 229.346 287.99 228.89C287.99 228.758 288.116 228.596 288.368 228.404H288.548L289.376 228.62H289.952L289.79 226.37C289.79 225.506 290.012 225.074 290.456 225.074ZM302.236 230.582L302.56 230.402C302.848 230.402 303.058 230.576 303.19 230.924C302.998 231.812 302.902 232.724 302.902 233.66C302.902 234.128 303.04 234.638 303.316 235.19H303.424C303.772 235.19 304.186 233.816 304.666 231.068C304.834 230.924 304.996 230.852 305.152 230.852C305.524 230.852 305.71 231.512 305.71 232.832C305.866 234.284 306.04 235.01 306.232 235.01L306.502 234.902C306.85 235.034 307.024 235.22 307.024 235.46C306.808 235.916 306.508 236.144 306.124 236.144C305.692 236.144 305.278 235.712 304.882 234.848C304.402 235.856 303.916 236.36 303.424 236.36C302.692 236.36 302.182 235.598 301.894 234.074L301.84 233.498V233.318C301.84 232.358 301.972 231.446 302.236 230.582ZM309.619 230.654C310.891 230.654 311.641 231.452 311.869 233.048C311.869 234.464 311.209 235.478 309.889 236.09C309.745 236.162 309.547 236.198 309.295 236.198H309.169L308.773 236.162V236.198L308.845 241.004C308.761 241.376 308.569 241.562 308.269 241.562C307.933 241.454 307.765 241.28 307.765 241.04L307.603 231.248C307.603 230.936 307.789 230.774 308.161 230.762L308.539 230.924C308.875 230.744 309.235 230.654 309.619 230.654ZM308.719 232.562L308.665 233.12L308.719 235.028L309.223 235.154C310.027 235.154 310.549 234.566 310.789 233.39V233.12C310.705 232.172 310.369 231.698 309.781 231.698H309.511C308.983 231.698 308.719 231.986 308.719 232.562ZM197.708 256.052C198.236 256.052 198.5 256.262 198.5 256.682L198.338 257.024L198.23 260.318C198.23 261.806 198.53 262.73 199.13 263.09L199.166 263.36C199.13 263.708 198.968 263.882 198.68 263.882H198.572C197.672 263.27 197.222 262.334 197.222 261.074H197.096C196.616 262.418 196.034 263.09 195.35 263.09C194.714 262.91 194.396 262.436 194.396 261.668C194.396 259.976 195.074 258.29 196.43 256.61C196.886 256.238 197.312 256.052 197.708 256.052ZM195.53 260.948L195.458 261.452V261.794H195.638C196.538 259.55 196.988 258.182 196.988 257.69H196.916C196.22 258.47 195.758 259.556 195.53 260.948ZM201.938 256.934C202.958 257.018 203.468 257.516 203.468 258.428L203.504 258.662L203.468 261.47C203.468 261.794 203.654 262.232 204.026 262.784V262.82C203.93 263.168 203.756 263.342 203.504 263.342C202.76 263.03 202.388 262.37 202.388 261.362V261.128L202.334 261.092L202.388 261.02V260.984L202.442 258.5C202.442 258.152 202.292 257.978 201.992 257.978H201.776C201.176 258.218 200.876 259.532 200.876 261.92C200.876 262.748 200.666 263.162 200.246 263.162C199.922 263.162 199.754 262.958 199.742 262.55V260.75C199.742 258.422 199.946 257.258 200.354 257.258L200.534 257.204L200.912 257.258C201.236 257.042 201.578 256.934 201.938 256.934ZM207.47 256.214C208.358 256.214 209.03 256.874 209.486 258.194L209.558 258.572C209.558 259.856 208.958 261.17 207.758 262.514C207.278 262.958 206.792 263.18 206.3 263.18C205.58 263.18 205.07 262.766 204.77 261.938C204.662 261.554 204.608 261.218 204.608 260.93V260.714C204.608 258.818 205.298 257.378 206.678 256.394C206.918 256.274 207.182 256.214 207.47 256.214ZM205.67 260.894C205.67 261.71 205.88 262.118 206.3 262.118C207.176 262.118 207.902 260.996 208.478 258.752V258.41C208.274 257.666 207.896 257.294 207.344 257.294C207.128 257.294 207.02 257.444 207.02 257.744C207.02 257.948 206.78 258.11 206.3 258.23C205.88 258.938 205.67 259.826 205.67 260.894ZM212.48 252.074C212.816 252.146 212.984 252.314 212.984 252.578L212.876 253.37V253.604C212.876 254.132 212.936 254.69 213.056 255.278H213.092C214.484 254.858 215.348 254.648 215.684 254.648C216.032 254.744 216.206 254.918 216.206 255.17C216.206 255.578 215.792 255.782 214.964 255.782L213.092 256.448C213.092 258.068 213.266 260.27 213.614 263.054C213.542 263.378 213.368 263.54 213.092 263.54H213.056C212.636 263.54 212.426 263 212.426 261.92C212.27 261.116 212.138 259.37 212.03 256.682H211.706C210.578 256.61 210.014 256.346 210.014 255.89C210.014 255.758 210.14 255.596 210.392 255.404H210.572L211.4 255.62H211.976L211.814 253.37C211.814 252.506 212.036 252.074 212.48 252.074ZM217.51 253.064C217.846 253.064 218.014 253.472 218.014 254.288L218.23 257.384H218.302L219.202 257.042C220.21 257.042 220.822 258.074 221.038 260.138C221.122 260.726 221.164 261.59 221.164 262.73V264.188C221.164 264.644 220.996 264.872 220.66 264.872H220.588C220.264 264.824 220.102 264.65 220.102 264.35V262.658C220.102 259.946 219.838 258.446 219.31 258.158H219.202C218.842 258.158 218.578 258.71 218.41 259.814V260.822C218.41 262.622 218.26 263.522 217.96 263.522L217.618 263.558C217.282 263.558 217.114 263.06 217.114 262.064C217.15 261.008 217.222 260.144 217.33 259.472L216.952 253.55C216.952 253.238 217.138 253.076 217.51 253.064ZM223.63 256.538C224.11 256.55 224.92 257.39 226.06 259.058L226.096 259.364C226.096 259.7 225.274 259.958 223.63 260.138L223.576 260.192V260.264C223.828 261.344 224.092 261.884 224.368 261.884H224.584C224.968 261.884 225.55 261.47 226.33 260.642H226.438C226.678 260.642 226.864 260.816 226.996 261.164C226.996 261.452 226.492 261.95 225.484 262.658C225.22 262.814 224.902 262.928 224.53 263C223.558 263 222.88 262.088 222.496 260.264C221.944 260.18 221.668 259.952 221.668 259.58C221.668 259.316 221.872 259.142 222.28 259.058V259.13L222.46 259.058V258.608C222.46 257.228 222.85 256.538 223.63 256.538ZM223.738 257.834H223.576L223.504 258.5V259.058H223.576C224.248 259.034 224.584 258.962 224.584 258.842C224.272 258.374 223.99 258.038 223.738 257.834ZM230.064 255.908C230.82 255.908 231.27 256.436 231.414 257.492V257.654C231.414 258.818 230.814 259.886 229.614 260.858C230.31 261.542 231.528 261.884 233.268 261.884C233.532 261.968 233.664 262.154 233.664 262.442C233.664 262.766 233.454 262.928 233.034 262.928C231.858 262.928 230.622 262.628 229.326 262.028V262.55C229.326 263.786 229.062 264.404 228.534 264.404C228.162 264.404 227.976 263.69 227.976 262.262V260.858L227.922 260.354L228.048 259.778L227.922 258.05V257.978C227.922 257.654 228.09 257.432 228.426 257.312C228.894 256.376 229.44 255.908 230.064 255.908ZM229.164 259.85C229.512 259.85 229.902 259.226 230.334 257.978V257.204L230.118 256.97H229.956C229.428 257.33 229.164 258.29 229.164 259.85ZM241.335 256.7C241.419 256.4 241.611 256.25 241.911 256.25C242.211 256.25 242.409 256.55 242.505 257.15H242.577L243.405 256.97C243.789 256.97 244.161 257.33 244.521 258.05H244.593C245.121 257.222 245.661 256.808 246.213 256.808C247.389 257.024 247.977 257.792 247.977 259.112L248.013 259.742L247.851 263.378V263.72C247.851 264.02 247.665 264.194 247.293 264.242C246.921 264.242 246.735 263.804 246.735 262.928L246.951 259.67C246.951 258.47 246.669 257.87 246.105 257.87C245.781 257.87 245.391 258.656 244.935 260.228C244.707 262.028 244.521 262.928 244.377 262.928C244.173 262.928 244.071 262.97 244.071 263.054C243.699 263.006 243.513 262.814 243.513 262.478L243.747 260.3C243.711 258.8 243.561 258.05 243.297 258.05H243.243C242.943 258.278 242.793 258.728 242.793 259.4V260.354L242.721 263.108C242.637 263.408 242.451 263.558 242.163 263.558C241.911 263.558 241.749 263.348 241.677 262.928L241.605 260.804L241.713 259.058C241.641 258.158 241.515 257.372 241.335 256.7ZM250.63 256.538C251.11 256.55 251.92 257.39 253.06 259.058L253.096 259.364C253.096 259.7 252.274 259.958 250.63 260.138L250.576 260.192V260.264C250.828 261.344 251.092 261.884 251.368 261.884H251.584C251.968 261.884 252.55 261.47 253.33 260.642H253.438C253.678 260.642 253.864 260.816 253.996 261.164C253.996 261.452 253.492 261.95 252.484 262.658C252.22 262.814 251.902 262.928 251.53 263C250.558 263 249.88 262.088 249.496 260.264C248.944 260.18 248.668 259.952 248.668 259.58C248.668 259.316 248.872 259.142 249.28 259.058V259.13L249.46 259.058V258.608C249.46 257.228 249.85 256.538 250.63 256.538ZM250.738 257.834H250.576L250.504 258.5V259.058H250.576C251.248 259.034 251.584 258.962 251.584 258.842C251.272 258.374 250.99 258.038 250.738 257.834ZM256.308 256.538C256.788 256.55 257.598 257.39 258.738 259.058L258.774 259.364C258.774 259.7 257.952 259.958 256.308 260.138L256.254 260.192V260.264C256.506 261.344 256.77 261.884 257.046 261.884H257.262C257.646 261.884 258.228 261.47 259.008 260.642H259.116C259.356 260.642 259.542 260.816 259.674 261.164C259.674 261.452 259.17 261.95 258.162 262.658C257.898 262.814 257.58 262.928 257.208 263C256.236 263 255.558 262.088 255.174 260.264C254.622 260.18 254.346 259.952 254.346 259.58C254.346 259.316 254.55 259.142 254.958 259.058V259.13L255.138 259.058V258.608C255.138 257.228 255.528 256.538 256.308 256.538ZM256.416 257.834H256.254L256.182 258.5V259.058H256.254C256.926 259.034 257.262 258.962 257.262 258.842C256.95 258.374 256.668 258.038 256.416 257.834ZM262.489 252.074C262.825 252.146 262.993 252.314 262.993 252.578L262.885 253.37V253.604C262.885 254.132 262.945 254.69 263.065 255.278H263.101C264.493 254.858 265.357 254.648 265.693 254.648C266.041 254.744 266.215 254.918 266.215 255.17C266.215 255.578 265.801 255.782 264.973 255.782L263.101 256.448C263.101 258.068 263.275 260.27 263.623 263.054C263.551 263.378 263.377 263.54 263.101 263.54H263.065C262.645 263.54 262.435 263 262.435 261.92C262.279 261.116 262.147 259.37 262.039 256.682H261.715C260.587 256.61 260.023 256.346 260.023 255.89C260.023 255.758 260.149 255.596 260.401 255.404H260.581L261.409 255.62H261.985L261.823 253.37C261.823 252.506 262.045 252.074 262.489 252.074ZM266.98 253.622C267.436 253.718 267.664 253.922 267.664 254.234C267.544 254.57 267.352 254.738 267.088 254.738C266.644 254.654 266.422 254.432 266.422 254.072C266.542 253.772 266.728 253.622 266.98 253.622ZM267.664 256.142C267.856 256.142 268.018 256.316 268.15 256.664L267.988 257.942V258.788C267.988 259.772 268.156 261.062 268.492 262.658C268.372 262.886 268.168 263 267.88 263C267.388 263 267.064 261.56 266.908 258.68V258.05C266.908 256.778 267.16 256.142 267.664 256.142ZM271.758 256.934C272.778 257.018 273.288 257.516 273.288 258.428L273.324 258.662L273.288 261.47C273.288 261.794 273.474 262.232 273.846 262.784V262.82C273.75 263.168 273.576 263.342 273.324 263.342C272.58 263.03 272.208 262.37 272.208 261.362V261.128L272.154 261.092L272.208 261.02V260.984L272.262 258.5C272.262 258.152 272.112 257.978 271.812 257.978H271.596C270.996 258.218 270.696 259.532 270.696 261.92C270.696 262.748 270.486 263.162 270.066 263.162C269.742 263.162 269.574 262.958 269.562 262.55V260.75C269.562 258.422 269.766 257.258 270.174 257.258L270.354 257.204L270.732 257.258C271.056 257.042 271.398 256.934 271.758 256.934ZM277.308 256.088C277.86 256.088 278.136 256.352 278.136 256.88C278.208 256.88 278.244 256.97 278.244 257.15H278.316L278.244 257.672L278.316 261.308L278.208 264.188C279.288 264.188 280.014 264.98 280.386 266.564C280.386 266.888 280.164 267.074 279.72 267.122C279.516 267.122 279.288 266.672 279.036 265.772C278.796 265.424 278.52 265.25 278.208 265.25H278.136C277.752 267.806 277.416 269.084 277.128 269.084C276.78 269.72 276.276 270.038 275.616 270.038C274.644 269.81 274.158 269.324 274.158 268.58V268.472C274.158 267.344 274.962 266.12 276.57 264.8L277.128 264.458L277.2 262.514V262.064H277.128C276.72 262.58 276.33 262.838 275.958 262.838H275.85C275.022 262.838 274.548 262.202 274.428 260.93V260.534C274.428 258.998 274.992 257.666 276.12 256.538C276.468 256.238 276.864 256.088 277.308 256.088ZM275.508 260.3V261.164C275.556 261.56 275.646 261.758 275.778 261.758H275.958C276.294 261.758 276.708 260.522 277.2 258.05V257.15C276.48 257.15 275.916 258.2 275.508 260.3ZM275.22 268.508C275.268 268.808 275.436 268.958 275.724 268.958C276.3 268.958 276.714 267.932 276.966 265.88H276.858C275.766 266.828 275.22 267.704 275.22 268.508ZM282.898 250.148C283.99 250.328 284.536 250.868 284.536 251.768C284.536 252.992 283.75 254.48 282.178 256.232C282.382 256.772 282.622 258.236 282.898 260.624C283.018 260.744 283.078 260.894 283.078 261.074H283.132C283.132 261.386 282.904 261.572 282.448 261.632C281.968 261.632 281.632 260.204 281.44 257.348C281.308 256.748 281.122 256.448 280.882 256.448C280.618 256.184 280.486 255.938 280.486 255.71C280.57 255.41 280.762 255.26 281.062 255.26L281.512 255.368C282.808 254.024 283.456 252.788 283.456 251.66C283.384 251.444 283.258 251.294 283.078 251.21H282.862C282.082 251.21 281.344 251.984 280.648 253.532C280.648 254.312 280.498 254.702 280.198 254.702L280.162 254.774H280.09C279.754 254.774 279.586 254.486 279.586 253.91V253.874C279.586 252.806 280.228 251.732 281.512 250.652C281.956 250.316 282.418 250.148 282.898 250.148ZM283.348 263.018C283.876 263.258 284.14 263.582 284.14 263.99C284.02 264.29 283.834 264.44 283.582 264.44C283.018 264.116 282.736 263.816 282.736 263.54C282.736 263.276 282.94 263.102 283.348 263.018Z" fill="black"/>
</svg>
