<svg width="85" height="17" viewBox="0 0 85 17" fill="none" xmlns="http://www.w3.org/2000/svg">
<path d="M2.42274 1.70691C3.14806 1.71002 3.56715 2.23448 3.68001 3.28031C3.6763 4.1443 3.47131 4.68743 3.06502 4.90969L2.96902 4.90928C2.65978 4.88662 2.50559 4.77396 2.50646 4.57129L2.5756 3.37158L2.57814 2.77958L2.48262 2.66717L2.32262 2.66649C1.98129 2.66502 1.57723 3.61264 1.11043 5.50932L1.00929 6.7089L1.00778 7.06089C1.00302 8.17022 1.49623 8.823 2.4874 9.01925L3.15939 9.02213C4.26872 9.02689 5.61577 8.31799 7.20055 6.89543L7.26454 6.89571C7.55254 6.89694 7.7171 7.07898 7.75821 7.44183C7.51014 8.08077 7.22077 8.39953 6.8901 8.39811C5.36012 9.47957 3.98714 10.0177 2.77115 10.0125C1.55516 10.0073 0.699355 9.33693 0.203741 8.00146L0.0646102 6.86485L0.0655016 6.65685C0.0725868 5.00353 0.543096 3.48554 1.47703 2.10286C1.77684 1.83747 2.09207 1.70549 2.42274 1.70691ZM9.06494 1.20737C9.3636 1.20865 9.51138 1.57195 9.50827 2.29728L9.68848 5.05008L9.75248 5.05035L10.5538 4.74978C11.4498 4.75362 11.9898 5.67328 12.174 7.50875C12.2464 8.03173 12.2804 8.79988 12.2761 9.81321L12.2705 11.1092C12.2688 11.5145 12.1186 11.7166 11.8199 11.7153L11.7559 11.715C11.4681 11.6711 11.3248 11.5158 11.3259 11.2492L11.3324 9.74516C11.3427 7.33452 11.1138 6.00019 10.6455 5.74218L10.5495 5.74177C10.2295 5.7404 9.99276 6.23006 9.83922 7.21074L9.83538 8.10673C9.82852 9.70672 9.69176 10.5061 9.4251 10.505L9.12096 10.5357C8.8223 10.5344 8.67486 10.0911 8.67866 9.20579C8.71468 8.26727 8.78197 7.49955 8.88053 6.90263L8.56709 1.63724C8.56828 1.35991 8.73423 1.21662 9.06494 1.20737ZM13.2546 1.72133C13.6596 1.8084 13.8615 1.9906 13.8603 2.26793C13.7524 2.56613 13.5811 2.71474 13.3464 2.71373C12.9521 2.63737 12.7556 2.4392 12.7569 2.1192C12.8647 1.85299 13.0307 1.72037 13.2546 1.72133ZM13.853 3.96391C14.0237 3.96464 14.167 4.11993 14.2831 4.42976L14.1342 5.56513L14.131 6.31713C14.1272 7.19178 14.2716 8.33908 14.5642 9.75901C14.4567 9.96122 14.2749 10.0618 14.0189 10.0607C13.5816 10.0588 13.2991 8.77758 13.1714 6.21701L13.1738 5.65702C13.1786 4.52636 13.405 3.96199 13.853 3.96391ZM17.4894 4.6835C18.3957 4.76205 18.8471 5.20666 18.8437 6.01732L18.8748 6.22545L18.8321 8.72129C18.8308 9.00929 18.9945 9.39933 19.3231 9.89141L19.3229 9.92341C19.2363 10.2324 19.0809 10.3864 18.8569 10.3854C18.1968 10.1053 17.8687 9.51717 17.8725 8.62118L17.8734 8.41318L17.8255 8.38098L17.8738 8.31718L17.8739 8.28518L17.9314 6.07741C17.9327 5.76808 17.8001 5.61284 17.5334 5.6117L17.3414 5.61088C16.8072 5.82192 16.5355 6.98877 16.5264 9.11142C16.5232 9.84741 16.335 10.2146 15.9617 10.213C15.6737 10.2118 15.5251 10.0298 15.516 9.66709L15.5229 8.06711C15.5317 5.99779 15.7175 4.96391 16.0801 4.96547L16.2404 4.91815L16.5761 4.96759C16.865 4.77683 17.1694 4.68213 17.4894 4.6835ZM22.426 3.95265C22.9167 3.95475 23.161 4.19047 23.159 4.6598C23.223 4.66007 23.2547 4.74021 23.254 4.90021L23.318 4.90048L23.252 5.3642L23.3022 8.59645L23.1952 11.156C24.1552 11.1601 24.7975 11.8669 25.1221 13.2763C25.1209 13.5643 24.9228 13.7288 24.528 13.7698C24.3467 13.769 24.1457 13.3681 23.9251 12.5672C23.7131 12.2569 23.4685 12.1012 23.1911 12.1L23.1271 12.0997C22.7761 14.3702 22.4725 15.505 22.2165 15.5039C21.9048 16.0679 21.4556 16.3486 20.8689 16.3461C20.0058 16.1397 19.5757 15.7059 19.5785 15.0446L19.5789 14.9486C19.5832 13.9459 20.3025 12.861 21.7369 11.6938L22.2342 11.3919L22.3056 9.66419L22.3073 9.26419L22.2433 9.26392C21.8787 9.72103 21.531 9.94887 21.2003 9.94745L21.1043 9.94704C20.3684 9.94389 19.9494 9.37676 19.8476 8.24564L19.8491 7.89364C19.855 6.52832 20.3614 5.34648 21.3683 4.34812C21.6788 4.08278 22.0314 3.95096 22.426 3.95265ZM20.81 7.68976L20.8067 8.45775C20.8479 8.80993 20.9271 8.98627 21.0445 8.98678L21.2045 8.98746C21.5031 8.98874 21.8758 7.89166 22.3226 5.69622L22.326 4.89623C21.686 4.89349 21.1807 5.82467 20.81 7.68976ZM20.5228 14.9846C20.5643 15.2514 20.713 15.3854 20.969 15.3865C21.481 15.3887 21.8529 14.4783 22.0847 12.6553L21.9888 12.6549C21.0145 13.4934 20.5258 14.2699 20.5228 14.9846ZM26.722 4.08306C27.5114 4.08645 28.1062 4.67567 28.5065 5.85073L28.569 6.187C28.5641 7.32832 28.0258 8.49402 26.954 9.68411C26.5257 10.0769 26.0928 10.2724 25.6555 10.2705C25.0155 10.2678 24.5638 9.89787 24.3002 9.16073C24.2057 8.81899 24.159 8.52012 24.1601 8.26412L24.1609 8.07212C24.1681 6.38681 24.7869 5.10945 26.0173 4.24004C26.2311 4.13429 26.466 4.08197 26.722 4.08306ZM25.1042 8.23617C25.1011 8.9615 25.2862 9.32496 25.6595 9.32656C26.4382 9.3299 27.0878 8.33534 27.6084 6.34288L27.6097 6.03888C27.4312 5.37678 27.0966 5.04468 26.6059 5.04257C26.4139 5.04175 26.3173 5.17467 26.3162 5.44134C26.3154 5.62267 26.1015 5.76575 25.6744 5.87059C25.2983 6.49832 25.1083 7.28684 25.1042 8.23617ZM31.3642 4.74296C32.2706 4.82151 32.722 5.26612 32.7185 6.07678L32.7496 6.28491L32.707 8.78075C32.7057 9.06875 32.8694 9.45879 33.1979 9.95087L33.1978 9.98287C33.1111 10.2918 32.9558 10.4458 32.7318 10.4449C32.0717 10.1647 31.7435 9.57663 31.7474 8.68064L31.7483 8.47264L31.7004 8.44044L31.7487 8.37664L31.7488 8.34464L31.8063 6.13687C31.8076 5.82754 31.6749 5.6723 31.4083 5.67116L31.2163 5.67034C30.682 5.88138 30.4104 7.04823 30.4013 9.17088C30.3981 9.90687 30.2099 10.2741 29.8365 10.2725C29.5485 10.2712 29.4 10.0893 29.3909 9.72655L29.3977 8.12657C29.4066 6.05725 29.5924 5.02337 29.955 5.02493L30.1152 4.97761L30.451 5.02705C30.7398 4.83629 31.0442 4.74159 31.3642 4.74296ZM36.7171 3.98189C37.1864 3.98391 37.4202 4.17158 37.4186 4.54491L37.2733 4.84829L37.1648 7.77585C37.1591 9.0985 37.4223 9.92097 37.9542 10.2433L37.9852 10.4834C37.9519 10.7926 37.8072 10.9466 37.5512 10.9455L37.4552 10.9451C36.6576 10.3977 36.2611 9.56399 36.2659 8.444L36.1539 8.44352C35.7221 9.63635 35.2023 10.2315 34.5943 10.2289C34.0296 10.0664 33.7488 9.64389 33.7517 8.96123C33.7581 7.45725 34.3672 5.96118 35.5789 4.47302C35.9857 4.1441 36.3651 3.98039 36.7171 3.98189ZM34.7624 8.32556L34.6965 8.77328L34.6952 9.07728L34.8552 9.07796C35.6637 7.08674 36.0689 5.87247 36.0708 5.43514L36.0068 5.43486C35.3852 6.12554 34.9704 7.08911 34.7624 8.32556ZM47.1766 1.09869L47.2406 1.09897C48.5303 1.33916 49.1729 1.96592 49.1686 2.97925L49.1674 3.26724C49.1626 4.38723 48.4431 5.49883 47.009 6.60202L47.0088 6.66602C49.3145 8.74526 50.9101 9.78677 51.7954 9.79057C51.9549 9.90858 52.0343 10.0529 52.0336 10.2236C52.0325 10.4689 51.8505 10.6228 51.4876 10.6853C50.6023 10.6815 48.9535 9.60772 46.5413 7.46403L45.8549 7.09308L45.8069 7.09288C46.1005 8.28881 46.2459 9.21211 46.2431 9.86277C46.2419 10.1401 46.0704 10.3367 45.7285 10.4526C45.2379 10.4505 44.9337 9.24916 44.816 6.84863C44.4794 5.73784 44.3125 4.85179 44.3154 4.19046L44.316 4.04646C44.3201 3.0758 44.5355 2.59139 44.9622 2.59322L45.2655 2.75452L45.3615 2.75493C45.8783 1.6478 46.4833 1.09572 47.1766 1.09869ZM45.8623 5.3651L45.8118 5.95689C46.8038 5.96114 47.6073 5.14324 48.2223 3.5032L48.2249 2.9112C48.2269 2.44187 47.9081 2.15784 47.2685 2.05909L47.1725 2.05868C46.5005 2.0558 46.0638 3.15794 45.8623 5.3651ZM55.7325 4.06339C56.2018 4.0654 56.4357 4.25307 56.4341 4.6264L56.2888 4.92978L56.1803 7.85734C56.1746 9.17999 56.4377 10.0025 56.9697 10.3247L57.0007 10.5649C56.9673 10.8741 56.8227 11.0281 56.5667 11.027L56.4707 11.0266C55.673 10.4792 55.2766 9.64548 55.2814 8.52549L55.1694 8.52501C54.7376 9.71784 54.2177 10.313 53.6097 10.3103C53.0451 10.1479 52.7642 9.72538 52.7671 9.04272C52.7736 7.53874 53.3827 6.04267 54.5944 4.55451C55.0011 4.22559 55.3805 4.06188 55.7325 4.06339ZM53.7779 8.40705L53.712 8.85477L53.7107 9.15877L53.8706 9.15945C54.6792 7.16823 55.0844 5.95396 55.0863 5.51663L55.0223 5.51635C54.4006 6.20703 53.9858 7.1706 53.7779 8.40705ZM59.0411 4.82957L59.6975 4.73638C59.9642 4.73753 60.1128 4.9035 60.1434 5.2343C60.1422 5.5223 59.7947 5.70748 59.101 5.78984C58.6622 6.12929 58.4417 6.56568 58.4394 7.09901L58.4371 7.62701C58.6454 8.80125 59.0056 9.38946 59.5176 9.39166L59.6776 9.39234C59.9762 9.39362 60.4255 9.11288 61.0252 8.55011L61.1212 8.55052C61.3345 8.55143 61.5046 8.7015 61.6313 9.00071C61.48 9.45873 60.9982 9.87267 60.1859 10.2425C60.0363 10.3059 59.8495 10.3371 59.6255 10.3361C58.5269 10.3314 57.8159 9.46436 57.4927 7.73496L57.4942 7.38297C57.4995 6.13498 58.0152 5.28385 59.0411 4.82957ZM63.8973 4.53038C64.3239 4.54287 65.0407 5.29262 66.0477 6.77962L66.0785 7.05175C66.0773 7.35041 65.3456 7.57661 63.8836 7.73035L63.8354 7.77814L63.8351 7.84214C64.055 8.80309 64.2876 9.2841 64.533 9.28515L64.725 9.28597C65.0663 9.28743 65.5852 8.92165 66.2817 8.18863L66.3777 8.18904C66.591 8.18996 66.7557 8.34533 66.8717 8.65516C66.8706 8.91116 66.4207 9.3519 65.522 9.97739C65.2867 10.1151 65.0036 10.2152 64.6727 10.2778C63.8087 10.2741 63.2095 9.46081 62.8751 7.83803C62.3848 7.76126 62.1403 7.55754 62.1418 7.22688C62.1428 6.99222 62.3248 6.83833 62.6877 6.76522L62.6875 6.82922L62.8477 6.7659L62.8495 6.36591C62.8547 5.13925 63.204 4.52741 63.8973 4.53038ZM63.9884 5.68278L63.8444 5.68216L63.7779 6.27388L63.7757 6.76988L63.8397 6.77015C64.4371 6.75138 64.7361 6.68866 64.7365 6.58199C64.461 6.16481 64.2116 5.86507 63.9884 5.68278ZM74.2713 0.846802C74.602 0.848219 74.8136 1.24913 74.9062 2.04953L74.9058 2.14553C74.9042 2.5082 74.7328 2.6888 74.3914 2.68733C74.0608 2.68592 73.8969 2.33854 73.8999 1.64522C73.8252 1.6449 73.7778 1.52203 73.7575 1.2766C73.8654 0.989064 74.0367 0.845797 74.2713 0.846802ZM76.1128 2.58271C76.1779 2.31632 76.3705 2.18381 76.6905 2.18518C77.0105 2.18655 77.1676 2.8699 77.1617 4.23522L77.206 5.09942L77.0404 10.1388C76.9643 10.4691 76.7983 10.6337 76.5423 10.6326C76.2335 10.514 76.0795 10.348 76.0804 10.1346L76.2616 5.19137L76.1128 2.58271ZM83.898 1.48006C84.1113 1.48098 84.244 1.63621 84.296 1.94577L84.2956 2.04177C84.2948 2.2231 84.0728 3.00083 83.6296 4.37494C83.2595 6.0907 83.071 7.75924 83.0641 9.38056C83.0608 10.1486 83.1057 10.8794 83.1987 11.5732C83.08 11.882 82.914 12.0359 82.7007 12.035C82.2954 12.0333 82.0962 11.2111 82.1033 9.56845L82.1045 9.28045C82.108 8.45912 82.1818 7.42476 82.3258 6.17737C82.2725 6.17714 82.026 6.44275 81.5864 6.97421C80.7511 7.73863 80.0935 8.11982 79.6135 8.11776C79.0481 8.11534 78.6179 7.69749 78.3228 6.86422L78.3243 6.51222C78.3294 5.32823 79.2364 4.01478 81.0453 2.57185C81.8689 2.04204 82.4673 1.77793 82.8407 1.77953L83.0964 1.84463L83.4004 1.84593C83.4013 1.64327 83.5671 1.52131 83.898 1.48006ZM79.285 6.35634L79.2834 6.72434C79.2827 6.895 79.3621 7.02868 79.5217 7.12536L79.6817 7.12605C80.4924 7.12952 81.5645 5.86477 82.898 3.33179C82.9948 3.15087 83.0435 2.98575 83.0441 2.83642L83.0444 2.77242L82.8044 2.77139C81.9831 2.76787 80.9448 3.61676 79.6895 5.31806C79.4207 5.81825 79.2858 6.16434 79.285 6.35634Z" fill="black"/>
</svg>
