<svg width="250" height="500" viewBox="0 0 250 500" fill="none" xmlns="http://www.w3.org/2000/svg">
<g clip-path="url(#clip0_225_39)">
<path d="M19.9522 209.551C76.6786 189.444 133.63 169.459 195.194 169.334L240.566 248.17C162.544 248.463 90.4198 268.47 18.9485 288.48L17.0791 289.003C-53.7767 308.842 -124.029 328.511 -199.015 328.997L-153.506 250.167C-93.7382 249.852 -37.7768 230.015 18.3564 210.117L19.9522 209.551Z" fill="#234271" stroke="black" stroke-width="2"/>
<path d="M-199.015 169.341C-124.523 169.824 -54.7009 189.238 15.6806 208.944C-39.8248 228.615 -94.8449 247.856 -153.509 248.166L-199.015 169.341Z" fill="#DFB0B6" stroke="black" stroke-width="2"/>
<path d="M195.192 329.004C134.477 328.88 78.2492 309.44 22.2986 289.619C92.8728 269.87 163.875 250.46 240.563 250.171L195.192 329.004Z" fill="#DFB0B6" stroke="black" stroke-width="2"/>
<path d="M97.5709 199.266C98.4306 198.115 101.262 198.648 98.2727 199.096C98.0444 199.524 97.9263 199.298 97.5709 199.266ZM152.167 186.38C151.421 186.757 149.898 186.536 149.671 187.298C150.792 187.361 151.785 187.219 152.167 186.38ZM62.5964 209.253C63.5893 209.308 65.5197 208.664 66.496 207.996C65.0134 208.139 63.7025 208.338 62.5964 209.253ZM157.372 186.339C156.753 186.587 155.528 185.901 155.267 186.848C156.054 186.246 157.09 187.33 157.372 186.339ZM81.5014 206.529C83.7857 205.976 86.0626 205.524 86.9043 204.299C84.7991 204.808 82.4998 205.168 81.5014 206.529ZM70.6696 208.853C70.1498 208.468 68.1492 208.952 67.8627 209.531C68.7856 209.819 69.3571 208.915 70.6696 208.853ZM151.913 190.428C153.226 190.366 153.797 189.462 154.72 189.749C154.249 188.587 152.101 189.833 151.913 190.428ZM159.871 188.504C159.675 187.432 157.445 188.403 157.231 188.828C158.739 189.053 158.824 188.62 159.871 188.504ZM69.5443 210.342C69.3336 209.863 69.2591 210.47 68.8426 210.512C67.5586 211.019 65.4787 210.913 64.7041 211.827C66.1523 211.673 68.0438 210.607 69.225 211.048C69.4532 210.423 72.0169 210.373 71.4299 209.906L69.5637 210.357L69.5443 210.342ZM38.1096 223.794C38.5425 223.493 39.8491 223.865 39.3739 222.88C38.7469 223.032 37.96 223.045 38.1096 223.794ZM172.704 193.413C173.321 192.891 174.021 193.174 174.671 192.329C173.867 192.406 172.715 192.213 172.704 193.413ZM184.228 197.088C183.919 196.004 182.555 195.529 182.375 196.613C183.189 197.3 183.395 196.975 184.228 197.088ZM27.425 242.088C28.5836 241.847 30.5425 241.648 30.6229 241.001C28.7983 240.97 28.3832 240.953 27.425 242.088ZM26.5691 245.673C27.0065 245.39 28.1922 245.653 28.1397 244.979C27.5766 244.545 26.7899 245.148 26.5691 245.673ZM30.7513 245.584C30.7929 244.907 31.9024 245.051 31.9439 244.373C31.2331 243.916 29.915 245.001 30.7513 245.584ZM29.1677 247.204C29.0197 246.789 28.9971 246.107 28.6462 246.093C28.6822 246.438 28.3492 246.499 28.0163 246.56C28.4077 247.329 27.8717 247.4 28.1273 248.065C28.8977 248.114 28.3823 247.159 29.1528 247.208L29.1677 247.204ZM49.4355 252.143C49.368 251.079 47.3436 251.922 47.2586 252.355C48.283 252.539 48.4739 251.825 49.4355 252.143ZM49.6901 254.241C49.0704 254.293 48.0984 254.194 47.6567 255.047L50.0007 254.48L49.8617 253.905C49.7899 253.608 49.3688 253.632 49.3988 254.017C49.5481 253.981 49.6766 253.989 49.7095 254.256L49.6901 254.241ZM38.6199 262.77C39.5247 262.59 40.322 262.358 40.586 261.686C39.8172 261.97 39.0244 262.22 38.6199 262.77ZM48.4464 263.477C47.6418 263.809 45.0154 263.992 45.4725 264.51C46.5087 264.613 50.5188 263.29 48.4464 263.477ZM54.0751 262.116C51.379 263.711 50.5903 262.605 54.0751 262.116ZM57.4426 263.757C58.0248 263.42 59.3836 263.68 59.476 262.951C59.2071 262.623 56.9677 263.557 57.4426 263.757ZM64.1359 262.747C64.8168 262.622 65.6334 262.209 66.074 262.593C66.1631 261.393 63.3266 262.668 64.1359 262.747ZM91.983 259.098C92.7294 258.721 94.2525 258.942 94.4792 258.18C93.2534 258.339 92.6501 258.131 91.983 259.098ZM97.0621 257.556C96.3903 257.914 94.9568 257.672 94.7898 258.419C95.4616 258.06 96.8951 258.303 97.0621 257.556ZM65.3748 265.845C65.1342 265.177 65.0376 266.477 64.8121 266.59C67.8654 266.146 70.4615 264.792 73.5433 264.793C70.5418 263.948 67.8833 266.024 65.3748 265.845ZM80.5604 263.097C81.3055 262.975 82.2325 262.496 82.7373 262.885C82.3204 261.748 80.8364 262.343 80.5604 263.097ZM43.8849 272.258C45.0136 272.025 45.9826 271.653 46.5482 270.986C45.4733 271.246 44.5043 271.618 43.8849 272.258ZM85.6395 261.554C85.7667 262.211 84.9675 261.324 84.475 261.836C84.35 263.084 86.8491 261.851 85.6395 261.554ZM112.152 255.459C108.138 256.959 113.498 256.253 114.257 254.95C113.49 255.174 112.632 255.284 112.152 255.459ZM144.194 248.635C145.617 248.703 150.13 248.024 151.211 246.938C148.547 246.836 146.225 248.34 144.194 248.635ZM48.6884 272.648C49.5738 272.454 50.2695 272.129 50.6545 271.564C49.7692 271.759 49.0735 272.084 48.6884 272.648ZM161.906 184.634C161.295 184.134 159.48 183.944 159.127 184.383C160.083 184.152 161.512 185.162 161.906 184.634ZM93.9775 200.743C94.8434 200.534 96.7007 199.849 96.4213 199.544C95.4838 199.849 94.5462 200.154 93.9775 200.743ZM77.643 205.93C78.8508 205.697 80.2152 204.738 81.2906 205.657C80.9937 206.455 78.8912 205.864 79.1574 207.095C81.2224 207.205 82.7694 203.08 84.0257 204.681C85.3048 203.37 87.0922 203.704 89.2763 202.803L89.978 202.633C90.2378 202.531 90.6484 202.53 90.608 202.167C85.639 202.661 79.5104 204.437 76.7977 205.506C77.4307 205.313 77.9936 205.158 77.6385 205.911L77.643 205.93ZM54.0936 211.015C53.377 211.188 51.7926 210.648 51.8214 211.878C52.6289 211.035 53.4011 211.81 54.0936 211.015ZM69.3073 207.336C68.3667 207.564 67.5949 207.77 67.5129 208.084C68.2358 208.852 68.9911 208.12 69.3073 207.336ZM116.63 197.113C121.712 195.255 128.647 195.051 133.849 193.558C134.397 193.406 136.148 193.591 135.815 192.474C135.77 192.289 135.7 192.129 135.504 192.235C128.944 194.057 123.485 194.355 116.615 197.116L116.63 197.113ZM116.324 196.892C112.878 198 110.055 198.742 107.341 199.673C110.194 198.924 104.587 199.592 106.315 200.529C103.835 200.01 100.685 200.968 98.5245 202.099C99.2516 201.903 99.8548 201.915 100.306 202.277C95.2119 203.823 89.8277 204.103 84.8533 206.013C86.6452 206.561 88.7754 205.045 91.1556 205.412C85.4494 207.106 82.0691 207.373 77.3453 208.751C70.0849 210.879 62.6155 212.862 55.4924 214.643C55.7462 214.582 56.121 214.629 55.8031 214.882C55.0234 214.207 53.4873 215.108 52.7136 214.392C56.7522 213.317 59.9215 211.589 63.8973 210.451L65.5396 210.054C65.3572 209.43 64.5228 210.162 64.0644 210.096C54.5811 213.096 44.3288 215.987 34.7473 219.953C35.6581 219.929 36.9866 219.019 37.6259 219.572C37.3512 219.677 36.9406 219.678 36.9959 220.038C37.9812 219.603 40.4078 220.293 41.3733 218.666C39.6055 218.936 38.8637 219.528 37.7257 218.939C42.1732 217.529 47.9615 215.914 52.3767 216.005C49.7654 216.381 45.2833 217.19 41.9901 219.125C42.8488 219.605 43.3202 218.352 43.7715 219.303C39.3833 219.716 36.4149 223.713 32.8267 223.187C30.8602 222.896 28.6917 225.954 26.1726 225.404C25.0488 227.031 23.4979 228.329 23.0445 229.852C24.2789 228.749 26.9307 228.736 27.296 226.978C29.4845 225.899 25.9523 227.303 26.1314 227.26C27.8136 225.655 30.5208 226.199 32.375 225.436C32.3435 224.914 31.8522 224.777 32.1642 224.564C33.9052 224.575 34.6365 223.613 36.2354 222.971C36.3072 223.268 36.1266 223.371 36.1356 223.604C42.4535 220.584 47.2442 218.503 54.1973 217.391C53.7599 217.674 52.5743 217.411 52.6268 218.085C53.6377 218.41 57.3105 217.326 55.9963 216.662C58.3585 216.758 60.6933 215.565 63.5349 216.076C59.7649 216.693 56.1296 217.867 54.4564 219.508C54.5429 219.213 54.7337 218.302 54.0066 218.694C53.853 219.104 53.9756 219.546 53.8264 219.975C53.3829 219.905 52.5381 220.66 52.3512 220.017C52.9425 219.914 53.2858 219.634 53.3767 219.161C51.3012 219.073 49.9395 219.128 48.4647 220.348C49.7519 220.508 50.6651 218.795 51.3433 219.967C46.8993 223.024 43.7798 221.952 39.3581 224.71C39.161 224.679 39.0311 224.534 38.9802 224.193C38.2308 224.492 37.9816 225.161 37.6205 225.759C38.0789 225.825 38.9088 225.074 39.0957 225.716C38.4253 225.819 37.5416 226.347 37.3143 225.538C37.5472 225.325 37.7756 225.093 37.877 224.793C36.6766 225.123 36.0482 225.53 36.2933 226.413C32.7637 226.913 31.9299 229.412 29.2201 229.969C29.7265 230.691 25.8476 231.315 27.1456 232.631C27.2724 232.306 28.1172 231.355 28.4772 231.995C27.6515 231.979 28.2475 232.679 28.4492 232.925C27.507 232.819 27.9522 233.811 27.1848 233.839C26.5245 232.742 26.0771 234.421 25.2599 233.067C25.2743 231.493 27.4095 231.566 27.506 230.07C27.2676 231.502 23.7378 231.216 25.2879 232.138C23.5129 232.901 22.2423 233.07 20.9779 233.789C21.4318 233.836 20.9496 234.129 20.878 234.421C21.5516 234.789 23.7893 233.521 23.4329 234.727C23.9702 234.008 26.5486 233.561 26.1444 234.7C25.1959 233.652 23.993 235.279 23.5764 235.32C24.3648 235.444 22.9718 235.761 23.3244 236.304C24.0081 235.864 23.8712 237.193 24.4758 236.949C24.4443 236.426 23.953 236.29 24.265 236.077C25.0668 236.06 24.846 236.584 25.1775 236.779C25.2563 235.602 26.481 236.68 26.3701 235.568C26.173 235.537 25.9073 235.68 25.8355 235.383C26.779 234.841 26.783 233.288 27.1672 234.747C27.8145 232.784 30.1934 233.603 30.5779 231.468C31.132 232.06 32.089 231.77 33.0609 231.476C32.8008 230.4 34.3279 229.461 35.1941 230.037C34.8733 230.606 34.34 229.969 34.1686 230.894C35.6032 229.899 38.5776 230.24 39.8104 228.607C39.3162 228.785 39.0056 228.546 38.8978 227.905C41.0117 226.647 44.6861 226.093 48.4392 224.361C48.6563 225.977 51.3848 223.275 51.9066 225.368C51.9405 224.201 53.7013 225.209 54.5463 225.044C52.4532 225.864 49.6237 225.665 49.3106 226.919C47.4992 226.355 44.8447 227.272 43.7249 227.346C44.0506 227.975 44.8881 227.517 45.1721 228.234C44.7391 228.338 44.7332 228.575 45.0722 228.867C43.4749 229.645 43.0417 229.161 41.9547 229.306C41.9863 229.829 42.4776 229.965 42.1656 230.178C41.9312 230.451 40.0827 230.191 39.9887 230.39C39.3741 232.031 35.7742 232.371 36.7346 233.337C34.9402 234.085 33.5355 235.073 31.7228 235.157C32.0528 235.019 32.6157 235.059 32.5917 234.633C31.9915 234.896 29.6772 235.063 30.3194 235.497C30.7032 235.581 31.448 234.87 31.5557 235.512C29.7796 237.513 25.3539 237.247 25.7057 240.01C25.0199 238.742 27.415 238.909 26.8702 239.728C27.4761 238.639 29.3275 238.584 30.0681 238.641C29.6306 238.53 29.192 239.461 29.7444 239.328C30.4878 238.873 31.0415 238.288 31.2607 237.429C32.4598 237.552 33.5274 237.785 34.6022 236.936C33.8181 236.438 32.9987 237.363 31.6563 237.039C33.5465 236.818 35.0897 234.638 37.8999 235.215C36.7997 235.894 35.3451 235.107 34.8542 235.952C36.4159 235.614 34.717 236.496 34.6022 236.936C36.1356 236.938 38.009 235.405 39.7942 233.834C40.4334 234.191 43.1968 233.071 44.5391 233.002C40.8099 234.964 37.8002 236.241 33.4664 238.447L33.2556 237.575C32.7975 238.295 32.1089 237.539 31.924 238.212C32.1944 238.676 33.0243 237.926 33.2275 238.505C31.8599 238.797 30.6282 239.193 30.1687 240.168C32.6739 239.483 33.7127 238.29 35.5584 238.865C33.9611 239.644 34.3537 239.372 32.9624 240.415C34.6958 240.134 35.0184 240.291 35.8691 239.104C35.9723 239.53 35.108 240.27 36.0799 239.976C35.9751 239.019 37.3081 237.931 38.2131 238.537C37.8354 238.805 37.2785 238.92 37.1876 239.394C37.5445 239.366 38.0266 239.073 38.2 239.463C37.0909 240.497 36.9919 238.911 36.4859 239.563C36.6785 239.576 36.813 239.74 36.8638 240.081C35.353 240.76 33.9524 240.588 32.6536 241.099C33.2616 242.11 32.1461 241.811 32.5406 242.658C33.8515 242.459 34.8006 240.894 35.3475 241.979C35.4996 241.628 35.6668 241.274 35.8383 240.937C37.2524 241.165 37.6347 241.308 38.3651 242.173C37.3708 242.57 37.4337 242.83 37.1288 242.157C37.0872 242.835 35.9778 242.691 35.9362 243.369C36.6143 243.951 37.6037 242.357 38.8148 242.987C37.5401 244.12 35.4735 243.677 34.8154 244.877C35.3335 244.928 36.268 244.152 36.5295 244.776C34.7511 244.676 34.6997 247.143 33.2317 246.497C33.4915 246.395 33.9021 246.394 33.8617 246.03C32.4238 245.965 30.7323 246.551 28.9909 245.362C29.4466 246.332 30.5127 246.231 30.7487 246.488C31.0042 247.153 29.6483 246.578 30.2578 247.53C31.2077 248.321 31.8657 246.925 32.6736 247.26C31.6615 247.976 31.0136 248.368 29.8667 247.939C29.6802 248.278 30.0522 249.033 29.3758 248.98C28.2948 249.085 30.4031 249.046 31.481 248.471C31.7652 249.974 34.6014 247.913 35.6195 247.157C34.4741 246.668 33.0936 248.671 31.7198 248.414C33.9109 245.842 38.2964 246.333 41.109 245.221C40.3862 244.846 38.7532 246.065 37.8525 245.085C40.1937 245.226 39.944 243.931 41.4609 243.604C41.8942 244.481 40.9968 244.364 41.0417 244.942C41.5002 245.008 41.8059 243.854 42.2063 244.661C41.2448 244.933 42.2064 244.857 42.3453 245.236C40.6615 246.311 38.601 246.416 36.8034 246.89C37.3588 246.834 37.6664 246.603 37.605 246.087C36.92 247.176 35.7759 246.235 35.8778 247.114C36.1004 247.708 36.4017 246.536 36.7185 247.519C35.9513 248.137 33.8222 248.416 33.0297 249.648C33.442 250.177 33.0776 249.912 33.6316 250.112C33.1974 251.061 32.7611 250.106 32.1564 250.154C29.4978 252.034 31.9445 250.323 33.6036 251.041C33.1529 251.857 32.8257 251.288 32.3392 251.956C33.3531 252.162 32.4916 252.39 32.3111 252.886C34.3536 252.51 34.8884 248.904 37.4751 250.714C36.2673 250.947 36.2091 251.099 37.1514 251.401C36.1883 251.536 35.978 252.235 34.8791 252.265C35.238 253.945 37.1426 252.149 37.3622 252.273C37.544 251.326 40.3213 251.44 41.2898 250.086C40.7568 250.038 39.8373 250.811 39.5758 250.187C41.0821 249.489 42.4498 249.59 43.5752 248.297C42.6362 248.661 43.5794 247.53 42.8298 247.24C42.0998 247.554 40.7051 247.341 40.8637 248.324C41.2206 248.296 41.7027 248.003 41.8761 248.393C41.218 249.593 39.9202 248.866 39.2801 249.944C39.6499 248.598 38.3185 250.019 38.2957 248.945C39.8202 248.714 40.3831 248.754 40.7247 247.749C38.8912 248.074 37.4267 248.683 36.4863 249.696C36.8432 249.669 37.3254 249.376 37.4987 249.766C36.5655 249.697 35.298 250.337 34.7199 249.515C36.899 247.024 42.4793 248.405 42.256 245.847C42.8235 246.299 42.7428 245.965 42.7774 246.958C43.6972 246.971 44.4149 245.56 44.9106 245.519C44.9364 246.671 46.8248 245.528 47.6894 245.77C47.6341 245.41 47.4428 244.946 47.7175 244.84C48.2923 244.8 48.3927 245.738 49.0928 245.431C49.5705 244.923 52.2128 243.302 52.3625 244.64C52.5147 244.289 52.6818 243.935 52.8534 243.599C53.1358 244.179 53.754 244.383 53.4422 244.988C54.7257 243.303 58.7202 244.596 58.7452 243.392C59.0411 244.224 60.1726 243.282 60.5983 243.867C53.7469 245.268 48.8931 246.304 43.3793 247.421C44.3351 247.975 44.9457 247.69 46.2299 247.969C46.6449 247.79 45.9789 247.519 46.3297 247.336C49.0234 247.627 50.6219 245.807 53.3337 246.566C52.9914 245.608 55.2175 245.011 54.4982 246.284C55.4493 246.231 55.7986 245.715 56.2254 245.258C56.547 246.849 58.5095 244.116 59.2431 245.451C56.932 246.089 53.5279 246.715 51.9871 247.206C56.2667 248.174 59.9936 243.915 63.2014 245.417C59.0957 246.803 53.7464 248.273 49.252 248.181C49.4133 248.063 49.7149 248.069 49.6431 247.772C46.9457 249.819 44.1086 249.326 41.5856 250.329C41.7782 250.341 41.9126 250.505 41.9635 250.846C40.7257 250.89 38.6209 252.185 37.573 253.145C38.2808 253.327 38.812 252.256 38.9764 252.806C38.6466 253.337 37.8703 253.525 37.8556 254.314C41.9147 252.213 47.2837 251.544 51.6659 250.975C50.8671 251.07 50.942 251.837 50.4733 252.186C51.9344 250.321 52.7544 251.164 54.0099 250.408C53.5799 250.394 53.5159 250.979 53.3082 250.578C54.2814 249.832 57.0136 249.172 58.2202 249.39C55.2821 250.768 52.1125 251.515 50.2213 253.17C52.6206 252.963 54.8613 251.381 56.4649 251.347C56.8189 251.83 55.1661 251.857 56.1411 252.034C56.629 250.914 58.1264 250.375 59.339 250.946C58.5792 251.464 56.3289 250.849 56.9819 252.439C57.7654 251.366 59.7962 251.857 60.4904 251.591C58.6305 252.983 56.8489 252.216 55.7893 253.65C57.6869 253.133 59.5157 252.396 61.3749 253.223C60.3672 253.565 59.6281 253.645 59.5936 253.045C58.6237 255.047 56.1299 254.275 54.7253 255.459C55.5585 255.572 58.9773 254.352 57.743 255.652C60.3855 254.817 63.3266 253.713 65.3769 254.415C59.6675 255.246 52.128 257.658 44.028 258.34C44.4133 258.561 46.0571 257.908 45.5986 257.646C44.5445 257.862 42.2318 258.362 42.6919 258.957C43.1831 258.701 43.7995 257.983 44.1671 258.915C42.9982 259.571 41.675 258.673 41.432 259.89C42.1189 259.921 43.1936 259.072 43.6044 259.66C42.8684 259.818 42.3369 260.104 42.1012 260.632C43.5908 259.015 50.5948 258.441 52.6269 258.087C52.6269 258.087 55.0542 256.754 55.2097 257.463C55.2322 257.556 52.5282 257.875 54.117 258.041C57.2193 256.82 61.3653 255.798 64.4905 255.847C63.5201 256.278 61.7581 256.115 61.2926 256.935C62.6871 256.755 63.7934 256.428 65.5746 256.214C65.9724 258.12 68.7147 256.26 70.2065 256.94C67.5804 257.908 62.485 259.71 59.2749 259.897C59.7525 259.389 61.7785 258.879 62.7834 259.049C63.918 258.382 64.6465 257.931 64.7495 257.965C62.6814 257.581 57.098 260.305 55.923 260.413C55.8094 260.205 55.7839 259.838 55.545 259.895C55.2362 260.579 54.845 260.595 54.2134 260.531C55.3382 262.047 58.3504 259.276 59.9381 260.679C59.4305 260.998 58.1463 260.72 58.1436 261.427C63.1409 260.789 65.8341 259.705 70.1986 260.044C69.064 260.515 67.1483 260.369 66.5229 261.247C67.5548 261.528 70.6152 260.199 72.2757 260.465L70.4094 260.916C70.8117 262.645 74.2405 260.029 75.1412 261.01C73.7826 261.534 71.6131 261.45 70.7638 262.382C71.188 262.829 73.828 263.291 72.4779 262.282C82.8081 260.236 90.9507 257.443 98.7387 257.17C98.5775 257.287 98.2759 257.282 98.3476 257.579C102.141 256.603 107.524 255.203 110.894 255.154C109.72 255.595 106.647 255.827 106.751 256.45C108.273 255.886 110.592 255.934 111.595 254.985C113.506 253.737 118.478 252.142 122.46 251.749C119.623 252.631 117.89 253.109 113.872 254.14C113.618 254.201 113.306 254.414 113.705 254.494C114.69 254.452 116.104 253.502 116.818 254.036C113.389 255.474 116.249 254.036 117.691 253.53C119.478 252.882 121.803 252.693 122.842 252.285C123.009 250.556 125.082 252.529 125.577 251.31C125.22 251.337 124.738 251.63 124.565 251.24C126.283 250.373 126.999 251.634 128.675 250.855C128.799 250.059 128.336 249.975 128.632 249.629C132.357 248.63 136.673 247.527 140.561 246.744C137.457 248.418 130.977 248.61 129.066 250.446C129.955 251.508 129.946 249.9 130.861 249.698C134.129 249.556 136.107 249.176 139.592 247.902C139.235 247.929 138.753 248.222 138.58 247.832C142.171 248.24 144.56 245.247 149.416 245.526C148.466 245.913 145.652 246.103 145.979 246.672L148.084 246.163C153.282 245.24 159.742 244.051 164.434 243.133C163.992 243.004 163.558 243.953 164.111 243.82C164.493 243.177 165.39 243.294 165.064 242.666C165.571 243.192 166.48 242.442 165.738 243.426C167.023 243.056 167.228 242.987 167.17 242.157C168.21 242.475 170.29 241.795 171.141 241.197C171.663 240.874 172.933 241.156 172.935 240.449C165.382 242.216 158.077 243.766 151.506 245.021C157.02 242.922 163.977 242.222 167.506 240.544L169.149 240.147C170.049 240.145 169.879 239.44 169.077 239.85L167.435 240.247C161.227 241.63 156.063 243.409 150.746 243.968C151.822 242.667 154.568 242.651 156.149 241.738C156.831 241.161 153.273 242.394 152.501 242.012C154.278 241.189 156.604 241.53 157.485 241.121C157.192 241.152 156.826 241.339 156.711 240.994C160.986 239.783 168.843 237.118 174.804 236.934C174.843 235.53 173.317 237.45 173.356 236.046C177.836 235.356 179.594 233.085 182.476 230.758C178.739 230.66 174.292 234.033 171.892 232.08C173.285 231.174 175.594 230.989 177.143 230.202C177.478 229.826 177.387 229.122 177.801 228.806C179.202 227.544 180.925 226.892 179.232 227.537C178.698 227.744 178.042 228.433 176.888 228.103C177.728 227.331 179.166 227.003 179.875 226.144C179.118 226.15 178.503 225.828 177.798 225.723C179.49 225.137 182.016 225.194 182.81 223.903C182.747 222.858 182.197 222.873 182.077 221.92C181.334 221.982 181.067 222.969 180.602 221.962C181.191 221.781 181.682 221.524 181.867 221.048C180.405 220.753 177.235 222.285 175.173 222.057C175.939 222.088 175.953 221.554 176.505 221.421C179.518 220.418 175.781 221.498 174.963 221.185C177.614 219.994 180.317 221.108 182.079 218.856C181.042 219.008 179.712 219.782 179.134 218.959C179.935 218.942 180.174 218.492 180.704 218.265C181.083 218.134 182.865 217.92 182.036 217.629C180.693 217.698 177.863 219.522 179.329 217.675C178.313 217.92 177.236 218.299 176.622 217.72C177.64 217.16 178.165 216.915 178.349 216.694C177.435 217.818 177.109 215.423 179.613 215.78C180.628 215.534 179.537 215.268 179.079 215.595C177.244 215.587 176.899 217.3 175.57 216.443C175.812 216.07 176.369 215.955 176.3 215.344C175.8 215.17 175.734 216.403 175.359 215.571C175.845 215.552 175.728 215.069 175.922 214.826C177.206 214.319 179.286 214.425 180.06 213.511C179.768 213.543 179.417 213.726 179.287 213.384C179.547 213.282 179.957 213.281 179.917 212.918C178.796 213.64 177.052 213.944 176.03 213.249C177.837 212.812 179.512 212.289 180.803 211.486C179.634 211.356 176.704 213.027 175.118 212.546C177.496 211.402 180.444 209.609 182.415 208.936C182.176 208.994 181.991 208.489 182.276 208.361C182.999 208.54 183.814 208.185 184.309 207.555C183.14 207.425 180.691 209.255 181.67 207.879C179.967 207.701 179.109 207.615 177.32 208.322C177.498 207.749 177.52 207.056 178.202 206.871C177.874 207.54 181.747 206.957 182.723 206.093C180.788 206.128 177.3 207.129 175.117 206.4C179.278 205.963 182.497 204.046 185.46 202.053C184.82 201.953 184.346 201.498 183.774 201.224C184.329 200.775 184.986 200.42 184.828 199.437C183.193 198.949 180.889 199.879 179.17 199.568C179.972 199.551 180.327 199.19 180.435 198.653C180.419 197.675 179.675 198.189 179.45 197.654C180.711 197.899 180.999 197.064 181.584 196.215C181.037 195.916 180.616 195.35 179.898 195.386C177.793 197.858 172.656 195.958 169.313 196.708C173.992 194.948 178.879 194.179 181.833 192.149C181.15 190.763 177.156 191.434 176.332 191.947C176.529 191.978 176.795 191.835 176.867 192.132C175.282 193.222 173.471 194.23 171.631 194.007C171.698 193.5 172.799 193.803 172.361 192.907C171.599 192.895 170.435 193.766 169.945 193.177C170.745 192.827 171.187 192.366 172.05 192.668C171.962 191.649 173.543 191.915 173.945 191.287C174.502 191.369 175.366 190.63 174.336 190.879C172.704 191.253 171.087 191.625 170.238 190.337C169.738 190.164 169.673 191.397 169.298 190.565C169.204 190.175 169.648 190.185 169.621 189.878C166.219 190.249 160.111 191.392 157.199 190.721C157.502 190.471 158.489 190.763 158.292 190.143C156.366 190.608 156.208 192.375 154.221 191.736C154.888 191.751 156.118 191.022 155.485 190.821C154.479 191.889 153.151 191.759 152.511 191.854C147.694 192.587 142.182 194.43 136.695 195.069C139.514 194.113 143.115 193.91 144.82 192.791C144.463 192.818 143.981 193.112 143.808 192.721C146.448 192.79 146.753 191.636 150.051 190.898C150.288 191.548 149.456 191.376 149.561 191.939C151.064 191.753 150.09 190.731 150.614 190.153C147.252 191.28 145.068 191.788 142.867 192.949C142.679 192.562 142.467 192.535 142.656 192.077C138.563 194.363 131.793 194.271 128.55 195.173C128.748 195.204 129.013 195.061 129.085 195.358C123.903 196.277 119.37 196.941 116.048 198.824L115.837 197.952C115.548 198.651 113.8 198.936 112.792 198.689C113.663 197.653 116.233 197.955 116.328 196.911L116.324 196.892ZM62.9502 244.575C63.9001 245.366 66.2302 243.173 66.9085 244.541C65.0718 244.199 64.084 246.127 62.9502 244.575ZM38.5981 242.155C38.4679 241.421 38.0199 241.333 37.6137 241.156C38.6376 239.77 40.0117 241.009 40.8117 240.069C41.1032 241.079 39.2442 241.037 38.5981 242.155ZM38.8725 227.93C38.0228 227.684 38.5915 227.291 37.7079 228.212C37.9793 227.047 37.5347 228.215 36.6956 228.142C36.8644 228.514 37.3361 228.243 37.7079 228.212C38.2219 229.227 37.0557 228.978 37.0499 229.608C36.6855 229.343 36.43 228.874 35.7463 229.315C35.6432 229.084 35.7686 229.015 35.9134 228.96C35.7879 228.637 35.4222 228.823 35.14 228.833C36.2462 228.31 37.3837 227.524 38.5375 226.48C39.3931 226.489 38.8976 227.315 38.8874 227.927L38.8725 227.93ZM121.306 199.065C121.473 198.318 122.906 198.56 123.578 198.202C123.411 198.949 121.977 198.706 121.306 199.065ZM70.4201 212.919C69.7517 214.338 67.8446 213.444 65.8188 214.346C65.8604 213.668 69.1168 213.411 70.4201 212.919ZM25.0877 227.257C26.1686 226.956 25.1601 229.321 24.3579 228.356C24.0949 227.595 25.7391 228.317 25.0877 227.257ZM44.1598 224.178C43.6986 224.623 43.5585 225.285 42.7284 225.447C42.6611 225.168 42.9582 225.156 43.1194 225.038C42.4561 223.863 39.7466 225.598 41.2663 224.563C42.0007 224.071 42.8891 223.758 44.1449 224.181L44.1598 224.178ZM45.9588 223.448C46.0003 222.574 46.9771 223.281 47.3622 223.109C47.2013 224.012 46.4726 223.874 45.9588 223.448ZM34.7426 228.3C34.7236 229.464 33.3066 229.551 32.1466 229.851C32.4568 228.912 34.0829 228.971 34.7426 228.3ZM31.7555 230.26C31.7434 229.752 30.8941 230.488 30.8867 230.784C29.9205 230.252 31.1431 229.426 31.7687 229.334C32.0212 229.921 31.7883 230.134 31.8124 230.56C31.5302 230.57 31.6062 230.296 31.7406 230.263L31.7555 230.26ZM41.5153 236.835C42.268 237.203 40.1911 237.371 39.7208 237.583C40.057 238.189 41.0616 237.377 41.6589 237.429C42.1159 237.947 39.4851 238.112 38.6849 238.462C38.7158 237.218 40.3194 237.183 41.5198 236.854L41.5153 236.835ZM51.018 238.23C51.3045 237.65 53.3051 237.166 53.8249 237.551C52.5558 237.662 51.79 238.416 51.018 238.23ZM50.4991 240.201C50.9229 239.47 52.8773 239.253 53.2061 240.155C52.3998 239.958 51.4412 240.111 50.4991 240.201ZM39.6496 243.433C38.9556 244.092 37.7328 244.328 36.743 244.744C36.8815 243.749 39.136 243.4 39.6496 243.433ZM46.343 242.423L47.5075 242.142C47.9841 243.067 46.8836 242.764 46.482 242.999L46.343 242.423ZM51.7896 241.421C53.4973 240.183 55.4847 240.429 53.4319 241.024C52.5898 241.267 51.291 241.777 51.7896 241.421ZM173.78 212.241C173.768 213.108 173.073 213.433 172.42 213.807C172.339 212.884 173.399 212.824 173.78 212.241ZM46.3586 244.58C45.7852 244.365 45.4928 244.986 44.8162 244.344C43.5981 245.188 46.1727 242.308 46.3586 244.58ZM46.076 243.411C46.842 243.442 46.5733 243.507 47.2406 243.129C47.9801 244.423 46.0033 244.548 46.076 243.411ZM44.4487 243.804C43.7698 245.245 41.0683 244.072 44.4487 243.804ZM47.5512 243.369C48.5305 242.582 51.9674 241.83 50.8209 242.578C50.3985 242.857 49.037 243.697 47.5512 243.369ZM64.5951 247.26C61.773 246.96 57.0332 249.579 55.7248 248.482C55.2086 249.549 54.2677 248.991 53.5199 249.623C50.7982 250.458 50.6651 249.842 53.9109 249.215C50.7798 249.009 47.5387 250.441 44.4108 250.903C54.6432 246.819 63.6351 247.669 71.2429 244.101C71.5108 245.863 74.2587 243.176 75.3402 244.642C74.7596 245.313 73.3499 244.711 72.5334 245.321C71.4496 246.133 73.1815 245.714 72.0705 245.433C70.5907 245.064 67.8769 246.977 66.5959 247.365C63.8085 248.255 61.6481 248.601 59.5788 249.062C60.9713 247.37 63.1381 248.162 64.5906 247.241L64.5951 247.26ZM43.6241 251.702C43.1586 252.521 41.3966 252.358 40.4262 252.789C40.4291 252.278 42.5625 251.625 43.6241 251.702ZM63.2334 251.89C63.7694 251.623 63.8711 252.305 64.4697 251.905C64.4701 253.083 62.5095 252.752 61.5631 253.217C61.2386 251.744 63.7937 253.031 63.2185 251.894L63.2334 251.89ZM77.1521 206.971C76.2413 206.995 74.9127 207.906 74.2735 207.353C72.0819 208.354 69.19 209.073 73.248 208.21C74.3903 208.425 78.3765 207.264 77.1476 206.953L77.1521 206.971ZM30.3927 222.597C31.3344 221.328 35.1882 221.319 35.7238 220.071C34.3532 220.481 32.8125 220.971 32.3151 220.286C31.7242 221.371 30.3534 221.192 30.3927 222.597ZM26.8124 223.148C28.5471 222.415 29.794 222.8 30.1819 221.725C28.9232 221.813 25.6897 223.537 26.8124 223.148ZM40.3863 222.949C40.2889 221.893 41.8346 222.796 42.0417 221.626L40.1755 222.077C40.3862 222.557 40.0115 222.903 40.3863 222.949ZM23.587 231.312C23.0241 231.271 23.763 230.798 23.1373 230.498C22.7403 231.143 21.8147 231.367 22.1555 232.581C22.8722 232.408 22.9182 231.748 23.3481 231.37C23.3885 231.536 23.623 231.657 23.587 231.312ZM43.7564 227.673C41.7226 227.104 41.1987 227.682 40.6258 229.038C41.2498 228.612 41.2796 228.605 42.0292 228.699C41.8644 226.971 43.4998 228.442 43.7564 227.673ZM182.043 198.245C181.951 197.54 182.617 197.419 182.701 196.849C180.874 196.681 181.378 197.522 182.043 198.245ZM23.4511 239.966C23.4151 239.621 23.5972 239.459 23.7748 239.279C23.8466 239.575 24.0542 239.584 24.1528 239.796C23.3899 240.236 22.996 240.959 22.6364 241.694C23.7965 241.394 25.098 239.98 24.7827 239.329C24.6904 240.059 23.7493 238.912 23.4073 238.739C23.9359 238.768 23.6264 237.488 23.5745 238.384C23.2535 238.56 22.8702 239.851 23.4615 239.943L23.4511 239.966ZM26.4407 241.089C25.642 241.576 25.3482 242.453 24.6854 243.045C25.0423 243.017 25.5244 242.724 25.6978 243.114C22.4223 244.535 25.0392 242.743 25.7696 243.411C25.9727 243.598 24.6535 245.723 25.5175 244.395C25.934 244.157 25.7337 243.459 26.543 243.538C26.2357 244.162 26.8226 244.433 27.2885 244.595C26.8415 243.073 29.1488 244.381 29.0157 243.569C28.1706 243.734 26.8265 242.881 26.8388 243.781C26.8086 242.806 26.2457 242.962 26.026 242.446C26.4771 242.808 27.3176 242.428 27.0515 241.589C26.7693 241.598 26.617 241.36 26.4496 241.126L26.4407 241.089ZM30.6098 241.927C31.0682 241.993 31.6161 241.84 31.9134 242.22C31.173 242.753 30.2885 241.317 29.9753 242.375C30.2575 242.365 30.4099 242.603 30.5772 242.838L29.6366 243.065C29.9842 242.019 28.5717 242.125 28.6243 242.996C29.2379 242.985 29.9415 243.738 29.6803 244.292C30.4731 244.041 30.1488 243.157 30.8449 244.01C30.5565 243.275 31.4075 243.266 31.7137 243.486C31.5793 243.519 31.5033 243.792 31.7855 243.783C31.7853 243.39 31.9405 243.117 32.3481 243.038L31.9983 241.591C31.7056 241.622 31.3548 241.805 31.2248 241.464C31.3591 241.431 31.4352 241.158 31.153 241.167C31.2696 241.649 30.5365 241.493 30.5903 241.912L30.6098 241.927ZM34.1209 244.161C34.0911 244.561 33.5764 245.765 34.0124 245.739C34.0062 245.19 34.2976 245.807 34.547 245.923C33.5549 244.042 35.1302 244.153 35.6959 243.486C34.8763 243.821 33.0798 243.058 32.1155 244.037C33.0698 244.454 33.4636 243.338 34.1209 244.161ZM30.78 250.801C30.6632 249.926 32.0997 250.246 32.2115 249.532C31.3736 249.008 30.2364 250.383 30.78 250.801ZM40.0052 257.192C39.5976 257.271 39.2871 257.424 39.1364 257.716C35.8219 258.517 41.0448 258.354 40.329 256.505C39.4343 255.68 38.5047 257.653 37.6892 256.829C39.2999 255.713 41.7948 255.247 42.5706 253.488C40.7032 254.981 36.6796 256.052 36.186 257.801C36.6891 257.659 39.0897 256.608 40.0052 257.192ZM43.8069 253.504C44.7027 253.091 46.3899 253.272 46.7809 252.47L43.5112 253.261C43.5816 253.813 43.0826 253.188 43.1201 253.67C43.4755 253.701 43.5935 253.928 43.8218 253.5L43.8069 253.504ZM44.1482 255.895C43.3302 256.564 42.3144 255.435 42.2101 256.05C43.6273 256.748 46.5698 255.388 47.1221 254.862C45.2886 254.991 43.7597 255.204 43.3029 255.471C43.6225 255.551 43.9166 255.657 44.1437 255.877L44.1482 255.895ZM40.8485 260.68C40.587 260.252 38.1594 260.8 39.2779 261.374C39.4808 260.775 40.8771 261.321 40.8485 260.68ZM78.7746 262.9C77.3067 262.45 75.3318 264.086 75.0944 264.084C76.0664 263.987 78.5391 264.214 78.7746 262.9ZM155.25 246.256C156.405 245.152 157.661 246.557 158.38 244.891C156.626 245.609 154.667 245.023 154.17 245.909C154.527 245.881 155.009 245.588 155.183 245.978C155.048 246.011 154.972 246.284 155.254 246.275L155.25 246.256ZM74.6971 206.033C73.7073 206.449 73.0548 206.43 72.6637 206.839C73.7285 207.387 74.9003 206.612 75.5704 205.527C75.4836 205.038 74.0055 205.395 74.167 205.867C74.3641 205.898 74.6298 205.755 74.7016 206.052L74.6971 206.033Z" fill="#DFB0B6"/>
</g>
<defs>
<clipPath id="clip0_225_39">
<rect width="500" height="250" fill="white" transform="matrix(0 -1 1 0 0 500)"/>
</clipPath>
</defs>
</svg>
