<svg width="59" height="8" viewBox="0 0 59 8" fill="none" xmlns="http://www.w3.org/2000/svg">
<path d="M1.15 1.25C1.35667 0.903333 1.56333 0.73 1.77 0.73C1.98333 0.73 2.13 0.853333 2.21 1.1L2.19 1.23V1.25C3.03667 1.79667 3.46 2.81667 3.46 4.31C3.46 5.80333 3.02333 6.79667 2.15 7.29L1.81 7.35C1.12333 7.35 0.653333 6.95333 0.4 6.16C0.313333 5.80667 0.27 5.46333 0.27 5.13V5C0.27 4.30667 0.436667 3.35 0.77 2.13C0.61 2.13 0.506667 2.01667 0.46 1.79C0.46 1.66333 0.69 1.48333 1.15 1.25ZM0.87 4.94V5.19C0.87 6.23 1.16333 6.75 1.75 6.75H1.77C2.31667 6.75 2.67333 6.09667 2.84 4.79L2.87 4.19C2.82333 2.86333 2.51333 2.07 1.94 1.81L1.75 1.79H1.59C1.43 1.95 1.24 2.51333 1.02 3.48C0.92 4.01333 0.87 4.5 0.87 4.94ZM5.53211 1.6C6.04544 1.6 6.34544 1.96333 6.43211 2.69C6.43211 3.36333 5.90544 4.66667 4.85211 6.6V6.66C5.12544 6.66 5.70878 6.42 6.60211 5.94H6.62211C6.75544 5.94 6.85878 6.03667 6.93211 6.23C6.93211 6.57 6.01544 6.98667 4.18211 7.48C4.07544 7.48 3.98544 7.38333 3.91211 7.19C4.17211 6.59667 4.67878 5.59667 5.43211 4.19C5.68544 3.51 5.81211 3.05 5.81211 2.81V2.5C5.81211 2.36667 5.74211 2.26333 5.60211 2.19H5.47211C5.21211 2.19 4.96211 2.50333 4.72211 3.13L4.75211 3.25C4.75211 3.37667 4.65878 3.48 4.47211 3.56C4.22544 3.51333 4.10211 3.39 4.10211 3.19C4.10211 2.81 4.39211 2.34333 4.97211 1.79C5.13878 1.66333 5.32544 1.6 5.53211 1.6ZM14.4454 0.95C14.6387 1.00333 14.7354 1.1 14.7354 1.24C14.6221 1.56 14.2287 2.39333 13.5554 3.74C12.8887 5.08667 12.3954 6.17 12.0754 6.99L11.8654 7.05C11.6721 7.01667 11.5754 6.92 11.5754 6.76C11.5754 6.54667 12.4287 4.69333 14.1354 1.2C14.1954 1.03333 14.2987 0.95 14.4454 0.95ZM18.0001 0.95C18.1934 1.00333 18.2901 1.1 18.2901 1.24C18.1767 1.56 17.7834 2.39333 17.1101 3.74C16.4434 5.08667 15.9501 6.17 15.6301 6.99L15.4201 7.05C15.2267 7.01667 15.1301 6.92 15.1301 6.76C15.1301 6.54667 15.9834 4.69333 17.6901 1.2C17.7501 1.03333 17.8534 0.95 18.0001 0.95ZM23.1143 3.61L23.5243 3.55C23.691 3.55 23.7843 3.65333 23.8043 3.86C23.8043 4.04 23.5876 4.15667 23.1543 4.21C22.881 4.42333 22.7443 4.69667 22.7443 5.03V5.36C22.8776 6.09333 23.1043 6.46 23.4243 6.46H23.5243C23.711 6.46 23.991 6.28333 24.3643 5.93H24.4243C24.5576 5.93 24.6643 6.02333 24.7443 6.21C24.651 6.49667 24.351 6.75667 23.8443 6.99C23.751 7.03 23.6343 7.05 23.4943 7.05C22.8076 7.05 22.361 6.51 22.1543 5.43V5.21C22.1543 4.43 22.4743 3.89667 23.1143 3.61ZM26.8486 3.23C27.3419 3.23 27.7153 3.59667 27.9686 4.33L28.0086 4.54C28.0086 5.25333 27.6753 5.98333 27.0086 6.73C26.7419 6.97667 26.4719 7.1 26.1986 7.1C25.7986 7.1 25.5153 6.87 25.3486 6.41C25.2886 6.19667 25.2586 6.01 25.2586 5.85V5.73C25.2586 4.67667 25.6419 3.87667 26.4086 3.33C26.5419 3.26333 26.6886 3.23 26.8486 3.23ZM25.8486 5.83C25.8486 6.28333 25.9653 6.51 26.1986 6.51C26.6853 6.51 27.0886 5.88667 27.4086 4.64V4.45C27.2953 4.03667 27.0853 3.83 26.7786 3.83C26.6586 3.83 26.5986 3.91333 26.5986 4.08C26.5986 4.19333 26.4653 4.28333 26.1986 4.35C25.9653 4.74333 25.8486 5.23667 25.8486 5.83ZM29.0217 1.49C29.2084 1.55667 29.3017 1.66 29.3017 1.8L29.4017 5.61V6.84C29.4017 7.06667 29.3051 7.18 29.1117 7.18H28.9817C28.8617 7.1 28.8017 7.00667 28.8017 6.9V5.74L28.7117 1.78C28.7117 1.61333 28.8151 1.51667 29.0217 1.49ZM30.6916 1.49C30.8783 1.55667 30.9716 1.66 30.9716 1.8L31.0716 5.61V6.84C31.0716 7.06667 30.975 7.18 30.7816 7.18H30.6516C30.5316 7.1 30.4716 7.00667 30.4716 6.9V5.74L30.3816 1.78C30.3816 1.61333 30.485 1.51667 30.6916 1.49ZM33.6616 3.14C33.9549 3.14 34.1016 3.25667 34.1016 3.49L34.0116 3.68L33.9516 5.51C33.9516 6.33667 34.1182 6.85 34.4516 7.05L34.4716 7.2C34.4516 7.39333 34.3616 7.49 34.2016 7.49H34.1416C33.6416 7.15 33.3916 6.63 33.3916 5.93H33.3216C33.0549 6.67667 32.7316 7.05 32.3516 7.05C31.9982 6.95 31.8216 6.68667 31.8216 6.26C31.8216 5.32 32.1982 4.38333 32.9516 3.45C33.2049 3.24333 33.4416 3.14 33.6616 3.14ZM32.4516 5.86L32.4116 6.14V6.33H32.5116C33.0116 5.08333 33.2616 4.32333 33.2616 4.05H33.2216C32.8349 4.48333 32.5782 5.08667 32.4516 5.86ZM34.7915 2.25C35.1382 2.25 35.3615 2.93 35.4615 4.29L35.5215 4.6C35.8282 3.97333 36.0782 3.66 36.2715 3.66C36.2715 3.63333 36.3415 3.61333 36.4815 3.6H36.5215C36.9615 3.6 37.2415 3.94333 37.3615 4.63V4.66C37.3615 5.24667 37.0682 5.89333 36.4815 6.6C36.2348 6.86667 35.9648 7 35.6715 7C35.3382 6.92667 35.1715 6.76 35.1715 6.5L34.6715 2.91L34.5215 2.54C34.5215 2.42 34.6115 2.32333 34.7915 2.25ZM35.8315 6.31H35.8615C36.2082 6.17 36.5115 5.69333 36.7715 4.88V4.5C36.7115 4.29333 36.6348 4.19 36.5415 4.19H36.4615C36.1682 4.36333 35.9582 5.07 35.8315 6.31ZM39.4658 3.23C39.9591 3.23 40.3324 3.59667 40.5858 4.33L40.6258 4.54C40.6258 5.25333 40.2924 5.98333 39.6258 6.73C39.3591 6.97667 39.0891 7.1 38.8158 7.1C38.4158 7.1 38.1324 6.87 37.9658 6.41C37.9058 6.19667 37.8758 6.01 37.8758 5.85V5.73C37.8758 4.67667 38.2591 3.87667 39.0258 3.33C39.1591 3.26333 39.3058 3.23 39.4658 3.23ZM38.4658 5.83C38.4658 6.28333 38.5824 6.51 38.8158 6.51C39.3024 6.51 39.7058 5.88667 40.0258 4.64V4.45C39.9124 4.03667 39.7024 3.83 39.3958 3.83C39.2758 3.83 39.2158 3.91333 39.2158 4.08C39.2158 4.19333 39.0824 4.28333 38.8158 4.35C38.5824 4.74333 38.4658 5.23667 38.4658 5.83ZM42.3889 3.06C42.8089 3.06 43.0589 3.35333 43.1389 3.94V4.03C43.1389 4.67667 42.8056 5.27 42.1389 5.81C42.5256 6.19 43.2022 6.38 44.1689 6.38C44.3156 6.42667 44.3889 6.53 44.3889 6.69C44.3889 6.87 44.2722 6.96 44.0389 6.96C43.3856 6.96 42.6989 6.79333 41.9789 6.46V6.75C41.9789 7.43667 41.8322 7.78 41.5389 7.78C41.3322 7.78 41.2289 7.38333 41.2289 6.59V5.81L41.1989 5.53L41.2689 5.21L41.1989 4.25V4.21C41.1989 4.03 41.2922 3.90667 41.4789 3.84C41.7389 3.32 42.0422 3.06 42.3889 3.06ZM41.8889 5.25C42.0822 5.25 42.2989 4.90333 42.5389 4.21V3.78L42.4189 3.65H42.3289C42.0356 3.85 41.8889 4.38333 41.8889 5.25ZM46.5913 3.14C46.8846 3.14 47.0312 3.25667 47.0312 3.49L46.9413 3.68L46.8813 5.51C46.8813 6.33667 47.0479 6.85 47.3813 7.05L47.4013 7.2C47.3813 7.39333 47.2913 7.49 47.1313 7.49H47.0713C46.5713 7.15 46.3213 6.63 46.3213 5.93H46.2513C45.9846 6.67667 45.6613 7.05 45.2813 7.05C44.9279 6.95 44.7513 6.68667 44.7513 6.26C44.7513 5.32 45.1279 4.38333 45.8813 3.45C46.1346 3.24333 46.3713 3.14 46.5913 3.14ZM45.3813 5.86L45.3413 6.14V6.33H45.4413C45.9413 5.08333 46.1913 4.32333 46.1913 4.05H46.1513C45.7646 4.48333 45.5079 5.08667 45.3813 5.86ZM48.8212 0.929999C49.0078 0.97 49.1012 1.06333 49.1012 1.21L49.0412 1.65V1.78C49.0412 2.07333 49.0745 2.38333 49.1412 2.71H49.1612C49.9345 2.47667 50.4145 2.36 50.6012 2.36C50.7945 2.41333 50.8912 2.51 50.8912 2.65C50.8912 2.87667 50.6612 2.99 50.2012 2.99L49.1612 3.36C49.1612 4.26 49.2578 5.48333 49.4512 7.03C49.4112 7.21 49.3145 7.3 49.1612 7.3H49.1412C48.9078 7.3 48.7912 7 48.7912 6.4C48.7045 5.95333 48.6312 4.98333 48.5712 3.49H48.3912C47.7645 3.45 47.4512 3.30333 47.4512 3.05C47.4512 2.97667 47.5212 2.88667 47.6612 2.78H47.7612L48.2212 2.9H48.5412L48.4512 1.65C48.4512 1.17 48.5745 0.929999 48.8212 0.929999ZM51.3159 1.79C51.5692 1.84333 51.6959 1.95667 51.6959 2.13C51.6292 2.31667 51.5225 2.41 51.3759 2.41C51.1292 2.36333 51.0059 2.24 51.0059 2.04C51.0725 1.87333 51.1759 1.79 51.3159 1.79ZM51.6959 3.19C51.8025 3.19 51.8925 3.28667 51.9659 3.48L51.8759 4.19V4.66C51.8759 5.20667 51.9692 5.92333 52.1559 6.81C52.0892 6.93667 51.9759 7 51.8159 7C51.5425 7 51.3625 6.2 51.2759 4.6V4.25C51.2759 3.54333 51.4159 3.19 51.6959 3.19ZM54.2705 3.23C54.7638 3.23 55.1371 3.59667 55.3905 4.33L55.4305 4.54C55.4305 5.25333 55.0971 5.98333 54.4305 6.73C54.1638 6.97667 53.8938 7.1 53.6205 7.1C53.2205 7.1 52.9371 6.87 52.7705 6.41C52.7105 6.19667 52.6805 6.01 52.6805 5.85V5.73C52.6805 4.67667 53.0638 3.87667 53.8305 3.33C53.9638 3.26333 54.1105 3.23 54.2705 3.23ZM53.2705 5.83C53.2705 6.28333 53.3871 6.51 53.6205 6.51C54.1071 6.51 54.5105 5.88667 54.8305 4.64V4.45C54.7171 4.03667 54.5071 3.83 54.2005 3.83C54.0805 3.83 54.0205 3.91333 54.0205 4.08C54.0205 4.19333 53.8871 4.28333 53.6205 4.35C53.3871 4.74333 53.2705 5.23667 53.2705 5.83ZM57.1736 3.63C57.7403 3.67667 58.0236 3.95333 58.0236 4.46L58.0436 4.59L58.0236 6.15C58.0236 6.33 58.1269 6.57333 58.3336 6.88V6.9C58.2803 7.09333 58.1836 7.19 58.0436 7.19C57.6303 7.01667 57.4236 6.65 57.4236 6.09V5.96L57.3936 5.94L57.4236 5.9V5.88L57.4536 4.5C57.4536 4.30667 57.3703 4.21 57.2036 4.21H57.0836C56.7503 4.34333 56.5836 5.07333 56.5836 6.4C56.5836 6.86 56.4669 7.09 56.2336 7.09C56.0536 7.09 55.9603 6.97667 55.9536 6.75V5.75C55.9536 4.45667 56.0669 3.81 56.2936 3.81L56.3936 3.78L56.6036 3.81C56.7836 3.69 56.9736 3.63 57.1736 3.63Z" fill="black"/>
</svg>
