<svg width="373" height="1186" viewBox="0 0 373 1186" fill="none" xmlns="http://www.w3.org/2000/svg">
<path d="M98.7391 866.874C97.2913 876.661 96.0462 885.479 94.9748 893.152C91.2683 920.067 92.9044 910.989 90.0956 931.447C88.8354 940.155 88.086 948.93 87.8514 957.725C87.6487 965.688 88.0252 969.192 88.9807 972.739C90.9295 979.611 94.69 985.832 99.8684 990.75C97.4733 992.63 94.8146 994.147 91.9778 995.253C88.0686 996.773 85.5639 996.773 83.2908 999.003C81.9167 1000.46 81.0004 1002.29 80.6557 1004.26C78.5563 1005.07 75.1684 1006.3 70.8973 1007.65C66.3511 1009.09 64.9322 1009.33 63.774 1010.64C62.9777 1011.56 60.7625 1014.73 64.1359 1023.41C61.1184 1023.41 58.106 1023.66 55.1304 1024.17C50.4403 1024.83 45.8826 1026.22 41.6221 1028.29C37.1338 1030.57 37.6696 1031.52 29.6051 1037.67C21.5407 1043.83 20.0929 1043.55 17.6026 1047.06C14.9204 1050.92 13.4762 1055.5 13.4618 1060.2C13.4618 1064.88 15.1413 1067.04 17.979 1074.46C18.8188 1076.68 20.1652 1081.2 22.8582 1090.23C24.7549 1096.6 27.2017 1105.69 29.6051 1117.25C24.6391 1121.46 20.2956 1124.99 16.8497 1127.76C10.7978 1132.61 9.23411 1133.67 7.09132 1136.45C4.68791 1139.49 0.416811 1144.92 1.08281 1151.84C1.5606 1156.83 4.39835 1160.28 6.71488 1163.09C9.41252 1166.49 12.8883 1169.2 16.8497 1170.98C21.8575 1173.03 27.3336 1173.65 32.6745 1172.79C38.478 1172.18 44.0958 1170.39 49.1798 1167.53C56.9062 1163.77 63.426 1157.92 68.0016 1150.65C71.1107 1145.17 73.2695 1139.2 74.3866 1133C75.1539 1129.11 74.8789 1128.44 75.8344 1124.31C77.147 1119.29 78.9058 1114.39 81.09 1109.68C83.9857 1103.26 84.6952 1103.12 84.8399 1100.67C85.1295 1096.25 82.8564 1094.88 81.4665 1089.09C80.482 1084.96 80.7136 1081.85 81.09 1076.69C81.4954 1071.18 82.3786 1069.45 83.7251 1059.81C84.0726 1057.25 84.3187 1055.16 84.478 1053.8C88.7201 1052.19 92.8548 1050.31 96.8569 1048.17C98.7102 1047.19 100.462 1046.17 102.113 1045.16C105.142 1047.3 108.419 1049.06 111.871 1050.42C117.069 1052.47 121.152 1054.08 125.394 1053.05C133.27 1051.13 136.571 1041.32 136.976 1039.9C138.804 1041.06 140.849 1041.83 142.985 1042.16C145.577 1042.55 148.224 1042.34 150.722 1041.54C153.219 1040.75 155.499 1039.39 157.386 1037.57C159.273 1035.75 160.716 1033.52 161.603 1031.05C162.49 1028.58 162.797 1025.95 162.502 1023.34C168.217 1021.07 174.124 1019.31 180.151 1018.09C186.37 1016.93 192.657 1016.18 198.973 1015.83C208.022 1014.91 215.145 1012.6 229.377 1007.95C244.99 1002.81 260.172 996.444 274.781 988.912C290.345 980.905 294.819 977.025 297.309 974.651C301.479 970.684 309.413 962.952 313.076 950.255C314.625 944.869 317.42 935.139 313.076 925.106C309.486 916.853 302.941 912.727 296.933 908.962C293.936 907.08 282.064 899.971 259.767 898.451C247.953 897.64 239.28 898.828 228.61 900.333C206.429 903.475 186.869 906.414 170.436 909.02C168.93 895.507 167.429 881.994 165.933 868.481L98.7391 866.874Z" fill="white"/>
<path d="M96.3647 879.195C93.3339 897.911 90.7858 916.703 88.7202 935.574C87.1565 950.052 83.479 967.744 90.5589 981.441C96.9728 993.82 111.046 998.409 124.192 998.453C142.884 998.453 162.169 993.313 179.774 987.507C181.092 987.073 180.527 984.974 179.195 985.408C154.785 993.472 100.129 1010.73 90.2114 974.404C86.4905 960.795 89.8205 945.071 91.3552 931.36C93.2857 914.102 95.6505 896.907 98.4496 879.774C98.6668 878.399 96.5819 877.82 96.3647 879.195Z" fill="#101E41"/>
<path d="M165.904 880.831C167.997 890.792 169.213 900.917 169.538 911.091C169.538 911.379 169.653 911.655 169.856 911.859C170.06 912.062 170.336 912.177 170.624 912.177C170.912 912.177 171.188 912.062 171.392 911.859C171.595 911.655 171.71 911.379 171.71 911.091C171.374 900.723 170.134 890.404 168.003 880.252C167.714 878.876 165.614 879.456 165.904 880.831Z" fill="#101E41"/>
<path d="M69.435 1021.07C76.457 1011.85 94.801 1016.33 103.546 1020C113.157 1024.01 121.296 1030.89 126.856 1039.7C127.609 1040.87 129.491 1039.79 128.738 1038.62C121.923 1027.84 111.476 1019.87 99.2893 1016.13C89.8205 1013.24 74.4011 1010.98 67.5673 1019.97C66.7131 1021.08 68.6097 1022.15 69.435 1021.07Z" fill="#101E41"/>
<path d="M65.0047 1022.11C64.2374 1019.68 62.8909 1016.22 63.9478 1013.74C65.4825 1010.11 68.7546 1009.6 72.0991 1008.75L85.8391 1005.29C86.1175 1005.21 86.3539 1005.03 86.4965 1004.77C86.639 1004.52 86.676 1004.23 86.5992 1003.95C86.5224 1003.67 86.3381 1003.43 86.087 1003.29C85.8358 1003.15 85.5383 1003.11 85.2599 1003.19L73.9524 1006.08C71.0567 1006.82 67.4371 1007.2 64.86 1008.98C60.169 1012.16 61.4576 1018.16 62.9054 1022.75C63.3253 1024.07 65.4246 1023.5 65.0047 1022.17V1022.11Z" fill="#101E41"/>
<path d="M81.6981 1004.37C82.422 997.266 90.5154 995.876 96.1764 995.181C97.5374 995.022 97.6243 992.85 96.1764 993.009C89.0821 993.878 80.3661 995.905 79.4974 1004.37C79.3526 1005.82 81.5244 1005.75 81.6692 1004.37H81.6981Z" fill="#101E41"/>
<path d="M130.476 999.553C137.573 1000.93 144.225 1004.02 149.849 1008.57C155.473 1013.11 159.897 1018.96 162.733 1025.61C163.298 1026.89 165.166 1025.79 164.616 1024.51C161.642 1017.62 157.032 1011.55 151.184 1006.84C145.336 1002.12 138.426 998.908 131.055 997.468C129.607 997.193 129.1 999.278 130.476 999.553Z" fill="#101E41"/>
<path d="M86.7076 1016.04L68.3636 1023.66C67.0895 1024.2 67.6542 1026.29 68.9427 1025.76L87.2868 1018.13C88.5609 1017.61 87.9962 1015.51 86.7076 1016.04Z" fill="#101E41"/>
<path d="M67.104 1023.96C62.3556 1022.97 57.4551 1022.94 52.6959 1023.88C47.9367 1024.83 43.4168 1026.72 39.4069 1029.45C34.354 1032.97 30.1408 1037.01 24.668 1040.01C20.5996 1042.22 17.2261 1044.49 14.9964 1048.69C10.1752 1057.79 13.259 1068.28 16.951 1077.11C22.6555 1090.75 27.0858 1103.46 28.1862 1118.36C28.2875 1119.81 30.4593 1119.81 30.3579 1118.36C29.7501 1108.42 27.7369 1098.62 24.3784 1089.25C20.8023 1079.43 14.4173 1069.8 14.7069 1059C14.6879 1055.77 15.5158 1052.58 17.1083 1049.76C18.7008 1046.95 21.0025 1044.6 23.7848 1042.94C27.1003 1040.87 30.6186 1039.5 33.7314 1037.07C43.9821 1029.03 52.8717 1023.47 66.5248 1026.08C67.8858 1026.34 68.4794 1024.24 67.104 1023.98V1023.96Z" fill="#101E41"/>
<path d="M27.0714 1117.39C19.6006 1127.53 3.73237 1131.94 0.547139 1145.18C-2.27613 1156.96 6.22265 1168.1 16.9366 1171.95C43.7939 1181.56 71.5923 1158.09 76.1819 1132.36C76.4136 1131 74.3287 1130.41 74.0826 1131.78C69.7391 1155.79 45.1259 1177.72 19.6441 1170.53C4.15225 1166.18 -3.52127 1148.52 8.51022 1136.24C14.9386 1129.7 23.3939 1126.01 28.9391 1118.49C29.7644 1117.36 27.8822 1116.28 27.0714 1117.39Z" fill="#101E41"/>
<path d="M65.8298 1026.56C70.5497 1025.24 78.7734 1025.96 78.701 1032.78C78.701 1035.81 75.704 1037.49 75.5158 1040.32C75.1683 1045.74 83.0446 1046.85 83.8988 1051.91C84.1159 1053.35 86.2153 1052.7 85.9836 1051.33C85.4624 1048.16 83.3776 1046.49 80.9597 1044.58C75.6172 1040.32 81.6546 1036.4 80.7135 1031.26C79.3526 1024.02 71.2592 1022.72 65.2507 1024.4C64.9958 1024.49 64.7859 1024.68 64.6623 1024.92C64.5387 1025.16 64.5105 1025.44 64.5833 1025.71C64.6561 1025.97 64.8246 1026.19 65.0554 1026.34C65.2862 1026.48 65.5625 1026.53 65.8298 1026.48V1026.56Z" fill="#101E41"/>
<path d="M84.3911 1053.77C83.1026 1066.21 77.2388 1076.72 81.1769 1089.26C82.6248 1093.69 83.9857 1097.44 83.0591 1102.29C82.3063 1106.22 80.1635 1109.75 78.5998 1113.4C76.3193 1119.04 74.659 1124.91 73.6482 1130.92C73.3876 1132.28 75.4725 1132.86 75.7476 1131.49C77.3262 1123.7 79.7537 1116.11 82.9867 1108.85C84.8544 1104.51 86.0851 1100.08 85.2164 1095.27C83.7686 1087.29 80.6413 1081.62 82.3207 1073.12C83.5948 1066.62 85.81 1060.43 86.4905 1053.82C86.6353 1052.37 84.4635 1052.37 84.3188 1053.82L84.3911 1053.77Z" fill="#101E41"/>
<path d="M23.8137 1043.36C27.4478 1040.76 32.1532 1038.79 36.7139 1040.06C41.5931 1041.44 42.0709 1044.41 43.9531 1047.9C47.2831 1053.99 52.3795 1058.81 54.8697 1065.4C59.1119 1076.58 58.8223 1090.09 58.9816 1101.92C59.1408 1115.18 57.7075 1128.5 51.3081 1140.33C45.1258 1151.79 36.3664 1162.17 28.7798 1172.79C27.9545 1173.92 29.8367 1175 30.662 1173.87C39.8702 1161.13 51.3949 1148.33 56.8822 1133.41C62.3695 1118.48 61.4574 1102.22 60.5018 1086.68C60.0819 1079.75 59.6476 1072.65 57.389 1066.04C55.029 1059.13 50.1498 1054.14 46.4578 1047.97C43.8517 1043.55 42.7079 1039.43 37.293 1038.05C32.1388 1036.73 26.8831 1038.57 22.7134 1041.57C21.5985 1042.37 22.7134 1044.26 23.8137 1043.44V1043.36Z" fill="#101E41"/>
<path d="M84.145 1052.24C75.5883 1063.17 77.8035 1089.71 59.8359 1090.12C59.5479 1090.12 59.2717 1090.23 59.068 1090.43C58.8644 1090.64 58.75 1090.91 58.75 1091.2C58.75 1091.49 58.8644 1091.77 59.068 1091.97C59.2717 1092.17 59.5479 1092.29 59.8359 1092.29C79.7001 1091.84 76.6886 1065.26 85.6797 1053.77C86.5339 1052.69 84.9992 1051.14 84.145 1052.24Z" fill="#101E41"/>
<path d="M38.741 1039.59C46.5102 1034.23 54.6699 1029.47 63.1515 1025.34C64.4111 1024.73 63.3107 1022.85 62.0656 1023.46C53.5806 1027.59 45.4162 1032.35 37.6406 1037.7C36.4969 1038.49 37.6406 1040.37 38.741 1039.59Z" fill="#101E41"/>
<path d="M46.9358 1049.24C56.4046 1042.67 65.9941 1036.27 75.7043 1030.03C76.877 1029.28 75.7911 1027.4 74.6039 1028.15C64.9034 1034.39 55.3139 1040.8 45.8355 1047.36C44.6917 1048.16 45.8355 1050.04 46.9358 1049.24Z" fill="#101E41"/>
<path d="M55.9992 1064.39L81.0032 1048.16C82.1615 1047.4 81.0032 1045.52 79.9029 1046.29L54.9133 1062.52C53.7406 1063.27 54.8264 1065.15 55.9992 1064.39Z" fill="#101E41"/>
<path d="M59.3146 1079.33C65.6701 1076.91 71.7083 1073.72 77.2966 1069.85C78.4259 1069.05 77.2966 1067.17 76.1963 1067.98C70.77 1071.75 64.9072 1074.86 58.7354 1077.23C57.4324 1077.72 57.997 1079.82 59.3146 1079.31V1079.33Z" fill="#101E41"/>
<path d="M85.9693 1055.09C94.9806 1050.73 103.519 1045.45 111.451 1039.34C112.537 1038.5 111.451 1036.6 110.351 1037.46C102.422 1043.58 93.8825 1048.86 84.8689 1053.22C83.6093 1053.83 84.7096 1055.7 85.9693 1055.09Z" fill="#101E41"/>
<path d="M101.939 1046.12C109.077 1051.11 117.489 1056.03 126.552 1053.53C135.239 1051.13 137.367 1043.39 138.381 1035.39C138.54 1033.94 136.368 1033.94 136.209 1035.39C134.993 1045 130.693 1052.85 119.776 1051.88C113.492 1051.33 108.193 1047.77 103.083 1044.23C101.924 1043.44 100.838 1045.32 101.982 1046.12H101.939Z" fill="#101E41"/>
<path d="M135.601 1041.92C138.438 1042.94 141.454 1043.38 144.466 1043.21C147.478 1043.03 150.423 1042.25 153.122 1040.9C155.821 1039.55 158.219 1037.67 160.17 1035.37C162.121 1033.07 163.584 1030.39 164.471 1027.51C164.905 1026.18 162.806 1025.61 162.371 1026.93C161.569 1029.55 160.241 1031.97 158.468 1034.05C156.695 1036.13 154.515 1037.83 152.062 1039.04C149.608 1040.25 146.934 1040.94 144.203 1041.08C141.472 1041.21 138.742 1040.79 136.18 1039.83C134.848 1039.37 134.284 1041.47 135.601 1041.92Z" fill="#101E41"/>
<path d="M171.334 909.73C194.658 905.792 218.243 901.81 241.872 900.174C263.17 898.726 289.868 899.971 305.692 916.491C324.514 936.182 309.819 963.922 291.33 977.445C273.811 990.36 252.094 998.829 231.563 1005.71C219.64 1009.71 207.479 1012.96 195.15 1015.45C183.93 1017.69 171.884 1018.09 161.532 1023.3C160.272 1023.92 161.372 1025.8 162.618 1025.18C174.2 1019.39 188.331 1019.2 200.811 1016.49C213.52 1013.71 226.036 1010.1 238.281 1005.71C259.536 998.091 283.164 988.868 299.901 973.232C313.569 960.447 322.574 938.643 312.048 921.11C301.32 903.33 276.982 898.133 257.885 897.597C228.928 896.801 199.161 902.838 170.769 907.645C169.393 907.877 169.973 909.961 171.348 909.73H171.334Z" fill="#101E41"/>
<path d="M144.027 885.536L143.188 884.19C143.062 883.992 142.876 883.84 142.657 883.756C142.438 883.671 142.198 883.659 141.972 883.72C141.746 883.782 141.545 883.914 141.399 884.097C141.253 884.281 141.17 884.506 141.161 884.74C141.436 897.018 135.587 911.988 142.348 923.571C146.011 929.826 154.408 932.084 158.651 925.236C159.389 924.049 157.521 922.948 156.783 924.136C150.832 927.683 146.648 927.118 144.23 922.485C143.237 920.558 142.553 918.486 142.203 916.346C141.525 912.554 141.287 908.697 141.494 904.851C141.74 898.075 143.477 891.53 143.332 884.74L141.305 885.29L142.16 886.637C142.898 887.824 144.78 886.738 144.027 885.536Z" fill="#101E41"/>
<path d="M149.949 885.623C149.865 892.885 150.31 900.144 151.281 907.341C151.991 912.568 152.454 919.01 155.045 923.759C159.852 932.591 175.04 930.173 183.177 929.71C196.989 928.942 210.613 926.438 224.237 924.223C232.736 922.862 241.264 921.573 249.85 920.878C253.239 920.514 256.648 920.359 260.057 920.415C262.508 920.352 264.945 920.805 267.209 921.747C270.698 923.484 274.202 928.421 272.45 932.417C271.886 933.677 273.753 934.792 274.318 933.518C277.778 925.656 271.176 919.618 263.705 918.489C250.487 916.506 235.357 920.227 222.312 922.355C206.197 924.99 190.011 927.929 173.636 927.784C169.741 927.784 165.224 927.987 161.561 926.554C155.987 924.353 155.19 917.62 154.322 912.437C152.796 903.583 152.084 894.607 152.193 885.623C152.193 885.335 152.079 885.059 151.875 884.856C151.672 884.652 151.395 884.537 151.107 884.537C150.819 884.537 150.543 884.652 150.34 884.856C150.136 885.059 150.021 885.335 150.021 885.623H149.949Z" fill="#101E41"/>
<path d="M193.688 982.932C215.396 976.716 236.766 969.506 257.798 961.302C258.025 961.232 258.224 961.092 258.367 960.902C258.51 960.712 258.59 960.482 258.594 960.245C258.507 958.659 258.144 957.102 257.523 955.641C257.074 954.337 254.975 954.902 255.438 956.22C257.233 961.403 245.303 963.748 242.031 964.907C236.51 966.924 230.975 968.854 225.425 970.698C214.74 974.308 203.968 977.652 193.109 980.731C192.83 980.808 192.594 980.992 192.451 981.244C192.309 981.495 192.272 981.792 192.349 982.071C192.426 982.349 192.61 982.586 192.861 982.728C193.112 982.871 193.41 982.908 193.688 982.831V982.932Z" fill="#101E41"/>
<path d="M278.69 949.198C288.289 974.984 251.442 984.568 234.285 990.244C212.944 997.386 191.405 1003.85 169.668 1009.64C169.39 1009.72 169.154 1009.91 169.011 1010.16C168.868 1010.41 168.832 1010.71 168.908 1010.98C168.985 1011.26 169.169 1011.5 169.421 1011.64C169.672 1011.78 169.969 1011.82 170.248 1011.74C197.206 1004.5 223.962 996.383 250.284 987.131C266.21 981.484 288.449 969.38 280.775 948.691C280.297 947.402 278.198 947.967 278.69 949.27V949.198Z" fill="#101E41"/>
<path d="M132.604 867.294C128.854 886.593 125.191 905.98 120.674 930.13C118.546 941.51 115.809 956.654 121.079 973.174C124.235 983.077 128.507 988.144 130.736 990.475C136.128 995.991 142.953 999.892 150.441 1001.74C156.615 1003.35 163.063 1003.63 169.35 1002.54L153.265 1012.19C148.948 1010.91 144.372 1010.78 139.988 1011.8C136.716 1012.58 132.01 1013.71 129.925 1017.43C127.435 1021.86 129.346 1028.79 134.761 1034.33C128.782 1035.11 124.308 1035.62 121.485 1035.94C116.852 1036.44 113.608 1036.73 110.148 1038.98C108.909 1039.8 107.78 1040.77 106.789 1041.87C103.812 1041.12 100.683 1041.21 97.7546 1042.13C93.9779 1043.4 90.7746 1045.96 88.7201 1049.37C85.5121 1050.68 82.5462 1052.51 79.9463 1054.8C76.4607 1057.84 73.7211 1061.64 71.9398 1065.91C69.9707 1070.93 70.7381 1074.2 71.6791 1084.73C72.6186 1094.75 72.8798 1104.82 72.461 1114.87C72.0122 1123.68 71.129 1126.98 69.3626 1130.1C68.2188 1132.1 67.2922 1133 59.2278 1140.69C49.7155 1149.81 48.9482 1150.5 47.6451 1152.56C45.6182 1155.7 42.1578 1161.25 42.9976 1168.31C43.3244 1171.5 44.4937 1174.54 46.3855 1177.13C51.6411 1184.08 61.3561 1184.44 66.0036 1184.62C81.9298 1185.21 94.0626 1176.88 100.853 1172.22C110.782 1165.31 118.994 1156.21 124.858 1145.63C126.205 1143.2 127.413 1140.7 128.478 1138.14C133.507 1132.3 137.841 1125.89 141.392 1119.04C143.216 1115.73 144.519 1112.16 145.258 1108.46C145.925 1104.88 146.013 1101.22 145.519 1097.62C147.66 1092.83 150.078 1088.18 152.758 1083.67C154.435 1080.9 155.822 1077.96 156.899 1074.9C158.607 1070 158.346 1068.25 157.927 1067.15C157.486 1066.04 156.823 1065.04 155.979 1064.19C155.135 1063.35 154.128 1062.68 153.018 1062.24C151.444 1061.68 149.736 1061.58 148.11 1061.98C148.276 1061.3 148.248 1060.59 148.03 1059.92C147.813 1059.26 147.414 1058.67 146.878 1058.22C146.343 1057.76 145.692 1057.47 144.999 1057.37C144.306 1057.27 143.599 1057.36 142.956 1057.64C146.983 1056.68 150.874 1055.22 154.539 1053.3C156.417 1052.29 158.231 1051.17 159.968 1049.94C161.935 1052.51 164.088 1054.93 166.411 1057.18C169.871 1060.52 171.609 1062.19 174.157 1063.37C181.077 1066.59 188.172 1064.08 189.388 1063.63C193.321 1062.15 196.734 1059.55 199.204 1056.15C202.64 1056.43 206.092 1056.43 209.527 1056.15C216.419 1055.58 222.399 1055.09 225.019 1050.98C225.915 1049.51 226.363 1047.81 226.308 1046.09C253.283 1040.07 278.704 1028.49 300.943 1012.08C310.673 1005.01 319.128 998.757 327.526 987.797C332.536 981.34 336.619 974.216 339.659 966.63C342.091 960.52 344.393 954.511 344.567 946.244C344.685 939.42 343.368 932.648 340.701 926.365C334.316 911.626 321.691 904.445 314.104 900.304C299.727 892.399 287.377 891.198 269.439 889.46C248.772 887.428 227.91 888.897 207.732 893.804C203.099 894.933 199.277 896.062 196.642 896.902C195.339 883.987 194.045 871.077 192.761 858.172L132.604 867.294Z" fill="white"/>
<path d="M193.341 873.664L195.831 897.481C195.976 898.857 198.147 898.929 198.003 897.481L195.512 873.664C195.368 872.289 193.196 872.216 193.341 873.664Z" fill="#101E41"/>
<path d="M197.901 897.698C226.308 890.662 256.596 888.157 285.64 892.66C313.149 896.916 342.105 913.002 342.815 944.246C343.423 972.45 323.298 994.428 301.696 1009.76C279.091 1026.04 253.573 1037.84 226.525 1044.51C225.164 1044.84 225.743 1046.93 227.104 1046.61C250.912 1040.78 273.559 1030.95 294.081 1017.55C311.657 1006.21 329.162 992.343 338.428 973.087C346.956 955.394 348.027 933.633 336.169 917.157C323.964 900.203 303.275 892.834 283.338 890.155C254.714 886.318 225.309 888.707 197.351 895.613C197.073 895.69 196.836 895.874 196.694 896.126C196.551 896.377 196.514 896.674 196.591 896.953C196.668 897.231 196.852 897.468 197.103 897.61C197.354 897.753 197.652 897.79 197.93 897.713L197.901 897.698Z" fill="#101E41"/>
<path d="M120.341 973.825C121.49 979.448 123.937 984.724 127.487 989.233C131.036 993.743 135.589 997.361 140.784 999.799C153.67 1005.59 169.567 1004.37 183.249 1003.06C216.202 999.901 247.634 988.579 278.053 976.098C279.327 975.563 278.763 973.463 277.474 973.999C251.196 984.8 224.266 994.703 196.091 999.235C169.712 1003.48 129.853 1007.04 122.426 973.261C122.136 971.885 120.037 972.464 120.341 973.825Z" fill="#101E41"/>
<path d="M278.01 975.983C280.861 973.296 284.28 971.287 288.014 970.104C289.346 969.67 288.782 967.571 287.435 968.005C283.343 969.3 279.597 971.503 276.475 974.448C275.447 975.403 276.996 976.938 278.01 975.983Z" fill="#101E41"/>
<path d="M278.575 976.678C281.73 976.448 284.892 977.036 287.754 978.386C289.014 978.98 290.114 977.112 288.854 976.518C285.66 974.969 282.118 974.275 278.575 974.506C277.127 974.593 277.127 976.764 278.575 976.678Z" fill="#101E41"/>
<path d="M179.137 1004.49C200.652 1003.67 229.261 1023.59 224.368 1047.62C224.093 1048.98 226.177 1049.58 226.453 1048.2C231.65 1022.76 202.23 1001.44 179.137 1002.32C177.69 1002.32 177.69 1004.55 179.137 1004.49Z" fill="#101E41"/>
<path d="M131.706 1029.45C129.535 1024.9 127.783 1019.4 132.966 1015.97C134.94 1014.82 137.117 1014.06 139.38 1013.73C145.285 1012.7 151.305 1012.52 157.261 1013.19C158.708 1013.32 158.636 1011.15 157.261 1011.02C149.326 1010.28 138.149 1009.57 131.2 1014.54C125.408 1018.69 127.131 1024.99 129.752 1030.55C130.36 1031.81 132.228 1030.71 131.634 1029.45H131.706Z" fill="#101E41"/>
<path d="M154.133 1012.18C159.032 1008.2 164.915 1005.62 171.16 1004.71C172.608 1004.5 171.956 1002.41 170.581 1002.62C163.972 1003.62 157.758 1006.38 152.599 1010.63C151.513 1011.51 153.062 1013.05 154.133 1012.16V1012.18Z" fill="#101E41"/>
<path d="M136.267 1025.56C147.111 1023.93 155.798 1030.17 163.399 1037.14C169.567 1042.76 175.749 1048.43 179.326 1056.13C179.905 1057.39 181.787 1056.29 181.208 1055.03C176.864 1045.51 168.177 1037.73 160.04 1031.33C152.801 1025.66 144.969 1022.11 135.717 1023.5C134.341 1023.7 134.921 1025.8 136.296 1025.59L136.267 1025.56Z" fill="#101E41"/>
<path d="M166.672 1058.86C176.517 1070.97 194.18 1066.1 201.347 1053.92C201.493 1053.67 201.534 1053.37 201.461 1053.09C201.387 1052.81 201.206 1052.57 200.956 1052.43C200.707 1052.28 200.409 1052.24 200.13 1052.31C199.85 1052.39 199.611 1052.57 199.465 1052.82C192.921 1063.94 177.154 1068.34 168.206 1057.31C167.323 1056.24 165.803 1057.77 166.672 1058.86Z" fill="#101E41"/>
<path d="M198.524 1057.12C208.224 1057.41 222.804 1057.86 227.814 1047.51C228.407 1046.25 226.539 1045.15 225.931 1046.41C221.298 1055.99 207.486 1055.22 198.524 1054.95C198.236 1054.95 197.96 1055.06 197.756 1055.27C197.552 1055.47 197.438 1055.75 197.438 1056.03C197.438 1056.32 197.552 1056.6 197.756 1056.8C197.96 1057 198.236 1057.12 198.524 1057.12Z" fill="#101E41"/>
<path d="M174.997 886.55C176.85 899.392 176.444 917.287 185.349 927.741C194.253 938.194 204.17 926.568 209.441 918.547C210.208 917.374 208.326 916.288 207.558 917.447C203.953 922.963 196.367 933.662 188.302 927.755C184.407 924.86 182.511 918.431 181.468 914.015C179.253 904.865 178.428 895.28 177.125 885.971C176.937 884.595 174.837 885.189 175.04 886.55H174.997Z" fill="#101E41"/>
<path d="M183.742 878.124C185.551 887.042 187.014 896.12 189.185 904.952C190.271 909.382 191.893 914.29 196.193 916.607C201.883 919.676 210.353 917.867 216.463 917.591C225.902 917.172 235.284 916.578 244.753 916.071C262.648 915.101 281.456 913.451 299.279 916.071C309.413 917.519 318.636 922.225 322.444 932.287C326.252 942.349 322.618 952.701 314.568 959.347C313.482 960.245 315.031 961.765 316.102 960.882C326.02 952.701 329.292 938.846 322.632 927.495C314.713 914.015 298.294 913.248 284.323 912.944C263.561 912.51 242.828 914.16 222.066 915.203C217.346 915.449 212.64 915.666 207.92 915.811C200.681 916.013 194.542 915.072 191.994 907.254C188.896 897.814 187.767 887.346 185.798 877.602C185.522 876.241 183.423 876.821 183.698 878.181L183.742 878.124Z" fill="#101E41"/>
<path d="M221.009 1023.36C252.311 1016.97 283.729 1005.85 305.967 981.919C306.923 980.891 305.388 979.356 304.433 980.384C282.44 1004.07 251.384 1014.96 220.458 1021.26C219.097 1021.53 219.677 1023.63 221.038 1023.36H221.009Z" fill="#101E41"/>
<path d="M135.659 1036.46C140.537 1033.55 145.563 1030.9 150.716 1028.51C151.99 1027.92 150.89 1026.05 149.616 1026.63C144.463 1029.01 139.437 1031.67 134.559 1034.58C134.435 1034.65 134.327 1034.74 134.24 1034.86C134.154 1034.97 134.09 1035.1 134.054 1035.24C134.018 1035.38 134.009 1035.52 134.029 1035.67C134.048 1035.81 134.095 1035.94 134.168 1036.07C134.24 1036.19 134.336 1036.3 134.45 1036.39C134.564 1036.47 134.694 1036.54 134.832 1036.57C134.971 1036.61 135.115 1036.62 135.257 1036.6C135.399 1036.58 135.535 1036.53 135.659 1036.46Z" fill="#101E41"/>
<path d="M152.686 1055.43C158.274 1051.56 163.93 1047.8 169.654 1044.12C170.827 1043.36 169.741 1041.48 168.554 1042.25C162.83 1045.9 157.174 1049.67 151.585 1053.56C150.456 1054.34 151.585 1056.22 152.686 1055.43Z" fill="#101E41"/>
<path d="M73.8219 1097.88C73.2428 1088.81 72.5189 1079.73 72.099 1070.66C71.5633 1058.68 80.786 1055.31 89.6757 1050.3C89.9253 1050.15 90.1067 1049.91 90.18 1049.64C90.2533 1049.36 90.2125 1049.06 90.0666 1048.81C89.9207 1048.56 89.6816 1048.38 89.4019 1048.3C89.1223 1048.23 88.8249 1048.27 88.5753 1048.42C82.1759 1052.04 72.099 1055.58 70.1589 1063.68C69.0151 1068.46 70.1589 1074.02 70.4485 1078.82L71.6502 1097.88C71.737 1099.32 73.9088 1099.32 73.8219 1097.88Z" fill="#101E41"/>
<path d="M90.3996 1049C91.0077 1040.8 103.01 1043.41 108.324 1042.76C109.772 1042.58 109.772 1040.41 108.324 1040.58C101.606 1041.4 88.9807 1038.88 88.2279 1049C88.112 1050.44 90.2838 1050.44 90.3996 1049Z" fill="#101E41"/>
<path d="M108.367 1041.73C112.711 1036.3 125.133 1036.66 131.533 1037.73C135.55 1038.41 139.351 1040.03 142.623 1042.45C144.78 1044.29 146.329 1047.87 145.678 1050.42C145.244 1052.1 143.028 1054.66 142.16 1056.05C141.291 1057.44 143.303 1058.34 144.042 1057.15C145.938 1054.09 150.499 1049.49 149.066 1045.45C147.632 1041.41 140.191 1038.21 136.484 1036.76C130.997 1034.58 124.786 1035.17 119.023 1035.52C114.332 1035.79 109.931 1036.27 106.861 1040.16C106.007 1041.25 107.527 1042.8 108.396 1041.7L108.367 1041.73Z" fill="#101E41"/>
<path d="M143.912 1058.1C148.255 1058.03 148.545 1063.03 147.531 1066.15C146.793 1068.41 145.606 1070.5 144.737 1072.71C144.23 1074.02 146.329 1074.58 146.836 1073.29C148.385 1069.35 151.18 1065.21 150.036 1060.77C149.726 1059.38 148.949 1058.14 147.833 1057.26C146.718 1056.38 145.333 1055.91 143.912 1055.93C143.624 1055.93 143.347 1056.05 143.144 1056.25C142.94 1056.45 142.826 1056.73 142.826 1057.02C142.826 1057.31 142.94 1057.58 143.144 1057.79C143.347 1057.99 143.624 1058.1 143.912 1058.1Z" fill="#101E41"/>
<path d="M150.326 1063.29C165.904 1061.84 151.947 1083.3 149.442 1087.7C147.415 1091.24 144.476 1095.08 144.143 1099.28C143.825 1103.26 145.707 1105.85 144.505 1110.1C143.142 1113.93 141.304 1117.59 139.033 1120.97C135.542 1126.75 131.718 1132.31 127.58 1137.65C126.726 1138.76 128.623 1139.83 129.462 1138.75C135.442 1130.94 141.827 1122.4 145.591 1113.25C146.866 1110.09 147.362 1106.67 147.039 1103.28C146.778 1097.48 148.4 1093.73 151.209 1088.8C154.365 1083.27 160.229 1076.36 159.548 1069.5C159.071 1064.49 155.321 1060.64 150.224 1061.13C148.776 1061.26 148.776 1063.43 150.224 1063.3L150.326 1063.29Z" fill="#101E41"/>
<path d="M71.1146 1097.09C71.1146 1104.56 71.4041 1112.19 70.7526 1119.65C69.8694 1129.86 64.5559 1134.78 57.114 1140.73C52.6257 1144.12 48.8728 1148.39 46.0829 1153.28C43.293 1158.16 41.5243 1163.56 40.8838 1169.15C40.7246 1170.6 42.8963 1170.53 43.0556 1169.15C43.9664 1160.64 47.7324 1152.68 53.7406 1146.58C58.0841 1142.24 63.7306 1139.11 67.6977 1134.3C75.82 1124.49 73.2429 1108.88 73.3442 1097.09C73.3442 1096.81 73.2298 1096.53 73.0262 1096.33C72.8225 1096.12 72.5464 1096.01 72.2584 1096.01C71.9704 1096.01 71.6942 1096.12 71.4905 1096.33C71.2869 1096.53 71.1725 1096.81 71.1725 1097.09H71.1146Z" fill="#101E41"/>
<path d="M41.1445 1169.62C46.0527 1189.41 72.5915 1186.66 87.1567 1181.08C96.524 1177.37 104.936 1171.6 111.77 1164.2C118.285 1157.34 127.783 1148.17 129.462 1138.47C129.694 1137.1 127.609 1136.52 127.363 1137.89C125.915 1146.35 118.3 1153.68 112.725 1159.93C107.201 1166.44 100.551 1171.9 93.0928 1176.06C79.4107 1183.3 48.543 1190.15 43.3018 1169.04C43.2069 1168.78 43.0199 1168.57 42.7776 1168.45C42.5354 1168.32 42.2556 1168.3 41.9935 1168.37C41.7315 1168.44 41.5063 1168.61 41.3625 1168.84C41.2187 1169.07 41.1668 1169.35 41.2169 1169.62H41.1445Z" fill="#101E41"/>
<path d="M74.1115 1061.3C76.5728 1059.16 80.5833 1055.51 83.9712 1054.63C98.5654 1051.01 91.9922 1056.99 94.2074 1061.49C94.6139 1062.23 95.1539 1062.89 95.8 1063.43C98.6957 1066.33 101.823 1067.34 103.3 1071.83C105.11 1077.29 105.24 1083.6 105.805 1089.3C106.56 1096.26 106.903 1103.25 106.832 1110.24C106.737 1124.47 102.66 1138.39 95.0616 1150.42C87.6197 1162.23 79.1354 1174.06 68.6676 1183.34C67.6252 1184.28 69.1599 1185.8 70.2023 1184.89C82.8903 1173.25 93.3891 1159.43 101.2 1144.09C109.062 1128.69 109.772 1111.47 108.44 1094.55C107.86 1087.21 107.614 1079.29 105.631 1072.16C103.821 1065.66 98.0441 1063.48 95.8869 1057.54C94.6417 1054.08 94.2074 1051.44 89.6322 1051.04C83.4066 1050.47 76.8913 1055.99 72.5623 1059.73C71.5198 1060.64 73.0545 1062.17 74.097 1061.26L74.1115 1061.3Z" fill="#101E41"/>
<path d="M142.29 1055.64C135.456 1063.66 136.499 1074.12 135.051 1083.92C132.85 1098.12 124.598 1114.16 107.861 1112.76C106.413 1112.64 106.485 1114.82 107.861 1114.93C119.168 1115.89 128.536 1108.5 133.169 1098.57C135.463 1093.29 136.928 1087.69 137.512 1081.96C138.598 1073.41 137.976 1064.14 143.897 1057.18C144.795 1056.12 143.275 1054.57 142.363 1055.64H142.29Z" fill="#101E41"/>
<path d="M91.9779 1052.23C96.5275 1048.32 101.713 1045.22 107.31 1043.06C108.599 1042.55 108.034 1040.45 106.731 1040.96C100.792 1043.25 95.2876 1046.54 90.4577 1050.69C89.4008 1051.6 90.9355 1053.14 91.9924 1052.23H91.9779Z" fill="#101E41"/>
<path d="M97.1755 1059.44C108.819 1051 121.408 1043.94 134.689 1038.43C135.963 1037.91 135.413 1035.79 134.124 1036.33C120.655 1041.9 107.885 1049.03 96.0752 1057.57C94.9603 1058.38 96.0752 1060.26 97.1755 1059.44Z" fill="#101E41"/>
<path d="M103.85 1067.86C117.291 1059.95 131.164 1052.8 145.403 1046.43C146.677 1045.87 145.577 1044 144.317 1044.57C130.07 1050.92 116.193 1058.07 102.75 1065.98C102.5 1066.13 102.319 1066.36 102.245 1066.64C102.172 1066.92 102.213 1067.22 102.359 1067.47C102.505 1067.72 102.744 1067.9 103.023 1067.98C103.303 1068.05 103.6 1068.01 103.85 1067.86Z" fill="#101E41"/>
<path d="M107.426 1080.01L138.149 1064.68C139.409 1064.05 138.309 1062.19 137.063 1062.81L106.326 1078.13C105.081 1078.75 106.167 1080.63 107.426 1080.01Z" fill="#101E41"/>
<path d="M109.555 1091.3L135.239 1080.01C136.513 1079.44 135.413 1077.58 134.139 1078.13L108.454 1089.43C107.18 1090 108.28 1091.87 109.555 1091.3Z" fill="#101E41"/>
<path d="M109.743 1103.54C117.48 1101.08 125.069 1098.18 132.474 1094.85C133.748 1094.27 132.633 1092.4 131.373 1092.97C124.14 1096.22 116.724 1099.05 109.164 1101.45C107.832 1101.89 108.396 1103.97 109.743 1103.55V1103.54Z" fill="#101E41"/>
<path d="M107.687 1124.47C113.22 1123.72 118.551 1121.89 123.371 1119.07C128.192 1116.25 132.408 1112.51 135.775 1108.05C136.629 1106.95 134.732 1105.87 133.893 1106.97C130.663 1111.17 126.634 1114.7 122.038 1117.34C117.441 1119.99 112.367 1121.7 107.108 1122.37C105.66 1122.56 106.311 1124.66 107.687 1124.47Z" fill="#101E41"/>
<path d="M104.415 1134.94C111.306 1143.92 102.75 1152.72 98.2036 1160.25C95.27 1164.58 94.0047 1169.82 94.6419 1175.02C94.8446 1176.46 96.9295 1175.81 96.7413 1174.45C94.7722 1160.19 117.156 1147.99 106.297 1133.91C105.443 1132.81 103.561 1133.91 104.415 1135V1134.94Z" fill="#101E41"/>
<path d="M73.6627 724.566C71.7516 726.299 70.042 728.242 68.5663 730.358C65.3956 735.039 63.2993 740.364 62.4275 745.951C60.2702 757.867 56.0715 769.362 54.2762 781.336C52.394 793.947 49.3536 812.044 44.1414 837.353C46.1683 838.8 48.3739 840.248 50.758 841.696C54.9412 844.204 59.2954 846.415 63.7884 848.313C63.7161 860.402 63.8753 869.9 64.0346 876.574C64.1794 881.772 64.0346 876.676 64.5558 886.709C64.9612 895.758 65.0191 899.74 67.0895 904.532C67.7992 906.53 68.9299 908.352 70.405 909.875C73.1994 912.553 76.9927 913.566 81.8574 913.697C90.6457 913.943 97.6822 911.149 111.393 905.546C121.311 901.506 126.262 899.479 126.928 899.19C137.063 894.643 152.627 887.375 173.259 876.777C178.487 875.825 183.546 874.108 188.273 871.681C196.54 867.424 202.94 861.329 209.151 855.393C213.813 850.948 213.813 850.398 216.289 848.776C221.197 845.518 224.02 845.88 233.663 842.406C239.917 840.176 246.1 837.975 245.882 836.035C245.694 834.428 241.148 833.646 239.005 833.487C236 833.284 232.997 833.905 230.318 835.282C232.032 833.364 234.108 831.804 236.428 830.693C240.496 828.767 243.667 829.071 244.319 827.131C244.422 826.416 244.336 825.688 244.069 825.017C243.802 824.346 243.364 823.757 242.798 823.309C241.644 822.389 240.188 821.934 238.716 822.035C234.384 821.93 230.07 822.622 225.989 824.076C218.521 827.03 210.754 829.162 202.824 830.432C206.415 826.989 210.779 824.457 215.55 823.048C220.516 821.6 224.44 822.092 228.581 818.98C230.515 817.483 232.084 815.567 233.17 813.376C229.59 813.363 226.013 813.619 222.471 814.144C217.418 814.882 209.44 816.069 202.1 820.76C198.256 823.388 194.896 826.66 192.168 830.432C184.952 839.21 177.035 847.388 168.496 854.886C160.522 857.756 152.227 859.638 143.796 860.489C134.978 861.343 129.723 860.648 118.328 862.009C112.934 862.656 107.579 863.594 102.286 864.818C102.199 859.461 102.127 854.118 102.04 848.776L116.301 843.419C111.581 821.861 108.802 805.254 107.122 793.773C105.573 783.131 103.256 772.606 101.78 761.92C100.332 751.786 100.129 747.905 97.7112 743.099C92.1949 732.37 81.2493 727.158 73.6627 724.566Z" fill="white"/>
<path d="M68.0015 729.199C62.9486 735.99 61.5297 745.126 59.4159 753.219C56.9739 762.514 54.7538 771.862 52.7558 781.264C48.8322 799.723 45.8497 818.343 43.649 837.078C43.4897 838.525 45.6615 838.453 45.8207 837.078C47.9925 818.526 51.004 800.114 54.8552 781.843C56.6505 773.349 58.6389 764.884 60.8203 756.448C63.021 747.92 64.5412 737.481 69.8692 730.285C70.709 729.171 68.8123 728.085 68.0015 729.199Z" fill="#101E41"/>
<path d="M43.9966 838.062C64.0346 855.06 90.8774 853.351 114.303 845.055C115.606 844.592 115.042 842.492 113.724 842.956C91.1235 850.962 64.9467 853.004 45.5313 836.527C44.4599 835.63 42.9252 837.15 43.9966 838.062Z" fill="#101E41"/>
<path d="M99.9264 760.241C104.337 788.358 109.4 816.349 115.114 844.215C115.404 845.591 117.489 845.012 117.213 843.636C111.509 815.751 106.442 787.76 102.011 759.662C101.809 758.286 99.7092 758.866 99.9264 760.241Z" fill="#101E41"/>
<path d="M45.9945 830.62C66.6117 843.014 92.2528 847.256 113.261 833.371C114.419 832.604 113.261 830.721 112.175 831.489C91.775 844.983 67.0605 840.755 47.0949 828.738C46.8453 828.592 46.548 828.551 46.2683 828.625C45.9886 828.698 45.7495 828.879 45.6036 829.129C45.4577 829.378 45.4169 829.676 45.4902 829.955C45.5635 830.235 45.7449 830.474 45.9945 830.62Z" fill="#101E41"/>
<path d="M48.1373 810.684C54.7394 820.336 61.2064 830.06 67.5382 839.857C68.2911 841.03 70.1733 839.93 69.4059 838.757C63.0837 828.941 56.6216 819.221 50.0195 809.598C49.2376 808.439 47.3554 809.525 48.1373 810.684Z" fill="#101E41"/>
<path d="M53.4074 792.006C63.0597 807.962 73.0063 823.704 83.2473 839.235C84.0146 840.393 85.8968 839.307 85.1295 838.134C74.8209 822.614 64.8743 806.881 55.2896 790.935C54.5657 789.748 52.6835 790.834 53.4074 792.035V792.006Z" fill="#101E41"/>
<path d="M57.7656 768.276C72.8134 791.143 87.5282 814.216 101.91 837.497C102.648 838.685 104.531 837.599 103.792 836.397C89.4007 813.116 74.6859 790.042 59.6477 767.176C58.8804 766.018 56.9982 767.176 57.7656 768.276Z" fill="#101E41"/>
<path d="M62.0511 746.443C78.6143 769.608 94.5405 793.189 109.83 817.184C110.582 818.357 112.465 817.271 111.697 816.084C96.3792 792.098 80.4531 768.518 63.9188 745.343C63.108 744.228 61.2259 745.343 62.0367 746.443H62.0511Z" fill="#101E41"/>
<path d="M67.7845 731.632C81.3707 747.474 93.3907 764.595 103.676 782.755C103.834 782.972 104.068 783.123 104.331 783.179C104.594 783.234 104.868 783.19 105.1 783.055C105.333 782.92 105.507 782.703 105.589 782.447C105.671 782.191 105.655 781.914 105.544 781.669C95.1734 763.349 83.0514 746.078 69.3482 730.097C68.436 729.04 66.9013 730.575 67.8135 731.632H67.7845Z" fill="#101E41"/>
<path d="M61.5154 847.603C62.0222 864.76 62.5 882.25 64.7875 899.262C66.3078 910.598 72.186 915.434 83.6094 914.652C98.5655 913.624 112.725 906.718 126.248 900.739C142.493 893.538 158.419 885.701 174.027 877.226C175.257 876.56 174.157 874.692 172.926 875.358C160.895 881.845 148.704 888.027 136.31 893.789C123.381 899.798 110.148 906.269 96.3792 910.106C90.0377 911.887 81.9009 914.059 75.2554 912.075C65.8879 909.18 66.5684 896.757 65.9748 888.997C64.8165 875.233 64.0443 861.435 63.6582 847.603C63.6582 846.155 61.443 846.155 61.4865 847.603H61.5154Z" fill="#101E41"/>
<path d="M101.186 848.617L101.997 877.24C101.997 878.688 104.212 878.688 104.168 877.24L103.358 848.617C103.358 847.169 101.142 847.169 101.186 848.617Z" fill="#101E41"/>
<path d="M103.227 865.05C126.002 861.691 149.384 862.458 171.42 855.045C172.738 854.596 172.173 852.497 170.841 852.946C148.82 860.359 125.408 859.591 102.663 862.965C101.215 863.167 101.866 865.252 103.227 865.05Z" fill="#101E41"/>
<path d="M172.086 854.582C180.455 845.214 188.49 835.297 197.351 826.407C207.008 816.721 218.982 815.505 232.099 815.114C233.547 815.114 233.547 812.899 232.099 812.942C220.791 813.275 208.803 813.912 199.624 821.354C188.751 830.186 179.905 842.623 170.668 853.047C169.741 854.09 171.276 855.624 172.202 854.582H172.086Z" fill="#101E41"/>
<path d="M174.721 877.429C187.969 874.837 198.669 866.874 207.877 857.318C213.567 851.411 218.547 847.183 226.699 845.012C233.055 843.347 239.338 842.29 244.999 838.771C246.187 838.033 245.101 836.151 243.913 836.889C233.286 843.491 220.241 842.073 210.801 851.107C199.697 861.749 189.953 872.231 174.128 875.344C172.767 875.604 173.346 877.704 174.707 877.429H174.721Z" fill="#101E41"/>
<path d="M231.665 813.507C233.272 818.227 217.346 821.397 214.609 822.527C210.138 824.408 205.849 826.696 201.796 829.361C200.623 830.113 201.709 831.996 202.896 831.228C210.559 826.431 218.928 822.87 227.698 820.674C231.505 819.617 235.299 817.416 233.764 812.942C233.315 811.625 231.216 812.189 231.665 813.507Z" fill="#101E41"/>
<path d="M202.462 831.909C209.701 829.78 216.94 827.565 224.295 825.524C226.771 824.829 229.247 824.076 231.78 823.613C234.158 823.108 236.593 822.923 239.02 823.063C243.826 826.291 243.363 828.26 237.847 828.984C232.27 831.199 226.576 833.109 220.791 834.703C215.623 836.151 210.077 836.991 205.662 840.219C204.547 841.03 205.662 842.927 206.762 842.087C211.294 838.771 249.965 831.764 246.461 823.772C244.811 820.022 236.66 820.746 233.706 821.108C222.978 822.425 212.206 826.783 201.854 829.795C201.716 829.833 201.587 829.898 201.474 829.986C201.361 830.073 201.267 830.183 201.196 830.307C201.126 830.431 201.08 830.569 201.063 830.71C201.045 830.852 201.056 830.996 201.094 831.134C201.132 831.272 201.196 831.401 201.284 831.514C201.372 831.627 201.481 831.721 201.606 831.792C201.73 831.862 201.867 831.908 202.009 831.925C202.151 831.943 202.295 831.932 202.433 831.894L202.462 831.909Z" fill="#101E41"/>
<path d="M206.892 842.681C212.262 840.399 217.806 838.55 223.47 837.15C228.494 835.948 241.206 831.894 245.187 837.15C246.013 838.25 247.909 837.15 247.055 836.05C243.493 831.373 237.717 832.546 232.432 833.284C223.467 834.608 214.709 837.075 206.371 840.625C205.097 841.16 205.647 843.26 206.936 842.724L206.892 842.681Z" fill="#101E41"/>
<path d="M205.922 836.889C217.75 831.512 230.158 827.514 242.9 824.974C244.275 824.699 243.696 822.599 242.321 822.874C229.399 825.474 216.817 829.545 204.822 835.007C203.562 835.586 204.663 837.454 205.922 836.889Z" fill="#101E41"/>
<path d="M69.797 730.372C67.877 740.007 66.8303 749.796 66.6697 759.618C66.5106 765.599 66.7719 771.584 67.4515 777.528C68.5808 787.011 70.5643 793.744 73.2428 802.88C76.1375 812.533 79.5202 822.033 83.3777 831.344C82.4124 837.695 81.5003 844.066 80.6413 850.455C79.5892 857.878 78.5516 865.286 77.5284 872.68C79.2171 875.09 81.1586 877.313 83.3198 879.311C88.0107 883.654 94.6273 887.65 107.933 890.618C124.46 894.659 141.718 894.659 158.245 890.618C165.672 888.765 174.577 886.449 184.306 879.702C191.558 874.693 197.781 868.338 202.636 860.981C198.441 846.105 195.958 830.799 195.237 815.36C195.599 812.971 197.887 798.435 198.35 795.467C200.174 783.797 201.086 777.861 200.696 773.243C200.16 767.118 198.654 762.92 195.628 754.522C192.907 747.018 189.645 739.721 185.87 732.689C180.656 730.714 175.34 729.023 169.944 727.621C154.154 723.605 137.866 721.893 121.586 722.539C104.06 722.938 86.6569 725.571 69.797 730.372Z" fill="white"/>
<path d="M66.3656 732.805C104.96 720.6 146.417 720.858 184.856 733.543C186.188 733.992 186.753 731.892 185.435 731.458C146.619 718.661 104.761 718.398 65.7865 730.705C64.4545 731.125 65.0191 733.224 66.3656 732.805Z" fill="#101E41"/>
<path d="M65.8879 771.52C69.8069 797.06 77.3133 821.918 88.1845 845.359C88.7636 846.633 90.6313 845.533 90.0522 844.273C79.282 820.995 71.8536 796.311 67.9872 770.955C67.7701 769.58 65.6852 770.159 65.8879 771.534V771.52Z" fill="#101E41"/>
<path d="M81.2493 830.533C79.6664 844.558 78.2668 858.597 77.0506 872.651C76.9348 874.099 79.1065 874.099 79.2224 872.651C80.4385 858.597 81.8381 844.558 83.4211 830.533C83.5803 829.158 81.4086 829.158 81.2493 830.533Z" fill="#101E41"/>
<path d="M77.3981 873.867C91.9923 892.254 120.384 894.571 142.189 893.543C153.37 893.164 164.375 890.643 174.606 886.116C186.521 880.643 195.498 871.637 203.837 861.792C204.735 860.721 203.2 859.186 202.303 860.257C194.948 869.017 187.057 877.226 176.821 882.597C166.052 887.994 154.23 890.96 142.189 891.284C120.848 892.254 93.2229 890.242 78.9328 872.245C78.0641 871.145 76.5294 872.694 77.3981 873.78V873.867Z" fill="#101E41"/>
<path d="M185.175 733.659C192.515 748.789 201.42 764.498 199.812 781.872C198.234 798.305 193.717 814.853 189.837 830.866C189.504 832.227 191.603 832.806 191.922 831.445C196.034 814.506 201.376 796.582 202.172 779.092C202.94 762.471 194.094 747.051 187.043 732.558C186.434 731.313 184.552 732.414 185.175 733.659Z" fill="#101E41"/>
<path d="M193.138 817.459L201.984 861.054C202.259 862.429 204.358 861.85 204.069 860.474L195.237 816.88C194.948 815.505 192.863 816.084 193.138 817.459Z" fill="#101E41"/>
<path d="M78.9182 868.307C95.8434 885.493 120.181 890.3 143.477 887.375C166.28 884.48 190.676 875.793 201.55 853.945C202.158 852.7 200.29 851.599 199.667 852.859C189.533 873.36 166.961 881.816 145.519 884.928C122.194 888.316 97.5084 884.103 80.4529 866.773C79.4684 865.774 77.9337 867.308 78.9182 868.307Z" fill="#101E41"/>
<path d="M79.2949 853.945C82.2871 861.29 85.3565 868.606 88.5031 875.894C89.0533 877.182 90.9354 876.068 90.3853 874.808C87.3062 867.685 84.3092 860.537 81.3942 853.366C80.873 852.077 78.7737 852.642 79.2949 853.945Z" fill="#101E41"/>
<path d="M82.8854 831.981C89.8061 849.355 97.2045 866.512 105.081 883.452C105.674 884.711 107.542 883.611 106.963 882.351C99.1639 865.556 91.8379 848.573 84.9848 831.402C84.4636 830.128 82.3642 830.678 82.8854 831.981Z" fill="#101E41"/>
<path d="M66.9737 776.746C86.7511 814.197 108.073 850.76 130.939 886.434C131.692 887.607 133.574 886.521 132.807 885.334C109.96 849.688 88.6429 813.13 68.8559 775.66C68.2044 774.415 66.3222 775.516 66.9737 776.746Z" fill="#101E41"/>
<path d="M69.3336 749.455C98.2903 793.411 125.707 838.356 151.585 884.291C151.74 884.521 151.976 884.682 152.246 884.743C152.515 884.804 152.798 884.76 153.037 884.62C153.275 884.48 153.451 884.253 153.528 883.988C153.605 883.722 153.578 883.437 153.453 883.191C127.633 837.295 100.216 792.349 71.2013 748.354C70.434 747.196 68.5518 748.354 69.3336 749.455Z" fill="#101E41"/>
<path d="M76.3701 729.243C108.58 778.411 138.651 828.859 166.585 880.585C167.251 881.816 169.118 880.73 168.452 879.485C140.509 827.816 110.442 777.369 78.2522 728.143C77.4849 726.97 75.6027 728.143 76.3701 729.243Z" fill="#101E41"/>
<path d="M93.7152 725.681C127.851 771.573 157.471 820.655 182.163 872.245C182.771 873.505 184.639 872.405 184.046 871.145C159.345 819.56 129.725 770.478 95.5974 724.581C94.7721 723.481 92.8899 724.581 93.7152 725.681Z" fill="#101E41"/>
<path d="M114.767 724.422C124.25 733.224 131.402 745.357 138.685 755.999C145.968 766.64 152.932 777.441 159.65 788.43C173.3 810.792 185.815 833.828 197.148 857.449C197.757 858.708 199.624 857.608 199.016 856.348C187.305 831.923 174.324 808.127 160.127 785.057C153.149 773.725 145.871 762.577 138.294 751.612C131.562 741.868 125.046 730.995 116.301 722.887C115.273 721.931 113.739 723.466 114.767 724.422Z" fill="#101E41"/>
<path d="M135.413 723.524C156.235 753.705 175.484 784.943 193.08 817.112C193.746 818.343 195.628 817.242 194.948 816.011C177.356 783.843 158.113 752.605 137.295 722.424C136.499 721.28 134.617 722.424 135.413 723.524Z" fill="#101E41"/>
<path d="M156.059 726.159C172.796 746.429 185.595 769.406 198.234 792.368C198.915 793.585 200.782 792.499 200.116 791.268C187.376 768.103 174.446 745.068 157.594 724.668C156.71 723.582 155.176 725.131 156.059 726.203V726.159Z" fill="#101E41"/>
<path d="M167.497 788.59C165.86 768.115 171.393 747.708 183.148 730.864C188.586 732.079 193.783 734.193 198.524 737.119C200.984 738.656 203.309 740.4 205.473 742.331C209.546 745.974 213.063 750.193 215.912 754.855C219.213 760.096 225.048 767.886 236.081 778.86L243.045 780.308C248.344 766.467 253.561 752.09 258.696 737.177C263.31 723.664 267.6 710.445 271.567 697.521C269.69 691.378 267.481 685.341 264.95 679.437C263.299 675.987 262.017 672.372 261.128 668.651C260.272 665.01 259.921 661.268 260.086 657.532C260.31 653.716 261.131 649.959 262.518 646.398C251.389 622.393 240.26 598.393 229.131 574.397L229.754 525.605L262.446 558.297C265.93 567.39 269.526 576.559 273.232 585.806C279.197 600.719 285.225 615.327 291.315 629.632C292.025 625.254 292.509 620.842 292.763 616.413C293.125 609.551 292.763 605.96 294.848 601.457C295.96 599.114 297.491 596.994 299.365 595.203C300.42 597.528 301.24 599.953 301.812 602.442C302.721 606.551 302.956 610.781 302.507 614.965C303.586 618.274 304.399 621.663 304.94 625.1C305.678 629.849 305.548 632.672 307.372 636.929C308.429 639.419 308.704 638.999 309.804 641.461C311.562 645.756 312.391 650.374 312.237 655.013C312.285 658.851 312.053 662.689 311.542 666.494C311.31 668.781 311.049 670.693 310.847 672.068C315.731 683.651 320.6 695.233 325.455 706.816C324.581 709.42 323.29 711.864 321.633 714.055C317.669 719.059 312.169 722.62 305.982 724.19C302.598 725.208 299.077 725.697 295.543 725.638L289.289 713.462C287.377 727.795 285.524 739.769 284.062 748.6C275.129 802.88 272.986 791.123 272.595 805.298C272.595 806.745 272.248 818.531 265.631 828.246C261.91 833.719 258.971 834.457 257.291 834.5C255.082 834.461 252.968 833.593 251.37 832.068C250.259 842.996 246.802 853.554 241.235 863.023C236.687 860.395 232.38 857.372 228.364 853.988C222.155 848.693 216.661 842.615 212.018 835.905C203.432 824.033 193.08 809.612 181.41 792.774L167.497 788.59Z" fill="white"/>
<path d="M162.69 727.911C169.842 729.359 177.038 730.604 184.161 732.153C193.312 734.151 199.422 738.263 205.589 745.184C216.786 757.809 227.963 770.448 239.121 783.102C240.048 784.159 241.582 782.61 240.656 781.568C228.349 767.654 216.492 753.089 203.591 739.74C193.312 729.098 177.038 728.49 163.269 725.797C161.908 725.522 161.315 727.621 162.69 727.882V727.911Z" fill="#101E41"/>
<path d="M168.119 790.11C173.053 790.755 177.905 791.915 182.598 793.57C183.915 794.019 184.48 791.934 183.177 791.471C178.293 789.778 173.247 788.594 168.119 787.938C166.744 787.764 166.758 789.936 168.119 790.11Z" fill="#101E41"/>
<path d="M181.613 793.599C189.855 807.352 198.885 820.617 208.659 833.328C217.91 845.301 227.683 856.884 240.699 864.905C241.887 865.643 242.972 863.761 241.785 863.023C228.277 854.698 218.243 842.377 208.746 829.896C199.642 817.892 191.189 805.408 183.423 792.499C183.268 792.269 183.032 792.108 182.762 792.047C182.493 791.986 182.21 792.03 181.971 792.17C181.733 792.311 181.557 792.537 181.48 792.802C181.403 793.068 181.43 793.353 181.555 793.599H181.613Z" fill="#101E41"/>
<path d="M238.745 781.481C253.382 786.056 252.528 809.728 251.862 822.194C251.043 836.423 247.483 850.36 241.38 863.24C240.786 864.499 242.654 865.6 243.247 864.326C250.629 848.791 254.367 831.776 254.179 814.578C253.99 802.329 253.353 783.768 239.324 779.396C237.977 778.976 237.413 781.075 238.745 781.481Z" fill="#101E41"/>
<path d="M238.296 782.219C244.218 794.019 243.783 807.18 243.523 820.022C243.248 833.617 242.321 847.154 236.283 859.591C235.69 860.836 237.558 861.951 238.166 860.692C244.333 847.893 245.405 834.023 245.665 820.022C245.926 806.745 246.245 793.281 240.149 781.133C239.527 779.874 237.644 780.974 238.267 782.219H238.296Z" fill="#101E41"/>
<path d="M167.656 778.701C171.305 782.822 174.794 787.093 178.124 791.514C178.949 792.615 180.831 791.514 179.992 790.414C176.565 785.858 172.965 781.442 169.191 777.166C168.264 776.109 166.729 777.644 167.656 778.701Z" fill="#101E41"/>
<path d="M166.223 757.041C179.977 780.612 193.191 804.482 205.864 828.651C206.516 829.896 208.384 828.796 207.732 827.565C195.068 803.435 181.859 779.56 168.105 755.941C167.959 755.691 167.72 755.51 167.44 755.437C167.161 755.363 166.863 755.404 166.614 755.55C166.364 755.696 166.183 755.935 166.109 756.215C166.036 756.494 166.077 756.792 166.223 757.041Z" fill="#101E41"/>
<path d="M167.121 728.447C189.649 770.916 211.033 813.936 231.274 857.506C231.853 858.781 233.735 857.68 233.142 856.406C212.872 812.826 191.488 769.811 168.988 727.361C168.337 726.116 166.469 727.216 167.121 728.447Z" fill="#101E41"/>
<path d="M188.041 732.993C193.427 740.579 196.902 749.368 200.782 757.765L214.595 787.663L241.626 846.126C242.219 847.386 244.087 846.286 243.508 845.026L216.477 786.548L203.258 757.968C199.175 749.151 195.57 739.87 189.924 731.907C189.127 730.778 187.231 731.907 188.041 733.007V732.993Z" fill="#101E41"/>
<path d="M210.888 750.859C222.114 774.295 233.031 797.875 243.638 821.6C244.203 822.874 246.071 821.774 245.506 820.5C234.889 796.784 223.977 773.204 212.771 749.759C212.163 748.499 210.295 749.599 210.888 750.859Z" fill="#101E41"/>
<path d="M233.561 776.92C236.998 785.356 240.217 793.879 243.219 802.489C243.667 803.792 245.767 803.227 245.303 801.91C242.311 793.31 239.097 784.791 235.661 776.355C235.14 775.067 233.04 775.631 233.561 776.92Z" fill="#101E41"/>
<path d="M243.986 782.002C251.225 752.9 266.543 726.593 272.943 697.26C273.247 695.899 271.147 695.32 270.843 696.696C264.4 726.014 249.024 752.321 241.887 781.423C241.554 782.784 243.653 783.363 243.986 782.002Z" fill="#101E41"/>
<path d="M253.035 834.08C259.333 838.25 265.095 833.096 267.513 827.189C272.552 815.056 274.839 800.983 277.648 788.213C283.946 760.255 288.29 731.936 292.72 703.689C292.923 702.313 290.838 701.734 290.621 703.11C287.204 725.015 283.772 746.935 279.545 768.696C277.416 779.57 275.1 790.414 272.465 801.171C270.858 807.773 265.66 839.886 254.121 832.242C252.962 831.474 251.862 833.357 253.035 834.124V834.08Z" fill="#101E41"/>
<path d="M273.058 697C270.583 686.706 264.82 677.628 262.229 667.493C261.379 664.438 260.893 661.294 260.781 658.125C260.781 656.678 260.781 648.917 262.967 648.555C265.327 648.164 269.989 664.481 270.554 666.146C271.017 667.464 273.102 666.899 272.653 665.567C270.308 658.878 268.802 650.481 263.01 645.819C262.891 645.704 262.747 645.618 262.589 645.566C262.432 645.515 262.265 645.5 262.1 645.522C261.936 645.544 261.779 645.603 261.641 645.695C261.502 645.786 261.387 645.908 261.302 646.05C253.136 664.018 266.847 680.581 270.93 697.622C271.263 698.983 273.348 698.404 273.029 697.043L273.058 697Z" fill="#101E41"/>
<path d="M272.841 666.856C286.277 653.478 291.981 639.173 294.139 620.525C294.79 614.734 294.993 608.812 296.209 603.151C296.528 601.703 296.919 596.795 299.177 597.736C301.074 598.533 301.074 606.423 301.219 607.958C302.2 620.095 301.714 632.307 299.771 644.328C299.554 645.703 301.653 646.282 301.856 644.907C303.358 635.496 304.017 625.97 303.825 616.442C303.651 609.391 303.94 601.066 299.93 594.942C299.783 594.706 299.551 594.535 299.281 594.465C299.012 594.395 298.726 594.431 298.482 594.565C291.243 599.98 292.691 615.023 291.677 623.001C289.564 640.013 283.555 653.159 271.321 665.336C270.336 666.32 271.871 667.869 272.856 666.87L272.841 666.856Z" fill="#101E41"/>
<path d="M302.218 615.501C305.903 628.832 306.829 642.774 304.94 656.475C304.751 657.836 306.851 658.429 307.039 657.054C309.001 642.971 308.074 628.636 304.317 614.922C304.279 614.784 304.214 614.655 304.126 614.542C304.038 614.43 303.929 614.335 303.805 614.265C303.554 614.122 303.256 614.085 302.978 614.162C302.699 614.239 302.463 614.423 302.32 614.674C302.178 614.925 302.141 615.223 302.218 615.501Z" fill="#101E41"/>
<path d="M306.228 634.931C310.89 643.155 310.007 655.056 308.936 664.134C308.776 665.582 310.948 665.509 311.107 664.134C312.222 654.68 312.975 642.416 308.096 633.831C307.941 633.601 307.705 633.44 307.435 633.379C307.165 633.318 306.883 633.362 306.644 633.502C306.406 633.643 306.23 633.869 306.153 634.134C306.076 634.4 306.102 634.685 306.228 634.931Z" fill="#101E41"/>
<path d="M310.789 651.842C311.845 658.072 311.524 664.459 309.848 670.552C308.172 676.645 305.182 682.297 301.088 687.111C296.151 692.902 290.809 697.955 290.056 705.933C289.926 707.381 292.097 707.381 292.228 705.933C293.299 694.683 305.678 687.111 310.036 676.875C313.437 668.781 314.442 659.882 312.932 651.234C312.714 649.858 310.615 650.452 310.847 651.813L310.789 651.842Z" fill="#101E41"/>
<path d="M227.886 572.834L262.04 647.382C262.619 648.642 264.487 647.542 263.908 646.282L229.754 571.733C229.174 570.474 227.307 571.574 227.886 572.834Z" fill="#101E41"/>
<path d="M261.128 558.761L290.563 629.618C291.084 630.892 293.183 630.327 292.648 629.038L263.213 558.181C262.692 556.907 260.593 557.472 261.128 558.761Z" fill="#101E41"/>
<path d="M310.253 672.821L323.863 707.439C324.37 708.727 326.469 708.162 325.962 706.859L312.338 672.242C311.831 670.953 309.732 671.518 310.253 672.821Z" fill="#101E41"/>
<path d="M294.675 726.188C300.017 728.895 306.33 725.392 311.209 722.916C317.579 719.673 322.907 715.17 326.035 708.655C326.643 707.41 324.775 706.309 324.167 707.569C321.855 712.328 318.214 716.316 313.685 719.05C309.341 721.772 300.944 726.941 295.775 724.32C294.53 723.683 293.429 725.565 294.675 726.188Z" fill="#101E41"/>
<path d="M289.926 716.401L294.371 726.043C294.95 727.317 296.817 726.202 296.238 724.943L291.808 715.271C291.214 714.012 289.347 715.112 289.926 716.372V716.401Z" fill="#101E41"/>
<path d="M292.228 706.584C297.44 705.999 302.449 704.228 306.871 701.407C311.293 698.586 315.01 694.791 317.738 690.311C318.477 689.123 316.595 688.023 315.871 689.21C313.342 693.373 309.899 696.904 305.803 699.538C301.706 702.172 297.064 703.839 292.228 704.413C290.852 704.586 290.78 706.758 292.228 706.584Z" fill="#101E41"/>
<path d="M228.349 572.486L236.081 578.61C237.167 579.479 238.716 577.944 237.616 577.076L229.884 570.951C228.798 570.083 227.249 571.617 228.349 572.486Z" fill="#101E41"/>
<path d="M237.876 577.553C238.264 574.374 238.371 571.167 238.194 567.969C238.122 566.521 235.95 566.521 236.023 567.969C236.199 571.167 236.093 574.374 235.704 577.553C235.545 579.001 237.717 579.001 237.876 577.553Z" fill="#101E41"/>
<path d="M236.443 568.345C238.852 570.915 241.446 573.305 244.203 575.498C245.289 576.352 246.838 574.832 245.738 573.963C242.981 571.77 240.387 569.38 237.977 566.811C237.022 565.783 235.487 567.317 236.443 568.345Z" fill="#101E41"/>
<path d="M246.302 574.267C246.563 570.618 246.737 567.028 246.838 563.336C246.838 563.048 246.724 562.772 246.52 562.568C246.316 562.364 246.04 562.25 245.752 562.25C245.464 562.25 245.188 562.364 244.984 562.568C244.781 562.772 244.666 563.048 244.666 563.336C244.565 566.984 244.391 570.575 244.131 574.267C244.044 575.715 246.216 575.715 246.302 574.267Z" fill="#101E41"/>
<path d="M245.187 562.858C247.176 565.695 249.527 568.26 252.18 570.488C253.237 571.386 254.787 569.851 253.715 568.953C251.191 566.844 248.956 564.41 247.07 561.714C246.273 560.585 244.377 561.714 245.187 562.815V562.858Z" fill="#101E41"/>
<path d="M254.526 569.923C254.979 566.754 255.173 563.554 255.105 560.353C255.105 560.065 254.991 559.789 254.787 559.585C254.584 559.382 254.307 559.267 254.019 559.267C253.731 559.267 253.455 559.382 253.252 559.585C253.048 559.789 252.934 560.065 252.934 560.353C253.016 563.359 252.851 566.366 252.441 569.344C252.239 570.792 254.338 571.299 254.526 569.923Z" fill="#101E41"/>
<path d="M253.237 559.803L259.767 566.839C260.723 567.867 262.257 566.333 261.302 565.305L254.772 558.268C253.831 557.24 252.296 558.79 253.237 559.803Z" fill="#101E41"/>
<path d="M262.489 566.289C262.101 563.22 262.067 560.115 262.388 557.038C262.533 555.59 260.361 555.662 260.216 557.038C259.895 560.115 259.929 563.22 260.317 566.289C260.506 567.737 262.677 567.737 262.489 566.289Z" fill="#101E41"/>
<path d="M230 572.602C229.826 557.158 230.246 541.715 231.26 526.271C231.346 524.823 229.175 524.823 229.088 526.271C228.074 541.715 227.654 557.158 227.828 572.602C227.828 572.89 227.943 573.166 228.146 573.37C228.35 573.573 228.626 573.688 228.914 573.688C229.202 573.688 229.478 573.573 229.682 573.37C229.886 573.166 230 572.89 230 572.602Z" fill="#101E41"/>
<path d="M229.652 526.821C240.452 536.388 250.609 546.656 260.057 557.559C260.983 558.616 262.518 557.067 261.592 556.01C252.139 545.115 241.983 534.852 231.187 525.287C230.145 524.36 228.595 525.895 229.652 526.821Z" fill="#101E41"/>
<path d="M229.551 535.32C230.193 535.616 230.888 535.779 231.595 535.798C232.302 535.817 233.005 535.692 233.662 535.43C234.319 535.169 234.915 534.777 235.416 534.277C235.916 533.778 236.31 533.182 236.573 532.526C237.109 531.237 235.009 530.673 234.488 531.947C234.15 532.628 233.566 533.156 232.854 533.425C232.142 533.693 231.355 533.682 230.651 533.395C229.392 532.83 228.277 534.698 229.551 535.277V535.32Z" fill="#101E41"/>
<path d="M242.784 581.39C254.212 605.173 265.38 629.067 276.287 653.072C276.866 654.347 278.748 653.246 278.169 651.987C267.253 627.972 256.085 604.078 244.666 580.304C244.058 579.045 242.191 580.145 242.784 581.39Z" fill="#101E41"/>
<path d="M264.4 592.206L288.043 639.897C288.666 641.142 290.548 640.042 289.926 638.797L266.268 591.047C265.645 589.802 263.778 590.902 264.4 592.148V592.206Z" fill="#101E41"/>
<path d="M131.924 665.278C118.082 655.389 116.301 632.253 115.997 623.291C113.266 624.48 110.271 624.934 107.31 624.608C102.605 624.014 98.8696 620.265 91.3843 612.939C88.4886 610.043 86.0563 607.379 85.0138 603.383C84.6519 601.935 83.9135 599.213 85.2744 597.809C86.9394 596.086 90.8631 597.374 93.5126 598.33C101.713 601.415 109.617 605.239 117.127 609.753C117.576 608.161 118.01 606.568 118.459 604.975C115.621 593.122 112.788 581.265 109.96 569.402C111.106 568.815 112.416 568.626 113.681 568.866C115.867 569.388 117.025 571.4 117.923 572.848C118.98 574.571 121.282 577.626 125.886 583.736C129.839 588.991 131.33 589.817 131.677 592.756C131.909 594.421 131.677 595.738 130.621 599.126C129.564 602.514 128.203 606.727 126.103 611.867C133.729 621.793 138.997 633.324 141.508 645.587C142.261 649.38 145.388 665.321 140.176 667.884C137.498 669.245 133.675 666.508 131.924 665.278Z" fill="white"/>
<path d="M151.064 655.461C147.734 659.631 144.201 661.933 139.916 669.259C134.935 677.758 135.572 681.58 135.934 682.796C137.295 688.4 142.782 691.295 144.418 692.092C145.49 698.848 146.551 705.571 147.604 712.26C151.409 712.834 155.29 712.657 159.027 711.739C164.379 710.33 169.241 707.481 173.085 703.5C180.527 696.261 182.496 687.574 184.234 679.886C185.714 673.091 186.163 666.111 185.566 659.182C185.332 653.999 184.257 648.889 182.381 644.052C180.548 639.481 177.942 635.26 174.678 631.572C170.059 626.36 165.89 621.654 162.473 622.552C156.334 624.145 162.328 641.273 151.064 655.461Z" fill="white"/>
<path d="M181.15 639.26C185.484 646.268 189.827 653.285 194.18 660.312L186.391 667.232C186.301 663.075 185.919 658.928 185.247 654.824C184.349 649.524 182.978 644.315 181.15 639.26Z" fill="#101E41"/>
<path d="M165.34 646.47C162.719 645.298 163.472 634.685 166.498 633.773C168.322 633.223 171.71 636.031 171.971 639.564C172.318 644.11 167.193 647.223 165.34 646.47Z" fill="#101E41"/>
<path d="M178.929 656.952C179.899 656.392 179.424 653.755 177.869 651.061C176.314 648.367 174.267 646.637 173.297 647.197C172.328 647.757 172.803 650.394 174.358 653.088C175.913 655.782 177.96 657.512 178.929 656.952Z" fill="#101E41"/>
<path d="M123.497 612.996C126.05 616.75 128.362 620.662 130.418 624.709C137.12 638.074 141.018 652.668 141.87 667.594L149.109 668.666C152.828 663.373 155.855 657.627 158.115 651.567C160.793 644.472 161.503 639.304 162.646 631.065C163.631 623.942 163.385 621.553 162.111 619.338C160.33 616.225 157.434 614.994 152.266 612.953C147.806 611.143 141.523 608.609 133.342 609.753C129.9 610.266 126.57 611.362 123.497 612.996Z" fill="#101E41"/>
<path d="M118.488 615.501C120.36 621.292 122.445 627.219 124.742 633.281C129.549 645.978 134.732 657.662 140.002 668.304C138.459 670.116 137.345 672.255 136.745 674.558C135.884 677.618 136.062 680.877 137.252 683.824C138.594 686.894 140.993 689.38 144.013 690.832C145.82 697.666 147.236 704.598 148.255 711.594C150.428 727.354 150.68 743.32 149.008 759.141C147.554 773.403 144.618 787.474 140.249 801.128L134.747 787.866C133.502 792.875 132.252 797.88 130.997 802.88C122.878 806.316 114.26 808.428 105.472 809.134C94.8927 810.328 84.1812 809.044 74.184 805.384C66.7097 802.509 59.8361 798.267 53.9143 792.875C54.479 788.763 55.5648 779.396 53.6682 778.86C51.7715 778.324 46.9358 788.633 45.4155 792.122C45.6368 784.477 46.8983 776.898 49.1654 769.594C49.9617 767.031 51.5688 762.355 60.4296 745.821C71.4765 725.247 73.5759 723.958 75.4581 715.85C76.8393 709.096 77.5906 702.228 77.7022 695.335C77.9773 687.198 77.2534 686.952 77.4561 680.321C77.8329 670.515 79.6827 660.822 82.9434 651.567C85.4481 644.472 87.5475 638.71 92.7018 632.557C95.7253 628.962 99.268 625.839 103.213 623.291L107.716 624.738C109.938 624.828 112.132 624.215 113.985 622.986C115.208 622.113 116.239 620.999 117.013 619.711C117.788 618.424 118.29 616.991 118.488 615.501Z" fill="#101E41"/>
<path d="M162.241 623.493C180.701 632.093 186.565 652.826 184.827 671.807C183.162 690.151 172.463 716.169 149.254 710.074C148.976 709.997 148.678 710.034 148.427 710.176C148.176 710.319 147.992 710.555 147.915 710.834C147.838 711.112 147.875 711.41 148.018 711.661C148.16 711.912 148.397 712.096 148.675 712.173C170.783 717.964 183.698 695.639 186.391 677.063C189.461 655.925 184.422 631.427 163.342 621.625C162.082 621.032 160.982 622.914 162.241 623.493Z" fill="#101E41"/>
<path d="M149.978 668.072C142.739 663.844 134.776 670.403 134.139 677.975C133.415 686.488 141.19 692.453 149.24 691.223C150.615 691.02 150.021 688.935 148.66 689.138C142.493 690.05 136.31 685.649 136.253 679.148C136.253 672.893 142.565 666.277 148.878 669.954C149.127 670.1 149.425 670.141 149.704 670.068C149.984 669.994 150.223 669.813 150.369 669.563C150.515 669.314 150.556 669.016 150.482 668.737C150.409 668.457 150.228 668.218 149.978 668.072Z" fill="#101E41"/>
<path d="M124.511 613.286C131.39 610.442 139.056 610.134 146.141 612.417C149.854 613.369 153.386 614.925 156.595 617.021C162.198 621.075 162.024 624 161.706 629.733C160.859 643.075 156.351 655.925 148.675 666.87C147.879 668.014 149.761 669.1 150.543 667.956C155.762 660.499 159.593 652.161 161.85 643.343C163.443 636.915 166.194 626.316 162.98 620.076C160.084 614.401 151.31 611.534 145.606 609.941C138.268 607.881 130.447 608.392 123.439 611.389C122.151 611.939 123.266 613.807 124.525 613.272L124.511 613.286Z" fill="#101E41"/>
<path d="M122.556 612.982C133.19 629.647 139.358 648.768 140.466 668.506C140.553 669.954 142.724 669.954 142.638 668.506C141.52 648.387 135.248 628.893 124.424 611.896C123.685 610.709 121.803 611.795 122.556 612.982Z" fill="#101E41"/>
<path d="M123.801 611.375C123.601 610.222 123.038 609.164 122.195 608.354C121.351 607.544 120.27 607.025 119.11 606.872C118.123 606.822 117.152 607.141 116.386 607.767C115.621 608.393 115.116 609.282 114.97 610.26C114.028 615.168 120.428 616.848 123.324 613.561C124.236 612.519 122.715 610.969 121.789 612.026C120.341 613.59 116.692 613.648 117.069 610.825C117.076 610.583 117.131 610.345 117.231 610.125C117.33 609.905 117.472 609.707 117.648 609.541C117.824 609.376 118.031 609.247 118.257 609.161C118.483 609.076 118.724 609.036 118.966 609.044C119.671 609.171 120.317 609.521 120.809 610.042C121.302 610.563 121.615 611.228 121.702 611.939C121.963 613.387 124.062 612.736 123.801 611.36V611.375Z" fill="#101E41"/>
<path d="M120.051 607.553C116.982 595.005 113.831 582.457 110.597 569.909C110.52 569.63 110.336 569.394 110.085 569.251C109.834 569.109 109.536 569.072 109.258 569.149C108.979 569.226 108.743 569.41 108.6 569.661C108.458 569.912 108.421 570.21 108.498 570.488C111.741 583.036 114.897 595.584 117.967 608.132C118.3 609.493 120.384 608.913 120.051 607.553Z" fill="#101E41"/>
<path d="M110.322 569.923C113.391 567.028 124.236 584.908 125.626 586.921C128.898 591.626 132.054 594.16 129.39 601.124C128.13 604.382 125.307 607.364 123.063 609.927C122.136 610.969 123.671 612.504 124.598 611.462C127.783 607.842 132.141 602.977 133.169 598.127C134.24 593.016 129.361 588.485 126.682 584.662C123.179 579.609 119.675 571.632 114.68 568.128C112.566 566.68 110.727 566.521 108.787 568.389C107.788 569.359 109.323 570.893 110.322 569.923Z" fill="#101E41"/>
<path d="M115.824 608.349C110.802 605.3 105.533 602.68 100.071 600.516C96.7846 599.228 89.2848 595.521 85.5929 596.173C80.0332 597.099 83.0302 603.933 85.144 607.567C89.1545 614.459 97.9284 623.059 105.573 625.679C113.218 628.3 117.329 620.438 120.051 614.213C120.601 612.939 118.719 611.838 118.169 613.112C116.953 616.008 115.36 620.12 112.928 622.118C108.584 625.752 103.98 622.755 100.665 620.38C95.7856 616.891 90.0811 611.693 87.0407 606.467C85.2743 603.441 82.3208 598.286 87.7357 598.88C90.9801 599.492 94.1462 600.463 97.1755 601.776C103.268 604.043 109.13 606.889 114.68 610.274C114.929 610.42 115.227 610.461 115.506 610.388C115.786 610.315 116.025 610.133 116.171 609.884C116.317 609.634 116.358 609.337 116.284 609.057C116.211 608.777 116.03 608.538 115.78 608.392L115.824 608.349Z" fill="#101E41"/>
<path d="M116.548 613.807C123.237 632.397 130.789 650.64 139.206 668.535C139.8 669.795 141.682 668.695 141.088 667.435C132.749 649.723 125.263 631.654 118.632 613.228C118.169 611.925 116.07 612.49 116.548 613.807Z" fill="#101E41"/>
<path d="M102.576 622.234C67.8281 646.847 80.4532 697.434 74.4302 733.21C74.1985 734.571 76.2979 735.165 76.5295 733.775C82.4222 698.824 69.855 648.179 103.662 624.116C104.806 623.305 103.662 621.423 102.576 622.234Z" fill="#101E41"/>
<path d="M75.5305 708.727C71.7951 724.132 62.804 736.989 55.5793 750.888C48.7744 763.633 44.9851 777.769 44.5034 792.209C44.5034 793.527 46.1974 793.541 46.6462 792.484C48.5676 787.784 51.1728 783.393 54.3776 779.454C55.2463 778.382 53.7261 776.833 52.8429 777.919C49.4108 782.157 46.6159 786.874 44.5469 791.92L46.6752 792.209C47.1674 775.226 52.6402 760.357 60.8495 745.748C67.4371 733.992 74.4156 722.583 77.6298 709.306C77.9484 707.945 75.8635 707.366 75.5305 708.727Z" fill="#101E41"/>
<path d="M142.768 690.094C152.497 721.526 149.775 754.493 143.738 786.345C143.477 787.721 145.562 788.3 145.823 786.925C151.947 754.696 154.712 721.309 144.867 689.529C144.447 688.197 142.348 688.761 142.768 690.094Z" fill="#101E41"/>
<path d="M53.4799 778.426C52.9442 784.521 50.3525 791.818 55.2173 796.48C60.9796 801.997 70.738 805.037 78.3536 807.006C95.9454 811.467 114.501 810.209 131.33 803.415C132.618 802.909 132.054 800.809 130.751 801.331C116.584 807.104 101.106 808.887 85.9982 806.485C78.8417 805.319 71.8829 803.16 65.3231 800.071C60.4729 797.754 55.42 794.613 54.7684 788.821C54.421 785.622 55.4055 781.582 55.6806 778.426C55.7964 776.978 53.6246 776.978 53.5088 778.426H53.4799Z" fill="#101E41"/>
<path d="M132.17 802.243C133.701 797.665 134.867 792.974 135.659 788.213L133.835 788.691C136.73 791.905 138.033 797.682 139.626 801.721C139.692 801.947 139.829 802.145 140.017 802.286C140.205 802.427 140.434 802.503 140.669 802.503C140.903 802.503 141.132 802.427 141.32 802.286C141.508 802.145 141.645 801.947 141.711 801.721L146.561 784.637C146.636 784.359 146.597 784.062 146.453 783.812C146.309 783.562 146.072 783.38 145.794 783.305C145.515 783.23 145.219 783.269 144.969 783.413C144.719 783.557 144.537 783.794 144.462 784.072L139.626 801.142H141.711C139.916 796.799 138.555 790.79 135.312 787.214C135.177 787.081 135.01 786.985 134.828 786.936C134.645 786.888 134.453 786.887 134.27 786.936C134.087 786.984 133.92 787.079 133.785 787.212C133.651 787.344 133.553 787.51 133.502 787.692C132.71 792.453 131.543 797.144 130.012 801.721C129.564 803.039 131.663 803.618 132.112 802.301L132.17 802.243Z" fill="#101E41"/>
<path d="M142.739 676.614C143.321 676.169 144.046 675.953 144.777 676.006C145.508 676.059 146.194 676.379 146.706 676.904C147.214 677.475 147.599 678.146 147.836 678.874C148.072 679.601 148.156 680.37 148.081 681.131C148.081 681.419 148.196 681.696 148.399 681.899C148.603 682.103 148.879 682.217 149.167 682.217C149.455 682.217 149.731 682.103 149.935 681.899C150.139 681.696 150.253 681.419 150.253 681.131C150.349 679.966 150.169 678.795 149.726 677.713C149.283 676.631 148.59 675.669 147.705 674.906C146.845 674.232 145.792 673.852 144.7 673.821C143.608 673.79 142.535 674.109 141.638 674.732C140.538 675.572 141.638 677.454 142.739 676.614Z" fill="#101E41"/>
<path d="M149.037 678.323C148.535 678.067 147.983 677.923 147.42 677.902C146.857 677.88 146.296 677.981 145.776 678.197C145.256 678.413 144.789 678.739 144.407 679.153C144.025 679.568 143.737 680.06 143.564 680.596C143.297 681.139 143.171 681.741 143.199 682.346C143.227 682.951 143.407 683.54 143.723 684.056C144.032 684.514 144.483 684.858 145.006 685.033C145.53 685.209 146.097 685.206 146.619 685.026C147.937 684.577 147.372 682.478 146.054 682.941C144.968 683.303 145.606 681.349 145.866 680.943C145.955 680.754 146.08 680.585 146.234 680.444C146.389 680.304 146.569 680.196 146.766 680.126C146.963 680.056 147.171 680.025 147.379 680.036C147.588 680.048 147.792 680.1 147.98 680.19C148.226 680.316 148.511 680.343 148.777 680.266C149.043 680.188 149.269 680.013 149.409 679.774C149.549 679.536 149.593 679.253 149.532 678.983C149.471 678.714 149.31 678.477 149.08 678.323H149.037Z" fill="#101E41"/>
<path d="M96.8426 612.663C97.4186 612.663 97.971 612.435 98.3783 612.027C98.7856 611.62 99.0144 611.068 99.0144 610.492C99.0144 609.916 98.7856 609.363 98.3783 608.956C97.971 608.549 97.4186 608.32 96.8426 608.32C96.2667 608.32 95.7143 608.549 95.307 608.956C94.8997 609.363 94.6709 609.916 94.6709 610.492C94.6709 611.068 94.8997 611.62 95.307 612.027C95.7143 612.435 96.2667 612.663 96.8426 612.663Z" fill="#101E41"/>
<path d="M105.472 616.949V616.732C105.472 616.156 105.243 615.603 104.836 615.196C104.428 614.789 103.876 614.56 103.3 614.56C102.724 614.56 102.172 614.789 101.764 615.196C101.357 615.603 101.128 616.156 101.128 616.732V616.949C101.132 617.524 101.362 618.074 101.768 618.48C102.175 618.887 102.725 619.117 103.3 619.121C103.872 619.11 104.418 618.877 104.823 618.472C105.228 618.067 105.461 617.521 105.472 616.949Z" fill="#101E41"/>
<path d="M107.18 611.795C107.756 611.795 108.308 611.566 108.716 611.159C109.123 610.751 109.352 610.199 109.352 609.623C109.352 609.047 109.123 608.495 108.716 608.087C108.308 607.68 107.756 607.451 107.18 607.451C106.604 607.451 106.052 607.68 105.644 608.087C105.237 608.495 105.008 609.047 105.008 609.623C105.008 610.199 105.237 610.751 105.644 611.159C106.052 611.566 106.604 611.795 107.18 611.795Z" fill="#101E41"/>
<path d="M112.783 618.484C113.359 618.484 113.912 618.255 114.319 617.848C114.726 617.44 114.955 616.888 114.955 616.312C114.955 615.736 114.726 615.184 114.319 614.776C113.912 614.369 113.359 614.14 112.783 614.14C112.207 614.14 111.655 614.369 111.248 614.776C110.84 615.184 110.612 615.736 110.612 616.312C110.612 616.888 110.84 617.44 111.248 617.848C111.655 618.255 112.207 618.484 112.783 618.484Z" fill="#101E41"/>
<path d="M122.252 622.132C122.828 622.132 123.38 621.903 123.788 621.496C124.195 621.089 124.424 620.536 124.424 619.961C124.424 619.385 124.195 618.832 123.788 618.425C123.38 618.018 122.828 617.789 122.252 617.789C121.676 617.789 121.124 618.018 120.716 618.425C120.309 618.832 120.08 619.385 120.08 619.961C120.08 620.536 120.309 621.089 120.716 621.496C121.124 621.903 121.676 622.132 122.252 622.132Z" fill="#101E41"/>
<path d="M117.735 596.94C118.311 596.94 118.863 596.711 119.27 596.304C119.678 595.897 119.906 595.344 119.906 594.768C119.906 594.192 119.678 593.64 119.27 593.233C118.863 592.825 118.311 592.596 117.735 592.596C117.159 592.596 116.606 592.825 116.199 593.233C115.792 593.64 115.563 594.192 115.563 594.768C115.563 595.344 115.792 595.897 116.199 596.304C116.606 596.711 117.159 596.94 117.735 596.94Z" fill="#101E41"/>
<path d="M120.746 587.471C121.322 587.471 121.875 587.242 122.282 586.835C122.689 586.428 122.918 585.875 122.918 585.299C122.918 584.723 122.689 584.171 122.282 583.764C121.875 583.356 121.322 583.128 120.746 583.128C120.17 583.128 119.618 583.356 119.211 583.764C118.803 584.171 118.574 584.723 118.574 585.299C118.574 585.875 118.803 586.428 119.211 586.835C119.618 587.242 120.17 587.471 120.746 587.471Z" fill="#101E41"/>
<path d="M127.204 592.843C127.78 592.843 128.332 592.614 128.739 592.206C129.147 591.799 129.375 591.247 129.375 590.671C129.375 590.095 129.147 589.542 128.739 589.135C128.332 588.728 127.78 588.499 127.204 588.499C126.628 588.499 126.075 588.728 125.668 589.135C125.261 589.542 125.032 590.095 125.032 590.671C125.032 591.247 125.261 591.799 125.668 592.206C126.075 592.614 126.628 592.843 127.204 592.843Z" fill="#101E41"/>
<path d="M124.192 603.788C124.768 603.788 125.321 603.559 125.728 603.152C126.135 602.745 126.364 602.192 126.364 601.616C126.364 601.04 126.135 600.488 125.728 600.081C125.321 599.674 124.768 599.445 124.192 599.445C123.616 599.445 123.064 599.674 122.657 600.081C122.249 600.488 122.021 601.04 122.021 601.616C122.021 602.192 122.249 602.745 122.657 603.152C123.064 603.559 123.616 603.788 124.192 603.788Z" fill="#101E41"/>
<path d="M128.927 629.849C129.503 629.849 130.055 629.62 130.462 629.213C130.87 628.806 131.098 628.253 131.098 627.677C131.098 627.101 130.87 626.549 130.462 626.142C130.055 625.734 129.503 625.506 128.927 625.506C128.351 625.506 127.798 625.734 127.391 626.142C126.984 626.549 126.755 627.101 126.755 627.677C126.755 628.253 126.984 628.806 127.391 629.213C127.798 629.62 128.351 629.849 128.927 629.849Z" fill="#101E41"/>
<path d="M129.144 640.447C129.72 640.447 130.272 640.219 130.679 639.811C131.087 639.404 131.315 638.852 131.315 638.276C131.315 637.7 131.087 637.147 130.679 636.74C130.272 636.333 129.72 636.104 129.144 636.104C128.568 636.104 128.015 636.333 127.608 636.74C127.201 637.147 126.972 637.7 126.972 638.276C126.972 638.852 127.201 639.404 127.608 639.811C128.015 640.219 128.568 640.447 129.144 640.447Z" fill="#101E41"/>
<path d="M136.036 644.328C136.612 644.328 137.164 644.099 137.571 643.691C137.978 643.284 138.207 642.732 138.207 642.156C138.207 641.58 137.978 641.027 137.571 640.62C137.164 640.213 136.612 639.984 136.036 639.984C135.46 639.984 134.907 640.213 134.5 640.62C134.093 641.027 133.864 641.58 133.864 642.156C133.864 642.732 134.093 643.284 134.5 643.691C134.907 644.099 135.46 644.328 136.036 644.328Z" fill="#101E41"/>
<path d="M135.818 657.459C136.394 657.459 136.947 657.231 137.354 656.823C137.761 656.416 137.99 655.864 137.99 655.288C137.99 654.712 137.761 654.159 137.354 653.752C136.947 653.345 136.394 653.116 135.818 653.116C135.242 653.116 134.69 653.345 134.283 653.752C133.875 654.159 133.646 654.712 133.646 655.288C133.646 655.864 133.875 656.416 134.283 656.823C134.69 657.231 135.242 657.459 135.818 657.459Z" fill="#101E41"/>
<path d="M91.4567 602.977C92.0326 602.977 92.585 602.749 92.9923 602.341C93.3996 601.934 93.6284 601.382 93.6284 600.806C93.6284 600.23 93.3996 599.677 92.9923 599.27C92.585 598.863 92.0326 598.634 91.4567 598.634C90.8807 598.634 90.3283 598.863 89.921 599.27C89.5137 599.677 89.2849 600.23 89.2849 600.806C89.2849 601.382 89.5137 601.934 89.921 602.341C90.3283 602.749 90.8807 602.977 91.4567 602.977Z" fill="#101E41"/>
<path d="M114.723 577.134C115.299 577.134 115.852 576.905 116.259 576.498C116.666 576.09 116.895 575.538 116.895 574.962C116.895 574.386 116.666 573.833 116.259 573.426C115.852 573.019 115.299 572.79 114.723 572.79C114.147 572.79 113.595 573.019 113.188 573.426C112.78 573.833 112.552 574.386 112.552 574.962C112.552 575.538 112.78 576.09 113.188 576.498C113.595 576.905 114.147 577.134 114.723 577.134Z" fill="#101E41"/>
<path d="M351.217 2.29255C360.147 21.9568 368.043 42.9066 369.152 64.6928C370.204 85.3681 363.911 104.922 350.539 120.757C338.343 135.199 322.28 145.915 305.596 154.509C286.735 164.225 266.372 171.293 245.343 174.374C234.675 175.937 223.834 176.431 213.073 175.716C208.018 175.38 202.683 175.071 197.971 173.059C193.047 170.957 188.071 165.114 191.383 159.613C197.13 150.068 218.233 164.581 217.731 173.294C217.041 185.265 202.565 187.762 193.291 189.056C151.254 194.923 108.41 205.715 69.9919 224.112C54.2106 231.669 38.6886 242.378 31.3289 258.842C25.1399 272.688 24.9117 289.784 35.0957 301.826C47.15 316.08 67.7772 319.787 85.4893 319.025C106.808 318.108 127.435 311.765 148.532 309.095C192.151 303.573 237.091 308.911 279.086 321.472C298.467 327.268 318.526 335.968 330.161 353.391C341.911 370.988 341.042 392.23 326.496 407.904C312.229 423.277 291.146 428.859 271.536 433.944C253.538 438.61 235.28 442.889 218.29 450.628C203.478 457.374 186.244 467.884 180 483.778C173.904 499.296 184.335 513.8 198.57 519.728C207.386 523.4 216.998 524.29 226.414 525.15C228.336 525.326 228.324 522.325 226.414 522.15C215.075 521.114 202.836 520.056 193.151 513.444C184.349 507.436 178.861 497.369 182.13 486.704C185.387 476.082 194.808 468.078 203.712 462.102C212.057 456.5 221.227 452.248 230.65 448.806C249.903 441.772 270.127 438.125 289.657 432.024C307.614 426.414 325.763 417.508 335.629 400.685C344.782 385.078 342.592 366.614 332.751 351.877C321.816 335.501 303.777 326.348 285.555 320.355C242.899 306.326 195.985 300.597 151.322 305.759C128.983 308.341 107.141 315.261 84.6028 316.057C63.8331 316.79 36.3359 310.185 30.853 286.832C25.9026 265.747 39.8043 246.279 56.5184 235.111C74.7156 222.951 96.6679 215.771 117.379 209.201C139.452 202.199 162.055 196.873 184.934 193.289C194.242 191.831 205.253 191.789 213.206 186.069C218.658 182.148 222.449 174.91 219.904 168.266C216.297 158.849 190.435 144.663 187.556 161.25C184.205 180.552 216.096 179.298 227.236 178.969C267.135 177.791 309.21 161.67 339.678 135.793C353.633 123.941 365.017 108.819 369.671 90.8958C374.943 70.5925 371.549 49.1808 365.208 29.5355C362.038 19.712 358.073 10.1713 353.808 0.778389C353.011 -0.976976 350.424 0.546224 351.217 2.29255Z" fill="#D47293"/>
</svg>
