<svg width="75" height="67" viewBox="0 0 75 67" fill="none" xmlns="http://www.w3.org/2000/svg">
<g clip-path="url(#clip0_2165_1927)">
<path d="M62.3932 21.7341C61.2756 21.7518 60.6176 21.4551 60.2178 20.6803C59.8374 19.9438 60.0862 19.2829 60.4905 18.6736C60.7026 18.3521 60.9791 18.0781 61.3026 17.8689C63.0202 16.7902 64.7317 15.6958 66.5046 14.7143C67.0918 14.4279 67.7487 14.3162 68.3977 14.3925C68.6983 14.4267 68.9864 14.5316 69.2388 14.6986C69.4911 14.8655 69.7004 15.0898 69.8497 15.353C69.9987 15.6163 70.0834 15.9111 70.0969 16.2133C70.1104 16.5156 70.0522 16.8167 69.927 17.0921C69.6109 17.7881 69.11 18.3839 68.4785 18.8146C66.8909 19.7777 65.2107 20.5917 63.5449 21.42C63.1754 21.5718 62.7884 21.6774 62.3932 21.7341Z" fill="#1F4172"/>
<path d="M10.2929 24.0584C9.93879 23.8589 9.13668 23.5782 8.57209 23.0445C7.66311 22.1671 6.83807 21.2067 6.10771 20.1758C5.71829 19.6513 5.49506 19.0221 5.4668 18.3694C5.47999 17.1784 6.73439 16.3193 8.0036 16.7439C9.05679 17.0691 10.0353 17.5993 10.8828 18.3041C11.7304 19.0089 12.4302 19.8743 12.942 20.8505C13.7979 22.5218 12.6185 24.1125 10.2929 24.0584Z" fill="#1F4172"/>
<path d="M55.8196 0.170961C57.5076 0.160661 58.5235 1.42341 58.1897 2.75023C58.0973 3.18027 57.8993 3.58044 57.6132 3.91449C56.4698 5.09518 55.3165 6.27526 54.0724 7.34618C53.4685 7.86571 52.706 8.25387 51.7889 7.94486C50.7212 7.58499 50.2059 6.70688 50.5525 5.64368C50.6417 5.32523 50.792 5.02707 50.9945 4.76557C52.0683 3.52082 53.128 2.25773 54.2861 1.09443C54.7622 0.6161 55.4732 0.372141 55.8196 0.170961Z" fill="#1F4172"/>
<path d="M25.8326 6.39635C25.736 7.37167 25.3282 8.0937 24.4484 8.51827C23.6257 8.91483 22.9136 8.64248 22.342 8.0766C21.1003 6.89972 20.167 5.43557 19.6243 3.81316C19.2622 2.66627 19.6027 1.70774 20.4335 1.1924C21.3171 0.645186 22.2776 0.722063 23.1168 1.62045C24.3969 2.99299 25.4708 4.51587 25.8326 6.39635Z" fill="#1F4172"/>
<path d="M74.64 31.7889C74.6148 30.9604 74.4681 30.1401 74.2035 29.3545C73.8198 28.3125 73.1284 27.6047 72.2618 27.3668C71.3853 27.1251 70.4193 27.3865 69.5428 28.0975C68.8814 28.6335 68.2331 29.219 67.608 29.7845C67.3505 30.016 67.093 30.2509 66.8354 30.4791L63.4022 33.5318C60.6005 36.0226 57.7968 38.5134 54.9909 41.0038C54.7897 41.1722 54.5776 41.327 54.3558 41.4667C54.2663 41.5262 54.174 41.5858 54.0813 41.6521C54.0185 41.6949 53.947 41.7229 53.872 41.7339C53.797 41.7451 53.7204 41.7393 53.648 41.7165C53.5749 41.694 53.5086 41.6547 53.4533 41.6019C53.3982 41.5491 53.356 41.4841 53.3303 41.4123C52.7052 39.7021 52.0968 38.0003 51.4881 36.3052C50.1362 32.5391 48.7363 28.6418 47.2714 24.8712C45.2303 19.6244 43.0408 14.5347 40.9836 9.81486C40.4467 8.67419 39.7173 7.63474 38.827 6.74215C38.0264 5.90524 37.1499 5.84247 35.9889 6.54708C35.0432 7.11586 34.6395 8.10148 34.2127 9.14343L34.1731 9.24C33.7466 10.272 33.3246 11.3062 32.9065 12.3427C31.6263 15.4849 30.3033 18.7395 28.8976 21.895C26.7732 26.6677 24.4752 31.4606 22.3021 35.9614C21.5647 37.4894 20.7609 38.9579 19.9108 40.5126C19.5246 41.2208 19.1303 41.9415 18.7366 42.6825C18.7049 42.743 18.661 42.7961 18.6078 42.8386C18.5545 42.8811 18.4931 42.9123 18.4273 42.93C18.3614 42.9477 18.2926 42.9516 18.2252 42.9416C18.1578 42.9313 18.0932 42.9075 18.0355 42.8711L16.6395 41.9943C15.753 41.4419 14.946 40.9394 14.1423 40.4299C13.0112 39.7156 11.8799 39.0001 10.7486 38.2832C8.53273 36.8775 6.3145 35.4773 4.09389 34.0826C3.59599 33.7182 3.00585 33.5003 2.39045 33.4543C1.93721 33.4687 1.50465 33.6474 1.17339 33.957C0.197424 34.7573 -0.0771396 35.7464 0.336486 36.9828C0.601079 37.7798 0.958375 38.5739 1.30215 39.3445L1.31889 39.3767C1.59668 40.0021 1.90086 40.6337 2.19184 41.2456C2.74099 42.3999 3.31331 43.5953 3.77296 44.8185C4.06736 45.5923 4.36289 46.3675 4.65944 47.1438C6.55472 52.1083 8.51277 57.2418 9.79292 62.5272C10.2262 64.3201 11.2614 65.2893 12.958 65.4908C13.4245 65.5472 13.8915 65.6067 14.3541 65.6663C16.2573 65.9527 18.1781 66.1066 20.1027 66.1259C24.4752 66.0699 28.9205 65.9077 33.2206 65.7522C35.1124 65.6827 37.0031 65.6167 38.893 65.5539C41.9956 65.4545 45.0983 65.3595 48.2007 65.2694L51.763 65.1603C52.0508 65.1535 52.3386 65.1435 52.6295 65.1371C52.9437 65.1303 53.2614 65.1203 53.5788 65.1107C54.6803 65.0785 55.7818 65.0344 56.883 64.9948C59.5868 64.8957 62.377 64.793 65.1288 64.7766C66.399 64.7698 67.2954 64.3259 67.9537 63.3841C68.4072 62.6923 68.752 61.9349 68.9757 61.1383L69.333 59.9672C70.7915 55.1911 72.2966 50.2494 73.1828 45.2486C73.269 44.7622 73.3582 44.2794 73.4441 43.793C74.1504 39.8859 74.8846 35.8372 74.64 31.7889ZM63.6156 59.0402C63.584 59.1274 63.5284 59.2037 63.4553 59.2607C63.3822 59.3177 63.2943 59.3527 63.2023 59.3621C62.8054 59.4052 62.3953 59.4548 61.9817 59.5044C61.036 59.6202 60.0536 59.7393 59.0612 59.7821C57.4337 59.8517 55.7802 59.9012 54.1823 59.9431C52.0524 60.0075 49.8494 60.0686 47.6895 60.1877C45.1727 60.33 42.6124 60.5383 40.1383 60.7401C38.7162 60.856 37.2938 60.9718 35.8717 61.0742C33.7946 61.2265 32.0612 61.3488 30.2554 61.4051C25.8065 61.5474 21.285 61.6626 16.9124 61.7756L14.7461 61.8316H14.6962C14.495 61.8274 14.2947 61.8039 14.0979 61.7621C14.0315 61.7489 13.9656 61.7357 13.9025 61.7299C13.8086 61.717 13.7204 61.6774 13.6483 61.6159C13.5762 61.5541 13.5232 61.4734 13.4956 61.3826L7.75054 42.6947C7.72002 42.5985 7.7199 42.4948 7.75019 42.3982C7.78044 42.3017 7.83967 42.217 7.91979 42.1552C7.99991 42.0934 8.09708 42.0577 8.19816 42.0532C8.2992 42.0484 8.39924 42.0747 8.48477 42.1288L9.22897 42.5888C9.72178 42.893 10.175 43.1708 10.6215 43.4553C11.2564 43.859 11.8915 44.2604 12.5267 44.6592C14.1011 45.6548 15.7318 46.6803 17.3029 47.7451C18.3082 48.4266 19.1882 48.6879 19.9124 48.5225C20.6206 48.3615 21.2454 47.8015 21.8177 46.8126L22.3327 45.9294C23.3052 44.2623 24.3107 42.5357 25.1473 40.7791C27.9156 34.9446 30.6909 28.9911 33.3735 23.2325C34.4319 20.9602 35.4925 18.6878 36.5554 16.4155C36.6446 16.2224 36.7373 16.035 36.8696 15.7739L37.1242 15.2612C37.1651 15.1751 37.2307 15.1031 37.3125 15.0543C37.3946 15.0054 37.4889 14.9819 37.5842 14.9867C37.6791 14.989 37.7715 15.0186 37.85 15.0719C37.9286 15.1253 37.9901 15.2002 38.0271 15.2876C38.4175 16.2072 38.8112 17.0969 39.1981 17.9702C40.0382 19.8693 40.832 21.6614 41.5102 23.5235C43.0614 27.7936 44.5794 32.1501 46.0514 36.3667C46.8948 38.7815 47.7417 41.1973 48.5918 43.6137C49.0118 44.8459 49.5021 46.053 50.0602 47.2288C50.2437 47.6579 50.5254 48.0377 50.883 48.3377C51.2403 48.6377 51.6632 48.8492 52.1177 48.9554C53.0074 49.1309 53.9467 48.8231 54.7669 48.0921C56.0139 46.981 57.2544 45.8595 58.4947 44.7416C59.583 43.7592 60.671 42.779 61.7593 41.8011C63.145 40.5644 64.5352 39.3303 65.93 38.0994L67.7969 36.4488C67.8658 36.3879 67.9498 36.3471 68.0403 36.331C68.1307 36.3146 68.2241 36.3236 68.3097 36.3564L68.6535 36.4919C68.7587 36.5331 68.8472 36.6088 68.9036 36.7069C68.9602 36.8051 68.9815 36.9194 68.9644 37.0311C67.9485 43.5142 66.5197 51.2009 63.6156 59.0402Z" fill="#1F4172"/>
</g>
<defs>
<clipPath id="clip0_2165_1927">
<rect width="75" height="66.309" fill="white"/>
</clipPath>
</defs>
</svg>
