<svg width="500" height="730" viewBox="0 0 500 730" fill="none" xmlns="http://www.w3.org/2000/svg">
<path d="M335.747 635.162C335.425 637.175 334.774 639.092 334.126 640.997L333.863 641.772C330.222 652.361 327.543 663.581 325.551 674.661L324.727 679.255C324.452 680.779 324.178 682.304 323.904 683.847C323.886 683.942 323.866 684.036 323.844 684.131C323.672 684.922 323.262 686.821 323.971 687.003C325.758 687.354 327.681 685.389 328.779 684.198C330.415 682.414 331.768 680.385 333.123 678.353C334.273 676.63 335.423 674.906 336.748 673.329C337.779 672.136 340.457 669.191 342.38 669.822C343.659 670.297 344.937 672.677 345.758 674.206C345.908 674.485 346.041 674.736 346.159 674.941C348.183 678.474 350.504 681.829 353.096 684.968C353.356 685.3 353.589 685.672 353.823 686.051C354.335 686.871 354.86 687.714 355.707 688.195C355.912 688.335 356.943 688.966 357.149 688.475C357.434 687.796 357.425 687.083 357.413 686.36C357.403 686.036 357.407 685.713 357.423 685.389C357.492 683.215 357.63 681.042 357.768 678.867C357.918 675.731 357.958 672.595 357.999 669.459C358.071 663.97 358.142 658.48 358.798 652.992C359.21 649.276 359.21 645.559 359.21 641.844C359.21 641.474 359.227 640.149 359.259 638.428C356.595 640.288 352.796 641.294 349.603 640.829C346.786 640.44 345.493 638.576 344.884 635.933C344.835 635.684 344.81 635.336 344.783 634.966C344.726 634.185 344.66 633.297 344.351 632.981C343.988 632.611 342.636 633.502 341.644 634.157C341.178 634.463 340.792 634.719 340.622 634.77C339.091 635.221 337.408 635.326 335.747 635.162Z" fill="#FFD95D"/>
<path d="M362.771 634.891C366.914 646.704 376.201 672.295 381.328 679.288C382.857 681.325 382.842 676.655 382.839 675.912V675.852C382.839 672.732 382.655 669.64 382.474 666.539C382.383 664.973 382.291 663.405 382.22 661.827C382.192 660.768 382.139 659.71 382.061 658.653C382.046 658.454 382.03 658.23 382.015 657.972C381.978 657.636 381.926 657.302 381.859 656.972C381.675 655.961 381.467 654.811 382.015 655.165C385.094 657.287 390.881 662.296 395.596 666.374C399.606 669.845 402.839 672.643 402.965 672.416C403.752 670.752 402.239 666.833 401.325 664.466C401.153 664.033 400.99 663.598 400.835 663.16C399.265 658.305 391.714 640.327 386.667 628.522C385.625 628.511 384.593 628.311 383.623 627.931C383.437 627.853 383.255 627.766 383.076 627.672C382.355 627.311 381.334 626.796 380.807 627.155C380.332 627.476 380.297 628.991 380.268 630.15C380.256 630.666 380.245 631.111 380.197 631.35C379.59 634.224 378.296 635.779 375.708 636.944C373.35 638.031 369.771 638.031 367.488 636.867C367.106 636.655 366.736 636.424 366.378 636.174C365.318 635.468 364.019 634.603 363.15 634.768C363.02 634.795 362.893 634.836 362.771 634.891Z" fill="#FFD95D"/>
<path fill-rule="evenodd" clip-rule="evenodd" d="M330.269 568.326C330.043 567.001 329.891 564.369 330.042 562.665L330.084 562.268C330.278 560.362 330.376 559.392 331.946 558.082C334.763 555.595 337.122 556.217 339.633 557.537C339.948 557.711 340.294 558.002 340.662 558.311C341.447 558.973 342.329 559.716 343.21 559.558C343.363 559.48 343.894 558.703 343.971 558.471C344.086 558.264 344.199 558.056 344.311 557.846C344.795 556.95 345.285 556.039 346.026 555.284C348.767 552.643 352.647 551.399 356.301 552.643C357.975 553.186 359.573 554.584 360.183 556.295C360.25 556.501 360.298 556.818 360.351 557.175C360.478 558.017 360.637 559.074 361.172 559.402C361.915 559.806 362.882 558.863 363.718 558.048C364.169 557.609 364.582 557.206 364.902 557.071C368.021 555.595 371.523 555.128 374.491 557.148C376.482 558.504 376.687 561.466 376.837 563.626L376.851 563.83C376.851 563.913 376.837 564.069 376.82 564.268C376.756 565.015 376.642 566.351 377.004 566.473C377.823 566.752 378.526 566.029 379.138 565.397C379.377 565.149 379.604 564.916 379.818 564.763C381.493 563.519 385.832 562.354 387.277 564.608C388.571 566.55 389.104 569.036 388.571 571.29C388.334 572.303 388.003 573.292 387.582 574.243C387.505 574.319 387.126 575.33 387.352 575.485C387.579 575.714 388.302 575.649 388.848 575.596C389.041 575.58 389.213 575.563 389.332 575.563C389.767 575.563 390.205 575.541 390.646 575.518C392.052 575.448 393.46 575.377 394.736 576.03C399.988 578.749 402.043 584.732 397.933 589.393C397.488 589.879 396.88 590.315 396.255 590.765C395.278 591.47 394.257 592.205 393.747 593.2C393.747 593.238 394.091 593.552 394.451 593.885C394.831 594.232 395.229 594.597 395.269 594.676L395.362 594.794C396.022 595.616 396.74 596.509 397.247 597.474C398.769 600.582 398.846 604.855 398.008 608.118C397.475 610.294 394.584 610.683 392.756 610.837C392.597 610.865 392.312 610.834 391.997 610.801C391.415 610.739 390.721 610.663 390.474 610.915C390.321 611.072 390.779 612.003 390.854 612.159C391.311 613.48 391.692 614.8 391.92 616.122C392.529 619.618 392.301 623.891 390.246 626.922C388.799 629.02 385.603 628.709 383.624 627.933C383.438 627.854 383.255 627.767 383.077 627.672C382.357 627.311 381.334 626.796 380.807 627.155C380.333 627.476 380.298 628.991 380.27 630.15C380.256 630.666 380.246 631.111 380.2 631.35C379.59 634.225 378.296 635.779 375.708 636.944C373.35 638.031 369.772 638.031 367.488 636.868C367.107 636.656 366.736 636.424 366.378 636.174C365.319 635.468 364.02 634.603 363.15 634.768C362.206 634.961 361.406 635.963 360.645 636.92C360.181 637.502 359.731 638.068 359.27 638.42C356.606 640.285 352.8 641.296 349.603 640.829C346.787 640.44 345.493 638.576 344.885 635.933C344.834 635.613 344.8 635.29 344.783 634.966C344.726 634.185 344.66 633.297 344.352 632.981C343.989 632.611 342.637 633.502 341.642 634.157C341.178 634.463 340.792 634.719 340.622 634.77C337.73 635.623 334.306 635.235 331.49 634.146C329.283 633.292 327.684 631.118 327.151 628.864C327.089 628.672 327.142 628.242 327.2 627.776C327.283 627.112 327.375 626.372 327.151 626.144C326.533 625.513 325.044 625.561 323.879 625.596C323.466 625.61 323.092 625.62 322.813 625.6C320.53 625.444 317.638 625.057 315.811 623.503C313.984 621.948 313.07 618.452 313.223 616.198C313.234 616.125 313.244 616.045 313.254 615.963C313.322 615.448 313.407 614.814 313.604 614.411C313.635 614.349 313.794 614.102 313.972 613.828C314.226 613.433 314.517 612.981 314.517 612.935C314.137 612.548 313.361 612.399 312.589 612.251C311.967 612.131 311.349 612.013 310.94 611.77C308.199 610.061 306.602 608.196 306.069 604.778C305.689 602.369 306.145 599.495 307.896 597.707C308.206 597.39 308.618 597.137 309.029 596.886C309.623 596.521 310.212 596.16 310.483 595.609C310.693 595.234 309.926 594.491 309.33 593.912C309.061 593.652 308.827 593.422 308.733 593.278C307.667 591.724 307.363 589.006 307.972 587.217C308.808 584.576 310.863 583.1 313.451 582.867C313.528 582.867 313.685 582.882 313.886 582.898C314.495 582.953 315.486 583.042 315.659 582.867C315.811 582.711 315.201 581.235 315.126 581.08C314.515 579.202 314.282 577.221 314.44 575.252C314.67 572.3 318.322 568.648 321.291 567.871C322.95 567.485 330.137 567.94 330.269 568.326ZM344.384 575.682C350.206 573.198 361.225 572.972 367.758 577.984C372.912 581.957 376.379 588.188 376.379 594.644C376.379 599.34 374.912 602.726 372.735 606.79C370.735 610.493 367.447 614.826 363.581 616.678C360.249 618.304 356.472 618.304 352.917 618.123C346.429 617.806 338.964 616.543 333.809 612.208C325.59 605.256 324.879 590.536 332.388 582.905C335.72 579.564 340.164 577.488 344.384 575.682Z" fill="#FB8CAC"/>
<path d="M367.758 577.984C361.225 572.972 350.206 573.199 344.384 575.682C340.164 577.488 335.72 579.564 332.387 582.905C324.877 590.536 325.588 605.254 333.809 612.208C338.964 616.541 346.429 617.806 352.917 618.123C356.471 618.304 360.248 618.304 363.58 616.678C367.447 614.826 370.735 610.491 372.734 606.79C374.912 602.726 376.379 599.341 376.379 594.644C376.379 588.188 372.912 581.957 367.758 577.984Z" fill="#1E9A64"/>
<path d="M322.192 591.288C322.491 591.352 322.64 591.501 322.64 591.736L322.544 592.44V592.648C322.544 593.117 322.597 593.613 322.704 594.136H322.736C323.973 593.763 324.741 593.576 325.04 593.576C325.349 593.661 325.504 593.816 325.504 594.04C325.504 594.403 325.136 594.584 324.4 594.584L322.736 595.176C322.736 596.616 322.891 598.573 323.2 601.048C323.136 601.336 322.981 601.48 322.736 601.48H322.704C322.331 601.48 322.144 601 322.144 600.04C322.005 599.325 321.888 597.773 321.792 595.384H321.504C320.501 595.32 320 595.085 320 594.68C320 594.563 320.112 594.419 320.336 594.248H320.496L321.232 594.44H321.744L321.6 592.44C321.6 591.672 321.797 591.288 322.192 591.288ZM326.664 592.168C326.962 592.168 327.112 592.531 327.112 593.256L327.304 596.008H327.368L328.168 595.704C329.064 595.704 329.608 596.621 329.799 598.456C329.874 598.979 329.911 599.747 329.911 600.76V602.056C329.911 602.461 329.762 602.664 329.464 602.664H329.4C329.112 602.621 328.968 602.467 328.968 602.2V600.696C328.968 598.285 328.733 596.952 328.264 596.696H328.168C327.848 596.696 327.613 597.187 327.464 598.168V599.064C327.464 600.664 327.33 601.464 327.064 601.464L326.76 601.496C326.461 601.496 326.312 601.053 326.312 600.168C326.344 599.229 326.408 598.461 326.504 597.864L326.168 592.6C326.168 592.323 326.333 592.179 326.664 592.168ZM332.103 595.256C332.53 595.267 333.25 596.013 334.263 597.496L334.295 597.768C334.295 598.067 333.565 598.296 332.103 598.456L332.055 598.504V598.568C332.279 599.528 332.514 600.008 332.759 600.008H332.951C333.293 600.008 333.81 599.64 334.503 598.904H334.599C334.813 598.904 334.978 599.059 335.095 599.368C335.095 599.624 334.647 600.067 333.751 600.696C333.517 600.835 333.234 600.936 332.903 601C332.039 601 331.437 600.189 331.095 598.568C330.605 598.493 330.359 598.291 330.359 597.96C330.359 597.725 330.541 597.571 330.903 597.496V597.56L331.063 597.496V597.096C331.063 595.869 331.41 595.256 332.103 595.256ZM332.199 596.408H332.055L331.991 597V597.496H332.055C332.653 597.475 332.951 597.411 332.951 597.304C332.674 596.888 332.423 596.589 332.199 596.408ZM341.87 593.4C342.424 593.4 342.782 594.488 342.942 596.664L343.038 597.16C343.528 596.157 343.928 595.656 344.238 595.656C344.238 595.613 344.35 595.581 344.574 595.56H344.638C345.342 595.56 345.79 596.109 345.982 597.208V597.256C345.982 598.195 345.512 599.229 344.574 600.36C344.179 600.787 343.747 601 343.278 601C342.744 600.883 342.478 600.616 342.478 600.2L341.678 594.456L341.438 593.864C341.438 593.672 341.582 593.517 341.87 593.4ZM343.534 599.896H343.582C344.136 599.672 344.622 598.909 345.038 597.608V597C344.942 596.669 344.819 596.504 344.67 596.504H344.542C344.072 596.781 343.736 597.912 343.534 599.896ZM348.228 595.256C348.655 595.267 349.375 596.013 350.388 597.496L350.42 597.768C350.42 598.067 349.69 598.296 348.228 598.456L348.18 598.504V598.568C348.404 599.528 348.639 600.008 348.884 600.008H349.076C349.418 600.008 349.935 599.64 350.628 598.904H350.724C350.938 598.904 351.103 599.059 351.22 599.368C351.22 599.624 350.772 600.067 349.876 600.696C349.642 600.835 349.359 600.936 349.028 601C348.164 601 347.562 600.189 347.22 598.568C346.73 598.493 346.484 598.291 346.484 597.96C346.484 597.725 346.666 597.571 347.028 597.496V597.56L347.188 597.496V597.096C347.188 595.869 347.535 595.256 348.228 595.256ZM348.324 596.408H348.18L348.116 597V597.496H348.18C348.778 597.475 349.076 597.411 349.076 597.304C348.799 596.888 348.548 596.589 348.324 596.408ZM355.051 594.52C355.339 594.52 355.537 595.005 355.643 595.976C355.537 596.243 355.361 596.376 355.115 596.376C354.945 596.344 354.774 596.147 354.603 595.784L354.315 595.688C353.814 595.688 353.361 596.019 352.955 596.68V596.824C352.955 596.984 353.707 597.251 355.211 597.624C355.841 597.997 356.155 598.451 356.155 598.984C356.155 599.859 355.451 600.605 354.043 601.224L353.451 601.32C352.555 601.224 352.107 600.776 352.107 599.976V599.928C352.107 599.672 352.273 599.523 352.603 599.48C352.859 599.48 353.03 599.747 353.115 600.28L353.243 600.376H353.515C354.123 600.376 354.689 599.96 355.211 599.128V598.92C355.211 598.6 354.513 598.301 353.115 598.024C352.379 597.725 352.011 597.309 352.011 596.776C352.011 596.083 352.593 595.432 353.755 594.824C354.267 594.76 354.699 594.659 355.051 594.52ZM358.63 591.288C358.928 591.352 359.078 591.501 359.078 591.736L358.982 592.44V592.648C358.982 593.117 359.035 593.613 359.142 594.136H359.174C360.411 593.763 361.179 593.576 361.478 593.576C361.787 593.661 361.942 593.816 361.942 594.04C361.942 594.403 361.574 594.584 360.838 594.584L359.174 595.176C359.174 596.616 359.328 598.573 359.638 601.048C359.574 601.336 359.419 601.48 359.174 601.48H359.142C358.768 601.48 358.582 601 358.582 600.04C358.443 599.325 358.326 597.773 358.23 595.384H357.942C356.939 595.32 356.438 595.085 356.438 594.68C356.438 594.563 356.55 594.419 356.774 594.248H356.934L357.67 594.44H358.182L358.038 592.44C358.038 591.672 358.235 591.288 358.63 591.288ZM369.9 595.256C370.327 595.267 371.047 596.013 372.06 597.496L372.092 597.768C372.092 598.067 371.362 598.296 369.9 598.456L369.852 598.504V598.568C370.076 599.528 370.311 600.008 370.556 600.008H370.748C371.09 600.008 371.607 599.64 372.3 598.904H372.396C372.61 598.904 372.775 599.059 372.892 599.368C372.892 599.624 372.444 600.067 371.548 600.696C371.314 600.835 371.031 600.936 370.7 601C369.836 601 369.234 600.189 368.892 598.568C368.402 598.493 368.156 598.291 368.156 597.96C368.156 597.725 368.338 597.571 368.7 597.496V597.56L368.86 597.496V597.096C368.86 595.869 369.207 595.256 369.9 595.256ZM369.996 596.408H369.852L369.788 597V597.496H369.852C370.45 597.475 370.748 597.411 370.748 597.304C370.471 596.888 370.22 596.589 369.996 596.408ZM373.747 595.608C373.992 595.608 374.259 596.195 374.547 597.368C374.952 598.307 375.182 598.803 375.235 598.856C375.288 598.856 375.486 598.323 375.827 597.256C376.168 596.189 376.494 595.656 376.803 595.656C377.091 595.763 377.235 595.933 377.235 596.168C376.35 598.451 375.907 599.96 375.907 600.696L375.603 601H375.299C374.915 600.723 374.264 599.256 373.347 596.6L373.203 596.008C373.278 595.741 373.459 595.608 373.747 595.608ZM379.353 595.256C379.78 595.267 380.5 596.013 381.513 597.496L381.545 597.768C381.545 598.067 380.815 598.296 379.353 598.456L379.305 598.504V598.568C379.529 599.528 379.764 600.008 380.009 600.008H380.201C380.543 600.008 381.06 599.64 381.753 598.904H381.849C382.063 598.904 382.228 599.059 382.345 599.368C382.345 599.624 381.897 600.067 381.001 600.696C380.767 600.835 380.484 600.936 380.153 601C379.289 601 378.687 600.189 378.345 598.568C377.855 598.493 377.609 598.291 377.609 597.96C377.609 597.725 377.791 597.571 378.153 597.496V597.56L378.313 597.496V597.096C378.313 595.869 378.66 595.256 379.353 595.256ZM379.449 596.408H379.305L379.241 597V597.496H379.305C379.903 597.475 380.201 597.411 380.201 597.304C379.924 596.888 379.673 596.589 379.449 596.408ZM385.072 594.696C385.744 594.696 386.144 595.165 386.272 596.104V596.248C386.272 597.283 385.739 598.232 384.672 599.096C385.291 599.704 386.374 600.008 387.92 600.008C388.155 600.083 388.272 600.248 388.272 600.504C388.272 600.792 388.086 600.936 387.712 600.936C386.667 600.936 385.568 600.669 384.416 600.136V600.6C384.416 601.699 384.182 602.248 383.712 602.248C383.382 602.248 383.216 601.613 383.216 600.344V599.096L383.168 598.648L383.28 598.136L383.168 596.6V596.536C383.168 596.248 383.318 596.051 383.616 595.944C384.032 595.112 384.518 594.696 385.072 594.696ZM384.272 598.2C384.582 598.2 384.928 597.645 385.312 596.536V595.848L385.12 595.64H384.976C384.507 595.96 384.272 596.813 384.272 598.2Z" fill="white"/>
</svg>
