<svg width="570" height="570" viewBox="0 0 570 570" fill="none" xmlns="http://www.w3.org/2000/svg">
<rect x="280.249" y="410.25" width="97.5" height="19.5" rx="9.75" fill="#DAE4FF"/>
<rect x="280.249" y="410.25" width="97.5" height="19.5" rx="9.75" stroke="#FFFAFA" stroke-width="0.5"/>
<path d="M295.053 425.14C294.166 425.14 293.401 424.937 292.757 424.531C292.113 424.12 291.618 423.53 291.273 422.76C290.928 421.99 290.755 421.059 290.755 419.967C290.755 418.866 290.93 417.925 291.28 417.146C291.635 416.367 292.139 415.772 292.792 415.361C293.445 414.946 294.218 414.738 295.109 414.738C295.618 414.738 296.096 414.827 296.544 415.004C296.992 415.181 297.389 415.424 297.734 415.732C298.079 416.035 298.355 416.383 298.56 416.775C298.77 417.167 298.889 417.575 298.917 418H297.531C297.466 417.627 297.321 417.279 297.097 416.957C296.873 416.635 296.588 416.376 296.243 416.18C295.902 415.984 295.517 415.886 295.088 415.886C294.505 415.886 293.991 416.031 293.548 416.32C293.109 416.605 292.766 417.046 292.519 417.643C292.276 418.24 292.155 419.006 292.155 419.939C292.155 420.658 292.23 421.274 292.379 421.787C292.528 422.3 292.736 422.718 293.002 423.04C293.273 423.357 293.588 423.593 293.947 423.747C294.311 423.896 294.703 423.971 295.123 423.971C295.548 423.971 295.916 423.896 296.229 423.747C296.546 423.598 296.81 423.406 297.02 423.173C297.23 422.935 297.391 422.681 297.503 422.41C297.62 422.135 297.683 421.871 297.692 421.619L297.734 420.723H295.27V419.771L299.078 419.778V425H298.105V423.46C297.928 423.749 297.704 424.022 297.433 424.279C297.162 424.536 296.831 424.743 296.439 424.902C296.052 425.061 295.59 425.14 295.053 425.14ZM301.338 425V417.762H302.57V419.155C302.691 418.81 302.861 418.525 303.081 418.301C303.3 418.072 303.55 417.902 303.83 417.79C304.114 417.678 304.408 417.622 304.712 417.622C304.819 417.622 304.924 417.629 305.027 417.643C305.129 417.657 305.209 417.68 305.265 417.713V418.966C305.195 418.933 305.104 418.912 304.992 418.903C304.884 418.889 304.793 418.882 304.719 418.882C304.429 418.863 304.159 418.882 303.907 418.938C303.655 418.989 303.433 419.08 303.242 419.211C303.05 419.342 302.899 419.514 302.787 419.729C302.679 419.939 302.626 420.196 302.626 420.499V425H301.338ZM309.425 425.14C309.047 425.135 308.69 425.082 308.354 424.979C308.023 424.872 307.729 424.715 307.472 424.51C307.216 424.305 307.013 424.05 306.863 423.747C306.719 423.439 306.646 423.082 306.646 422.676V417.762H307.941V422.543C307.941 423.014 308.086 423.397 308.375 423.691C308.669 423.985 309.11 424.132 309.698 424.132C310.23 424.132 310.657 423.994 310.979 423.719C311.306 423.439 311.469 423.024 311.469 422.473V417.762H312.757V425H311.728L311.595 423.614C311.507 423.978 311.355 424.272 311.14 424.496C310.93 424.72 310.676 424.886 310.377 424.993C310.083 425.096 309.766 425.145 309.425 425.14ZM314.859 425V417.762H316.105V418.812C316.306 418.495 316.581 418.217 316.931 417.979C317.281 417.741 317.736 417.622 318.296 417.622C318.557 417.622 318.823 417.666 319.094 417.755C319.369 417.844 319.621 417.977 319.85 418.154C320.079 418.331 320.256 418.548 320.382 418.805C320.606 418.45 320.909 418.166 321.292 417.951C321.675 417.732 322.106 417.622 322.587 417.622C322.839 417.622 323.103 417.662 323.378 417.741C323.653 417.816 323.908 417.951 324.141 418.147C324.379 418.338 324.573 418.607 324.722 418.952C324.871 419.293 324.946 419.731 324.946 420.268V425H323.644V420.394C323.644 419.955 323.574 419.617 323.434 419.379C323.294 419.136 323.11 418.966 322.881 418.868C322.657 418.77 322.417 418.721 322.16 418.721C321.936 418.721 321.698 418.765 321.446 418.854C321.194 418.943 320.979 419.092 320.802 419.302C320.625 419.512 320.536 419.799 320.536 420.163V425H319.248V420.016C319.248 419.731 319.171 419.493 319.017 419.302C318.868 419.111 318.679 418.966 318.45 418.868C318.226 418.77 318.002 418.721 317.778 418.721C317.531 418.721 317.281 418.77 317.029 418.868C316.782 418.966 316.572 419.122 316.399 419.337C316.231 419.547 316.147 419.822 316.147 420.163V425H314.859ZM326.972 427.254V417.762H328.26L328.274 419.022C328.358 418.873 328.466 418.716 328.596 418.553C328.732 418.39 328.895 418.238 329.086 418.098C329.282 417.958 329.509 417.844 329.765 417.755C330.027 417.666 330.323 417.622 330.654 417.622C331.233 417.622 331.742 417.755 332.18 418.021C332.624 418.282 332.969 418.684 333.216 419.225C333.464 419.766 333.587 420.452 333.587 421.283C333.587 422.114 333.466 422.816 333.223 423.39C332.985 423.959 332.64 424.393 332.187 424.692C331.735 424.991 331.189 425.14 330.549 425.14C330.227 425.14 329.94 425.093 329.688 425C329.441 424.911 329.224 424.795 329.037 424.65C328.855 424.501 328.701 424.342 328.575 424.174C328.454 424.006 328.354 423.845 328.274 423.691V427.254H326.972ZM330.304 424.132C330.902 424.132 331.389 423.906 331.767 423.453C332.145 422.996 332.334 422.286 332.334 421.325C332.334 420.499 332.162 419.843 331.816 419.358C331.471 418.873 330.967 418.63 330.304 418.63C329.632 418.63 329.124 418.88 328.778 419.379C328.433 419.874 328.26 420.522 328.26 421.325C328.26 421.843 328.337 422.314 328.491 422.739C328.645 423.164 328.874 423.502 329.177 423.754C329.481 424.006 329.856 424.132 330.304 424.132ZM335.739 427.31C335.314 427.31 335.023 427.28 334.864 427.219C334.705 427.158 334.626 427.128 334.626 427.128V426.288L335.361 426.302C335.632 426.311 335.856 426.293 336.033 426.246C336.21 426.199 336.353 426.136 336.46 426.057C336.567 425.978 336.649 425.889 336.705 425.791C336.766 425.693 336.815 425.6 336.852 425.511L337.104 424.825L334.276 417.762H335.585L337.72 423.348L339.841 417.762H341.108L338.056 425.546C337.869 426.003 337.659 426.36 337.426 426.617C337.197 426.874 336.941 427.053 336.656 427.156C336.376 427.259 336.07 427.31 335.739 427.31ZM349.652 414.738C350.366 414.738 350.998 414.887 351.549 415.186C352.099 415.48 352.543 415.874 352.879 416.369C353.215 416.864 353.413 417.407 353.474 418H352.095C352.02 417.603 351.878 417.244 351.668 416.922C351.458 416.6 351.182 416.343 350.842 416.152C350.501 415.961 350.093 415.865 349.617 415.865C349.005 415.865 348.487 416.01 348.063 416.299C347.643 416.584 347.323 417.025 347.104 417.622C346.889 418.219 346.782 418.985 346.782 419.918C346.782 421.327 347.022 422.363 347.503 423.026C347.988 423.684 348.693 424.013 349.617 424.013C350.093 424.013 350.501 423.913 350.842 423.712C351.182 423.511 351.458 423.243 351.668 422.907C351.878 422.571 352.02 422.207 352.095 421.815H353.474C353.422 422.244 353.306 422.66 353.124 423.061C352.946 423.458 352.701 423.812 352.389 424.125C352.076 424.438 351.691 424.685 351.234 424.867C350.781 425.049 350.254 425.14 349.652 425.14C348.742 425.14 347.965 424.932 347.321 424.517C346.681 424.102 346.191 423.504 345.851 422.725C345.515 421.946 345.347 421.005 345.347 419.904C345.347 418.807 345.515 417.874 345.851 417.104C346.187 416.334 346.674 415.748 347.314 415.347C347.958 414.941 348.737 414.738 349.652 414.738ZM357.207 425.14C356.74 425.14 356.327 425.058 355.968 424.895C355.608 424.727 355.326 424.487 355.121 424.174C354.92 423.861 354.82 423.483 354.82 423.04C354.82 422.237 355.1 421.64 355.66 421.248C356.22 420.856 357.118 420.646 358.355 420.618L359.65 420.583V420.016C359.65 419.573 359.517 419.223 359.251 418.966C358.985 418.705 358.572 418.574 358.012 418.574C357.596 418.579 357.23 418.677 356.913 418.868C356.6 419.059 356.397 419.372 356.304 419.806H355.163C355.191 419.335 355.324 418.938 355.562 418.616C355.8 418.289 356.131 418.042 356.556 417.874C356.985 417.706 357.491 417.622 358.075 417.622C358.705 417.622 359.227 417.711 359.643 417.888C360.063 418.065 360.375 418.327 360.581 418.672C360.791 419.017 360.896 419.442 360.896 419.946V425H359.79L359.699 423.642C359.419 424.207 359.062 424.599 358.628 424.818C358.198 425.033 357.725 425.14 357.207 425.14ZM357.599 424.209C357.841 424.209 358.082 424.165 358.32 424.076C358.562 423.987 358.784 423.868 358.985 423.719C359.185 423.565 359.344 423.395 359.461 423.208C359.582 423.017 359.645 422.821 359.65 422.62V421.381L358.572 421.402C358.021 421.411 357.559 421.467 357.186 421.57C356.817 421.673 356.539 421.834 356.353 422.053C356.171 422.272 356.08 422.559 356.08 422.914C356.08 423.32 356.22 423.637 356.5 423.866C356.784 424.095 357.151 424.209 357.599 424.209ZM366.443 418.707H364.812V423.208C364.812 423.465 364.837 423.654 364.889 423.775C364.945 423.892 365.036 423.966 365.162 423.999C365.292 424.032 365.47 424.048 365.694 424.048H366.485V424.916C366.396 424.949 366.261 424.977 366.079 425C365.901 425.023 365.68 425.035 365.414 425.035C364.914 425.035 364.527 424.967 364.252 424.832C363.976 424.697 363.783 424.496 363.671 424.23C363.563 423.964 363.51 423.637 363.51 423.25V418.707H362.334V417.762H363.545L363.86 415.655H364.812V417.755H366.443V418.707Z" fill="black"/>
<path d="M275.089 406L278.333 414.037L279.555 410.566L283.051 409.422L275.089 406Z" fill="#DAE4FF" stroke="#FFFAFA" stroke-width="0.5" stroke-linecap="round" stroke-linejoin="round"/>
</svg>
