<svg width="48" height="11" viewBox="0 0 48 11" fill="none" xmlns="http://www.w3.org/2000/svg">
<path d="M1.15 1.25C1.35667 0.903333 1.56333 0.73 1.77 0.73C1.98333 0.73 2.13 0.853333 2.21 1.1L2.19 1.23V1.25C3.03667 1.79667 3.46 2.81667 3.46 4.31C3.46 5.80333 3.02333 6.79667 2.15 7.29L1.81 7.35C1.12333 7.35 0.653333 6.95333 0.4 6.16C0.313333 5.80667 0.27 5.46333 0.27 5.13V5C0.27 4.30667 0.436667 3.35 0.77 2.13C0.61 2.13 0.506667 2.01667 0.46 1.79C0.46 1.66333 0.69 1.48333 1.15 1.25ZM0.87 4.94V5.19C0.87 6.23 1.16333 6.75 1.75 6.75H1.77C2.31667 6.75 2.67333 6.09667 2.84 4.79L2.87 4.19C2.82333 2.86333 2.51333 2.07 1.94 1.81L1.75 1.79H1.59C1.43 1.95 1.24 2.51333 1.02 3.48C0.92 4.01333 0.87 4.5 0.87 4.94ZM5.85211 2.54H5.91211C6.34544 2.54 6.56211 2.65333 6.56211 2.88C6.54211 2.97333 6.47211 3.06667 6.35211 3.16L5.87211 3.13H5.81211C5.49211 3.13 4.99211 3.22333 4.31211 3.41L4.47211 4.6H4.53211C5.09878 4.18667 5.55878 3.98 5.91211 3.98C6.53878 3.98 6.91211 4.39667 7.03211 5.23V5.29C7.03211 5.99667 6.55544 6.53667 5.60211 6.91L5.10211 7C4.57544 6.94 4.31211 6.81667 4.31211 6.63C4.39211 6.41667 4.50878 6.31 4.66211 6.31L5.00211 6.41H5.25211C5.65878 6.41 6.02544 6.16 6.35211 5.66C6.40544 5.54 6.43211 5.43667 6.43211 5.35V5.16C6.38544 4.76 6.19878 4.56 5.87211 4.56H5.85211C5.43878 4.56 4.94544 4.91667 4.37211 5.63H4.31211C4.04544 5.63 3.91211 5.28667 3.91211 4.6L3.66211 3.1C3.66211 2.89333 3.93211 2.79 4.47211 2.79C5.09878 2.62333 5.55878 2.54 5.85211 2.54ZM14.5723 0.95C14.7657 1.00333 14.8623 1.1 14.8623 1.24C14.749 1.56 14.3557 2.39333 13.6823 3.74C13.0157 5.08667 12.5223 6.17 12.2023 6.99L11.9923 7.05C11.799 7.01667 11.7023 6.92 11.7023 6.76C11.7023 6.54667 12.5557 4.69333 14.2623 1.2C14.3223 1.03333 14.4257 0.95 14.5723 0.95ZM18.127 0.95C18.3204 1.00333 18.417 1.1 18.417 1.24C18.3037 1.56 17.9104 2.39333 17.237 3.74C16.5704 5.08667 16.077 6.17 15.757 6.99L15.547 7.05C15.3537 7.01667 15.257 6.92 15.257 6.76C15.257 6.54667 16.1104 4.69333 17.817 1.2C17.877 1.03333 17.9804 0.95 18.127 0.95ZM22.6413 1.48C22.8279 1.48 22.9213 1.70667 22.9213 2.16L23.0413 3.88H23.0813L23.5813 3.69C24.1413 3.69 24.4813 4.26333 24.6012 5.41C24.6479 5.73667 24.6712 6.21667 24.6712 6.85V7.66C24.6712 7.91333 24.5779 8.04 24.3913 8.04H24.3513C24.1713 8.01333 24.0813 7.91667 24.0813 7.75V6.81C24.0813 5.30333 23.9346 4.47 23.6413 4.31H23.5813C23.3813 4.31 23.2346 4.61667 23.1413 5.23V5.79C23.1413 6.79 23.0579 7.29 22.8913 7.29L22.7013 7.31C22.5146 7.31 22.4213 7.03333 22.4213 6.48C22.4413 5.89333 22.4813 5.41333 22.5413 5.04L22.3313 1.75C22.3313 1.57667 22.4346 1.48667 22.6413 1.48ZM27.0112 3.14C27.3045 3.14 27.4512 3.25667 27.4512 3.49L27.3612 3.68L27.3012 5.51C27.3012 6.33667 27.4678 6.85 27.8012 7.05L27.8212 7.2C27.8012 7.39333 27.7112 7.49 27.5512 7.49H27.4912C26.9912 7.15 26.7412 6.63 26.7412 5.93H26.6712C26.4045 6.67667 26.0812 7.05 25.7012 7.05C25.3478 6.95 25.1712 6.68667 25.1712 6.26C25.1712 5.32 25.5478 4.38333 26.3012 3.45C26.5545 3.24333 26.7912 3.14 27.0112 3.14ZM25.8012 5.86L25.7612 6.14V6.33H25.8612C26.3612 5.08333 26.6112 4.32333 26.6112 4.05H26.5712C26.1845 4.48333 25.9278 5.08667 25.8012 5.86ZM29.2911 4.03C29.9978 4.03 30.4144 4.47333 30.5411 5.36C30.5411 6.14667 30.1744 6.71 29.4411 7.05C29.3611 7.09 29.2511 7.11 29.1111 7.11H29.0411L28.8211 7.09V7.11L28.8611 9.78C28.8144 9.98667 28.7078 10.09 28.5411 10.09C28.3544 10.03 28.2611 9.93333 28.2611 9.8L28.1711 4.36C28.1711 4.18667 28.2744 4.09667 28.4811 4.09L28.6911 4.18C28.8778 4.08 29.0778 4.03 29.2911 4.03ZM28.7911 5.09L28.7611 5.4L28.7911 6.46L29.0711 6.53C29.5178 6.53 29.8078 6.20333 29.9411 5.55V5.4C29.8944 4.87333 29.7078 4.61 29.3811 4.61H29.2311C28.9378 4.61 28.7911 4.77 28.7911 5.09ZM32.2403 4.03C32.947 4.03 33.3636 4.47333 33.4903 5.36C33.4903 6.14667 33.1236 6.71 32.3903 7.05C32.3103 7.09 32.2003 7.11 32.0603 7.11H31.9903L31.7703 7.09V7.11L31.8103 9.78C31.7636 9.98667 31.657 10.09 31.4903 10.09C31.3036 10.03 31.2103 9.93333 31.2103 9.8L31.1203 4.36C31.1203 4.18667 31.2236 4.09667 31.4303 4.09L31.6403 4.18C31.827 4.08 32.027 4.03 32.2403 4.03ZM31.7403 5.09L31.7103 5.4L31.7403 6.46L32.0203 6.53C32.467 6.53 32.757 6.20333 32.8903 5.55V5.4C32.8436 4.87333 32.657 4.61 32.3303 4.61H32.1803C31.887 4.61 31.7403 4.77 31.7403 5.09ZM34.0795 1.79C34.3329 1.84333 34.4595 1.95667 34.4595 2.13C34.3929 2.31667 34.2862 2.41 34.1395 2.41C33.8929 2.36333 33.7695 2.24 33.7695 2.04C33.8362 1.87333 33.9395 1.79 34.0795 1.79ZM34.4595 3.19C34.5662 3.19 34.6562 3.28667 34.7295 3.48L34.6395 4.19V4.66C34.6395 5.20667 34.7329 5.92333 34.9195 6.81C34.8529 6.93667 34.7395 7 34.5795 7C34.3062 7 34.1262 6.2 34.0395 4.6V4.25C34.0395 3.54333 34.1795 3.19 34.4595 3.19ZM36.7341 3.63C37.3008 3.67667 37.5841 3.95333 37.5841 4.46L37.6041 4.59L37.5841 6.15C37.5841 6.33 37.6875 6.57333 37.8941 6.88V6.9C37.8408 7.09333 37.7441 7.19 37.6041 7.19C37.1908 7.01667 36.9841 6.65 36.9841 6.09V5.96L36.9541 5.94L36.9841 5.9V5.88L37.0141 4.5C37.0141 4.30667 36.9308 4.21 36.7641 4.21H36.6441C36.3108 4.34333 36.1441 5.07333 36.1441 6.4C36.1441 6.86 36.0275 7.09 35.7941 7.09C35.6141 7.09 35.5208 6.97667 35.5141 6.75V5.75C35.5141 4.45667 35.6275 3.81 35.8541 3.81L35.9541 3.78L36.1641 3.81C36.3441 3.69 36.5341 3.63 36.7341 3.63ZM39.1076 3.41C39.3742 3.41667 39.8242 3.88333 40.4576 4.81L40.4776 4.98C40.4776 5.16667 40.0209 5.31 39.1076 5.41L39.0776 5.44V5.48C39.2176 6.08 39.3642 6.38 39.5176 6.38H39.6376C39.8509 6.38 40.1742 6.15 40.6076 5.69H40.6676C40.8009 5.69 40.9042 5.78667 40.9776 5.98C40.9776 6.14 40.6976 6.41667 40.1376 6.81C39.9909 6.89667 39.8142 6.96 39.6076 7C39.0676 7 38.6909 6.49333 38.4776 5.48C38.1709 5.43333 38.0176 5.30667 38.0176 5.1C38.0176 4.95333 38.1309 4.85667 38.3576 4.81V4.85L38.4576 4.81V4.56C38.4576 3.79333 38.6742 3.41 39.1076 3.41ZM39.1676 4.13H39.0776L39.0376 4.5V4.81H39.0776C39.4509 4.79667 39.6376 4.75667 39.6376 4.69C39.4642 4.43 39.3076 4.24333 39.1676 4.13ZM43.3719 2.95C43.5519 2.95 43.6752 3.25333 43.7419 3.86C43.6752 4.02667 43.5652 4.11 43.4119 4.11C43.3052 4.09 43.1985 3.96667 43.0919 3.74L42.9119 3.68C42.5985 3.68 42.3152 3.88667 42.0619 4.3V4.39C42.0619 4.49 42.5319 4.65667 43.4719 4.89C43.8652 5.12333 44.0619 5.40667 44.0619 5.74C44.0619 6.28667 43.6219 6.75333 42.7419 7.14L42.3719 7.2C41.8119 7.14 41.5319 6.86 41.5319 6.36V6.33C41.5319 6.17 41.6352 6.07667 41.8419 6.05C42.0019 6.05 42.1085 6.21667 42.1619 6.55L42.2419 6.61H42.4119C42.7919 6.61 43.1452 6.35 43.4719 5.83V5.7C43.4719 5.5 43.0352 5.31333 42.1619 5.14C41.7019 4.95333 41.4719 4.69333 41.4719 4.36C41.4719 3.92667 41.8352 3.52 42.5619 3.14C42.8819 3.1 43.1519 3.03667 43.3719 2.95ZM46.4383 2.95C46.6183 2.95 46.7416 3.25333 46.8083 3.86C46.7416 4.02667 46.6316 4.11 46.4783 4.11C46.3716 4.09 46.2649 3.96667 46.1583 3.74L45.9783 3.68C45.6649 3.68 45.3816 3.88667 45.1283 4.3V4.39C45.1283 4.49 45.5983 4.65667 46.5383 4.89C46.9316 5.12333 47.1283 5.40667 47.1283 5.74C47.1283 6.28667 46.6883 6.75333 45.8083 7.14L45.4383 7.2C44.8783 7.14 44.5983 6.86 44.5983 6.36V6.33C44.5983 6.17 44.7016 6.07667 44.9083 6.05C45.0683 6.05 45.1749 6.21667 45.2283 6.55L45.3083 6.61H45.4783C45.8583 6.61 46.2116 6.35 46.5383 5.83V5.7C46.5383 5.5 46.1016 5.31333 45.2283 5.14C44.7683 4.95333 44.5383 4.69333 44.5383 4.36C44.5383 3.92667 44.9016 3.52 45.6283 3.14C45.9483 3.1 46.2183 3.03667 46.4383 2.95Z" fill="black"/>
</svg>
