<svg width="58" height="8" viewBox="0 0 58 8" fill="none" xmlns="http://www.w3.org/2000/svg">
<path d="M1.15 1.25C1.35667 0.903333 1.56333 0.73 1.77 0.73C1.98333 0.73 2.13 0.853333 2.21 1.1L2.19 1.23V1.25C3.03667 1.79667 3.46 2.81667 3.46 4.31C3.46 5.80333 3.02333 6.79667 2.15 7.29L1.81 7.35C1.12333 7.35 0.653333 6.95333 0.4 6.16C0.313333 5.80667 0.27 5.46333 0.27 5.13V5C0.27 4.30667 0.436667 3.35 0.77 2.13C0.61 2.13 0.506667 2.01667 0.46 1.79C0.46 1.66333 0.69 1.48333 1.15 1.25ZM0.87 4.94V5.19C0.87 6.23 1.16333 6.75 1.75 6.75H1.77C2.31667 6.75 2.67333 6.09667 2.84 4.79L2.87 4.19C2.82333 2.86333 2.51333 2.07 1.94 1.81L1.75 1.79H1.59C1.43 1.95 1.24 2.51333 1.02 3.48C0.92 4.01333 0.87 4.5 0.87 4.94ZM4.81211 1.25C5.01878 0.903333 5.22544 0.73 5.43211 0.73C5.64544 0.73 5.79211 0.853333 5.87211 1.1L5.85211 1.23V1.25C6.69878 1.79667 7.12211 2.81667 7.12211 4.31C7.12211 5.80333 6.68544 6.79667 5.81211 7.29L5.47211 7.35C4.78544 7.35 4.31544 6.95333 4.06211 6.16C3.97544 5.80667 3.93211 5.46333 3.93211 5.13V5C3.93211 4.30667 4.09878 3.35 4.43211 2.13C4.27211 2.13 4.16878 2.01667 4.12211 1.79C4.12211 1.66333 4.35211 1.48333 4.81211 1.25ZM4.53211 4.94V5.19C4.53211 6.23 4.82544 6.75 5.41211 6.75H5.43211C5.97878 6.75 6.33544 6.09667 6.50211 4.79L6.53211 4.19C6.48544 2.86333 6.17544 2.07 5.60211 1.81L5.41211 1.79H5.25211C5.09211 1.95 4.90211 2.51333 4.68211 3.48C4.58211 4.01333 4.53211 4.5 4.53211 4.94ZM14.5138 0.95C14.7071 1.00333 14.8038 1.1 14.8038 1.24C14.6904 1.56 14.2971 2.39333 13.6238 3.74C12.9571 5.08667 12.4638 6.17 12.1438 6.99L11.9338 7.05C11.7404 7.01667 11.6438 6.92 11.6438 6.76C11.6438 6.54667 12.4971 4.69333 14.2038 1.2C14.2638 1.03333 14.3671 0.95 14.5138 0.95ZM18.0684 0.95C18.2618 1.00333 18.3584 1.1 18.3584 1.24C18.2451 1.56 17.8518 2.39333 17.1784 3.74C16.5118 5.08667 16.0184 6.17 15.6984 6.99L15.4884 7.05C15.2951 7.01667 15.1984 6.92 15.1984 6.76C15.1984 6.54667 16.0518 4.69333 17.7584 1.2C17.8184 1.03333 17.9218 0.95 18.0684 0.95ZM22.2827 1.79C22.536 1.84333 22.6627 1.95667 22.6627 2.13C22.596 2.31667 22.4893 2.41 22.3427 2.41C22.096 2.36333 21.9727 2.24 21.9727 2.04C22.0393 1.87333 22.1427 1.79 22.2827 1.79ZM22.6627 3.19C22.7693 3.19 22.8593 3.28667 22.9327 3.48L22.8427 4.19V4.66C22.8427 5.20667 22.936 5.92333 23.1227 6.81C23.056 6.93667 22.9427 7 22.7827 7C22.5093 7 22.3293 6.2 22.2427 4.6V4.25C22.2427 3.54333 22.3827 3.19 22.6627 3.19ZM24.9373 3.63C25.5039 3.67667 25.7873 3.95333 25.7873 4.46L25.8073 4.59L25.7873 6.15C25.7873 6.33 25.8906 6.57333 26.0973 6.88V6.9C26.0439 7.09333 25.9473 7.19 25.8073 7.19C25.3939 7.01667 25.1873 6.65 25.1873 6.09V5.96L25.1573 5.94L25.1873 5.9V5.88L25.2173 4.5C25.2173 4.30667 25.1339 4.21 24.9673 4.21H24.8473C24.5139 4.34333 24.3473 5.07333 24.3473 6.4C24.3473 6.86 24.2306 7.09 23.9973 7.09C23.8173 7.09 23.7239 6.97667 23.7173 6.75V5.75C23.7173 4.45667 23.8306 3.81 24.0573 3.81L24.1573 3.78L24.3673 3.81C24.5473 3.69 24.7373 3.63 24.9373 3.63ZM27.5907 0.929999C27.7774 0.97 27.8707 1.06333 27.8707 1.21L27.8107 1.65V1.78C27.8107 2.07333 27.844 2.38333 27.9107 2.71H27.9307C28.704 2.47667 29.184 2.36 29.3707 2.36C29.564 2.41333 29.6607 2.51 29.6607 2.65C29.6607 2.87667 29.4307 2.99 28.9707 2.99L27.9307 3.36C27.9307 4.26 28.0274 5.48333 28.2207 7.03C28.1807 7.21 28.084 7.3 27.9307 7.3H27.9107C27.6774 7.3 27.5607 7 27.5607 6.4C27.474 5.95333 27.4007 4.98333 27.3407 3.49H27.1607C26.534 3.45 26.2207 3.30333 26.2207 3.05C26.2207 2.97667 26.2907 2.88667 26.4307 2.78H26.5307L26.9907 2.9H27.3107L27.2207 1.65C27.2207 1.17 27.344 0.929999 27.5907 0.929999ZM31.2854 3.06C31.7054 3.06 31.9554 3.35333 32.0354 3.94V4.03C32.0354 4.67667 31.7021 5.27 31.0354 5.81C31.4221 6.19 32.0987 6.38 33.0654 6.38C33.2121 6.42667 33.2854 6.53 33.2854 6.69C33.2854 6.87 33.1687 6.96 32.9354 6.96C32.2821 6.96 31.5954 6.79333 30.8754 6.46V6.75C30.8754 7.43667 30.7287 7.78 30.4354 7.78C30.2287 7.78 30.1254 7.38333 30.1254 6.59V5.81L30.0954 5.53L30.1654 5.21L30.0954 4.25V4.21C30.0954 4.03 30.1887 3.90667 30.3754 3.84C30.6354 3.32 30.9387 3.06 31.2854 3.06ZM30.7854 5.25C30.9787 5.25 31.1954 4.90333 31.4354 4.21V3.78L31.3154 3.65H31.2254C30.9321 3.85 30.7854 4.38333 30.7854 5.25ZM35.2177 3.23C35.7111 3.23 36.0844 3.59667 36.3377 4.33L36.3777 4.54C36.3777 5.25333 36.0444 5.98333 35.3777 6.73C35.1111 6.97667 34.8411 7.1 34.5677 7.1C34.1677 7.1 33.8844 6.87 33.7177 6.41C33.6577 6.19667 33.6277 6.01 33.6277 5.85V5.73C33.6277 4.67667 34.0111 3.87667 34.7777 3.33C34.9111 3.26333 35.0577 3.23 35.2177 3.23ZM34.2177 5.83C34.2177 6.28333 34.3344 6.51 34.5677 6.51C35.0544 6.51 35.4577 5.88667 35.7777 4.64V4.45C35.6644 4.03667 35.4544 3.83 35.1477 3.83C35.0277 3.83 34.9677 3.91333 34.9677 4.08C34.9677 4.19333 34.8344 4.28333 34.5677 4.35C34.3344 4.74333 34.2177 5.23667 34.2177 5.83ZM39.1709 1.51C39.2842 1.51 39.3875 1.61667 39.4809 1.83L39.0409 4.61V5.39C39.0409 6.20333 39.1675 6.61 39.4209 6.61C39.5875 6.69 39.6709 6.79667 39.6709 6.93C39.6709 7.08333 39.5375 7.17333 39.2709 7.2C38.9775 7.2 38.7475 6.93 38.5809 6.39H38.4809C38.2342 6.93 37.9342 7.2 37.5809 7.2C37.1675 7.2 36.9175 6.88667 36.8309 6.26C36.8309 5.53333 37.3175 4.76333 38.2909 3.95C38.4842 3.95 38.5809 3.68 38.5809 3.14C38.7275 2.05333 38.9242 1.51 39.1709 1.51ZM37.4209 6.18V6.45L37.5809 6.61H37.6409C37.8542 6.61 38.1042 5.96667 38.3909 4.68H38.3309C37.7242 5.28667 37.4209 5.78667 37.4209 6.18ZM40.424 3.99L40.604 3.89C40.764 3.89 40.8807 3.98667 40.954 4.18C40.8473 4.67333 40.794 5.18 40.794 5.7C40.794 5.96 40.8707 6.24333 41.024 6.55H41.084C41.2773 6.55 41.5073 5.78667 41.774 4.26C41.8673 4.18 41.9573 4.14 42.044 4.14C42.2507 4.14 42.354 4.50667 42.354 5.24C42.4407 6.04667 42.5373 6.45 42.644 6.45L42.794 6.39C42.9873 6.46333 43.084 6.56667 43.084 6.7C42.964 6.95333 42.7973 7.08 42.584 7.08C42.344 7.08 42.114 6.84 41.894 6.36C41.6273 6.92 41.3573 7.2 41.084 7.2C40.6773 7.2 40.394 6.77667 40.234 5.93L40.204 5.61V5.51C40.204 4.97667 40.2773 4.47 40.424 3.99ZM44.3155 3.61L44.7255 3.55C44.8921 3.55 44.9855 3.65333 45.0055 3.86C45.0055 4.04 44.7888 4.15667 44.3555 4.21C44.0821 4.42333 43.9455 4.69667 43.9455 5.03V5.36C44.0788 6.09333 44.3055 6.46 44.6255 6.46H44.7255C44.9121 6.46 45.1921 6.28333 45.5655 5.93H45.6255C45.7588 5.93 45.8655 6.02333 45.9455 6.21C45.8521 6.49667 45.5521 6.75667 45.0455 6.99C44.9521 7.03 44.8355 7.05 44.6955 7.05C44.0088 7.05 43.5621 6.51 43.3555 5.43V5.21C43.3555 4.43 43.6755 3.89667 44.3155 3.61ZM47.6298 0.929999C47.8164 0.97 47.9098 1.06333 47.9098 1.21L47.8498 1.65V1.78C47.8498 2.07333 47.8831 2.38333 47.9498 2.71H47.9698C48.7431 2.47667 49.2231 2.36 49.4098 2.36C49.6031 2.41333 49.6998 2.51 49.6998 2.65C49.6998 2.87667 49.4698 2.99 49.0098 2.99L47.9698 3.36C47.9698 4.26 48.0664 5.48333 48.2598 7.03C48.2198 7.21 48.1231 7.3 47.9698 7.3H47.9498C47.7164 7.3 47.5998 7 47.5998 6.4C47.5131 5.95333 47.4398 4.98333 47.3798 3.49H47.1998C46.5731 3.45 46.2598 3.30333 46.2598 3.05C46.2598 2.97667 46.3298 2.88667 46.4698 2.78H46.5698L47.0298 2.9H47.3498L47.2598 1.65C47.2598 1.17 47.3831 0.929999 47.6298 0.929999ZM50.1245 1.79C50.3778 1.84333 50.5045 1.95667 50.5045 2.13C50.4378 2.31667 50.3311 2.41 50.1845 2.41C49.9378 2.36333 49.8145 2.24 49.8145 2.04C49.8811 1.87333 49.9845 1.79 50.1245 1.79ZM50.5045 3.19C50.6111 3.19 50.7011 3.28667 50.7745 3.48L50.6845 4.19V4.66C50.6845 5.20667 50.7778 5.92333 50.9645 6.81C50.8978 6.93667 50.7845 7 50.6245 7C50.3511 7 50.1711 6.2 50.0845 4.6V4.25C50.0845 3.54333 50.2245 3.19 50.5045 3.19ZM53.0791 3.23C53.5724 3.23 53.9457 3.59667 54.1991 4.33L54.2391 4.54C54.2391 5.25333 53.9057 5.98333 53.2391 6.73C52.9724 6.97667 52.7024 7.1 52.4291 7.1C52.0291 7.1 51.7457 6.87 51.5791 6.41C51.5191 6.19667 51.4891 6.01 51.4891 5.85V5.73C51.4891 4.67667 51.8724 3.87667 52.6391 3.33C52.7724 3.26333 52.9191 3.23 53.0791 3.23ZM52.0791 5.83C52.0791 6.28333 52.1957 6.51 52.4291 6.51C52.9157 6.51 53.3191 5.88667 53.6391 4.64V4.45C53.5257 4.03667 53.3157 3.83 53.0091 3.83C52.8891 3.83 52.8291 3.91333 52.8291 4.08C52.8291 4.19333 52.6957 4.28333 52.4291 4.35C52.1957 4.74333 52.0791 5.23667 52.0791 5.83ZM55.9822 3.63C56.5489 3.67667 56.8322 3.95333 56.8322 4.46L56.8522 4.59L56.8322 6.15C56.8322 6.33 56.9355 6.57333 57.1422 6.88V6.9C57.0889 7.09333 56.9922 7.19 56.8522 7.19C56.4389 7.01667 56.2322 6.65 56.2322 6.09V5.96L56.2022 5.94L56.2322 5.9V5.88L56.2622 4.5C56.2622 4.30667 56.1789 4.21 56.0122 4.21H55.8922C55.5589 4.34333 55.3922 5.07333 55.3922 6.4C55.3922 6.86 55.2755 7.09 55.0422 7.09C54.8622 7.09 54.7689 6.97667 54.7622 6.75V5.75C54.7622 4.45667 54.8755 3.81 55.1022 3.81L55.2022 3.78L55.4122 3.81C55.5922 3.69 55.7822 3.63 55.9822 3.63Z" fill="black"/>
</svg>
