<svg width="668" height="302" viewBox="0 0 668 302" fill="none" xmlns="http://www.w3.org/2000/svg">
<path d="M6.95 159.2C6.25 159.2 5.56667 159.113 4.9 158.94C4.23333 158.76 3.62667 158.497 3.08 158.15C2.54 157.797 2.09 157.36 1.73 156.84C1.37 156.313 1.15 155.7 1.07 155H3.59C3.69667 155.487 3.90667 155.897 4.22 156.23C4.53333 156.563 4.92333 156.817 5.39 156.99C5.86333 157.163 6.38 157.25 6.94 157.25C7.54 157.25 8.08 157.17 8.56 157.01C9.04667 156.85 9.43 156.617 9.71 156.31C9.99667 156.003 10.14 155.627 10.14 155.18C10.14 154.787 10.0367 154.453 9.83 154.18C9.62333 153.907 9.33333 153.683 8.96 153.51C8.59333 153.33 8.16333 153.187 7.67 153.08L5.01 152.5C3.93667 152.28 3.08667 151.853 2.46 151.22C1.83333 150.587 1.51333 149.743 1.5 148.69C1.49333 147.817 1.72333 147.057 2.19 146.41C2.66333 145.757 3.30667 145.253 4.12 144.9C4.93333 144.54 5.85333 144.36 6.88 144.36C8.08 144.36 9.09 144.557 9.91 144.95C10.7367 145.337 11.36 145.857 11.78 146.51C12.2067 147.163 12.4233 147.88 12.43 148.66H9.97C9.91 148.087 9.73667 147.63 9.45 147.29C9.17 146.95 8.81 146.707 8.37 146.56C7.93 146.413 7.44333 146.34 6.91 146.34C6.51 146.34 6.13667 146.387 5.79 146.48C5.44333 146.573 5.14 146.71 4.88 146.89C4.62 147.07 4.41667 147.29 4.27 147.55C4.13 147.803 4.06 148.093 4.06 148.42C4.06 148.887 4.21333 149.267 4.52 149.56C4.83333 149.847 5.41667 150.09 6.27 150.29L8.87 150.87C9.67667 151.03 10.3267 151.27 10.82 151.59C11.3133 151.91 11.69 152.277 11.95 152.69C12.21 153.097 12.3833 153.513 12.47 153.94C12.5567 154.367 12.6 154.773 12.6 155.16C12.6 155.913 12.3667 156.597 11.9 157.21C11.44 157.823 10.7867 158.31 9.94 158.67C9.1 159.023 8.10333 159.2 6.95 159.2ZM20.5998 150.38H18.2898L18.2998 156.31C18.2998 156.617 18.3332 156.843 18.3998 156.99C18.4732 157.13 18.5865 157.223 18.7398 157.27C18.8998 157.31 19.1132 157.33 19.3798 157.33H20.6498V158.87C20.5165 158.923 20.3132 158.97 20.0398 159.01C19.7732 159.057 19.4132 159.08 18.9598 159.08C18.1398 159.08 17.5032 158.973 17.0498 158.76C16.6032 158.54 16.2932 158.23 16.1198 157.83C15.9465 157.43 15.8598 156.953 15.8598 156.4V150.38H14.1798V148.66H15.9298L16.5398 145.59H18.2898V148.65H20.5998V150.38ZM25.8725 159.2C25.2125 159.2 24.6192 159.08 24.0925 158.84C23.5725 158.593 23.1625 158.243 22.8625 157.79C22.5692 157.33 22.4225 156.773 22.4225 156.12C22.4225 154.98 22.8325 154.12 23.6525 153.54C24.4792 152.96 25.7958 152.657 27.6025 152.63L29.1425 152.59V151.89C29.1425 151.343 28.9792 150.917 28.6525 150.61C28.3325 150.297 27.8325 150.143 27.1525 150.15C26.6525 150.157 26.1925 150.277 25.7725 150.51C25.3592 150.737 25.0858 151.12 24.9525 151.66H22.8825C22.9225 150.953 23.1258 150.363 23.4925 149.89C23.8658 149.41 24.3758 149.053 25.0225 148.82C25.6692 148.58 26.4158 148.46 27.2625 148.46C28.2492 148.46 29.0525 148.59 29.6725 148.85C30.2925 149.11 30.7492 149.487 31.0425 149.98C31.3358 150.467 31.4825 151.057 31.4825 151.75V159H29.4325L29.2425 157.14C28.8692 157.92 28.3958 158.46 27.8225 158.76C27.2558 159.053 26.6058 159.2 25.8725 159.2ZM26.6625 157.55C26.9625 157.55 27.2592 157.497 27.5525 157.39C27.8458 157.277 28.1125 157.127 28.3525 156.94C28.5925 156.747 28.7825 156.533 28.9225 156.3C29.0692 156.067 29.1425 155.823 29.1425 155.57V153.94L27.8725 153.96C27.2458 153.967 26.6992 154.033 26.2325 154.16C25.7658 154.287 25.3992 154.49 25.1325 154.77C24.8725 155.043 24.7425 155.41 24.7425 155.87C24.7425 156.397 24.9258 156.81 25.2925 157.11C25.6592 157.403 26.1158 157.55 26.6625 157.55ZM34.3292 159V148.66H36.6592V150.9C36.8259 150.387 37.0626 149.95 37.3692 149.59C37.6826 149.223 38.0492 148.943 38.4692 148.75C38.8892 148.557 39.3459 148.46 39.8392 148.46C39.9592 148.46 40.0759 148.467 40.1892 148.48C40.3026 148.493 40.3859 148.517 40.4392 148.55V150.88C40.3659 150.847 40.2692 150.823 40.1492 150.81C40.0359 150.797 39.9359 150.79 39.8492 150.79C39.3492 150.75 38.9059 150.77 38.5192 150.85C38.1392 150.93 37.8159 151.067 37.5492 151.26C37.2892 151.447 37.0926 151.687 36.9592 151.98C36.8259 152.267 36.7592 152.603 36.7592 152.99V159H34.3292ZM48.3342 150.38H46.0242L46.0342 156.31C46.0342 156.617 46.0676 156.843 46.1342 156.99C46.2076 157.13 46.3209 157.223 46.4742 157.27C46.6342 157.31 46.8476 157.33 47.1142 157.33H48.3842V158.87C48.2509 158.923 48.0476 158.97 47.7742 159.01C47.5076 159.057 47.1476 159.08 46.6942 159.08C45.8742 159.08 45.2376 158.973 44.7842 158.76C44.3376 158.54 44.0276 158.23 43.8542 157.83C43.6809 157.43 43.5942 156.953 43.5942 156.4V150.38H41.9142V148.66H43.6642L44.2742 145.59H46.0242V148.65H48.3342V150.38Z" fill="#284B63"/>
<path d="M612.75 144.54H622.21L622.2 146.6H615.22V150.76H621.38V152.79H615.22V159H612.75V144.54ZM626.98 148.66V159H624.64V148.66H626.98ZM627.01 144.55V146.85H624.6V144.55H627.01ZM630.017 159V148.66H632.397V150.14C632.557 149.873 632.773 149.617 633.047 149.37C633.327 149.123 633.67 148.923 634.077 148.77C634.483 148.617 634.96 148.54 635.507 148.54C636.147 148.54 636.74 148.667 637.287 148.92C637.84 149.173 638.283 149.57 638.617 150.11C638.957 150.65 639.127 151.347 639.127 152.2V159H636.687V152.49C636.687 151.81 636.5 151.307 636.127 150.98C635.753 150.647 635.283 150.48 634.717 150.48C634.33 150.48 633.963 150.547 633.617 150.68C633.27 150.807 632.987 151.003 632.767 151.27C632.553 151.53 632.447 151.857 632.447 152.25V159H630.017ZM644.245 148.66V159H641.905V148.66H644.245ZM644.275 144.55V146.85H641.865V144.55H644.275ZM651.075 159.2C650.355 159.2 649.671 159.087 649.025 158.86C648.385 158.627 647.845 158.263 647.405 157.77C646.971 157.277 646.698 156.64 646.585 155.86H648.725C648.818 156.24 648.981 156.55 649.215 156.79C649.455 157.03 649.738 157.207 650.065 157.32C650.391 157.427 650.725 157.48 651.065 157.48C651.685 157.48 652.185 157.373 652.565 157.16C652.951 156.947 653.145 156.617 653.145 156.17C653.145 155.843 653.038 155.583 652.825 155.39C652.611 155.197 652.271 155.05 651.805 154.95L649.835 154.5C648.961 154.307 648.258 153.987 647.725 153.54C647.198 153.093 646.931 152.463 646.925 151.65C646.918 151.037 647.071 150.49 647.385 150.01C647.698 149.53 648.165 149.153 648.785 148.88C649.405 148.6 650.171 148.46 651.085 148.46C652.291 148.46 653.258 148.73 653.985 149.27C654.711 149.803 655.085 150.567 655.105 151.56H653.035C652.961 151.113 652.751 150.767 652.405 150.52C652.058 150.267 651.608 150.14 651.055 150.14C650.481 150.14 650.011 150.25 649.645 150.47C649.278 150.69 649.095 151.027 649.095 151.48C649.095 151.793 649.235 152.04 649.515 152.22C649.795 152.4 650.215 152.553 650.775 152.68L652.635 153.13C653.168 153.263 653.605 153.443 653.945 153.67C654.285 153.897 654.551 154.147 654.745 154.42C654.938 154.687 655.071 154.963 655.145 155.25C655.225 155.53 655.265 155.79 655.265 156.03C655.265 156.697 655.091 157.267 654.745 157.74C654.405 158.207 653.921 158.567 653.295 158.82C652.668 159.073 651.928 159.2 651.075 159.2ZM657.556 159V144.14H659.956V150.16C660.122 149.9 660.342 149.65 660.616 149.41C660.889 149.163 661.222 148.963 661.616 148.81C662.016 148.65 662.492 148.57 663.046 148.57C663.706 148.57 664.309 148.697 664.856 148.95C665.402 149.203 665.839 149.57 666.166 150.05C666.492 150.523 666.656 151.09 666.656 151.75V159H664.216V152.16C664.216 151.627 664.026 151.213 663.646 150.92C663.272 150.627 662.799 150.48 662.226 150.48C661.846 150.48 661.482 150.547 661.136 150.68C660.789 150.813 660.509 151.013 660.296 151.28C660.089 151.54 659.986 151.867 659.986 152.26V159H657.556Z" fill="#284B63"/>
<path d="M122 124.5C146.5 -39 175 -49.0017 202.5 150.998C230 350.998 257.5 350.998 285 150.998" stroke="#284B63" stroke-width="2"/>
<path d="M285 150.998C306 -15.6684 327 -15.6684 348 150.998C369 317.665 390 317.665 411 150.998" stroke="#284B63" stroke-width="2"/>
<path d="M411 150.998C427.667 17.665 444.333 17.665 461 150.998C477.667 284.332 494.333 284.332 511 150.998" stroke="#284B63" stroke-width="2"/>
<path d="M511 150.998C521 50.9983 524.8 54.9982 534.8 154.998C542.565 214.738 544.7 229.998 551.5 173.498" stroke="#284B63" stroke-width="2"/>
<path d="M551.485 173.502C555 145 594.481 151.002 605.481 151.502" stroke="#284B63" stroke-width="2"/>
<path d="M122 124.5C118 150 92.5181 150.263 62.0223 150.23" stroke="#284B63" stroke-width="2"/>
</svg>
