<svg width="570" height="570" viewBox="0 0 570 570" fill="none" xmlns="http://www.w3.org/2000/svg">
<rect x="79.25" y="439.075" width="51.5" height="19.5" rx="9.75" fill="#0D99FF"/>
<rect x="79.25" y="439.075" width="51.5" height="19.5" rx="9.75" stroke="#1F4172" stroke-width="0.5"/>
<path d="M93.368 451.438C93.368 451.975 93.3073 452.432 93.186 452.81C93.0647 453.188 92.8477 453.475 92.535 453.671C92.227 453.867 91.7883 453.965 91.219 453.965C90.8597 453.965 90.5213 453.923 90.204 453.839C89.8913 453.755 89.6837 453.692 89.581 453.65L89.672 452.411C89.8167 452.463 89.9823 452.528 90.169 452.607C90.3603 452.682 90.596 452.719 90.876 452.719C91.3333 452.719 91.646 452.593 91.814 452.341C91.9867 452.089 92.073 451.665 92.073 451.067V443.703H93.368V451.438ZM96.4364 450.507C96.4364 450.965 96.5111 451.38 96.6604 451.753C96.8144 452.122 97.0454 452.416 97.3534 452.635C97.6661 452.855 98.0557 452.964 98.5224 452.964C98.9844 452.964 99.3811 452.857 99.7124 452.642C100.048 452.428 100.263 452.117 100.356 451.711H101.581C101.493 452.201 101.297 452.614 100.993 452.95C100.69 453.286 100.324 453.541 99.8944 453.713C99.4651 453.881 99.0171 453.965 98.5504 453.965C97.8737 453.965 97.2787 453.818 96.7654 453.524C96.2521 453.23 95.8507 452.808 95.5614 452.257C95.2721 451.707 95.1274 451.046 95.1274 450.276C95.1274 449.516 95.2581 448.848 95.5194 448.274C95.7807 447.7 96.1587 447.252 96.6534 446.93C97.1527 446.608 97.7524 446.447 98.4524 446.447C99.1337 446.447 99.7101 446.594 100.181 446.888C100.653 447.182 101.01 447.598 101.252 448.134C101.5 448.666 101.623 449.299 101.623 450.031V450.507H96.4364ZM96.4434 449.632H100.377C100.377 449.217 100.307 448.844 100.167 448.512C100.027 448.176 99.8127 447.913 99.5234 447.721C99.2387 447.525 98.8794 447.427 98.4454 447.427C97.9927 447.427 97.6171 447.537 97.3184 447.756C97.0244 447.971 96.8027 448.249 96.6534 448.589C96.5087 448.925 96.4387 449.273 96.4434 449.632ZM103.401 453.825V446.587H104.633V447.98C104.754 447.635 104.925 447.35 105.144 447.126C105.363 446.898 105.613 446.727 105.893 446.615C106.178 446.503 106.472 446.447 106.775 446.447C106.882 446.447 106.987 446.454 107.09 446.468C107.193 446.482 107.272 446.506 107.328 446.538V447.791C107.258 447.759 107.167 447.738 107.055 447.728C106.948 447.714 106.857 447.707 106.782 447.707C106.493 447.689 106.222 447.707 105.97 447.763C105.718 447.815 105.496 447.906 105.305 448.036C105.114 448.167 104.962 448.34 104.85 448.554C104.743 448.764 104.689 449.021 104.689 449.324V453.825H103.401ZM108.829 453.825V446.587H110.061V447.98C110.182 447.635 110.352 447.35 110.572 447.126C110.791 446.898 111.041 446.727 111.321 446.615C111.605 446.503 111.899 446.447 112.203 446.447C112.31 446.447 112.415 446.454 112.518 446.468C112.62 446.482 112.7 446.506 112.756 446.538V447.791C112.686 447.759 112.595 447.738 112.483 447.728C112.375 447.714 112.284 447.707 112.21 447.707C111.92 447.689 111.65 447.707 111.398 447.763C111.146 447.815 110.924 447.906 110.733 448.036C110.541 448.167 110.39 448.34 110.278 448.554C110.17 448.764 110.117 449.021 110.117 449.324V453.825H108.829ZM115.299 456.135C114.874 456.135 114.582 456.105 114.424 456.044C114.265 455.984 114.186 455.953 114.186 455.953V455.113L114.921 455.127C115.191 455.137 115.415 455.118 115.593 455.071C115.77 455.025 115.912 454.962 116.02 454.882C116.127 454.803 116.209 454.714 116.265 454.616C116.325 454.518 116.374 454.425 116.412 454.336L116.664 453.65L113.836 446.587H115.145L117.28 452.173L119.401 446.587H120.668L117.616 454.371C117.429 454.829 117.219 455.186 116.986 455.442C116.757 455.699 116.5 455.879 116.216 455.981C115.936 456.084 115.63 456.135 115.299 456.135Z" fill="white"/>
<path d="M131.256 435L123.407 438.675L126.939 439.707L128.271 443.136L131.256 435Z" fill="#0D99FF" stroke="#1F4172" stroke-width="0.5" stroke-linecap="round" stroke-linejoin="round"/>
</svg>
