<svg width="225" height="119" viewBox="0 0 225 119" fill="none" xmlns="http://www.w3.org/2000/svg">
<g clip-path="url(#clip0_458_107)">
<mask id="mask0_458_107" style="mask-type:luminance" maskUnits="userSpaceOnUse" x="87" y="-32" width="181" height="186">
<path d="M267.145 37.6375L174.046 -32L87.636 83.5225L180.735 153.16L267.145 37.6375Z" fill="white"/>
</mask>
<g mask="url(#mask0_458_107)">
<path fill-rule="evenodd" clip-rule="evenodd" d="M215.719 2.85063C214.172 3.92753 200.876 21.7738 179.363 51.7386C171.247 63.0133 157.867 81.256 149.576 92.269C127.573 121.473 132.24 128.117 154.425 98.458C187.954 53.6315 219.719 7.48473 219.112 4.40273C218.75 2.62113 217.137 1.87483 215.719 2.85063Z" fill="black"/>
</g>
<mask id="mask1_458_107" style="mask-type:luminance" maskUnits="userSpaceOnUse" x="60" y="-32" width="179" height="185">
<path d="M238.032 35.3087L148.046 -32L60.014 85.6909L150 153L238.032 35.3087Z" fill="white"/>
</mask>
<g mask="url(#mask1_458_107)">
<path fill-rule="evenodd" clip-rule="evenodd" d="M189.548 0.0498686C187.98 1.18807 174.224 19.6478 151.93 50.6162C143.52 62.2692 129.667 81.132 121.093 92.526C98.3383 122.742 102.746 129.302 125.696 98.62C160.381 52.2484 193.36 4.60057 192.859 1.50717C192.559 -0.280733 190.985 -0.982031 189.548 0.0498686Z" fill="black"/>
</g>
<mask id="mask2_458_107" style="mask-type:luminance" maskUnits="userSpaceOnUse" x="24" y="-33" width="179" height="185">
<path d="M202.018 34.3087L112.032 -33L23.9998 84.6909L113.986 152L202.018 34.3087Z" fill="white"/>
</mask>
<g mask="url(#mask2_458_107)">
<path fill-rule="evenodd" clip-rule="evenodd" d="M152.219 0.808167C150.668 1.92387 137.121 20.1039 115.173 50.6087C106.895 62.087 93.2538 80.666 84.8098 91.886C62.3985 121.643 66.8301 128.17 89.4318 97.954C123.591 52.2865 156.044 5.34226 155.523 2.27536C155.211 0.502765 153.641 -0.203233 152.219 0.808167Z" fill="black"/>
</g>
<mask id="mask3_458_107" style="mask-type:luminance" maskUnits="userSpaceOnUse" x="-1" y="-32" width="179" height="185">
<path d="M177.018 35.3087L87.0317 -32L-1.00015 85.6909L88.9857 153L177.018 35.3087Z" fill="white"/>
</mask>
<g mask="url(#mask3_458_107)">
<path fill-rule="evenodd" clip-rule="evenodd" d="M127.219 1.80817C125.668 2.92387 112.121 21.1039 90.1729 51.6087C81.8949 63.087 68.2538 81.666 59.8096 92.886C37.3986 122.643 41.8302 129.17 64.4317 98.954C98.5909 53.2865 131.044 6.34226 130.523 3.27536C130.211 1.50276 128.641 0.796767 127.219 1.80817Z" fill="black"/>
</g>
<mask id="mask4_458_107" style="mask-type:luminance" maskUnits="userSpaceOnUse" x="-30" y="-32" width="179" height="185">
<path d="M148.018 35.3087L58.0322 -32L-29.9997 85.6909L59.9862 153L148.018 35.3087Z" fill="white"/>
</mask>
<g mask="url(#mask4_458_107)">
<path fill-rule="evenodd" clip-rule="evenodd" d="M99.1553 0.556407C97.5923 1.68811 83.8963 20.0673 61.7021 50.9021C53.3304 62.5047 39.5382 81.286 31.0017 92.63C8.34586 122.713 12.7607 129.264 35.6101 98.716C70.1443 52.5474 102.971 5.10231 102.464 2.01661C102.161 0.233108 100.588 -0.469593 99.1553 0.556407Z" fill="black"/>
<mask id="mask5_458_107" style="mask-type:luminance" maskUnits="userSpaceOnUse" x="-46" y="-32" width="166" height="168">
<path d="M119.305 35.3087L29.3188 -32L-45.7148 68.3134L44.2711 135.622L119.305 35.3087Z" fill="white"/>
</mask>
<g mask="url(#mask5_458_107)">
<path fill-rule="evenodd" clip-rule="evenodd" d="M69.7708 1.45342C68.381 2.35362 56.8389 17.8528 38.2146 43.9149C31.1874 53.7202 19.585 69.574 12.3828 79.134C-6.73364 104.486 -2.07444 110.709 17.1898 84.955C46.3051 46.0301 73.7143 5.82902 73.0033 3.01562C72.5823 1.38872 71.0453 0.638418 69.7708 1.45342Z" fill="black"/>
<path fill-rule="evenodd" clip-rule="evenodd" d="M51.7542 0.938174C50.7517 1.62967 42.1737 13.1441 28.2991 32.4811C23.0649 39.7568 14.4334 51.5281 9.08425 58.633C-5.11295 77.474 -2.04355 81.805 12.27 62.6691C33.9029 33.7478 54.3799 3.96197 53.9707 1.96027C53.727 0.803073 52.6734 0.311674 51.7542 0.938174Z" fill="black"/>
</g>
</g>
<path fill-rule="evenodd" clip-rule="evenodd" d="M25.0575 0.532668C24.4159 0.741768 20.3265 6.25517 13.8906 15.6472C11.4579 19.1776 7.38952 24.8484 4.82062 28.2365C-2.00148 37.218 1.57733 40.8676 8.42023 31.7192C18.7622 17.8928 27.9485 3.20177 27.1148 1.76757C26.6271 0.93667 25.6478 0.345968 25.0575 0.532668Z" fill="black"/>
<mask id="mask6_458_107" style="mask-type:luminance" maskUnits="userSpaceOnUse" x="133" y="-7" width="179" height="185">
<path d="M311.018 60.3087L221.032 -7L133 110.691L222.986 178L311.018 60.3087Z" fill="white"/>
</mask>
<g mask="url(#mask6_458_107)">
<path fill-rule="evenodd" clip-rule="evenodd" d="M223.013 82.146C222.372 82.356 218.282 87.869 211.847 97.261C209.414 100.791 205.345 106.462 202.777 109.85C195.954 118.832 199.533 122.481 206.376 113.333C216.718 99.507 225.904 84.816 225.071 83.381C224.583 82.55 223.604 81.96 223.013 82.146Z" fill="black"/>
<mask id="mask7_458_107" style="mask-type:luminance" maskUnits="userSpaceOnUse" x="124" y="8" width="148" height="145">
<path d="M271.372 75.3087L181.386 8L124.001 84.7195L213.987 152.028L271.372 75.3087Z" fill="white"/>
</mask>
<g mask="url(#mask7_458_107)">
<path fill-rule="evenodd" clip-rule="evenodd" d="M222.199 40.9715C221.028 41.5791 212.208 53.4387 198.095 73.469C192.767 81.003 183.932 93.156 178.416 100.462C163.773 119.834 168.741 125.644 183.474 105.947C205.742 76.178 226.303 45.132 225.335 42.6628C224.766 41.2338 223.274 40.4232 222.199 40.9715Z" fill="black"/>
</g>
</g>
</g>
<defs>
<clipPath id="clip0_458_107">
<rect width="225" height="119" fill="white"/>
</clipPath>
</defs>
</svg>
