<svg width="115" height="20" viewBox="0 0 115 20" fill="none" xmlns="http://www.w3.org/2000/svg">
<path d="M4.98427 0.524102H5.03227C5.29893 0.662769 5.43227 0.817435 5.43227 0.988102L5.03227 4.0281C5.03227 5.13744 5.36293 7.4361 6.02427 10.9241L6.82427 12.9241C6.82427 13.0628 6.71227 13.2174 6.48827 13.3881H6.18427C5.97093 13.3241 5.65093 12.6681 5.22427 11.4201C4.94693 10.4174 4.6696 8.87077 4.39227 6.7801H4.29627C3.6776 8.61477 3.24027 9.5641 2.98427 9.6281L2.72827 9.6921C2.50427 9.6921 2.22693 9.25477 1.89627 8.3801H1.78427C1.65627 11.0148 1.4056 12.3321 1.03227 12.3321H0.984266C0.642932 12.3321 0.456266 12.0654 0.424266 11.5321C0.690932 10.5081 0.824266 9.44144 0.824266 8.3321L0.392266 4.0921V3.7881C0.392266 3.38277 0.536266 3.1801 0.824266 3.1801C1.24027 3.1801 1.60827 3.9961 1.92827 5.6281C2.3976 7.11077 2.6856 7.91077 2.79227 8.0281C3.0376 7.6441 3.28293 6.96144 3.52827 5.9801C3.72027 5.47877 3.90693 4.69477 4.08827 3.6281L4.02427 3.5801L4.08827 3.3241V3.2281C4.18427 1.42544 4.48293 0.524102 4.98427 0.524102ZM9.36139 3.5481L9.76139 3.4841H9.92139C10.1347 3.4841 10.3694 3.61744 10.6254 3.8841C11.0947 3.8841 11.7614 4.47077 12.6254 5.6441C13.3614 7.03077 13.7294 8.26277 13.7294 9.3401C13.7294 10.8121 13.1961 11.7934 12.1294 12.2841L11.1214 12.4921C9.52139 12.4921 8.36939 11.2921 7.66539 8.8921C7.50539 8.26277 7.42539 7.64944 7.42539 7.0521V6.8921C7.42539 5.08944 8.07072 3.97477 9.36139 3.5481ZM9.21739 5.0841L8.86539 4.9401C8.53473 5.33477 8.36939 5.90544 8.36939 6.6521V7.0841C8.36939 9.05744 9.03606 10.4921 10.3694 11.3881L10.8174 11.4841H11.4254C11.9801 11.4841 12.3801 11.1374 12.6254 10.4441L12.7214 9.7401V9.2441C12.7214 7.6441 12.0867 6.20944 10.8174 4.9401L10.1614 4.7481H10.1294C9.91606 4.7481 9.61206 4.8601 9.21739 5.0841ZM16.2643 2.4921C16.5629 2.5561 16.7123 2.70544 16.7123 2.9401L16.6163 3.6441V3.8521C16.6163 4.32144 16.6696 4.81744 16.7763 5.3401H16.8083C18.0456 4.96677 18.8136 4.7801 19.1123 4.7801C19.4216 4.86544 19.5763 5.0201 19.5763 5.2441C19.5763 5.60677 19.2083 5.7881 18.4723 5.7881L16.8083 6.3801C16.8083 7.8201 16.9629 9.77744 17.2723 12.2521C17.2083 12.5401 17.0536 12.6841 16.8083 12.6841H16.7763C16.4029 12.6841 16.2163 12.2041 16.2163 11.2441C16.0776 10.5294 15.9603 8.97744 15.8643 6.5881H15.5763C14.5736 6.5241 14.0723 6.28944 14.0723 5.8841C14.0723 5.76677 14.1843 5.62277 14.4083 5.4521H14.5683L15.3043 5.6441H15.8163L15.6723 3.6441C15.6723 2.8761 15.8696 2.4921 16.2643 2.4921ZM20.7358 3.3721C21.0344 3.3721 21.1838 3.73477 21.1838 4.4601L21.3758 7.2121H21.4398L22.2398 6.9081C23.1358 6.9081 23.6798 7.82544 23.8718 9.6601C23.9464 10.1828 23.9838 10.9508 23.9838 11.9641V13.2601C23.9838 13.6654 23.8344 13.8681 23.5358 13.8681H23.4718C23.1838 13.8254 23.0398 13.6708 23.0398 13.4041V11.9001C23.0398 9.48944 22.8051 8.1561 22.3358 7.9001H22.2398C21.9198 7.9001 21.6851 8.39077 21.5358 9.3721V10.2681C21.5358 11.8681 21.4024 12.6681 21.1358 12.6681L20.8318 12.7001C20.5331 12.7001 20.3838 12.2574 20.3838 11.3721C20.4158 10.4334 20.4798 9.66544 20.5758 9.0681L20.2398 3.8041C20.2398 3.52677 20.4051 3.38277 20.7358 3.3721ZM26.1756 6.4601C26.6023 6.47077 27.3223 7.21744 28.3356 8.7001L28.3676 8.9721C28.3676 9.27077 27.637 9.5001 26.1756 9.6601L26.1276 9.7081V9.7721C26.3516 10.7321 26.5863 11.2121 26.8316 11.2121H27.0236C27.365 11.2121 27.8823 10.8441 28.5756 10.1081H28.6716C28.885 10.1081 29.0503 10.2628 29.1676 10.5721C29.1676 10.8281 28.7196 11.2708 27.8236 11.9001C27.589 12.0388 27.3063 12.1401 26.9756 12.2041C26.1116 12.2041 25.509 11.3934 25.1676 9.7721C24.677 9.69744 24.4316 9.49477 24.4316 9.1641C24.4316 8.92944 24.613 8.77477 24.9756 8.7001V8.7641L25.1356 8.7001V8.3001C25.1356 7.07344 25.4823 6.4601 26.1756 6.4601ZM26.2716 7.6121H26.1276L26.0636 8.2041V8.7001H26.1276C26.725 8.67877 27.0236 8.61477 27.0236 8.5081C26.7463 8.0921 26.4956 7.79344 26.2716 7.6121ZM31.8945 5.9001C32.5665 5.9001 32.9665 6.36944 33.0945 7.3081V7.4521C33.0945 8.48677 32.5612 9.4361 31.4945 10.3001C32.1132 10.9081 33.1959 11.2121 34.7425 11.2121C34.9772 11.2868 35.0945 11.4521 35.0945 11.7081C35.0945 11.9961 34.9079 12.1401 34.5345 12.1401C33.4892 12.1401 32.3905 11.8734 31.2385 11.3401V11.8041C31.2385 12.9028 31.0039 13.4521 30.5345 13.4521C30.2039 13.4521 30.0385 12.8174 30.0385 11.5481V10.3001L29.9905 9.8521L30.1025 9.3401L29.9905 7.8041V7.7401C29.9905 7.4521 30.1399 7.25477 30.4385 7.1481C30.8545 6.3161 31.3399 5.9001 31.8945 5.9001ZM31.0945 9.4041C31.4039 9.4041 31.7505 8.84944 32.1345 7.7401V7.0521L31.9425 6.8441H31.7985C31.3292 7.1641 31.0945 8.01744 31.0945 9.4041ZM36.3463 2.7321C36.6769 2.7321 36.8903 3.1321 36.9863 3.9321V4.0281C36.9863 4.39077 36.8156 4.5721 36.4743 4.5721C36.1436 4.5721 35.9783 4.22544 35.9783 3.5321C35.9036 3.5321 35.8556 3.40944 35.8343 3.1641C35.9409 2.8761 36.1116 2.7321 36.3463 2.7321ZM41.1391 5.7241C41.4271 5.7241 41.6245 6.20944 41.7311 7.1801C41.6245 7.44677 41.4485 7.5801 41.2031 7.5801C41.0325 7.5481 40.8618 7.35077 40.6911 6.9881L40.4031 6.8921C39.9018 6.8921 39.4485 7.22277 39.0431 7.8841V8.0281C39.0431 8.1881 39.7951 8.45477 41.2991 8.8281C41.9285 9.20144 42.2431 9.65477 42.2431 10.1881C42.2431 11.0628 41.5391 11.8094 40.1311 12.4281L39.5391 12.5241C38.6431 12.4281 38.1951 11.9801 38.1951 11.1801V11.1321C38.1951 10.8761 38.3605 10.7268 38.6911 10.6841C38.9471 10.6841 39.1178 10.9508 39.2031 11.4841L39.3311 11.5801H39.6031C40.2111 11.5801 40.7765 11.1641 41.2991 10.3321V10.1241C41.2991 9.8041 40.6005 9.50544 39.2031 9.2281C38.4671 8.92944 38.0991 8.51344 38.0991 7.9801C38.0991 7.28677 38.6805 6.6361 39.8431 6.0281C40.3551 5.9641 40.7871 5.86277 41.1391 5.7241ZM50.3966 2.8601C51.9006 2.8601 53.3513 3.6601 54.7486 5.2601C55.1753 6.10277 55.3886 6.91877 55.3886 7.7081C55.3886 9.5641 54.4446 10.9294 52.5566 11.8041C51.9486 12.0708 51.2926 12.2041 50.5886 12.2041H50.1886C49.794 12.1934 49.5966 12.0281 49.5966 11.7081H49.5486C49.5486 11.4201 49.73 11.2708 50.0926 11.2601H50.4606V11.1641H50.4926C49.8313 8.35877 49.5006 6.27344 49.5006 4.9081H49.4526L49.0526 5.1641C48.7753 5.1641 48.61 4.97744 48.5566 4.6041C48.5566 4.01744 48.8873 3.50544 49.5486 3.0681C49.8153 2.92944 50.098 2.8601 50.3966 2.8601ZM50.5886 3.8041H50.4606V4.5721C50.4606 6.32144 50.7913 8.51877 51.4526 11.1641H51.5006C53.474 10.6308 54.4606 9.47877 54.4606 7.7081C54.4606 5.80944 53.3566 4.5401 51.1486 3.9001C51.0206 3.8361 50.834 3.8041 50.5886 3.8041ZM59.0089 6.0281C59.4782 6.0281 59.7129 6.21477 59.7129 6.5881L59.5689 6.8921L59.4729 9.8201C59.4729 11.1428 59.7396 11.9641 60.2729 12.2841L60.3049 12.5241C60.2729 12.8334 60.1289 12.9881 59.8729 12.9881H59.7769C58.9769 12.4441 58.5769 11.6121 58.5769 10.4921H58.4649C58.0382 11.6868 57.5209 12.2841 56.9129 12.2841C56.3476 12.1241 56.0649 11.7028 56.0649 11.0201C56.0649 9.5161 56.6676 8.01744 57.8729 6.5241C58.2782 6.19344 58.6569 6.0281 59.0089 6.0281ZM57.0729 10.3801L57.0089 10.8281V11.1321H57.1689C57.9689 9.13744 58.3689 7.92144 58.3689 7.4841H58.3049C57.6862 8.17744 57.2756 9.14277 57.0729 10.3801ZM61.2008 7.4041C61.5741 7.4041 61.8301 8.22544 61.9688 9.8681C62.1501 10.6254 62.2834 11.0041 62.3688 11.0041H62.4648C62.7314 10.3321 62.8648 9.66544 62.8648 9.0041L62.7688 7.9001C62.8861 7.6121 63.0514 7.4681 63.2648 7.4681C63.6594 7.4681 63.8568 8.16677 63.8568 9.5641C64.0914 11.0148 64.2088 12.3641 64.2088 13.6121V14.3641C64.2088 16.6574 63.5581 18.2041 62.2568 19.0041L61.9048 19.0681C61.2968 19.0681 60.7314 18.5028 60.2088 17.3721L60.0648 16.4121V16.3641C60.0648 15.6601 60.2621 15.3081 60.6568 15.3081L61.0568 15.5641L61.0088 16.5721C61.0088 17.0628 61.2594 17.5588 61.7608 18.0601H61.9688C62.5554 18.0601 62.9874 16.9401 63.2648 14.7001L63.2968 13.7721C63.2861 12.6948 63.2434 12.0068 63.1688 11.7081C62.7421 12.0814 62.4061 12.2681 62.1608 12.2681C61.6168 12.2681 61.1314 10.8121 60.7048 7.9001L60.6568 7.8681C60.6568 7.62277 60.8381 7.4681 61.2008 7.4041ZM72.9864 3.9001C73.7117 3.9001 74.1331 4.42277 74.2504 5.4681C74.2504 6.3321 74.0477 6.8761 73.6424 7.1001H73.5464C73.2371 7.07877 73.0824 6.96677 73.0824 6.7641L73.1464 5.5641V4.9721L73.0504 4.8601H72.8904C72.5491 4.8601 72.1491 5.80944 71.6904 7.7081L71.5944 8.9081V9.2601C71.5944 10.3694 72.0904 11.0201 73.0824 11.2121H73.7544C74.8637 11.2121 76.2077 10.4974 77.7864 9.0681H77.8504C78.1384 9.0681 78.3037 9.24944 78.3464 9.6121C78.1011 10.2521 77.8131 10.5721 77.4824 10.5721C75.9571 11.6601 74.5864 12.2041 73.3704 12.2041C72.1544 12.2041 71.2957 11.5374 70.7944 10.2041L70.6504 9.0681V8.8601C70.6504 7.20677 71.1144 5.68677 72.0424 4.3001C72.3411 4.03344 72.6557 3.9001 72.9864 3.9001ZM81.9464 6.0281C82.4157 6.0281 82.6504 6.21477 82.6504 6.5881L82.5064 6.8921L82.4104 9.8201C82.4104 11.1428 82.6771 11.9641 83.2104 12.2841L83.2424 12.5241C83.2104 12.8334 83.0664 12.9881 82.8104 12.9881H82.7144C81.9144 12.4441 81.5144 11.6121 81.5144 10.4921H81.4024C80.9757 11.6868 80.4584 12.2841 79.8504 12.2841C79.2851 12.1241 79.0024 11.7028 79.0024 11.0201C79.0024 9.5161 79.6051 8.01744 80.8104 6.5241C81.2157 6.19344 81.5944 6.0281 81.9464 6.0281ZM80.0104 10.3801L79.9464 10.8281V11.1321H80.1064C80.9064 9.13744 81.3064 7.92144 81.3064 7.4841H81.2424C80.6237 8.17744 80.2131 9.14277 80.0104 10.3801ZM84.4423 3.7401H84.5383C84.6769 3.7401 84.8103 3.85744 84.9383 4.0921L84.8743 5.1801V5.7881L84.9383 8.5881L84.9863 8.7481H85.0343C85.4929 8.32144 85.8929 7.56944 86.2343 6.4921L86.5863 6.3801C86.8849 6.42277 87.0343 6.5561 87.0343 6.7801C87.0343 7.47344 86.5383 8.40677 85.5463 9.5801V9.6921C86.8583 11.2174 87.7223 11.9801 88.1383 11.9801H88.2343L88.6343 11.7401H88.7783C89.0023 11.7401 89.1676 11.8894 89.2743 12.1881C89.2743 12.5294 88.8956 12.7641 88.1383 12.8921C87.3809 12.8921 86.3943 12.1241 85.1783 10.5881H85.0343L85.0823 11.4521V12.2841C85.0183 12.6148 84.8529 12.7801 84.5863 12.7801C84.2876 12.7161 84.1383 12.5508 84.1383 12.2841V12.1881L84.0743 10.3481C83.9569 10.3481 83.8769 10.1828 83.8343 9.8521L84.0423 9.4521L83.9463 5.8521V5.1481C83.9463 4.20944 84.1116 3.7401 84.4423 3.7401ZM91.1444 6.4601C91.5711 6.47077 92.2911 7.21744 93.3044 8.7001L93.3364 8.9721C93.3364 9.27077 92.6057 9.5001 91.1444 9.6601L91.0964 9.7081V9.7721C91.3204 10.7321 91.5551 11.2121 91.8004 11.2121H91.9924C92.3337 11.2121 92.8511 10.8441 93.5444 10.1081H93.6404C93.8537 10.1081 94.0191 10.2628 94.1364 10.5721C94.1364 10.8281 93.6884 11.2708 92.7924 11.9001C92.5577 12.0388 92.2751 12.1401 91.9444 12.2041C91.0804 12.2041 90.4777 11.3934 90.1364 9.7721C89.6457 9.69744 89.4004 9.49477 89.4004 9.1641C89.4004 8.92944 89.5817 8.77477 89.9444 8.7001V8.7641L90.1044 8.7001V8.3001C90.1044 7.07344 90.4511 6.4601 91.1444 6.4601ZM91.2404 7.6121H91.0964L91.0324 8.2041V8.7001H91.0964C91.6937 8.67877 91.9924 8.61477 91.9924 8.5081C91.7151 8.0921 91.4644 7.79344 91.2404 7.6121ZM101.503 2.7321C101.833 2.7321 102.047 3.1321 102.143 3.9321V4.0281C102.143 4.39077 101.972 4.5721 101.631 4.5721C101.3 4.5721 101.135 4.22544 101.135 3.5321C101.06 3.5321 101.012 3.40944 100.991 3.1641C101.097 2.8761 101.268 2.7321 101.503 2.7321ZM105.767 3.5641C106.589 3.5641 107.069 4.14544 107.207 5.3081C107.207 6.38544 106.365 8.47077 104.679 11.5641V11.6601C105.117 11.6601 106.05 11.2761 107.479 10.5081H107.511C107.725 10.5081 107.89 10.6628 108.007 10.9721C108.007 11.5161 106.541 12.1828 103.607 12.9721C103.437 12.9721 103.293 12.8174 103.175 12.5081C103.591 11.5588 104.402 9.95877 105.607 7.7081C106.013 6.6201 106.215 5.8841 106.215 5.5001V5.0041C106.215 4.79077 106.103 4.62544 105.879 4.5081H105.671C105.255 4.5081 104.855 5.00944 104.471 6.0121L104.519 6.2041C104.519 6.40677 104.37 6.5721 104.071 6.7001C103.677 6.62544 103.479 6.4281 103.479 6.1081C103.479 5.5001 103.943 4.75344 104.871 3.8681C105.138 3.66544 105.437 3.5641 105.767 3.5641ZM110.365 3.0041C110.696 2.44944 111.027 2.1721 111.357 2.1721C111.699 2.1721 111.933 2.36944 112.061 2.7641L112.029 2.9721V3.0041C113.384 3.87877 114.061 5.51077 114.061 7.9001C114.061 10.2894 113.363 11.8788 111.965 12.6681L111.421 12.7641C110.323 12.7641 109.571 12.1294 109.165 10.8601C109.027 10.2948 108.957 9.74544 108.957 9.2121V9.0041C108.957 7.89477 109.224 6.3641 109.757 4.4121C109.501 4.4121 109.336 4.23077 109.261 3.8681C109.261 3.66544 109.629 3.37744 110.365 3.0041ZM109.917 8.9081V9.3081C109.917 10.9721 110.387 11.8041 111.325 11.8041H111.357C112.232 11.8041 112.803 10.7588 113.069 8.6681L113.117 7.7081C113.043 5.58544 112.547 4.3161 111.629 3.9001L111.325 3.8681H111.069C110.813 4.1241 110.509 5.02544 110.157 6.5721C109.997 7.42544 109.917 8.2041 109.917 8.9081Z" fill="black"/>
</svg>
