<svg width="158" height="157" viewBox="0 0 158 157" fill="none" xmlns="http://www.w3.org/2000/svg">
<path d="M60.2049 80.6999C62.5522 85.7394 68.3917 82.8804 66.8811 78.2259C63.6826 78.8075 61.3376 80.0138 60.2049 80.6999Z" fill="#1F4172"/>
<path d="M89.8793 72.1308C91.3531 78.3344 98.5737 76.4703 97.951 70.8924C94.2233 70.8074 91.3103 71.6214 89.8793 72.1308Z" fill="#1F4172"/>
<path d="M48.9455 73.092C53.8454 89.7168 57.1703 97.7669 60.3202 102.842C63.4702 107.916 72.22 124.366 77.1198 129.441C82.0197 134.516 91.8195 138.541 98.2944 137.316C104.769 136.091 114.744 126.816 120.169 119.816" stroke="#1F4172" stroke-width="3.26493" stroke-linecap="round" stroke-linejoin="round"/>
<path d="M65.452 47.2827C55.9411 48.6634 48.1175 57.1007 48.4243 69.066" stroke="#1F4172" stroke-width="3.26493" stroke-linecap="round" stroke-linejoin="round"/>
<path d="M84.9141 8.69246C73.0003 6.42329 56.3588 12.8531 46.5252 34.6004C36.6917 56.3477 40.0956 70.9091 40.4738 76.3932C40.852 81.8774 38.9609 86.605 38.7718 91.5218C38.5827 96.4386 40.4738 101.545 40.4738 104.759" stroke="#1F4172" stroke-width="3.26493" stroke-linecap="round" stroke-linejoin="round"/>
<path d="M89.0745 8.50326C101.177 6.0449 118.954 15.6893 127.085 33.2763C135.217 50.8634 142.214 62.9663 141.268 67.1266C143.538 70.4549 143.096 76.8342 142.592 79.6078C144.483 82.0661 147.731 88.3907 148.454 93.7908C149.431 101.081 148.265 109.865 145.429 113.836" stroke="#1F4172" stroke-width="3.26493" stroke-linecap="round" stroke-linejoin="round"/>
<path d="M69.4505 44.744C70.3539 40.528 75.3227 40.9794 78.6353 46.2495C81.9479 51.5196 89.1753 64.6192 105.738 71.2443" stroke="#1F4172" stroke-width="3.26493" stroke-linecap="round" stroke-linejoin="round"/>
<path d="M79.6895 39.1724C89.326 47.3033 96.1017 61.005 102.275 64.3177" stroke="#1F4172" stroke-width="3.26493" stroke-linecap="round" stroke-linejoin="round"/>
<path d="M84.8088 35.2578C96.4028 50.1642 110.255 51.2179 120.946 59.9512C131.636 68.6844 135.702 82.3864 136.455 93.378C137.208 104.37 134.347 112.802 133.293 115.663" stroke="#1F4172" stroke-width="3.26493" stroke-linecap="round" stroke-linejoin="round"/>
<path d="M118.466 58.3474C117.556 67.9683 119.116 75.5087 123.276 81.6193C127.437 87.7299 131.597 99.8208 126.396 115.682" stroke="#1F4172" stroke-width="3.26493" stroke-linecap="round" stroke-linejoin="round"/>
<path d="M56.4253 83.2364C60.9339 78.6377 63.7293 77.1045 72.2957 78.9982" stroke="#1F4172" stroke-width="3.26493" stroke-linecap="round" stroke-linejoin="round"/>
<path d="M84.9141 76.4743C89.1522 70.8837 95.1938 67.4573 103.941 71.4248" stroke="#1F4172" stroke-width="3.26493" stroke-linecap="round" stroke-linejoin="round"/>
<path d="M66.8621 74.177C62.8794 74.177 56.5776 75.0704 53.9198 75.8399" stroke="#1F4172" stroke-width="3.26493" stroke-linecap="round" stroke-linejoin="round"/>
<path d="M82.5291 72.1496C84.8372 69.0022 87.9146 66.624 89.4534 65.9946" stroke="#1F4172" stroke-width="3.26493" stroke-linecap="round" stroke-linejoin="round"/>
<path d="M74.9372 86.2585C75.0315 91.1603 74.3617 98.8598 75.3985 101.088C76.7358 103.962 80.2536 104.365 82.4215 103.206C84.5894 102.047 85.1738 100.498 87.2474 99.161" stroke="#1F4172" stroke-width="3.26493" stroke-linecap="round" stroke-linejoin="round"/>
<path d="M79.3373 110.254C85.7236 110.254 89.109 109.716 93.3408 107.946C97.5726 106.176 101.42 104.868 103.805 104.33C104.036 110.254 103.497 109.792 97.4188 113.716C91.3403 117.641 85.9544 116.256 83.6461 115.948C81.7995 115.702 80.5684 114.358 80.1837 113.716" stroke="#1F4172" stroke-width="3.26493" stroke-linecap="round" stroke-linejoin="round"/>
<path d="M95.9858 129.84L97.9804 136.226" stroke="#1F4172" stroke-width="3.26493" stroke-linecap="round" stroke-linejoin="round"/>
<path d="M90.9176 130.318L91.4148 136.568" stroke="#1F4172" stroke-width="3.26493" stroke-linecap="round" stroke-linejoin="round"/>
<path d="M85.202 128.299L84.3126 133.656" stroke="#1F4172" stroke-width="3.26493" stroke-linecap="round" stroke-linejoin="round"/>
<path d="M78.8164 124.804V130.033" stroke="#1F4172" stroke-width="3.26493" stroke-linecap="round" stroke-linejoin="round"/>
<path d="M100.22 128.299L103.927 134.092" stroke="#1F4172" stroke-width="3.26493" stroke-linecap="round" stroke-linejoin="round"/>
<path d="M105.151 125.215L109.208 130.07" stroke="#1F4172" stroke-width="3.26493" stroke-linecap="round" stroke-linejoin="round"/>
<path d="M111.804 119.704L114.875 124.928" stroke="#1F4172" stroke-width="3.26493" stroke-linecap="round" stroke-linejoin="round"/>
<path d="M94.3049 100.362C102.641 98.6568 107.187 97.8991 108.703 101.972C109.915 105.231 114.765 114.128 117.038 118.17" stroke="#1F4172" stroke-width="3.26493" stroke-linecap="round" stroke-linejoin="round"/>
<path d="M75.5497 106.424C73.2763 107.466 72.3291 109.739 73.2763 114.38C74.0341 118.094 74.1604 122.558 74.1288 124.326" stroke="#1F4172" stroke-width="3.26493" stroke-linecap="round" stroke-linejoin="round"/>
<path d="M5.19581 148.619C3.94726 141.015 3.37973 133.864 3.72025 131.367C4.06077 128.87 8.60093 112.525 11.2115 108.439C13.3 105.17 17.6812 105.639 19.6108 106.282C20.1027 105.034 22.1079 102.469 26.194 102.196C31.3017 101.856 38.9065 107.191 42.6521 109.007C46.3977 110.823 51.2784 115.136 51.7324 117.292C52.1864 119.449 51.1649 121.379 48.3273 121.719C46.0572 121.992 43.598 121.076 42.6521 120.584C42.1981 121.492 40.6998 123.285 38.339 123.195C35.9781 123.104 28.502 120.054 25.059 118.541C23.8861 119.336 21.0183 121.084 18.9298 121.719C18.4758 124.988 17.4542 128.529 17.0002 129.891" stroke="#1F4172" stroke-width="3.26493" stroke-linecap="round" stroke-linejoin="round"/>
<path d="M19.9514 106.282C25.7401 106.963 33.0043 110.822 35.5014 111.843C37.4991 112.661 39.1335 114.151 39.701 114.795" stroke="#1F4172" stroke-width="3.26493" stroke-linecap="round" stroke-linejoin="round"/>
<path d="M52.1241 148.935C56.4651 141.255 62.0583 135.912 62.6426 131.572C63.227 127.231 60.6391 125.394 58.886 121.888C57.4836 119.083 55.5747 118.103 54.7955 117.964" stroke="#1F4172" stroke-width="3.26493" stroke-linecap="round" stroke-linejoin="round"/>
<path d="M49.2858 125.227C48.6847 127.03 49.0353 128.872 49.2858 129.568C48.2562 132.017 45.5292 137.081 42.8578 137.749C39.5186 138.584 37.0977 136.497 34.3428 133.909C32.139 131.839 31.5323 130.709 31.5045 130.403C31.7828 129.346 32.3894 126.93 32.5898 125.728" stroke="#1F4172" stroke-width="3.26493" stroke-linecap="round" stroke-linejoin="round"/>
<path d="M148.839 104.121C151.202 103.942 152.953 103.397 154.407 102.875M154.407 121.391C148.839 124.572 134.637 135.366 131.342 145.933" stroke="#1F4172" stroke-width="3.26493" stroke-linecap="round" stroke-linejoin="round"/>
<path d="M63.8411 146.779C70.5382 141.963 77.5425 138.689 80.2076 137.655" stroke="#1F4172" stroke-width="3.26493" stroke-linecap="round" stroke-linejoin="round"/>
<path d="M106.638 138.502C111.906 141.794 117.267 146.403 122.535 141.794C127.802 137.185 133.163 131.259 136.55 129.472" stroke="#1F4172" stroke-width="3.26493" stroke-linecap="round" stroke-linejoin="round"/>
<path d="M88.2027 139.724C92.3413 142.283 96.0724 146.496 97.4206 148.284" stroke="#1F4172" stroke-width="3.26493" stroke-linecap="round" stroke-linejoin="round"/>
<path d="M48.0729 43.5484C55.0623 32.3916 64.2023 30.5102 70.2509 31.4511" stroke="#1F4172" stroke-width="3.26493" stroke-linecap="round" stroke-linejoin="round"/>
<path d="M74.0143 26.0748C83.1543 22.4456 99.8214 25.5372 109.768 35.0804C119.714 44.6236 123.344 54.1668 132.752 64.1133" stroke="#1F4172" stroke-width="3.26493" stroke-linecap="round" stroke-linejoin="round"/>
<path d="M76.5682 18.9501C86.5147 12.7676 96.9989 16.6653 102.779 20.0255" stroke="#1F4172" stroke-width="3.26493" stroke-linecap="round" stroke-linejoin="round"/>
<path d="M76.7728 18.9486C73.2428 16.3727 67.4231 17.7083 65.515 18.9486" stroke="#1F4172" stroke-width="3.26493" stroke-linecap="round" stroke-linejoin="round"/>
<path d="M48.7614 87.1753C47.691 92.3488 48.3154 98.5929 49.8317 105.639" stroke="#1F4172" stroke-width="3.26493" stroke-linecap="round" stroke-linejoin="round"/>
<path d="M49.2402 129.566C50.6069 131.951 53.7188 132.834 56.1249 132.097" stroke="#1F4172" stroke-width="3.26493" stroke-linecap="round" stroke-linejoin="round"/>
</svg>
