<svg width="500" height="730" viewBox="0 0 500 730" fill="none" xmlns="http://www.w3.org/2000/svg">
<path d="M295.377 228.873L295.387 228.874L295.396 228.876C301.554 229.806 307.196 232.7 311.422 237.087C315.645 241.471 318.212 247.092 318.72 253.052C319.115 259.767 316.806 266.387 312.263 271.53C307.716 276.677 301.282 279.947 294.3 280.646C287.319 281.344 280.342 279.416 274.828 275.273C269.314 271.132 265.689 265.098 264.697 258.437L264.601 257.793L263.973 257.62C254.382 254.983 244.155 255.395 234.803 258.795L234.206 259.012L234.149 259.645C233.56 266.209 230.401 272.328 225.303 276.756C220.203 281.185 213.547 283.588 206.686 283.469C199.825 283.349 193.285 280.716 188.392 276.115C183.501 271.515 180.622 265.294 180.329 258.716C180.036 252.138 182.351 245.684 186.815 240.664C191.279 235.643 197.56 232.435 204.383 231.701C211.206 230.968 218.049 232.765 223.522 236.72C228.993 240.674 232.682 246.485 233.852 252.97L234.052 254.081L235.131 253.748C244.207 250.946 253.9 250.609 263.143 252.774L264.268 253.038L264.367 251.887C264.672 248.361 265.737 244.931 267.497 241.817C269.257 238.703 271.673 235.972 274.592 233.803C277.511 231.633 280.869 230.072 284.449 229.223C288.03 228.373 291.752 228.254 295.377 228.873ZM211.192 278.578L211.206 278.576L211.219 278.573C216.589 277.588 221.418 274.75 224.798 270.582C228.179 266.413 229.878 261.197 229.568 255.911L229.567 255.889L229.564 255.866C228.977 250.22 226.203 245.011 221.806 241.275C217.411 237.54 211.717 235.551 205.863 235.694C201.415 235.786 197.097 237.198 193.497 239.741C189.895 242.284 187.185 245.838 185.741 249.922L185.738 249.93L185.735 249.939C184.528 253.556 184.301 257.409 185.077 261.13C185.852 264.85 187.604 268.31 190.161 271.18C192.718 274.05 195.995 276.234 199.676 277.528C203.356 278.822 207.321 279.183 211.192 278.578ZM295.613 275.881L295.626 275.879L295.64 275.876C300.994 274.883 305.806 272.048 309.177 267.89C312.548 263.731 314.247 258.532 313.947 253.259L313.946 253.236L313.943 253.213C313.358 247.567 310.585 242.357 306.19 238.619C301.796 234.883 296.103 232.891 290.249 233.033C285.801 233.125 281.483 234.537 277.882 237.08C274.281 239.623 271.57 243.177 270.127 247.261L270.123 247.27L270.12 247.279C268.919 250.897 268.698 254.749 269.479 258.468C270.261 262.186 272.017 265.643 274.578 268.509C277.138 271.375 280.416 273.555 284.098 274.844C287.779 276.133 291.743 276.489 295.613 275.881Z" fill="#CD899E" stroke="black" stroke-width="2"/>
</svg>
