<svg width="500" height="730" viewBox="0 0 500 730" fill="none" xmlns="http://www.w3.org/2000/svg">
<g clip-path="url(#clip0_484_80)">
<path d="M286.345 201.204C286.357 201.288 289.192 201.718 290.176 201.983C290.466 202.062 290.752 202.131 291.026 202.249C291.079 202.272 291.32 202.24 291.294 202.398C291.233 202.772 290.683 203.507 290.497 203.789C289.622 205.108 288.722 206.386 287.812 207.637C287.545 208.004 287.288 208.386 287.011 208.726C286.985 208.759 286.779 208.977 286.782 209.027C286.794 209.247 287.139 209.281 287.25 209.329C287.707 209.526 288.197 209.658 288.612 209.948C288.831 210.099 289.225 210.23 288.758 210.845C287.787 212.121 286.699 213.853 285.474 215.156C283.359 217.403 279.635 221.643 279.461 221.175C279.272 220.667 282.41 215.653 282.939 214.678C283.094 214.391 283.458 213.77 283.486 213.445C283.518 213.075 282.782 212.976 282.635 212.913C282.037 212.655 281.469 212.286 280.913 211.936C280.759 211.839 280.419 211.815 280.358 211.564C280.318 211.397 280.515 211.041 280.607 210.87C280.974 210.192 281.351 209.541 281.741 208.891C282.517 207.594 283.213 206.154 284.008 204.897C284.739 203.736 286.069 201.582 286.345 201.204Z" fill="#102067" fill-opacity="0.5"/>
</g>
<defs>
<clipPath id="clip0_484_80">
<rect width="12.2109" height="24.2415" fill="white" transform="translate(283.582 198) rotate(23.2824)"/>
</clipPath>
</defs>
</svg>
