<svg width="63" height="14" viewBox="0 0 63 14" fill="none" xmlns="http://www.w3.org/2000/svg">
<path d="M2.58762 4.43073L2.64353 4.42752C3.78277 4.56786 4.37777 5.08064 4.42853 5.96586L4.44296 6.21744C4.49906 7.19583 3.93059 8.20537 2.73754 9.24604L2.74075 9.30195C4.86642 10.9937 6.31595 11.8174 7.08935 11.773C7.235 11.8675 7.3121 11.9893 7.32065 12.1384C7.33293 12.3527 7.18228 12.4969 6.86867 12.571C6.09527 12.6153 4.59755 11.7664 2.37549 10.024L1.75604 9.73704L1.71411 9.73944C2.03486 10.7681 2.21153 11.5666 2.24413 12.135C2.25802 12.3773 2.11881 12.5582 1.82652 12.6778C1.39789 12.7024 1.06755 11.6696 0.835513 9.57948C0.481766 8.6275 0.288328 7.86266 0.2552 7.28494L0.247987 7.15914C0.199363 6.3112 0.361412 5.87655 0.734133 5.85517L1.00771 5.97972L1.09157 5.97491C1.48327 4.98019 1.98195 4.46546 2.58762 4.43073ZM1.66948 8.22752L1.65721 8.74707C2.52378 8.69738 3.18149 7.93982 3.63033 6.47439L3.60068 5.95723C3.57717 5.54724 3.28347 5.31634 2.71958 5.26454L2.63571 5.26935C2.04868 5.30301 1.7266 6.28907 1.66948 8.22752ZM8.88531 7.01443C9.25856 7.00237 9.92493 7.61857 10.8844 8.86301L10.926 9.09902C10.941 9.35992 10.3142 9.59686 9.0456 9.80984L9.00608 9.85417L9.00928 9.91008C9.25305 10.7375 9.48209 11.145 9.69641 11.1327L9.86413 11.1231C10.1623 11.106 10.5958 10.7586 11.1646 10.081L11.2485 10.0762C11.4348 10.0655 11.587 10.1923 11.705 10.4566C11.7178 10.6803 11.3486 11.0894 10.5974 11.6841C10.3994 11.817 10.1575 11.9196 9.87189 11.9921C9.11713 12.0354 8.55005 11.3574 8.17066 9.95817C7.73829 9.91752 7.51382 9.75277 7.49726 9.46391C7.4855 9.25891 7.63616 9.11472 7.94924 9.03133L7.95244 9.08723L8.08901 9.02331L8.06897 8.67388C8.00752 7.60231 8.27963 7.04916 8.88531 7.01443ZM9.02687 8.01597L8.90108 8.02318L8.87483 8.54354L8.89967 8.97682L8.95558 8.97362C9.47632 8.92506 9.73402 8.85419 9.72868 8.76101C9.46557 8.4115 9.23164 8.16315 9.02687 8.01597ZM15.1685 3.98976C15.3269 3.98068 15.4799 4.12148 15.6274 4.41218L15.2352 8.33306L15.2977 9.42327C15.3629 10.5601 15.5726 11.1183 15.9267 11.098C16.166 11.1965 16.291 11.3389 16.3017 11.5252C16.314 11.7396 16.1349 11.876 15.7643 11.9347C15.3543 11.9582 15.0112 11.5992 14.7349 10.8578L14.5952 10.8659C14.2937 11.6404 13.896 12.0418 13.4022 12.0701C12.8244 12.1033 12.4499 11.6854 12.2785 10.8164C12.2203 9.80074 12.8388 8.6855 14.1341 7.47069C14.4043 7.4552 14.5177 7.07007 14.4745 6.31531C14.5924 4.78471 14.8237 4.00953 15.1685 3.98976ZM13.0968 10.6573L13.1184 11.0347L13.3549 11.2455L13.4387 11.2407C13.7369 11.2236 14.0348 10.3044 14.3323 8.483L14.2485 8.48781C13.4491 9.38437 13.0653 10.1075 13.0968 10.6573ZM22.9433 3.05312C24.2572 2.97778 25.5645 3.60397 26.8653 4.93167C27.2802 5.64642 27.5075 6.34857 27.547 7.0381C27.64 8.65944 26.8837 9.89943 25.2782 10.7581C24.7605 11.0215 24.1941 11.1708 23.5791 11.2061L23.2297 11.2261C22.8844 11.2366 22.7037 11.102 22.6877 10.8225L22.6458 10.8249C22.6313 10.5733 22.7823 10.4338 23.0985 10.4063L23.42 10.3879L23.4152 10.304L23.4431 10.3024C22.7249 7.88488 22.3316 6.07977 22.2632 4.88707L22.2213 4.88947L21.8847 5.13314C21.6424 5.14703 21.4886 4.99225 21.4233 4.66879C21.3939 4.1563 21.6571 3.69247 22.213 3.2773C22.439 3.14281 22.6824 3.06808 22.9433 3.05312ZM23.1583 3.86815L23.0465 3.87456L23.085 4.54546C23.1726 6.07362 23.5715 7.97657 24.2818 10.2543L24.3237 10.2519C26.0208 9.68715 26.825 8.63138 26.7363 7.08459C26.6412 5.42598 25.6132 4.37244 23.6523 3.92396C23.5373 3.87446 23.3726 3.85586 23.1583 3.86815ZM28.0712 3.64252C28.4295 3.69676 28.6157 3.84502 28.6296 4.08729C28.5513 4.35353 28.4097 4.49254 28.2047 4.50429C27.8562 4.45883 27.674 4.29634 27.6579 4.0168C27.7378 3.7785 27.8755 3.65374 28.0712 3.64252ZM28.7145 5.56885C28.8636 5.5603 28.9972 5.6882 29.1151 5.95255L29.0463 6.95213L29.0839 7.60905C29.1277 8.37313 29.3156 9.36734 29.6476 10.5917C29.5646 10.7741 29.4112 10.8717 29.1876 10.8845C28.8056 10.9064 28.4899 9.80266 28.2405 7.57328L28.2124 7.08408C28.1558 6.09637 28.3232 5.59129 28.7145 5.56885ZM31.9113 5.20324C32.4983 5.16958 32.8713 5.55953 33.0301 6.37311L33.0373 6.4989C33.0891 7.40275 32.6708 8.25877 31.7823 9.06696C32.3532 9.5671 33.3142 9.77843 34.6653 9.70095C34.874 9.75442 34.9848 9.89298 34.9976 10.1166C35.0121 10.3682 34.8562 10.5033 34.5301 10.522C33.6169 10.5744 32.6438 10.3965 31.6107 9.9883L31.634 10.3936C31.689 11.3534 31.5115 11.845 31.1015 11.8685C30.8127 11.8851 30.6365 11.339 30.5729 10.2301L30.5104 9.1399L30.446 8.75095L30.5182 8.29807L30.3434 6.96189L30.3402 6.90598C30.3258 6.65439 30.4463 6.47453 30.7019 6.36639C31.0236 5.61874 31.4267 5.23103 31.9113 5.20324ZM31.388 8.30429C31.6582 8.28879 31.9332 7.78689 32.2131 6.79858L32.1786 6.19756L32.0005 6.02548L31.8747 6.03269C31.4807 6.33575 31.3185 7.09294 31.388 8.30429ZM36.6498 1.94462C36.9139 1.98557 37.0518 2.10854 37.0636 2.31354L37.015 2.93334L37.0254 3.11504C37.0489 3.52503 37.1204 3.95565 37.2397 4.40689L37.2677 4.40528C38.3299 4.01717 38.9914 3.81563 39.2523 3.80067C39.5268 3.85972 39.6697 3.98709 39.6809 4.18276C39.6991 4.49958 39.3867 4.67642 38.7437 4.71329L37.3198 5.31379C37.3919 6.57172 37.6251 8.27383 38.0192 10.4201C37.9778 10.6749 37.8499 10.8085 37.6356 10.8207L37.6076 10.8223C37.2815 10.841 37.0944 10.4311 37.0463 9.59247C36.8893 8.9751 36.7091 7.62521 36.5055 5.54278L36.254 5.55721C35.3749 5.55153 34.9252 5.37164 34.9048 5.01756C34.899 4.91506 34.9896 4.78366 35.1767 4.62335L35.3165 4.61533L35.9691 4.74619L36.4163 4.72054L36.1903 2.98062C36.1519 2.30972 36.305 1.96439 36.6498 1.94462ZM51.1473 1.32364C51.4361 1.30707 51.6425 1.64581 51.7665 2.33985L51.7713 2.42372C51.7894 2.74053 51.6494 2.90748 51.3512 2.92458C51.0624 2.94115 50.9006 2.64659 50.8659 2.04092C50.8006 2.04466 50.7526 1.93991 50.7216 1.72666C50.8004 1.46973 50.9423 1.33539 51.1473 1.32364ZM54.9146 1.8368C55.6321 1.79566 56.0805 2.27945 56.2599 3.28816C56.3138 4.22928 55.6822 6.09317 54.3649 8.87982L54.3697 8.96368C54.7517 8.94178 55.5478 8.55957 56.758 7.81708L56.7859 7.81547C56.9723 7.80479 57.1245 7.93162 57.2425 8.19596C57.2697 8.67118 56.0219 9.32703 53.499 10.1635C53.3499 10.172 53.2163 10.0442 53.0983 9.77981C53.4142 8.92966 54.0422 7.49135 54.9824 5.46487C55.282 4.49413 55.4222 3.84103 55.4029 3.50558L55.3781 3.07229C55.3674 2.88593 55.2613 2.74711 55.0597 2.65584L54.878 2.66625C54.5146 2.68709 54.1903 3.14508 53.9051 4.04021L53.9566 4.20553C53.9668 4.38257 53.8446 4.53448 53.5901 4.66126C53.2416 4.6158 53.0593 4.4533 53.0433 4.17376C53.0128 3.64264 53.3808 2.96713 54.1471 2.14725C54.3699 1.95685 54.6257 1.85336 54.9146 1.8368ZM58.9032 1.11728C59.1643 0.616175 59.4392 0.357342 59.7281 0.340778C60.0263 0.32368 60.2411 0.484308 60.3727 0.822663L60.3552 1.00597L60.3568 1.03392C61.584 1.73014 62.2574 3.12187 62.3771 5.20911C62.4968 7.29634 61.9661 8.71973 60.785 9.47926L60.3146 9.59037C59.3548 9.64541 58.6661 9.12866 58.2484 8.04011C58.099 7.55321 58.0109 7.0768 57.9842 6.6109L57.9738 6.4292C57.9182 5.46012 58.0745 4.10963 58.4426 2.37771C58.219 2.39054 58.0654 2.24041 57.982 1.92734C57.9719 1.7503 58.2789 1.48028 58.9032 1.11728ZM58.8076 6.29725L58.8276 6.64667C58.911 8.10028 59.3626 8.80358 60.1826 8.75656L60.2106 8.75496C60.9747 8.71114 61.4208 7.76939 61.549 5.9297L61.5429 5.08867C61.3713 3.23812 60.8744 2.15412 60.0523 1.83667L59.7851 1.82395L59.5615 1.83677C59.3506 2.07323 59.1302 2.87583 58.9002 4.24458C58.8032 4.99803 58.7723 5.68226 58.8076 6.29725Z" fill="black"/>
</svg>
