<svg width="438" height="500" viewBox="0 0 438 500" fill="none" xmlns="http://www.w3.org/2000/svg">
<g clip-path="url(#clip0_365_8)">
<g clip-path="url(#clip1_365_8)">
<path d="M236.95 235.85C236.943 290.309 218.095 343.089 183.604 385.234C149.112 427.379 101.102 456.293 47.72 467.07L48.27 500L1.09995 471.7L-0.115023 398.7C38.9085 398.693 76.6321 384.674 106.188 359.193C135.744 333.712 155.168 298.465 160.922 259.868C166.677 221.271 158.379 181.891 137.541 148.897C116.703 115.903 84.7095 91.4893 47.385 80.1L47.03 101.34L-0.115023 73L1.09995 1.75238e-05C63.6513 1.75238e-05 123.641 24.8484 167.871 69.0789C212.102 113.309 236.95 173.299 236.95 235.85Z" fill="#234271"/>
<path d="M48.2701 28.3C110.821 28.3 170.811 53.1484 215.041 97.3789C259.272 141.609 284.12 201.599 284.12 264.15C284.12 326.701 259.272 386.691 215.041 430.921C170.811 475.152 110.821 500 48.2701 500L47.0551 427C90.0847 426.762 131.271 409.501 161.613 378.99C191.956 348.479 208.988 307.198 208.988 264.167C208.988 221.137 191.956 179.856 161.613 149.345C131.271 118.834 90.0847 101.573 47.0551 101.335L48.2701 28.3Z" fill="#C5C5FF"/>
</g>
</g>
<defs>
<clipPath id="clip0_365_8">
<rect width="437.5" height="500" fill="white"/>
</clipPath>
<clipPath id="clip1_365_8">
<rect width="500" height="500" fill="white" transform="matrix(0 -1 -1 0 392 500)"/>
</clipPath>
</defs>
</svg>
