<svg width="438" height="500" viewBox="0 0 438 500" fill="none" xmlns="http://www.w3.org/2000/svg">
<g clip-path="url(#clip0_365_7)">
<g clip-path="url(#clip1_365_7)">
<path d="M200.05 235.85C200.057 290.309 218.905 343.089 253.396 385.234C287.888 427.379 335.898 456.293 389.28 467.07L388.73 500L435.9 471.7L437.115 398.7C398.092 398.693 360.368 384.674 330.812 359.193C301.256 333.712 281.832 298.465 276.078 259.868C270.323 221.271 278.621 181.891 299.459 148.897C320.297 115.903 352.291 91.4893 389.615 80.1L389.97 101.34L437.115 73L435.9 1.75238e-05C373.349 1.75238e-05 313.359 24.8484 269.129 69.0789C224.898 113.309 200.05 173.299 200.05 235.85Z" fill="#A6437C"/>
<path d="M388.73 28.3C326.179 28.3 266.189 53.1484 221.959 97.3789C177.728 141.609 152.88 201.599 152.88 264.15C152.88 326.701 177.728 386.691 221.959 430.921C266.189 475.152 326.179 500 388.73 500L389.945 427C346.915 426.762 305.729 409.501 275.387 378.99C245.044 348.479 228.012 307.198 228.012 264.167C228.012 221.137 245.044 179.856 275.387 149.345C305.729 118.834 346.915 101.573 389.945 101.335L388.73 28.3Z" fill="#CF889C"/>
</g>
</g>
<defs>
<clipPath id="clip0_365_7">
<rect width="437.5" height="500" fill="white"/>
</clipPath>
<clipPath id="clip1_365_7">
<rect width="500" height="500" fill="white" transform="matrix(0 -1 1 0 45 500)"/>
</clipPath>
</defs>
</svg>
