<svg width="500" height="730" viewBox="0 0 500 730" fill="none" xmlns="http://www.w3.org/2000/svg">
<g clip-path="url(#clip0_525_317)">
<path d="M87.5638 -7.70745C99.2017 11.9568 109.494 32.9066 110.939 54.6928C112.31 75.3681 104.108 94.9216 86.6794 110.757C70.7849 125.199 49.8484 135.915 28.1038 144.509C3.52125 154.225 -23.0185 161.293 -50.4263 164.374C-64.3301 165.937 -78.459 166.431 -92.4843 165.716C-99.0726 165.38 -106.026 165.071 -112.167 163.059C-118.585 160.957 -125.071 155.114 -120.754 149.613C-113.263 140.068 -85.7594 154.581 -86.4137 163.294C-87.3127 175.265 -106.179 177.762 -118.267 179.056C-173.056 184.923 -228.895 195.715 -278.967 214.112C-299.535 221.669 -319.766 232.378 -329.358 248.842C-337.424 262.688 -337.722 279.784 -324.449 291.826C-308.738 306.08 -281.854 309.787 -258.769 309.025C-230.983 308.108 -204.099 301.765 -176.603 299.095C-119.753 293.573 -61.181 298.911 -6.44701 311.472C18.8126 317.268 44.9567 325.968 60.12 343.391C75.435 360.988 74.3016 382.23 55.3432 397.904C36.7485 413.277 9.2703 418.859 -16.2877 423.944C-39.7453 428.61 -63.5417 432.889 -85.6856 440.628C-104.991 447.374 -127.452 457.884 -135.59 473.778C-143.535 489.296 -129.94 503.8 -111.386 509.728C-99.8969 513.4 -87.3694 514.29 -75.0963 515.15C-72.5914 515.326 -72.607 512.325 -75.0963 512.15C-89.875 511.114 -105.827 510.056 -118.449 503.444C-129.921 497.436 -137.075 487.369 -132.813 476.704C-128.568 466.082 -116.289 458.078 -104.686 452.102C-93.8088 446.5 -81.8565 442.248 -69.5759 438.806C-44.4825 431.772 -18.1236 428.125 7.32979 422.024C30.7341 416.414 54.389 407.508 67.2472 390.685C79.1766 375.078 76.3217 356.614 63.4962 341.877C49.2445 325.501 25.733 316.348 1.98344 310.355C-53.6112 296.326 -114.756 290.597 -172.967 295.759C-202.082 298.341 -230.55 305.261 -259.924 306.057C-286.994 306.79 -322.832 300.185 -329.978 276.832C-336.43 255.747 -318.312 236.279 -296.528 225.111C-272.811 212.951 -244.199 205.771 -217.205 199.201C-188.437 192.199 -158.978 186.873 -129.16 183.289C-117.027 181.831 -102.676 181.789 -92.3114 176.069C-85.2052 172.148 -80.2639 164.91 -83.5808 158.266C-88.2825 148.849 -121.989 134.663 -125.742 151.25C-130.109 170.552 -88.545 169.298 -74.0258 168.969C-22.0238 167.791 32.8139 151.67 72.5242 125.793C90.7117 113.941 105.549 98.8192 111.615 80.8958C118.486 60.5925 114.063 39.1808 105.799 19.5355C101.666 9.71199 96.499 0.171278 90.94 -9.22161C89.9012 -10.977 86.5303 -9.45378 87.5638 -7.70745Z" fill="#D47293"/>
</g>
<defs>
<clipPath id="clip0_525_317">
<rect width="500" height="730" fill="white"/>
</clipPath>
</defs>
</svg>
