<svg width="192" height="192" viewBox="0 0 192 192" fill="none" xmlns="http://www.w3.org/2000/svg">
<path d="M4 31.5068H188V47.1665L180.17 47.1664V54.9962L172.34 54.9962V62.826L164.511 62.826V70.6558H117.532V62.826L109.702 62.826L109.702 54.9962L101.872 54.9962L101.872 39.3366H90.1276L90.1276 54.9962L82.2979 54.9962L82.2979 62.826L74.4681 62.826V70.6558H27.4894V62.826L19.6596 62.826V54.9962L11.8298 54.9962V47.1665H4V31.5068Z" stroke="#1F4172" stroke-width="4" stroke-linecap="round" stroke-linejoin="round"/>
<path fill-rule="evenodd" clip-rule="evenodd" d="M18.4253 32.0381H15.9766V34.4868V36.1192V38.5679H18.4253H20.0577H22.3673V40.8779V42.5104V44.9591H24.816H26.4485H28.7581V47.2691V48.9016V51.3502H31.2068H32.8392H35.2879V48.9016V47.2691V44.9591H37.5979H39.2304H41.6791V42.5104V40.8779V38.4292H39.2304H37.5979H35.2879V36.1192V34.4868V32.0381H32.8392H31.2068H28.7581V34.4868V36.1192V38.4292H26.4485H24.816H22.5064V36.1192V34.4868V32.0381H20.0577H18.4253ZM31.2068 44.8204H28.8972V42.5104V40.8779V38.5679H31.2068H32.8392H35.1492V40.8779V42.5104V44.8204H32.8392H31.2068Z" fill="#1F4172"/>
<path fill-rule="evenodd" clip-rule="evenodd" d="M98.312 32.0381H95.8633V34.4868V36.1192V38.5679H98.312H99.9444H102.254V40.8779V42.5104V44.9591H104.703H106.335H108.645V47.2691V48.9016V51.3502H111.093H112.726H115.175V48.9016V47.2691V44.9591H117.485H119.117H121.566V42.5104V40.8779V38.4292H119.117H117.485H115.175V36.1192V34.4868V32.0381H112.726H111.093H108.645V34.4868V36.1192V38.4292H106.335H104.703H102.393V36.1192V34.4868V32.0381H99.9444H98.312ZM111.093 44.8204H108.784V42.5104V40.8779V38.5679H111.093H112.726H115.036V40.8779V42.5104V44.8204H112.726H111.093Z" fill="#1F4172"/>
</svg>
