<svg width="76" height="67" viewBox="0 0 76 67" fill="none" xmlns="http://www.w3.org/2000/svg">
<g clip-path="url(#clip0_2165_1933)">
<path d="M71.9936 47.8738C71.3677 47.8932 70.7259 47.8876 70.106 47.883C69.8644 47.8812 69.6221 47.8793 69.3796 47.8787C69.3643 47.6498 69.3489 47.4372 69.3344 47.2356C69.3 46.7591 69.2702 46.3474 69.2582 45.9363C69.2281 44.8824 69.1949 43.8288 69.1586 42.7753C69.0664 39.939 68.9687 37.0066 68.9641 34.1233C68.9607 32.0822 68.8808 31.8189 66.8198 31.7267C66.5548 31.7151 66.289 31.7102 66.024 31.7043C64.9346 31.7062 63.845 31.7062 62.7557 31.7043C55.7594 31.7025 48.5201 31.7 41.4138 32.3296C41.1052 32.3511 40.7954 32.3551 40.4865 32.3416C40.3817 32.3391 40.2759 32.3366 40.1687 32.3351L39.3495 18.3286C39.4768 18.3197 39.6012 18.3101 39.7239 18.3009C40.0884 18.2733 40.4309 18.2475 40.7748 18.2426C41.2666 18.2355 41.7544 18.237 42.2438 18.2383C42.9538 18.2404 43.6863 18.2426 44.408 18.2177C46.3356 18.1516 47.0352 17.5085 47.0822 15.7615C47.2113 10.8454 47.2242 6.78816 47.124 2.99758C47.0966 1.97381 46.8455 1.25761 46.3556 0.808402C45.8152 0.312803 44.9705 0.117083 43.701 0.193896C40.0841 0.408974 36.5127 0.654785 33.1642 0.890448L32.8377 0.913176C31.8431 0.960941 30.8525 1.07002 29.8715 1.23978C28.9881 1.41184 28.507 2.02697 28.5166 2.97116C28.5347 4.73725 28.5356 6.53376 28.5365 8.27066C28.5365 10.5628 28.539 12.9332 28.5802 15.2644C28.6204 17.538 29.0351 17.8035 31.1333 18.143C31.5032 18.1986 31.8759 18.2335 32.2497 18.2475C33.3477 18.2979 34.4456 18.3433 35.5715 18.39L36.7002 18.437V32.5069C36.5979 32.5219 36.4961 32.5376 36.3928 32.5542C36.0901 32.6086 35.7842 32.6457 35.4772 32.6654C28.231 32.9905 20.985 33.3091 13.7391 33.6213C13.1379 33.6474 12.5363 33.6618 11.9348 33.6766C11.4332 33.6889 10.9312 33.7008 10.4286 33.7199C9.30426 33.762 8.67076 33.9697 8.31205 34.4152C7.96348 34.8475 7.89217 35.509 8.08029 36.5598C8.12363 36.8026 8.1725 37.045 8.22199 37.2868C8.30713 37.7056 8.39504 38.1385 8.44945 38.5659C8.86557 41.738 8.97395 44.9426 8.77311 48.1356C8.29422 48.1356 7.8224 48.1347 7.35764 48.1331C6.20682 48.1307 5.09074 48.1279 3.97434 48.139C2.25672 48.1562 1.54361 48.791 1.34381 50.4808C0.844494 54.8291 0.826134 59.2194 1.28909 63.572C1.41727 64.8164 1.96779 65.3983 3.18962 65.5811C3.82537 65.6634 4.46759 65.684 5.10733 65.6426C7.16184 65.5479 9.21626 65.449 11.2706 65.3457C13.4701 65.237 15.6696 65.1316 17.869 65.029C19.089 64.9734 19.9475 64.6455 20.4934 64.0267C21.0393 63.4079 21.2548 62.5212 21.1579 61.314C21.0605 60.0979 20.9157 58.4995 20.6606 56.9184C20.2383 54.2991 19.8126 51.9646 19.3595 49.7812C19.0613 48.3424 18.4168 47.8084 17.0523 47.8809C15.9304 47.9399 14.7919 47.9263 13.6896 47.9131C13.2636 47.9082 12.8397 47.903 12.4198 47.9021L11.0963 36.4818L37.2092 35.722V47.1518C36.9815 47.1668 36.7666 47.1825 36.5613 47.1957C36.0532 47.2307 35.6029 47.2618 35.152 47.2808C34.4416 47.3115 33.731 47.3377 33.0203 47.3641C31.7561 47.4108 30.4487 47.459 29.1633 47.5318C28.531 47.5675 28.0395 47.8243 27.848 48.2189C27.7783 48.3734 27.7529 48.5442 27.7746 48.7123C27.7963 48.8807 27.8643 49.0395 27.971 49.1713C28.4585 49.8679 28.4437 50.5773 28.428 51.3289C28.4247 51.4825 28.4213 51.6401 28.4225 51.7962C28.4305 52.8716 28.4271 53.947 28.4225 55.0224C28.4167 56.9129 28.4105 58.8676 28.4692 60.7898C28.524 61.6194 28.6627 62.4416 28.8833 63.2435C28.9583 63.5563 29.0333 63.8691 29.0984 64.1819C29.4187 65.7277 30.7118 66.0592 31.6562 66.1741C32.0115 66.2097 32.369 66.222 32.7261 66.211C32.8491 66.211 32.9702 66.2091 33.0935 66.211L33.5813 66.214C37.7302 66.2423 41.8798 66.2681 46.03 66.2915C46.4601 66.3013 46.8904 66.2733 47.3158 66.2073C48.1359 66.065 48.7174 65.728 49.0439 65.205C49.3765 64.6732 49.4238 63.9849 49.184 63.1593C49.066 62.6766 49.0116 62.181 49.0224 61.6845C48.9999 60.4312 48.9898 59.1776 48.9799 57.9237C48.9587 55.3361 48.9372 52.6605 48.8026 50.0329C48.6753 47.553 47.7197 47.1561 45.4721 47.1733C44.4095 47.1797 43.3476 47.1785 42.2096 47.1767H40.7035L40.0199 35.3849L66.4543 34.7068L65.8703 47.824H64.8661C64.093 47.8222 63.3852 47.8203 62.6779 47.8277C62.2005 47.8329 61.7223 47.832 61.2467 47.8326C60.0006 47.8305 58.7223 47.8326 57.4642 47.9279C55.8298 48.0536 55.3276 48.6426 55.3977 50.3524C55.4551 51.7559 55.5114 52.8249 55.5802 53.8185C55.6328 54.5744 55.6841 55.3305 55.7339 56.087C55.8818 58.3336 56.0349 60.6568 56.2595 62.9357C56.4892 65.2659 57.5013 66.215 59.8685 66.3207L62.4922 66.438C65.7142 66.5827 68.9364 66.7232 72.1589 66.8596C72.237 66.8627 72.3148 66.8645 72.3925 66.8645C72.8007 66.866 73.2077 66.8196 73.6048 66.7259C74.6084 66.4801 75.1552 65.9578 75.2299 65.1678C75.3892 63.478 75.4977 61.7951 75.5511 60.1667C75.5896 59.0031 75.5843 57.8202 75.5791 56.6763C75.577 56.157 75.5748 55.6381 75.5763 55.1191C75.5779 54.6936 75.5877 54.2681 75.5973 53.8419C75.6185 52.9131 75.6403 51.9529 75.5727 51.0109C75.4107 48.7688 74.3057 47.805 71.9936 47.8738ZM30.7687 50.0596H45.3581V63.1464L31.5729 63.58L30.7687 50.0596ZM3.74657 50.5835H16.0109C16.1557 51.6281 16.3358 52.6931 16.5101 53.7251C16.9426 56.2852 17.3895 58.9312 17.4079 61.7444L4.2768 62.5359C3.63285 59.0919 3.47331 55.4998 3.74657 50.5835ZM44.2054 3.96943C44.1191 6.87542 44.0256 9.78142 43.9288 12.7569L43.8578 14.9691L43.7656 14.9755C39.6925 15.2616 35.4809 15.5593 31.2783 15.5166L30.7042 3.09253H44.1225C44.1329 3.18224 44.144 3.26735 44.1532 3.34847C44.187 3.55374 44.2045 3.76139 44.2054 3.96943ZM72.0596 50.9128V63.218H59.3481L57.8911 50.2483C62.6238 50.1358 67.3583 50.3579 72.0596 50.9128Z" fill="#1F4172"/>
</g>
<defs>
<clipPath id="clip0_2165_1933">
<rect width="75" height="66.9811" fill="white" transform="translate(0.777344)"/>
</clipPath>
</defs>
</svg>
