<svg width="256" height="205" viewBox="0 0 256 205" fill="none" xmlns="http://www.w3.org/2000/svg">
<g clip-path="url(#clip0_1065_1663)">
<path d="M39.459 141.089L26.0667 145.981L25.3477 185.822L71.7071 168.887C55.8064 163.545 44.1947 154.148 39.459 141.089Z" fill="#9B9B9B"/>
<path d="M46.4667 98.9502L0 115.925L26.0659 145.981L39.4582 141.089C34.7363 128.068 37.6483 113.349 46.4667 98.9502Z" fill="#959595"/>
<path d="M124.663 41.4617C65.4916 63.0776 27.3445 107.682 39.4588 141.089L253.736 62.8105C241.622 29.4038 183.834 19.8457 124.663 41.4617Z" fill="#999999"/>
<path d="M168.532 162.438C227.703 140.822 265.922 96.4148 253.736 62.8105L39.459 141.089C51.6449 174.693 109.361 184.053 168.532 162.438Z" fill="#898989"/>
<path d="M253.736 62.8105L39.459 141.089C43.6548 152.659 59.6553 158.36 82.1057 158.36C103.993 158.36 132.011 152.946 161.221 142.275C220.392 120.659 262.023 85.6614 253.736 62.8105Z" fill="#959595"/>
<path d="M211.088 45.5396C189.2 45.5396 161.183 50.9537 131.973 61.6244C72.8016 83.2404 31.1707 118.238 39.4573 141.089L253.735 62.8106C249.539 51.2399 233.538 45.5396 211.088 45.5396Z" fill="#9B9B9B"/>
<path d="M199.254 187.932H199.253C192.948 187.932 183.647 182.237 171.608 171.006C157.365 157.719 141.049 138.258 125.666 116.207C110.283 94.1577 97.6433 72.1133 90.0742 54.1346C81.8276 34.5423 80.6518 22.4956 86.5794 18.3291C87.8791 17.4165 89.4458 16.9541 91.2357 16.9541C96.0574 16.9541 105.452 20.5439 122.825 37.6468L123.205 38.0205L123.154 38.5521C123.035 39.7808 122.925 41.0204 122.828 42.2372L122.634 44.6532L120.93 42.936C102.211 24.078 93.9713 22.0421 91.2972 22.0421C90.5346 22.0421 89.9273 22.1971 89.4919 22.5032C86.9208 24.3098 86.7553 33.1584 94.7505 52.151C102.184 69.8093 114.641 91.5202 129.825 113.284C145.009 135.05 161.075 154.224 175.064 167.274C190.148 181.345 196.946 182.865 199.168 182.865C199.936 182.865 200.559 182.7 201.022 182.374C203.734 180.469 203.737 170.99 194.821 150.547L194.412 149.609L195.308 149.118C196.204 148.628 197.071 148.145 197.884 147.683L198.957 147.073L199.452 148.206C205.774 162.691 211.683 181.101 203.934 186.549C202.628 187.466 201.053 187.932 199.254 187.932ZM199.253 185.697H199.254L199.253 186.814L199.253 185.697Z" fill="#898989"/>
<path d="M169.967 161.827L169.877 162.94C168.381 181.45 164.442 203.704 154.172 204.604C153.966 204.623 153.751 204.632 153.537 204.632C146.56 204.632 139.96 194.636 133.919 174.922C128.204 156.271 123.769 131.229 121.431 104.409C119.094 77.5944 119.129 52.1599 121.53 32.791C124.148 11.6848 129.131 0.662464 136.341 0.0297754C136.554 0.0101266 136.775 0 136.993 0C142.054 0 149.681 5.73077 157.49 32.4237L152.391 33.4078C149.784 24.4877 146.943 17.2328 144.122 12.2476C141.513 7.63655 138.976 5.09718 136.978 5.09718C136.913 5.09718 136.847 5.0999 136.781 5.10549C133.656 5.37997 129.105 12.9603 126.568 33.4203C124.209 52.4418 124.181 77.4951 126.488 103.965C128.796 130.439 133.159 155.107 138.771 173.424C141.285 181.628 144.042 188.389 146.745 192.977C149.237 197.207 151.648 199.537 153.535 199.537C153.6 199.537 153.665 199.534 153.729 199.529C156.719 199.267 162.354 191.379 164.726 163.625L169.967 161.827Z" fill="#898989"/>
</g>
<defs>
<clipPath id="clip0_1065_1663">
<rect width="256" height="205" fill="white"/>
</clipPath>
</defs>
</svg>
